<svg width="665" height="237" viewBox="0 0 665 237" fill="none" xmlns="http://www.w3.org/2000/svg">
<g clip-path="url(#clip0_17293_231697)">
<circle cx="67.3537" cy="67.3537" r="67.3537" transform="matrix(-1 0 0 1 466.355 50.6445)" stroke="#323232" stroke-width="0.80602" stroke-dasharray="1.61 1.61"/>
<circle opacity="0.7" cx="94.7162" cy="94.7162" r="94.7162" transform="matrix(-1 0 0 1 493.719 23.2852)" stroke="#323232" stroke-width="0.80602" stroke-dasharray="1.61 1.61"/>
<circle opacity="0.5" cx="122" cy="122" r="122" transform="matrix(-1 0 0 1 521 -4)" stroke="#323232" stroke-width="0.80602" stroke-dasharray="1.61 1.61"/>
<circle opacity="0.4" cx="156" cy="156" r="156" transform="matrix(-1 0 0 1 555 -38)" stroke="#323232" stroke-width="0.80602" stroke-dasharray="1.61 1.61"/>
<circle opacity="0.2" cx="220" cy="220" r="220" transform="matrix(-1 0 0 1 619 -102)" stroke="#323232" stroke-width="0.80602" stroke-dasharray="1.61 1.61"/>
<circle opacity="0.08" cx="263" cy="263" r="263" transform="matrix(-1 0 0 1 662 -145)" stroke="#323232" stroke-width="0.80602" stroke-dasharray="1.61 1.61"/>
<ellipse opacity="0.7" cx="173.646" cy="45.2533" rx="173.646" ry="45.2533" transform="matrix(-0.965926 0.258819 0.258819 0.965926 555.018 29.3438)" stroke="#3448FF" stroke-width="0.8" stroke-dasharray="2.16 2.16"/>
<ellipse opacity="0.7" cx="142.074" cy="45.2533" rx="142.074" ry="45.2533" transform="matrix(-0.866025 0.5 0.5 0.866025 499.414 7.76953)" stroke="#3448FF" stroke-width="0.8" stroke-dasharray="2.16 2.16"/>
<path d="M446.86 67.4844L448.175 68.8253L449.516 70.1396L448.175 71.4539L446.86 72.7948L445.546 71.4539L444.205 70.1396L445.546 68.8253L446.86 67.4844Z" fill="#2330AA"/>
<path d="M481.589 162.199L482.903 163.54L484.244 164.854L482.903 166.169L481.589 167.51L480.275 166.169L478.934 164.854L480.275 163.54L481.589 162.199Z" fill="#2330AA"/>
<path d="M331.119 180.09L333.463 182.482L335.854 184.826L333.463 187.17L331.119 189.561L328.775 187.17L326.383 184.826L328.775 182.482L331.119 180.09Z" fill="#3448FF"/>
<path d="M566.859 69.5898L569.203 71.9815L571.595 74.3257L569.203 76.6698L566.859 79.0615L564.515 76.6698L562.123 74.3257L564.515 71.9815L566.859 69.5898Z" fill="#3448FF"/>
<path d="M344.802 94.8477L347.146 97.2394L349.538 99.5835L347.146 101.928L344.802 104.319L342.458 101.928L340.066 99.5835L342.458 97.2394L344.802 94.8477Z" fill="#3448FF"/>
<path d="M398.472 45.3828L400.816 47.7745L403.208 50.1186L400.816 52.4627L398.472 54.8544L396.128 52.4627L393.736 50.1186L396.128 47.7745L398.472 45.3828Z" fill="#3448FF"/>
<rect width="73.6681" height="73.6681" rx="36.8341" transform="matrix(-1 0 0 1 435.836 81.168)" stroke="url(#paint0_linear_17293_231697)" stroke-width="1.0524"/>
<path d="M400.048 124.707L404.308 130.626H404.307C410.169 126.078 416.195 117.446 414.494 115.082L409.904 108.703C408.793 107.16 404.637 106.407 397.516 111.29M400.048 124.707C400.048 124.707 408.214 118.037 410.971 111.864C410.952 111.843 401.409 116.699 401.409 116.699L397.516 111.29M400.048 124.707L396.155 119.297C396.155 119.297 386.613 124.153 386.593 124.133C389.351 117.959 397.516 111.29 397.516 111.29M400.048 124.707C392.928 129.59 388.771 128.837 387.661 127.293L383.07 120.915C381.369 118.551 387.395 109.918 393.257 105.371L397.516 111.29" stroke="#646464" stroke-width="1.0524"/>
</g>
<defs>
<linearGradient id="paint0_linear_17293_231697" x1="73.6681" y1="36.8341" x2="0" y2="36.8341" gradientUnits="userSpaceOnUse">
<stop stop-color="#323232" stop-opacity="0"/>
<stop offset="0.5" stop-color="#323232"/>
<stop offset="1" stop-color="#323232" stop-opacity="0"/>
</linearGradient>
<clipPath id="clip0_17293_231697">
<path d="M0 14C0 6.26801 6.26801 0 14 0H651C658.732 0 665 6.26801 665 14V223C665 230.732 658.732 237 651 237H14C6.26803 237 0 230.732 0 223V14Z" fill="white"/>
</clipPath>
</defs>
</svg>
