<svg width="229" height="114" viewBox="0 0 229 114" fill="none" xmlns="http://www.w3.org/2000/svg">
<mask id="mask0_17293_231623" style="mask-type:alpha" maskUnits="userSpaceOnUse" x="0" y="0" width="229" height="114">
<rect y="113.5" width="113.5" height="228.689" transform="rotate(-90 0 113.5)" fill="url(#paint0_linear_17293_231623)"/>
</mask>
<g mask="url(#mask0_17293_231623)">
<path d="M234.536 -49.0234C242.505 -23.5208 235.369 -0.383786 233.357 12.2499C229.314 78.054 189.023 108.586 126.147 136.469C106.992 142.938 96.9689 148.662 82.0898 147.732" stroke="#474747" stroke-width="0.8" stroke-dasharray="2 2"/>
<path d="M116.279 160.031C108.31 134.529 100.941 114.194 102.953 101.56C106.996 35.7564 147.288 5.2244 210.164 -22.6587C229.319 -29.1275 239.342 -34.8513 254.221 -33.9214" stroke="#474747" stroke-width="0.8" stroke-dasharray="2 2"/>
<path d="M117.088 185.332C109.118 159.829 107.848 140.215 109.86 127.581C112.952 99.5441 120.182 78.3923 149.369 46.4553C176.623 16.6337 208.293 10.9184 245.906 31.4931C266.401 42.7039 293.33 46.1117 308.209 47.0416" stroke="#474747" stroke-width="0.8" stroke-dasharray="2 2"/>
<path d="M220.009 -71.7656C227.978 -46.263 229.248 -26.6482 227.236 -14.0145C224.144 14.0224 216.914 35.1742 187.727 67.1111C160.473 96.9327 128.803 102.648 91.1897 82.0733C70.695 70.8625 49.2317 54.368 33.9414 38.0579" stroke="#474747" stroke-width="0.8" stroke-dasharray="2 2"/>
<line x1="89.859" y1="-35.5915" x2="225.038" y2="154.16" stroke="#474747" stroke-width="0.8" stroke-dasharray="2 2"/>
<path d="M51.6625 115.268L260.376 10.5617" stroke="#474747" stroke-width="0.8" stroke-dasharray="2 2"/>
<line x1="114.449" y1="-35.6266" x2="249.628" y2="154.125" stroke="#474747" stroke-width="0.8" stroke-dasharray="2 2"/>
<line x1="149.988" y1="-56.2047" x2="285.167" y2="133.547" stroke="#474747" stroke-width="0.8" stroke-dasharray="2 2"/>
<line x1="53.9137" y1="-15.5407" x2="189.092" y2="174.211" stroke="#474747" stroke-width="0.8" stroke-dasharray="2 2"/>
<path d="M172.607 80.4757L187.599 101.321C208.233 85.3057 229.442 54.9026 223.454 46.577L207.296 24.1109C203.387 18.6741 188.758 16.0239 163.696 33.2204M172.607 80.4757C172.607 80.4757 201.348 56.9852 211.054 35.2434C210.985 35.1701 177.399 52.2728 177.399 52.2728L163.696 33.2204M172.607 80.4757L158.904 61.4233C158.904 61.4233 125.319 78.526 125.25 78.4527C134.956 56.7108 163.696 33.2204 163.696 33.2204M172.607 80.4757C147.545 97.6722 132.916 95.022 129.007 89.5852L112.847 67.119C106.86 58.7935 128.072 28.3904 148.704 12.375L163.696 33.2204" stroke="#474747" stroke-width="0.8"/>
<path d="M211.056 35.2418C201.35 56.9836 172.61 80.4741 172.61 80.4741L158.907 61.4216C158.907 61.4216 125.321 78.5243 125.252 78.4511C134.958 56.7092 163.698 33.2188 163.698 33.2188L177.401 52.2712C177.401 52.2712 210.987 35.1685 211.056 35.2418Z" stroke="#3448FF" stroke-width="0.8"/>
</g>
<defs>
<linearGradient id="paint0_linear_17293_231623" x1="56.75" y1="132.109" x2="56.75" y2="337.804" gradientUnits="userSpaceOnUse">
<stop offset="0.432692" stop-opacity="0"/>
<stop offset="1" stop-color="white"/>
</linearGradient>
</defs>
</svg>
