<svg width="229" height="114" viewBox="0 0 229 114" fill="none" xmlns="http://www.w3.org/2000/svg">
<mask id="mask0_17293_231637" style="mask-type:alpha" maskUnits="userSpaceOnUse" x="0" y="0" width="229" height="114">
<rect y="113.559" width="113.559" height="228.072" transform="rotate(-90 0 113.559)" fill="url(#paint0_linear_17293_231637)"/>
</mask>
<g mask="url(#mask0_17293_231637)">
<path opacity="0.9" d="M237.137 92.4414H74.9234" stroke="#474747" stroke-width="0.711461" stroke-dasharray="1.42 1.42"/>
<path opacity="0.9" d="M237.137 20.582H74.9236" stroke="#474747" stroke-width="0.711461" stroke-dasharray="1.42 1.42"/>
<path d="M155.673 82.125C150.899 82.1248 146.622 79.202 143.555 74.5684C140.485 69.9318 138.599 63.5471 138.599 56.5127C138.599 49.4783 140.485 43.0936 143.555 38.457C146.622 33.8234 150.899 30.9005 155.673 30.9004C160.447 30.9004 164.725 33.8232 167.792 38.457C170.861 43.0936 172.748 49.4783 172.748 56.5127C172.748 63.5471 170.861 69.9318 167.792 74.5684C164.725 79.2021 160.447 82.125 155.673 82.125Z" stroke="#3448FF" stroke-width="0.711461"/>
<path d="M155.673 82.125C154.627 82.1248 153.741 81.251 153.01 79.96C152.263 78.6404 151.601 76.7546 151.051 74.4551C149.948 69.8502 149.271 63.5066 149.271 56.5127C149.271 49.5188 149.948 43.1752 151.051 38.5703C151.601 36.2708 152.263 34.385 153.01 33.0654C153.741 31.7744 154.627 30.9006 155.673 30.9004C156.719 30.9004 157.606 31.7742 158.337 33.0654C159.084 34.385 159.744 36.2709 160.295 38.5703C161.398 43.1752 162.076 49.5188 162.076 56.5127C162.076 63.5066 161.397 69.8502 160.295 74.4551C159.744 76.7545 159.084 78.6404 158.337 79.96C157.606 81.2512 156.719 82.125 155.673 82.125Z" stroke="#3448FF" stroke-width="0.711461"/>
<path opacity="0.9" d="M237.141 56.1563L74.9246 56.1563" stroke="#474747" stroke-width="0.711461" stroke-dasharray="1.42 1.42"/>
<path d="M217.928 92.4414L94.1335 20.5838" stroke="#3448FF" stroke-width="0.711461" stroke-dasharray="1.42 1.42"/>
<path d="M155.865 128.082L156.199 -15.0557" stroke="#3448FF" stroke-width="0.711461" stroke-dasharray="1.42 1.42"/>
<path d="M217.929 20.5824L94.1348 92.44" stroke="#3448FF" stroke-width="0.711461" stroke-dasharray="1.42 1.42"/>
<path d="M156.031 51.1797L153.566 53.6948L151.051 56.1599L153.566 58.625L156.031 61.1401L158.497 58.625L161.012 56.1599L158.497 53.6948L156.031 51.1797Z" fill="#3448FF"/>
<circle cx="155.743" cy="56.6004" r="25.5795" transform="rotate(-180 155.743 56.6004)" stroke="#3448FF" stroke-width="0.711461"/>
<path d="M217.928 18.4492L216.872 19.5271L215.794 20.5836L216.872 21.6401L217.928 22.718L218.985 21.6401L220.062 20.5836L218.985 19.5271L217.928 18.4492Z" fill="#3448FF"/>
<path d="M217.928 90.3047L216.872 91.3826L215.794 92.4391L216.872 93.4955L217.928 94.5735L218.985 93.4955L220.062 92.4391L218.985 91.3826L217.928 90.3047Z" fill="#3448FF"/>
<path d="M94.1332 18.4492L93.0767 19.5271L91.9988 20.5836L93.0767 21.6401L94.1332 22.718L95.1897 21.6401L96.2676 20.5836L95.1897 19.5271L94.1332 18.4492Z" fill="#3448FF"/>
<path d="M94.1332 90.3047L93.0767 91.3826L91.9988 92.4391L93.0767 93.4955L94.1332 94.5735L95.1897 93.4955L96.2676 92.4391L95.1897 91.3826L94.1332 90.3047Z" fill="#3448FF"/>
</g>
<defs>
<linearGradient id="paint0_linear_17293_231637" x1="56.7793" y1="172.686" x2="56.7793" y2="341.631" gradientUnits="userSpaceOnUse">
<stop offset="0.129808" stop-opacity="0"/>
<stop offset="1" stop-color="white"/>
</linearGradient>
</defs>
</svg>
