<svg width="317" height="317" viewBox="0 0 317 317" fill="none" xmlns="http://www.w3.org/2000/svg">
<circle cx="158.499" cy="157.528" r="97.4226" stroke="url(#paint0_linear_17295_232103)" stroke-width="1.53393"/>
<ellipse cx="158.487" cy="158.49" rx="79.6176" ry="80.5022" stroke="#474747" stroke-width="0.712621" stroke-dasharray="1.43 1.43"/>
<ellipse cx="158.489" cy="158.493" rx="129.092" ry="128.196" stroke="#474747" stroke-width="0.712621" stroke-dasharray="1.43 1.43"/>
<circle cx="158.396" cy="158.396" r="112.003" transform="rotate(45 158.396 158.396)" stroke="url(#paint1_linear_17295_232103)" stroke-width="1.53393"/>
<path d="M286.486 158.398H239.042M30.2871 158.398H77.7313" stroke="#474747" stroke-width="0.712621" stroke-dasharray="1.43 1.43"/>
<path d="M222.435 269.336L198.713 228.248M94.3359 47.4609L118.058 88.5489" stroke="#474747" stroke-width="0.712621" stroke-dasharray="1.43 1.43"/>
<path d="M269.324 222.447L228.236 198.725M47.4492 94.3477L88.5371 118.07" stroke="#474747" stroke-width="0.712621" stroke-dasharray="1.43 1.43"/>
<path d="M158.387 286.496L158.387 239.051M158.387 30.2969L158.387 77.7411" stroke="#474747" stroke-width="0.712621" stroke-dasharray="1.43 1.43"/>
<path d="M282.121 191.555L236.294 179.276M34.6523 125.246L80.48 137.526" stroke="#474747" stroke-width="0.712621" stroke-dasharray="1.43 1.43"/>
<path d="M191.542 282.133L179.262 236.306M125.232 34.6641L137.512 80.4917" stroke="#474747" stroke-width="0.712621" stroke-dasharray="1.43 1.43"/>
<path d="M248.969 248.976L215.42 215.428M67.8086 67.8164L101.357 101.365" stroke="#474747" stroke-width="0.712621" stroke-dasharray="1.43 1.43"/>
<path d="M125.232 282.133L137.511 236.306M191.541 34.6641L179.262 80.4917" stroke="#474747" stroke-width="0.712621" stroke-dasharray="1.43 1.43"/>
<path d="M94.3361 269.336L118.058 228.248M222.436 47.4609L198.713 88.5488" stroke="#474747" stroke-width="0.712621" stroke-dasharray="1.43 1.43"/>
<path d="M47.4514 222.447L88.5394 198.725M269.326 94.3477L228.238 118.07" stroke="#474747" stroke-width="0.712621" stroke-dasharray="1.43 1.43"/>
<path d="M67.8088 248.976L101.357 215.428M248.969 67.8164L215.421 101.365" stroke="#474747" stroke-width="0.712621" stroke-dasharray="1.43 1.43"/>
<path d="M34.654 191.555L80.4816 179.276M282.123 125.246L236.295 137.526" stroke="#474747" stroke-width="0.712621" stroke-dasharray="1.43 1.43"/>
<g clip-path="url(#clip0_17295_232103)">
<rect width="4.65816" height="4.65816" transform="translate(155.09 78.1797) rotate(-45)" fill="#474747"/>
</g>
<g clip-path="url(#clip1_17295_232103)">
<rect width="4.27573" height="4.27573" transform="translate(75.8457 158.57) rotate(-45)" fill="#474747"/>
</g>
<g clip-path="url(#clip2_17295_232103)">
<rect width="4.65816" height="4.65816" transform="translate(234.471 158.586) rotate(-45)" fill="#474747"/>
</g>
<g clip-path="url(#clip3_17295_232103)">
<rect width="4.65816" height="4.65816" transform="translate(264.553 94.9258) rotate(-45)" fill="#474747"/>
</g>
<g clip-path="url(#clip4_17295_232103)">
<rect width="4.65816" height="4.65816" transform="translate(266.303 222.25) rotate(-45)" fill="#474747"/>
</g>
<g clip-path="url(#clip5_17295_232103)">
<rect width="4.65816" height="4.65816" transform="translate(44.0449 224.09) rotate(-74.9403)" fill="#474747"/>
</g>
<g clip-path="url(#clip6_17295_232103)">
<rect width="4.65816" height="4.65816" transform="translate(155.285 238.996) rotate(-45)" fill="#474747"/>
</g>
<path d="M185.164 132.061L193.506 136.878C193.984 137.154 194.148 137.765 193.872 138.244L169.839 179.871C169.74 180.041 169.593 180.179 169.416 180.267L161.638 184.106C160.999 184.422 160.243 183.986 160.197 183.274L159.633 174.618C159.62 174.421 159.666 174.225 159.764 174.054L183.798 132.427C184.074 131.949 184.685 131.785 185.164 132.061Z" stroke="#3448FF" stroke-width="2"/>
<line x1="179.33" y1="138.329" x2="191.065" y2="145.105" stroke="#3448FF" stroke-width="2"/>
<line x1="156.096" y1="184.23" x2="123.351" y2="184.23" stroke="#3448FF" stroke-width="2" stroke-linecap="round"/>
<line x1="158.73" y1="164.027" x2="123.35" y2="164.027" stroke="#2330AA" stroke-width="2" stroke-linecap="round"/>
<line x1="169.992" y1="143.82" x2="123.35" y2="143.82" stroke="#1A2480" stroke-width="2" stroke-linecap="round"/>
<line x1="153.938" y1="174.129" x2="123.35" y2="174.129" stroke="#2B3CD5" stroke-width="2" stroke-linecap="round"/>
<line x1="163.643" y1="153.922" x2="123.35" y2="153.922" stroke="#1A2480" stroke-width="2" stroke-linecap="round"/>
<line x1="176.342" y1="133.719" x2="123.35" y2="133.719" stroke="#1A2480" stroke-width="2" stroke-linecap="round"/>
<defs>
<linearGradient id="paint0_linear_17295_232103" x1="255.921" y1="157.528" x2="61.0762" y2="157.528" gradientUnits="userSpaceOnUse">
<stop stop-color="#3448FF" stop-opacity="0"/>
<stop offset="0.5" stop-color="#3448FF"/>
<stop offset="1" stop-color="#3448FF" stop-opacity="0"/>
</linearGradient>
<linearGradient id="paint1_linear_17295_232103" x1="270.399" y1="158.396" x2="46.3939" y2="158.396" gradientUnits="userSpaceOnUse">
<stop stop-color="#3448FF" stop-opacity="0"/>
<stop offset="0.5" stop-color="#3448FF"/>
<stop offset="1" stop-color="#3448FF" stop-opacity="0"/>
</linearGradient>
<clipPath id="clip0_17295_232103">
<rect width="4.65816" height="4.65816" fill="white" transform="translate(155.09 78.1797) rotate(-45)"/>
</clipPath>
<clipPath id="clip1_17295_232103">
<rect width="4.27573" height="4.27573" fill="white" transform="translate(75.8457 158.57) rotate(-45)"/>
</clipPath>
<clipPath id="clip2_17295_232103">
<rect width="4.65816" height="4.65816" fill="white" transform="translate(234.471 158.586) rotate(-45)"/>
</clipPath>
<clipPath id="clip3_17295_232103">
<rect width="4.65816" height="4.65816" fill="white" transform="translate(264.553 94.9258) rotate(-45)"/>
</clipPath>
<clipPath id="clip4_17295_232103">
<rect width="4.65816" height="4.65816" fill="white" transform="translate(266.303 222.25) rotate(-45)"/>
</clipPath>
<clipPath id="clip5_17295_232103">
<rect width="4.65816" height="4.65816" fill="white" transform="translate(44.0449 224.09) rotate(-74.9403)"/>
</clipPath>
<clipPath id="clip6_17295_232103">
<rect width="4.65816" height="4.65816" fill="white" transform="translate(155.285 238.996) rotate(-45)"/>
</clipPath>
</defs>
</svg>
