<svg width="317" height="317" viewBox="0 0 317 317" fill="none" xmlns="http://www.w3.org/2000/svg">
<circle cx="158.499" cy="157.528" r="97.4226" stroke="url(#paint0_linear_17295_232187)" stroke-width="1.53393"/>
<ellipse cx="158.489" cy="158.49" rx="79.6176" ry="80.5022" stroke="#474747" stroke-width="0.712621" stroke-dasharray="1.43 1.43"/>
<ellipse cx="158.489" cy="158.493" rx="129.092" ry="128.196" stroke="#474747" stroke-width="0.712621" stroke-dasharray="1.43 1.43"/>
<circle cx="158.396" cy="158.396" r="112.003" transform="rotate(45 158.396 158.396)" stroke="url(#paint1_linear_17295_232187)" stroke-width="1.53393"/>
<path d="M286.486 158.398H239.042M30.2871 158.398H77.7313" stroke="#474747" stroke-width="0.712621" stroke-dasharray="1.43 1.43"/>
<path d="M222.435 269.336L198.713 228.248M94.3359 47.4609L118.058 88.5489" stroke="#474747" stroke-width="0.712621" stroke-dasharray="1.43 1.43"/>
<path d="M269.324 222.447L228.236 198.725M47.4492 94.3477L88.5371 118.07" stroke="#474747" stroke-width="0.712621" stroke-dasharray="1.43 1.43"/>
<path d="M158.387 286.496L158.387 239.051M158.387 30.2969L158.387 77.7411" stroke="#474747" stroke-width="0.712621" stroke-dasharray="1.43 1.43"/>
<path d="M282.121 191.555L236.294 179.276M34.6523 125.246L80.48 137.526" stroke="#474747" stroke-width="0.712621" stroke-dasharray="1.43 1.43"/>
<path d="M191.542 282.133L179.262 236.306M125.232 34.6641L137.512 80.4917" stroke="#474747" stroke-width="0.712621" stroke-dasharray="1.43 1.43"/>
<path d="M248.969 248.976L215.42 215.428M67.8086 67.8164L101.357 101.365" stroke="#474747" stroke-width="0.712621" stroke-dasharray="1.43 1.43"/>
<path d="M125.232 282.133L137.511 236.306M191.541 34.6641L179.262 80.4917" stroke="#474747" stroke-width="0.712621" stroke-dasharray="1.43 1.43"/>
<path d="M94.3361 269.336L118.058 228.248M222.436 47.4609L198.713 88.5488" stroke="#474747" stroke-width="0.712621" stroke-dasharray="1.43 1.43"/>
<path d="M47.4514 222.447L88.5394 198.725M269.326 94.3477L228.238 118.07" stroke="#474747" stroke-width="0.712621" stroke-dasharray="1.43 1.43"/>
<path d="M67.8088 248.976L101.357 215.428M248.969 67.8164L215.421 101.365" stroke="#474747" stroke-width="0.712621" stroke-dasharray="1.43 1.43"/>
<path d="M34.654 191.555L80.4816 179.276M282.123 125.246L236.295 137.526" stroke="#474747" stroke-width="0.712621" stroke-dasharray="1.43 1.43"/>
<g clip-path="url(#clip0_17295_232187)">
<rect width="4.65816" height="4.65816" transform="translate(155.092 78.1797) rotate(-45)" fill="#474747"/>
</g>
<g clip-path="url(#clip1_17295_232187)">
<rect width="4.27573" height="4.27573" transform="translate(75.8477 158.57) rotate(-45)" fill="#474747"/>
</g>
<g clip-path="url(#clip2_17295_232187)">
<rect width="4.65816" height="4.65816" transform="translate(234.473 158.586) rotate(-45)" fill="#474747"/>
</g>
<g clip-path="url(#clip3_17295_232187)">
<rect width="4.65816" height="4.65816" transform="translate(264.555 94.9258) rotate(-45)" fill="#474747"/>
</g>
<g clip-path="url(#clip4_17295_232187)">
<rect width="4.65816" height="4.65816" transform="translate(266.305 222.25) rotate(-45)" fill="#474747"/>
</g>
<g clip-path="url(#clip5_17295_232187)">
<rect width="4.65816" height="4.65816" transform="translate(44.0469 224.09) rotate(-74.9403)" fill="#474747"/>
</g>
<g clip-path="url(#clip6_17295_232187)">
<rect width="4.65816" height="4.65816" transform="translate(155.287 238.996) rotate(-45)" fill="#474747"/>
</g>
<g clip-path="url(#clip7_17295_232187)">
<line x1="158.039" y1="145.766" x2="158.039" y2="161.528" stroke="#3448FF" stroke-width="2" stroke-linecap="round"/>
<line x1="173.391" y1="154.645" x2="173.391" y2="170.407" stroke="#3448FF" stroke-width="2" stroke-linecap="round"/>
<line x1="188.744" y1="142.523" x2="188.744" y2="158.286" stroke="#3448FF" stroke-width="2" stroke-linecap="round"/>
<line x1="183.627" y1="148.922" x2="183.627" y2="176.133" stroke="#2330AA" stroke-width="2" stroke-linecap="round"/>
<line x1="178.51" y1="145.766" x2="178.51" y2="184.255" stroke="#1A2480" stroke-width="2" stroke-linecap="round"/>
<line x1="152.92" y1="151.402" x2="152.92" y2="178.613" stroke="#2330AA" stroke-width="2" stroke-linecap="round"/>
<line x1="168.273" y1="140.039" x2="168.273" y2="167.25" stroke="#2330AA" stroke-width="2" stroke-linecap="round"/>
<line x1="147.803" y1="159.562" x2="147.803" y2="184.254" stroke="#1A2480" stroke-width="2" stroke-linecap="round"/>
<line x1="163.156" y1="133.004" x2="163.156" y2="155.888" stroke="#1A2480" stroke-width="2" stroke-linecap="round"/>
<line x1="142.686" y1="151.402" x2="142.686" y2="167.164" stroke="#3448FF" stroke-width="2" stroke-linecap="round"/>
<line x1="137.568" y1="138.645" x2="137.568" y2="165.856" stroke="#2330AA" stroke-width="2" stroke-linecap="round"/>
<line x1="132.449" y1="133.004" x2="132.449" y2="171.493" stroke="#1A2480" stroke-width="2" stroke-linecap="round"/>
<line x1="127.332" y1="153.25" x2="127.332" y2="169.012" stroke="#3448FF" stroke-width="2" stroke-linecap="round"/>
</g>
<defs>
<linearGradient id="paint0_linear_17295_232187" x1="255.921" y1="157.528" x2="61.0762" y2="157.528" gradientUnits="userSpaceOnUse">
<stop stop-color="#3448FF" stop-opacity="0"/>
<stop offset="0.5" stop-color="#3448FF"/>
<stop offset="1" stop-color="#3448FF" stop-opacity="0"/>
</linearGradient>
<linearGradient id="paint1_linear_17295_232187" x1="270.399" y1="158.396" x2="46.3939" y2="158.396" gradientUnits="userSpaceOnUse">
<stop stop-color="#3448FF" stop-opacity="0"/>
<stop offset="0.5" stop-color="#3448FF"/>
<stop offset="1" stop-color="#3448FF" stop-opacity="0"/>
</linearGradient>
<clipPath id="clip0_17295_232187">
<rect width="4.65816" height="4.65816" fill="white" transform="translate(155.092 78.1797) rotate(-45)"/>
</clipPath>
<clipPath id="clip1_17295_232187">
<rect width="4.27573" height="4.27573" fill="white" transform="translate(75.8477 158.57) rotate(-45)"/>
</clipPath>
<clipPath id="clip2_17295_232187">
<rect width="4.65816" height="4.65816" fill="white" transform="translate(234.473 158.586) rotate(-45)"/>
</clipPath>
<clipPath id="clip3_17295_232187">
<rect width="4.65816" height="4.65816" fill="white" transform="translate(264.555 94.9258) rotate(-45)"/>
</clipPath>
<clipPath id="clip4_17295_232187">
<rect width="4.65816" height="4.65816" fill="white" transform="translate(266.305 222.25) rotate(-45)"/>
</clipPath>
<clipPath id="clip5_17295_232187">
<rect width="4.65816" height="4.65816" fill="white" transform="translate(44.0469 224.09) rotate(-74.9403)"/>
</clipPath>
<clipPath id="clip6_17295_232187">
<rect width="4.65816" height="4.65816" fill="white" transform="translate(155.287 238.996) rotate(-45)"/>
</clipPath>
<clipPath id="clip7_17295_232187">
<rect width="65" height="54" fill="white" transform="translate(125.988 131.488)"/>
</clipPath>
</defs>
</svg>
