<svg width="317" height="317" viewBox="0 0 317 317" fill="none" xmlns="http://www.w3.org/2000/svg">
<circle cx="158.499" cy="157.528" r="97.4226" stroke="url(#paint0_linear_17295_232147)" stroke-width="1.53393"/>
<ellipse cx="158.489" cy="158.49" rx="79.6176" ry="80.5022" stroke="#474747" stroke-width="0.712621" stroke-dasharray="1.43 1.43"/>
<ellipse cx="158.489" cy="158.493" rx="129.092" ry="128.196" stroke="#474747" stroke-width="0.712621" stroke-dasharray="1.43 1.43"/>
<circle cx="158.396" cy="158.396" r="112.003" transform="rotate(45 158.396 158.396)" stroke="url(#paint1_linear_17295_232147)" stroke-width="1.53393"/>
<path d="M286.486 158.398H239.042M30.2871 158.398H77.7313" stroke="#474747" stroke-width="0.712621" stroke-dasharray="1.43 1.43"/>
<path d="M222.435 269.336L198.713 228.248M94.3359 47.4609L118.058 88.5489" stroke="#474747" stroke-width="0.712621" stroke-dasharray="1.43 1.43"/>
<path d="M269.324 222.447L228.236 198.725M47.4492 94.3477L88.5371 118.07" stroke="#474747" stroke-width="0.712621" stroke-dasharray="1.43 1.43"/>
<path d="M158.387 286.496L158.387 239.051M158.387 30.2969L158.387 77.7411" stroke="#474747" stroke-width="0.712621" stroke-dasharray="1.43 1.43"/>
<path d="M282.121 191.555L236.294 179.276M34.6523 125.246L80.48 137.526" stroke="#474747" stroke-width="0.712621" stroke-dasharray="1.43 1.43"/>
<path d="M191.542 282.133L179.262 236.306M125.232 34.6641L137.512 80.4917" stroke="#474747" stroke-width="0.712621" stroke-dasharray="1.43 1.43"/>
<path d="M248.969 248.976L215.42 215.428M67.8086 67.8164L101.357 101.365" stroke="#474747" stroke-width="0.712621" stroke-dasharray="1.43 1.43"/>
<path d="M125.232 282.133L137.511 236.306M191.541 34.6641L179.262 80.4917" stroke="#474747" stroke-width="0.712621" stroke-dasharray="1.43 1.43"/>
<path d="M94.3361 269.336L118.058 228.248M222.436 47.4609L198.713 88.5488" stroke="#474747" stroke-width="0.712621" stroke-dasharray="1.43 1.43"/>
<path d="M47.4514 222.447L88.5394 198.725M269.326 94.3477L228.238 118.07" stroke="#474747" stroke-width="0.712621" stroke-dasharray="1.43 1.43"/>
<path d="M67.8088 248.976L101.357 215.428M248.969 67.8164L215.421 101.365" stroke="#474747" stroke-width="0.712621" stroke-dasharray="1.43 1.43"/>
<path d="M34.654 191.555L80.4816 179.276M282.123 125.246L236.295 137.526" stroke="#474747" stroke-width="0.712621" stroke-dasharray="1.43 1.43"/>
<g clip-path="url(#clip0_17295_232147)">
<rect width="4.65816" height="4.65816" transform="translate(155.092 78.1797) rotate(-45)" fill="#474747"/>
</g>
<g clip-path="url(#clip1_17295_232147)">
<rect width="4.27573" height="4.27573" transform="translate(75.8477 158.57) rotate(-45)" fill="#474747"/>
</g>
<g clip-path="url(#clip2_17295_232147)">
<rect width="4.65816" height="4.65816" transform="translate(234.473 158.586) rotate(-45)" fill="#474747"/>
</g>
<g clip-path="url(#clip3_17295_232147)">
<rect width="4.65816" height="4.65816" transform="translate(264.555 94.9258) rotate(-45)" fill="#474747"/>
</g>
<g clip-path="url(#clip4_17295_232147)">
<rect width="4.65816" height="4.65816" transform="translate(266.305 222.25) rotate(-45)" fill="#474747"/>
</g>
<g clip-path="url(#clip5_17295_232147)">
<rect width="4.65816" height="4.65816" transform="translate(44.0469 224.09) rotate(-74.9403)" fill="#474747"/>
</g>
<g clip-path="url(#clip6_17295_232147)">
<rect width="4.65816" height="4.65816" transform="translate(155.287 238.996) rotate(-45)" fill="#474747"/>
</g>
<path d="M128.918 136.492L146.575 126.298C147.135 125.975 147.66 125.985 147.985 126.324L153.924 132.519C154.133 132.737 154.245 133.078 154.245 133.494L154.245 166.077C154.245 167.181 153.47 168.524 152.513 169.077L128.918 182.699C127.962 183.251 127.187 182.804 127.186 181.699L127.186 139.492C127.186 138.388 127.962 137.044 128.918 136.492Z" stroke="#1A2480" stroke-width="2"/>
<path d="M140.872 140.473L158.528 130.279C159.088 129.955 159.613 129.965 159.938 130.304L165.877 136.5C166.086 136.718 166.198 137.058 166.199 137.474L166.199 170.057C166.198 171.162 165.423 172.505 164.466 173.057L140.872 186.68C139.915 187.232 139.14 186.784 139.139 185.68L139.139 143.473C139.139 142.368 139.915 141.025 140.872 140.473Z" stroke="#2330AA" stroke-width="2"/>
<path d="M152.827 144.453L170.483 134.259C171.043 133.936 171.569 133.946 171.894 134.285L177.832 140.48C178.041 140.698 178.154 141.039 178.154 141.455L178.154 174.038C178.153 175.142 177.378 176.485 176.422 177.038L152.827 190.66C151.87 191.212 151.095 190.764 151.095 189.66L151.095 147.453C151.095 146.349 151.87 145.005 152.827 144.453Z" stroke="#2B3CD5" stroke-width="2"/>
<path d="M164.78 148.434L182.436 138.24C182.996 137.916 183.522 137.926 183.847 138.265L189.785 144.46C189.994 144.678 190.107 145.019 190.107 145.435L190.107 178.018C190.107 179.123 189.331 180.466 188.375 181.018L164.78 194.641C163.823 195.193 163.048 194.745 163.048 193.641L163.048 151.434C163.048 150.329 163.823 148.986 164.78 148.434Z" stroke="#3448FF" stroke-width="2"/>
<defs>
<linearGradient id="paint0_linear_17295_232147" x1="255.921" y1="157.528" x2="61.0762" y2="157.528" gradientUnits="userSpaceOnUse">
<stop stop-color="#3448FF" stop-opacity="0"/>
<stop offset="0.5" stop-color="#3448FF"/>
<stop offset="1" stop-color="#3448FF" stop-opacity="0"/>
</linearGradient>
<linearGradient id="paint1_linear_17295_232147" x1="270.399" y1="158.396" x2="46.3939" y2="158.396" gradientUnits="userSpaceOnUse">
<stop stop-color="#3448FF" stop-opacity="0"/>
<stop offset="0.5" stop-color="#3448FF"/>
<stop offset="1" stop-color="#3448FF" stop-opacity="0"/>
</linearGradient>
<clipPath id="clip0_17295_232147">
<rect width="4.65816" height="4.65816" fill="white" transform="translate(155.092 78.1797) rotate(-45)"/>
</clipPath>
<clipPath id="clip1_17295_232147">
<rect width="4.27573" height="4.27573" fill="white" transform="translate(75.8477 158.57) rotate(-45)"/>
</clipPath>
<clipPath id="clip2_17295_232147">
<rect width="4.65816" height="4.65816" fill="white" transform="translate(234.473 158.586) rotate(-45)"/>
</clipPath>
<clipPath id="clip3_17295_232147">
<rect width="4.65816" height="4.65816" fill="white" transform="translate(264.555 94.9258) rotate(-45)"/>
</clipPath>
<clipPath id="clip4_17295_232147">
<rect width="4.65816" height="4.65816" fill="white" transform="translate(266.305 222.25) rotate(-45)"/>
</clipPath>
<clipPath id="clip5_17295_232147">
<rect width="4.65816" height="4.65816" fill="white" transform="translate(44.0469 224.09) rotate(-74.9403)"/>
</clipPath>
<clipPath id="clip6_17295_232147">
<rect width="4.65816" height="4.65816" fill="white" transform="translate(155.287 238.996) rotate(-45)"/>
</clipPath>
</defs>
</svg>
