<svg width="317" height="317" viewBox="0 0 317 317" fill="none" xmlns="http://www.w3.org/2000/svg">
<circle cx="158.499" cy="157.528" r="97.4226" stroke="url(#paint0_linear_17295_232237)" stroke-width="1.53393"/>
<ellipse cx="158.487" cy="158.49" rx="79.6176" ry="80.5022" stroke="#474747" stroke-width="0.712621" stroke-dasharray="1.43 1.43"/>
<ellipse cx="158.489" cy="158.493" rx="129.092" ry="128.196" stroke="#474747" stroke-width="0.712621" stroke-dasharray="1.43 1.43"/>
<circle cx="158.396" cy="158.396" r="112.003" transform="rotate(45 158.396 158.396)" stroke="url(#paint1_linear_17295_232237)" stroke-width="1.53393"/>
<path d="M286.488 158.398H239.044M30.2891 158.398H77.7333" stroke="#474747" stroke-width="0.712621" stroke-dasharray="1.43 1.43"/>
<path d="M222.437 269.336L198.715 228.248M94.3379 47.4609L118.06 88.5489" stroke="#474747" stroke-width="0.712621" stroke-dasharray="1.43 1.43"/>
<path d="M269.326 222.447L228.238 198.725M47.4512 94.3477L88.5391 118.07" stroke="#474747" stroke-width="0.712621" stroke-dasharray="1.43 1.43"/>
<path d="M158.389 286.496L158.389 239.051M158.389 30.2969L158.389 77.7411" stroke="#474747" stroke-width="0.712621" stroke-dasharray="1.43 1.43"/>
<path d="M282.123 191.555L236.296 179.276M34.6543 125.246L80.4819 137.526" stroke="#474747" stroke-width="0.712621" stroke-dasharray="1.43 1.43"/>
<path d="M191.544 282.133L179.264 236.306M125.234 34.6641L137.514 80.4917" stroke="#474747" stroke-width="0.712621" stroke-dasharray="1.43 1.43"/>
<path d="M248.97 248.976L215.422 215.428M67.8105 67.8164L101.359 101.365" stroke="#474747" stroke-width="0.712621" stroke-dasharray="1.43 1.43"/>
<path d="M125.234 282.133L137.513 236.306M191.543 34.6641L179.263 80.4917" stroke="#474747" stroke-width="0.712621" stroke-dasharray="1.43 1.43"/>
<path d="M94.3381 269.336L118.06 228.248M222.438 47.4609L198.715 88.5488" stroke="#474747" stroke-width="0.712621" stroke-dasharray="1.43 1.43"/>
<path d="M47.4534 222.447L88.5413 198.725M269.328 94.3477L228.24 118.07" stroke="#474747" stroke-width="0.712621" stroke-dasharray="1.43 1.43"/>
<path d="M67.8107 248.976L101.359 215.428M248.971 67.8164L215.423 101.365" stroke="#474747" stroke-width="0.712621" stroke-dasharray="1.43 1.43"/>
<path d="M34.6559 191.555L80.4835 179.276M282.125 125.246L236.297 137.526" stroke="#474747" stroke-width="0.712621" stroke-dasharray="1.43 1.43"/>
<g clip-path="url(#clip0_17295_232237)">
<rect width="4.65816" height="4.65816" transform="translate(155.09 78.1797) rotate(-45)" fill="#474747"/>
</g>
<g clip-path="url(#clip1_17295_232237)">
<rect width="4.27573" height="4.27573" transform="translate(75.8457 158.57) rotate(-45)" fill="#474747"/>
</g>
<g clip-path="url(#clip2_17295_232237)">
<rect width="4.65816" height="4.65816" transform="translate(234.471 158.586) rotate(-45)" fill="#474747"/>
</g>
<g clip-path="url(#clip3_17295_232237)">
<rect width="4.65816" height="4.65816" transform="translate(264.553 94.9258) rotate(-45)" fill="#474747"/>
</g>
<g clip-path="url(#clip4_17295_232237)">
<rect width="4.65816" height="4.65816" transform="translate(266.303 222.25) rotate(-45)" fill="#474747"/>
</g>
<g clip-path="url(#clip5_17295_232237)">
<rect width="4.65816" height="4.65816" transform="translate(44.0449 224.09) rotate(-74.9403)" fill="#474747"/>
</g>
<g clip-path="url(#clip6_17295_232237)">
<rect width="4.65816" height="4.65816" transform="translate(155.283 238.996) rotate(-45)" fill="#474747"/>
</g>
<rect x="121.082" y="134.594" width="74" height="48" rx="6" stroke="#3448FF" stroke-width="2" stroke-linecap="round"/>
<rect x="155.082" y="126.594" width="6" height="12" rx="1" fill="#101010" stroke="#3448FF" stroke-width="2" stroke-linecap="round"/>
<rect x="171.484" y="129.383" width="6" height="12" rx="1" transform="rotate(30 171.484 129.383)" fill="#101010" stroke="#2B3CD5" stroke-width="2" stroke-linecap="round"/>
<rect x="184.293" y="139.996" width="6" height="12" rx="1" transform="rotate(60 184.293 139.996)" fill="#101010" stroke="#2330AA" stroke-width="2" stroke-linecap="round"/>
<rect x="190.082" y="155.594" width="6" height="12" rx="1" transform="rotate(90 190.082 155.594)" fill="#101010" stroke="#1A2480" stroke-width="2" stroke-linecap="round"/>
<rect x="187.293" y="171.996" width="6" height="12" rx="1" transform="rotate(120 187.293 171.996)" fill="#101010" stroke="#1A2480" stroke-width="2" stroke-linecap="round"/>
<rect x="176.68" y="184.805" width="6" height="12" rx="1" transform="rotate(150 176.68 184.805)" fill="#101010" stroke="#3448FF" stroke-width="2" stroke-linecap="round"/>
<rect x="155.082" y="178.594" width="6" height="12" rx="1" fill="#101010" stroke="#3448FF" stroke-width="2" stroke-linecap="round"/>
<rect x="145.484" y="174.414" width="6" height="12" rx="1" transform="rotate(30 145.484 174.414)" fill="#101010" stroke="#2B3CD5" stroke-width="2" stroke-linecap="round"/>
<rect x="139.262" y="165.996" width="6" height="12" rx="1" transform="rotate(60 139.262 165.996)" fill="#101010" stroke="#2330AA" stroke-width="2" stroke-linecap="round"/>
<rect x="138.082" y="155.594" width="6" height="12" rx="1" transform="rotate(90 138.082 155.594)" fill="#101010" stroke="#1A2480" stroke-width="2" stroke-linecap="round"/>
<rect x="142.262" y="145.996" width="6" height="12" rx="1" transform="rotate(120 142.262 145.996)" fill="#101010" stroke="#1A2480" stroke-width="2" stroke-linecap="round"/>
<rect x="150.68" y="139.773" width="6" height="12" rx="1" transform="rotate(150 150.68 139.773)" fill="#101010" stroke="#3448FF" stroke-width="2" stroke-linecap="round"/>
<defs>
<linearGradient id="paint0_linear_17295_232237" x1="255.921" y1="157.528" x2="61.0762" y2="157.528" gradientUnits="userSpaceOnUse">
<stop stop-color="#3448FF" stop-opacity="0"/>
<stop offset="0.5" stop-color="#3448FF"/>
<stop offset="1" stop-color="#3448FF" stop-opacity="0"/>
</linearGradient>
<linearGradient id="paint1_linear_17295_232237" x1="270.399" y1="158.396" x2="46.3939" y2="158.396" gradientUnits="userSpaceOnUse">
<stop stop-color="#3448FF" stop-opacity="0"/>
<stop offset="0.5" stop-color="#3448FF"/>
<stop offset="1" stop-color="#3448FF" stop-opacity="0"/>
</linearGradient>
<clipPath id="clip0_17295_232237">
<rect width="4.65816" height="4.65816" fill="white" transform="translate(155.09 78.1797) rotate(-45)"/>
</clipPath>
<clipPath id="clip1_17295_232237">
<rect width="4.27573" height="4.27573" fill="white" transform="translate(75.8457 158.57) rotate(-45)"/>
</clipPath>
<clipPath id="clip2_17295_232237">
<rect width="4.65816" height="4.65816" fill="white" transform="translate(234.471 158.586) rotate(-45)"/>
</clipPath>
<clipPath id="clip3_17295_232237">
<rect width="4.65816" height="4.65816" fill="white" transform="translate(264.553 94.9258) rotate(-45)"/>
</clipPath>
<clipPath id="clip4_17295_232237">
<rect width="4.65816" height="4.65816" fill="white" transform="translate(266.303 222.25) rotate(-45)"/>
</clipPath>
<clipPath id="clip5_17295_232237">
<rect width="4.65816" height="4.65816" fill="white" transform="translate(44.0449 224.09) rotate(-74.9403)"/>
</clipPath>
<clipPath id="clip6_17295_232237">
<rect width="4.65816" height="4.65816" fill="white" transform="translate(155.283 238.996) rotate(-45)"/>
</clipPath>
</defs>
</svg>
