<svg width="375" height="73" viewBox="0 0 375 73" fill="none" xmlns="http://www.w3.org/2000/svg">
<g clip-path="url(#clip0_348_3701)">
<path opacity="0.4" d="M422.44 -2.48673L394.066 -2.48672C388.449 -2.48672 383.062 -0.260515 379.083 3.70421L350.583 32.1063C348.507 34.175 348.501 37.5348 350.57 39.6107L379.074 68.2134C383.057 72.2097 388.467 74.456 394.109 74.456L422.44 74.456" stroke="#364153" stroke-width="0.26532" stroke-dasharray="0.56 0.56"/>
<path opacity="0.8" d="M167.272 40.7393L167.67 40.3418L167.67 40.3408L167.576 40.2471L167.974 39.8486L168.067 39.9424L168.067 39.9434L168.464 39.5449L168.464 39.5439L168.37 39.4502L168.569 39.251C168.638 39.1821 168.705 39.1117 168.769 39.04L168.866 39.1279C169 38.9784 169.123 38.8232 169.236 38.6631L169.13 38.5859C169.243 38.4268 169.346 38.2629 169.438 38.0947L169.553 38.1572C169.649 37.9826 169.735 37.8043 169.811 37.6221L169.688 37.5713C169.762 37.3916 169.826 37.2088 169.879 37.0234L170.006 37.0596C170.06 36.8684 170.103 36.6746 170.136 36.4795L170.007 36.457C170.039 36.2661 170.06 36.0737 170.07 35.8809L170.201 35.8877C170.212 35.6899 170.212 35.4917 170.2 35.2939L170.069 35.2998C170.058 35.1069 170.037 34.9145 170.004 34.7236L170.132 34.7021C170.099 34.5069 170.055 34.3133 170 34.1221L169.874 34.1582C169.82 33.973 169.756 33.7898 169.682 33.6103L169.803 33.5605C169.727 33.3784 169.641 33.1998 169.544 33.0254L169.43 33.0889C169.336 32.921 169.233 32.7565 169.119 32.5977L169.226 32.5225C169.111 32.3625 168.989 32.2068 168.854 32.0576L168.756 32.1455L168.557 31.9346L168.357 31.7363L168.451 31.6426L168.054 31.248L167.961 31.3408L167.563 30.9453L167.657 30.8516L167.261 30.456L167.167 30.5498L166.77 30.1543L166.863 30.0605L166.467 29.665L166.373 29.7588L165.976 29.3633L166.068 29.2695L165.672 28.873L165.579 28.9678L165.182 28.5713L165.275 28.4775L164.878 28.082L164.784 28.1758L164.388 27.7803L164.481 27.6865L164.084 27.291L163.99 27.3848L163.594 26.9893L163.687 26.8955L163.289 26.5L163.196 26.5937L162.8 26.1982L162.893 26.1045L162.496 25.708L162.402 25.8018L162.006 25.4062L162.099 25.3135L161.702 24.917L161.608 25.0107L161.212 24.6152L161.305 24.5225L160.908 24.126L160.814 24.2197L160.418 23.8242L160.511 23.7295L160.113 23.335L160.021 23.4287L159.623 23.0322L159.717 22.9385L159.319 22.5439L159.227 22.6367L158.829 22.2412L158.923 22.1475L158.526 21.7519L158.433 21.8457L158.035 21.4502L158.129 21.3564L157.731 20.9609L157.639 21.0547L157.241 20.6592L157.334 20.5654L156.937 20.1699L156.845 20.2627L156.447 19.8672L156.54 19.7744L156.144 19.3779L156.051 19.4717L155.653 19.0762L155.747 18.9824L155.35 18.5869L155.256 18.6807L154.859 18.2852L154.953 18.1914L154.555 17.7959L154.462 17.8896L154.065 17.4932L154.158 17.4004L153.762 17.0039L153.668 17.0977L153.271 16.7021L153.364 16.6094L152.968 16.2129L152.874 16.3066L152.478 15.9111L152.57 15.8184L152.174 15.4219L152.08 15.5156L151.684 15.1201L151.776 15.0264L151.379 14.6309L151.286 14.7236L150.89 14.3281L150.982 14.2344L150.585 13.8398L150.492 13.9326L150.095 13.5371L150.188 13.4434L149.792 13.0478L149.698 13.1416L149.301 12.7461L149.395 12.6523L148.997 12.2568L148.904 12.3506L148.507 11.9551L148.6 11.8613L148.203 11.4658L148.11 11.5586L147.713 11.1631L147.806 11.0703L147.409 10.6748L147.316 10.7676L146.919 10.3721L147.013 10.2783L146.615 9.88281L146.522 9.97656L146.125 9.58105L146.218 9.4873L145.82 9.09179L145.729 9.18554L145.331 8.78906L145.424 8.69629L145.027 8.2998L144.934 8.39355L144.537 7.99804L144.63 7.90527L144.233 7.50879L144.14 7.60254L143.743 7.20703L143.836 7.11425L143.438 6.71777L143.346 6.81152L142.949 6.41601L143.042 6.32226L142.645 5.92675L142.552 6.01953L142.155 5.62402L142.248 5.53125L141.851 5.13574L141.758 5.22851L141.361 4.833L141.454 4.73925L141.057 4.34472L140.964 4.4375L140.566 4.04199L140.66 3.94824L140.263 3.55273L140.17 3.64648L139.772 3.25L139.865 3.15722L139.469 2.76172L139.376 2.85449L138.979 2.45898L139.071 2.36621L138.675 1.9707L138.582 2.06347L138.185 1.66797L138.278 1.57422L137.881 1.17968L137.788 1.27246L137.589 1.07422C137.52 1.00584 137.45 0.939687 137.379 0.875973L137.466 0.77734C137.316 0.643956 137.161 0.520747 137.001 0.407223L136.926 0.514645C136.767 0.402098 136.603 0.299548 136.436 0.207028L136.498 0.0927702C136.323 -0.00356719 136.145 -0.0898645 135.963 -0.165042L135.913 -0.0439485C135.734 -0.117805 135.552 -0.181462 135.367 -0.234378L135.402 -0.360355C135.211 -0.415027 135.018 -0.45837 134.823 -0.491214L134.802 -0.362308C134.611 -0.394428 134.419 -0.416039 134.227 -0.426761L134.233 -0.55762C134.036 -0.568596 133.838 -0.568611 133.641 -0.55762L133.647 -0.426761C133.455 -0.416028 133.263 -0.394453 133.072 -0.362308L133.05 -0.491214C132.855 -0.458322 132.662 -0.415072 132.471 -0.360355L132.508 -0.234378C132.323 -0.181412 132.14 -0.117901 131.961 -0.0439482L131.91 -0.165042C131.728 -0.0898286 131.55 -0.00359648 131.375 0.0927706L131.439 0.207028C131.272 0.299562 131.108 0.402074 130.949 0.514646L130.872 0.4082C130.712 0.52165 130.557 0.644077 130.407 0.777341L130.496 0.875974C130.425 0.939838 130.354 1.00566 130.285 1.07422L130.087 1.27246L129.993 1.17871L129.992 1.17871L129.595 1.57422L129.689 1.66797L129.293 2.06347L129.198 1.96972L128.802 2.36621L128.896 2.45898L128.499 2.85449L128.404 2.76074L128.008 3.15722L128.102 3.25L127.704 3.64648L127.61 3.55176L127.213 3.94824L127.308 4.04199L126.91 4.4375L126.817 4.34375L126.816 4.34375L126.419 4.73926L126.514 4.83301L126.116 5.22851L126.022 5.13574L125.625 5.53027L125.72 5.62402L125.322 6.01953L125.229 5.92676L124.832 6.32226L124.926 6.41601L124.528 6.81152L124.435 6.71777L124.037 7.11328L124.038 7.11328L124.132 7.20703L123.734 7.60254L123.64 7.50879L123.243 7.90429L123.338 7.99804L122.94 8.39355L122.847 8.30078L122.449 8.69531L122.543 8.78906L122.146 9.18554L122.053 9.09179L121.655 9.4873L121.749 9.58105L121.353 9.97656L121.258 9.88281L120.861 10.2793L120.955 10.3721L120.559 10.7676L120.464 10.6738L120.067 11.0703L120.161 11.1631L119.765 11.5586L119.67 11.4648L119.273 11.8613L119.367 11.9551L118.971 12.3506L118.877 12.2568L118.479 12.6523L118.573 12.7461L118.176 13.1416L118.083 13.0478L118.082 13.0478L117.685 13.4434L117.779 13.5371L117.382 13.9326L117.288 13.8389L116.892 14.2353L116.985 14.3281L116.588 14.7236L116.494 14.6309L116.098 15.0264L116.191 15.1201L115.794 15.5156L115.699 15.4219L115.303 15.8174L115.397 15.9111L115 16.3066L114.906 16.2139L114.509 16.6084L114.604 16.7021L114.206 17.0977L114.112 17.0049L113.716 17.4004L113.81 17.4932L113.412 17.8896L113.318 17.7959L112.921 18.1914L112.922 18.1914L113.015 18.2852L112.618 18.6807L112.523 18.5869L112.127 18.9834L112.221 19.0762L111.824 19.4717L111.73 19.3789L111.333 19.7744L111.427 19.8672L111.03 20.2627L110.937 20.1699L110.539 20.5654L110.633 20.6592L110.236 21.0547L110.143 20.9609L110.142 20.9609L109.745 21.3574L109.839 21.4502L109.442 21.8457L109.348 21.752L108.951 22.1484L109.045 22.2412L108.648 22.6367L108.554 22.543L108.157 22.9395L108.251 23.0322L107.854 23.4287L107.761 23.335L107.363 23.7305L107.457 23.8242L107.06 24.2197L106.966 24.127L106.568 24.5215L106.663 24.6152L106.266 25.0107L106.172 24.918L105.775 25.3135L105.869 25.4062L105.472 25.8018L105.378 25.709L104.981 26.1045L105.075 26.1982L104.678 26.5937L104.584 26.5L104.187 26.8955L104.187 26.8955L104.281 26.9893L103.884 27.3848L103.79 27.292L103.393 27.6865L103.486 27.7803L103.09 28.1758L102.996 28.083L102.599 28.4775L102.692 28.5713L102.296 28.9678L102.202 28.874L101.805 29.2695L101.898 29.3633L101.502 29.7588L101.407 29.665L101.011 30.0615L101.104 30.1543L100.708 30.5498L100.613 30.4561L100.217 30.8525L100.311 30.9453L99.9141 31.3408L99.8203 31.248L99.4228 31.6436L99.5166 31.7363L99.3184 31.9346L99.1182 32.1455L99.0195 32.0576C98.8854 32.207 98.7617 32.3624 98.6475 32.5225L98.7549 32.5977C98.6415 32.7565 98.5386 32.921 98.4453 33.0889L98.3301 33.0254C98.2331 33.1999 98.146 33.3783 98.0703 33.5605L98.1924 33.6104C98.1178 33.7898 98.0535 33.973 98 34.1582L97.873 34.1221C97.8178 34.3132 97.7745 34.507 97.7412 34.7021L97.8711 34.7236C97.8385 34.9145 97.8158 35.1069 97.8047 35.2998L97.6728 35.2939C97.6615 35.4917 97.6621 35.6899 97.6728 35.8877L97.8037 35.8809C97.8142 36.0738 97.8362 36.2661 97.8682 36.457L97.7373 36.4795C97.7583 36.6048 97.7835 36.7296 97.8135 36.8535L97.8682 37.0596L97.9951 37.0234C98.048 37.2087 98.1116 37.3917 98.1855 37.5713L98.0625 37.6221C98.1377 37.8047 98.2249 37.9832 98.3213 38.1582L98.4365 38.0947C98.5291 38.2627 98.6314 38.4269 98.7441 38.5859L98.6377 38.6631C98.7511 38.823 98.8736 38.9786 99.0068 39.1279L99.1064 39.04L99.3057 39.251L99.5039 39.4502L99.4102 39.5439L99.8066 39.9424L99.9014 39.8486L100.298 40.2471L100.204 40.3408L100.602 40.7393L100.695 40.6455L101.092 41.0439L100.998 41.1377L101.396 41.5361L101.489 41.4424L101.886 41.8408L101.792 41.9346L102.189 42.333L102.283 42.2393L102.68 42.6377L102.586 42.7314L102.983 43.1299L103.077 43.0361L103.475 43.4346L103.38 43.5283L103.777 43.9268L103.871 43.833L104.269 44.2314L104.174 44.3252L104.571 44.7236L104.665 44.6299L105.062 45.0283L104.968 45.1221L105.365 45.5195L105.459 45.4268L105.856 45.8242L105.762 45.9189L106.159 46.3164L106.253 46.2227L106.65 46.6211L106.556 46.7158L106.953 47.1133L107.047 47.0195L107.444 47.418L107.351 47.5117L107.747 47.9102L107.842 47.8164L108.238 48.2148L108.145 48.3086L108.541 48.707L108.636 48.6133L109.032 49.0117L108.938 49.1055L109.335 49.5039L109.43 49.4102L109.826 49.8086L109.732 49.9023L110.13 50.3008L110.224 50.207L110.62 50.6055L110.526 50.6992L110.924 51.0977L111.018 51.0039L111.414 51.4023L111.32 51.4961L111.718 51.8945L111.812 51.8008L112.208 52.1992L112.114 52.292L112.511 52.6914L112.512 52.6904L112.605 52.5977L113.003 52.9951L112.908 53.0889L113.305 53.4883L113.399 53.3936L113.797 53.792L113.702 53.8857L114.1 54.2842L114.193 54.1904L114.591 54.5889L114.496 54.6826L114.894 55.0811L114.987 54.9873L115.385 55.3857L115.29 55.4805L115.687 55.8779L115.781 55.7842L116.179 56.1826L116.085 56.2764L116.481 56.6748L116.575 56.5811L116.973 56.9795L116.879 57.0732L117.275 57.4717L117.369 57.3779L117.767 57.7764L117.673 57.8701L118.069 58.2686L118.164 58.1748L118.561 58.5732L118.467 58.667L118.863 59.0654L118.958 58.9717L119.354 59.3701L119.261 59.4629L119.26 59.4639L119.657 59.8623L119.752 59.7676L120.148 60.166L120.054 60.2607L120.451 60.6592L120.546 60.5645L120.942 60.9629L120.849 61.0566L121.245 61.4561L121.34 61.3613L121.736 61.7598L121.643 61.8535L122.039 62.2529L122.134 62.1582L122.531 62.5566L122.437 62.6504L122.834 63.0488L122.928 62.9551L123.325 63.3535L123.23 63.4473L123.628 63.8457L123.722 63.752L124.119 64.1504L124.024 64.2441L124.422 64.6426L124.516 64.5488L124.913 64.9473L124.819 65.041L125.216 65.4395L125.31 65.3457L125.707 65.7441L125.613 65.8379L126.009 66.2363L126.01 66.2353L126.104 66.1426L126.501 66.541L126.407 66.6338L126.406 66.6348L126.803 67.0332L126.897 66.9385L127.295 67.3369L127.2 67.4316L127.598 67.8291L127.692 67.7353L128.089 68.1338L127.994 68.2285L128.392 68.626L128.486 68.5322L128.883 68.9307L128.788 69.0254L129.186 69.4238L129.28 69.3291L129.677 69.7275L129.583 69.8213L129.979 70.2207L130.074 70.126L130.272 70.3252C130.341 70.3943 130.412 70.461 130.483 70.5254L130.395 70.624C130.544 70.7585 130.7 70.8826 130.86 70.9971L130.937 70.8896C131.097 71.0031 131.261 71.1069 131.429 71.2002L131.365 71.3154C131.54 71.4123 131.719 71.4985 131.901 71.5742L131.952 71.4521C132.132 71.5267 132.315 71.5911 132.501 71.6445L132.465 71.7715C132.656 71.8266 132.85 71.8702 133.046 71.9033L133.068 71.7734C133.26 71.8059 133.453 71.828 133.646 71.8389L133.639 71.9707C133.837 71.9818 134.036 71.9818 134.234 71.9707L134.228 71.8389C134.421 71.828 134.614 71.8059 134.806 71.7734L134.827 71.9033C135.023 71.8702 135.217 71.8267 135.409 71.7715L135.373 71.6445C135.559 71.5911 135.742 71.5267 135.922 71.4521L135.972 71.5742C136.154 71.4985 136.334 71.4125 136.509 71.3154L136.445 71.2002C136.613 71.1069 136.777 71.0031 136.937 70.8896L137.013 70.9971C137.173 70.8826 137.329 70.7585 137.479 70.624L137.391 70.5254C137.462 70.461 137.533 70.3943 137.602 70.3252L137.801 70.126L137.895 70.2197L137.895 70.2207L138.291 69.8223L138.291 69.8213L138.197 69.7275L138.595 69.3291L138.688 69.4228L138.688 69.4238L139.085 69.0254L139.085 69.0244L138.991 68.9307L139.389 68.5322L139.482 68.626L139.482 68.6269L139.88 68.2285L139.88 68.2275L139.785 68.1338L140.183 67.7353L140.276 67.8291L140.276 67.8301L140.674 67.4316L140.674 67.4307L140.579 67.3369L140.977 66.9385L141.07 67.0322L141.07 67.0332L141.468 66.6348L141.468 66.6338L141.373 66.541L141.771 66.1426L141.864 66.2353L141.864 66.2363L142.261 65.8379L142.262 65.8379L142.168 65.7441L142.564 65.3457L142.658 65.4394L142.658 65.4404L143.055 65.041L143.056 65.041L142.962 64.9473L143.358 64.5488L143.452 64.6426L143.452 64.6436L143.85 64.2451L143.85 64.2441L143.756 64.1504L144.152 63.7519L144.246 63.8457L144.246 63.8467L144.644 63.4482L144.644 63.4473L144.55 63.3535L144.946 62.9551L145.04 63.0488L145.437 62.6514L145.437 62.6504L145.344 62.5566L145.74 62.1582L145.835 62.2519L145.835 62.2529L146.231 61.8545L146.231 61.8535L146.138 61.7598L146.535 61.3613L146.629 61.4551L146.629 61.4561L147.025 61.0576L147.025 61.0566L146.932 60.9629L147.329 60.5644L147.423 60.6582L147.423 60.6592L147.819 60.2607L147.819 60.2598L147.726 60.166L148.123 59.7676L148.217 59.8613L148.217 59.8623L148.613 59.4639L148.613 59.4629L148.52 59.3701L148.917 58.9717L149.011 59.0644L149.011 59.0654L149.407 58.667L149.313 58.5732L149.711 58.1748L149.804 58.2686L150.201 57.8701L150.202 57.8701L150.107 57.7764L150.505 57.3779L150.599 57.4717L150.599 57.4727L150.995 57.0732L150.996 57.0732L150.901 56.9795L151.299 56.5811L151.393 56.6748L151.393 56.6758L151.789 56.2764L151.79 56.2764L151.696 56.1826L152.093 55.7842L152.187 55.8779L152.187 55.8789L152.584 55.4805L152.584 55.4795L152.49 55.3857L152.887 54.9873L152.98 55.0811L152.98 55.082L153.378 54.6836L153.378 54.6826L153.284 54.5889L153.681 54.1904L153.774 54.2842L153.774 54.2852L154.172 53.8867L154.172 53.8857L154.078 53.792L154.475 53.3935L154.569 53.4873L154.569 53.4883L154.966 53.0898L154.966 53.0889L154.872 52.9951L155.269 52.5977L155.363 52.6904L155.363 52.6914L155.76 52.293L155.76 52.292L155.666 52.1992L156.063 51.8008L156.156 51.8945L156.554 51.4971L156.554 51.4961L156.46 51.4023L156.857 51.0039L156.95 51.0977L157.348 50.7002L157.348 50.6992L157.254 50.6055L157.651 50.207L157.744 50.3008L158.142 49.9033L158.142 49.9023L158.048 49.8086L158.445 49.4102L158.538 49.5039L158.936 49.1055L158.937 49.1055L158.842 49.0117L159.239 48.6133L159.333 48.707L159.333 48.708L159.729 48.3086L159.73 48.3086L159.636 48.2148L160.033 47.8164L160.127 47.9102L160.127 47.9111L160.523 47.5117L160.524 47.5117L160.43 47.418L160.827 47.0195L160.921 47.1133L160.921 47.1143L161.318 46.7158L161.318 46.7148L161.225 46.6211L161.621 46.2227L161.715 46.3164L161.715 46.3174L162.112 45.9189L162.112 45.918L162.019 45.8242L162.415 45.4268L162.509 45.5195L162.509 45.5205L162.905 45.1221L162.812 45.0283L163.209 44.6299L163.303 44.7236L163.303 44.7246L163.699 44.3252L163.7 44.3252L163.606 44.2314L164.003 43.833L164.097 43.9268L164.493 43.5283L164.494 43.5283L164.4 43.4346L164.797 43.0361L164.891 43.1299L165.287 42.7314L165.288 42.7314L165.194 42.6377L165.591 42.2393L165.685 42.333L166.082 41.9355L166.082 41.9346L165.988 41.8408L166.386 41.4424L166.479 41.5361L166.876 41.1387L166.876 41.1377L166.782 41.0439L167.18 40.6455L167.272 40.7393Z" stroke="#364153" stroke-width="0.26532" stroke-dasharray="0.56 0.56"/>
<path d="M299.021 35.8848C299.032 35.6866 299.032 35.4882 299.021 35.29L298.89 35.2969C298.879 35.1038 298.857 34.9108 298.825 34.7197L298.953 34.6992C298.92 34.504 298.877 34.3104 298.822 34.1191L298.696 34.1543C298.643 33.969 298.579 33.786 298.505 33.6064L298.626 33.5566C298.55 33.3741 298.464 33.1954 298.367 33.0205L298.253 33.084C298.16 32.916 298.057 32.7517 297.944 32.5928L298.051 32.5176C297.937 32.3572 297.814 32.2014 297.68 32.0517L297.582 32.1396C297.518 32.0679 297.451 31.9976 297.382 31.9287L297.186 31.7324L297.279 31.6387L296.886 31.2451L296.792 31.3389L296.399 30.9453L296.492 30.8525L296.099 30.459L296.006 30.5527L295.612 30.1592L295.706 30.0654L295.312 29.6728L295.22 29.7656L294.826 29.373L294.919 29.2793L294.526 28.8857L294.433 28.9795L294.04 28.5859L294.133 28.4932L293.739 28.0996L293.646 28.1924L293.253 27.7998L293.347 27.706L292.953 27.3135L292.86 27.4062L292.467 27.0127L292.56 26.9199L292.167 26.5264L292.073 26.6201L291.681 26.2266L291.773 26.1338L291.38 25.7402L291.287 25.833L290.894 25.4404L290.987 25.3467L290.594 24.9541L290.501 25.0469L290.107 24.6533L290.2 24.5605L289.808 24.167L289.714 24.2607L289.32 23.8672L289.414 23.7744L289.021 23.3808L288.928 23.4736L288.534 23.081L288.628 22.9873L288.234 22.5937L288.141 22.6875L287.748 22.2939L287.841 22.2012L287.448 21.8076L287.354 21.9014L286.961 21.5078L287.055 21.4141L286.661 21.0215L286.568 21.1142L286.175 20.7217L286.269 20.6279L285.875 20.2344L285.781 20.3281L285.389 19.9346L285.481 19.8418L285.088 19.4482L284.995 19.542L284.602 19.1484L284.695 19.0547L284.302 18.6621L284.209 18.7549L283.815 18.3613L283.908 18.2685L283.516 17.875L283.422 17.9687L283.029 17.5752L283.122 17.4824L282.729 17.0889L282.636 17.1816L282.242 16.7891L282.336 16.6953L281.942 16.3027L281.85 16.3955L281.456 16.0019L281.549 15.9092L281.156 15.5156L281.062 15.6094L280.67 15.2158L280.763 15.123L280.369 14.7295L280.276 14.8223L279.883 14.4297L279.977 14.3359L279.583 13.9433L279.489 14.0361L279.097 13.6426L279.189 13.5498L278.797 13.1562L278.703 13.25L278.31 12.8564L278.403 12.7627L278.01 12.3701L277.917 12.4629L277.523 12.0703L277.617 11.9766L277.224 11.583L277.13 11.6767L276.737 11.2832L276.83 11.1904L276.437 10.7969L276.344 10.8906L275.95 10.4971L276.044 10.4033L275.65 10.0107L275.558 10.1035L275.164 9.71093L275.258 9.61718L274.864 9.22362L274.771 9.31737L274.378 8.92382L274.471 8.83104L274.077 8.43749L273.984 8.53124L273.591 8.13768L273.685 8.04393L273.291 7.65136L273.198 7.74413L272.805 7.35058L272.897 7.2578L272.505 6.86425L272.411 6.958L272.019 6.56444L272.111 6.47167L271.718 6.07811L271.625 6.17089L271.231 5.77831L271.325 5.68456L270.932 5.29198L270.839 5.38476L270.445 4.9912L270.538 4.89843L270.146 4.50487L270.052 4.59862L269.658 4.20507L269.752 4.11229L269.358 3.71874L269.266 3.81151L268.872 3.41894L268.966 3.32519L268.572 2.93261L268.479 3.02538L268.086 2.63183L268.179 2.53905L267.786 2.1455L267.692 2.23925L267.299 1.84569L267.393 1.75194L266.999 1.35937L266.906 1.45214L266.513 1.05956L266.606 0.96581L266.213 0.572256L266.119 0.666006L265.727 0.272451L265.819 0.179678L265.427 -0.213877L265.333 -0.120127L264.939 -0.513682L265.033 -0.607432L264.64 -1.00001L264.547 -0.907236L264.35 -1.10353C264.29 -1.16343 264.228 -1.2217 264.166 -1.27833L264.255 -1.37696C264.126 -1.49401 263.991 -1.60299 263.852 -1.70606L263.773 -1.6006C263.637 -1.70167 263.496 -1.796 263.352 -1.88282L263.419 -1.9961C263.27 -2.0855 263.117 -2.16802 262.96 -2.2422L262.903 -2.12208C262.75 -2.19444 262.594 -2.25939 262.435 -2.31642L262.479 -2.44044C262.315 -2.49889 262.149 -2.55053 261.98 -2.59278L261.948 -2.46388C261.784 -2.50489 261.618 -2.5386 261.45 -2.56349L261.469 -2.69337C261.298 -2.71865 261.126 -2.7366 260.952 -2.74513L260.945 -2.61231C260.861 -2.61645 260.776 -2.61915 260.691 -2.61915L260.412 -2.61915L260.412 -2.75196L259.852 -2.75196L259.852 -2.61915L259.292 -2.61915L259.292 -2.75196L258.732 -2.75196L258.732 -2.61915L258.173 -2.61915L258.173 -2.75196L257.613 -2.75196L257.613 -2.61915L257.054 -2.61915L257.054 -2.75196L256.494 -2.75196L256.494 -2.61915L255.935 -2.61915L255.935 -2.75196L255.374 -2.75196L255.374 -2.61915L254.814 -2.61915L254.814 -2.75196L254.255 -2.75196L254.255 -2.61915L253.695 -2.61915L253.695 -2.75196L253.136 -2.75196L253.136 -2.61915L252.576 -2.61915L252.576 -2.75196L252.017 -2.75196L252.017 -2.61915L251.456 -2.61915L251.456 -2.75196L250.896 -2.75196L250.896 -2.61915L250.337 -2.61915L250.337 -2.75196L249.777 -2.75196L249.777 -2.61915L249.218 -2.61915L249.218 -2.75196L248.658 -2.75196L248.658 -2.61915L248.099 -2.61915L248.099 -2.75196L247.539 -2.75196L247.539 -2.61915L246.979 -2.61915L246.979 -2.75196L246.419 -2.75196L246.419 -2.61915L245.859 -2.61915L245.859 -2.75196L245.3 -2.75196L245.3 -2.61915L244.74 -2.61915L244.74 -2.75196L244.181 -2.75196L244.181 -2.61915L243.621 -2.61915L243.621 -2.75196L243.062 -2.75196L243.062 -2.61915L242.501 -2.61915L242.501 -2.75196L241.941 -2.75196L241.941 -2.61915L241.382 -2.61915L241.382 -2.75196L240.822 -2.75196L240.822 -2.61915L240.263 -2.61915L240.263 -2.75196L239.703 -2.75196L239.703 -2.61915L239.144 -2.61915L239.144 -2.75196L238.583 -2.75196L238.583 -2.61915L238.023 -2.61915L238.023 -2.75196L237.464 -2.75196L237.464 -2.61915L236.904 -2.61915L236.904 -2.75196L236.345 -2.75196L236.345 -2.61915L235.785 -2.61915L235.785 -2.75196L235.226 -2.75196L235.226 -2.61915L234.666 -2.61915L234.666 -2.75196L234.105 -2.75196L234.105 -2.61915L233.546 -2.61915L233.546 -2.75196L232.986 -2.75196L232.986 -2.61915L232.427 -2.61915L232.427 -2.75196L231.867 -2.75196L231.867 -2.61915L231.308 -2.61915L231.308 -2.75196L230.748 -2.75196L230.748 -2.61915L230.188 -2.61915L230.188 -2.75196L229.628 -2.75196L229.628 -2.61915L229.068 -2.61915L229.068 -2.75196L228.509 -2.75196L228.509 -2.61915L227.949 -2.61915L227.949 -2.75196L227.39 -2.75196L227.39 -2.61915L226.83 -2.61915L226.83 -2.75196L226.271 -2.75196L226.271 -2.61915L225.711 -2.61915L225.711 -2.75196L225.15 -2.75196L225.15 -2.61915L224.591 -2.61915L224.591 -2.75196L224.031 -2.75196L224.031 -2.61915L223.472 -2.61915L223.472 -2.75196L222.912 -2.75196L222.912 -2.61915L222.353 -2.61915L222.353 -2.75196L221.793 -2.75196L221.793 -2.61915L221.233 -2.61915L221.233 -2.75196L220.673 -2.75196L220.673 -2.61915L220.113 -2.61915L220.113 -2.75196L219.554 -2.75196L219.554 -2.61915L218.994 -2.61915L218.994 -2.75196L218.435 -2.75196L218.435 -2.61915L217.875 -2.61915L217.875 -2.75196L217.315 -2.75196L217.315 -2.61915L216.755 -2.61915L216.755 -2.75196L216.195 -2.75196L216.195 -2.61915L215.636 -2.61915L215.636 -2.75196L215.076 -2.75196L215.076 -2.61915L214.517 -2.61915L214.517 -2.75196L213.957 -2.75196L213.957 -2.61915L213.397 -2.61915L213.397 -2.75196L212.838 -2.75196L212.838 -2.61915L212.277 -2.61915L212.277 -2.75196L211.718 -2.75196L211.718 -2.61915L211.158 -2.61915L211.158 -2.75196L210.599 -2.75196L210.599 -2.61915L210.039 -2.61915L210.039 -2.75196L209.479 -2.75196L209.479 -2.61915L208.92 -2.61915L208.92 -2.75196L208.36 -2.75196L208.36 -2.61915L207.8 -2.61915L207.8 -2.75196L207.24 -2.75196L207.24 -2.61915L206.681 -2.61915L206.681 -2.75196L206.121 -2.75196L206.121 -2.61915L205.562 -2.61915L205.562 -2.75196L205.002 -2.75196L205.002 -2.61915L204.442 -2.61915L204.442 -2.75196L203.883 -2.75196L203.883 -2.61915L203.322 -2.61915L203.322 -2.75196L202.763 -2.75196L202.763 -2.61915L202.203 -2.61915L202.203 -2.75196L201.644 -2.75196L201.644 -2.61915L201.084 -2.61915L201.084 -2.75196L200.524 -2.75196L200.524 -2.61915L199.965 -2.61915L199.965 -2.75196L199.404 -2.75196L199.404 -2.61915L198.845 -2.61915L198.845 -2.75196L198.285 -2.75196L198.285 -2.61915L197.726 -2.61915L197.726 -2.75196L197.166 -2.75196L197.166 -2.61915L196.606 -2.61915L196.606 -2.75196L196.047 -2.75196L196.047 -2.61914L195.487 -2.61914L195.487 -2.75196L194.927 -2.75196L194.927 -2.61914L194.367 -2.61914L194.367 -2.75196L193.808 -2.75196L193.808 -2.61914L193.248 -2.61914L193.248 -2.75196L192.688 -2.75196L192.688 -2.61914L192.129 -2.61914L192.129 -2.75196L191.569 -2.75196L191.569 -2.61914L191.01 -2.61914L191.01 -2.75196L190.449 -2.75196L190.449 -2.61914L189.89 -2.61914L189.89 -2.75196L189.33 -2.75196L189.33 -2.61914L188.771 -2.61914L188.771 -2.75196L188.211 -2.75196L188.211 -2.61914L187.651 -2.61914L187.651 -2.75196L187.092 -2.75196L187.092 -2.61914L186.531 -2.61914L186.531 -2.75196L185.972 -2.75196L185.972 -2.61914L185.412 -2.61914L185.412 -2.75196L184.853 -2.75196L184.853 -2.61914L184.293 -2.61914L184.293 -2.75196L183.733 -2.75196L183.733 -2.61914L183.174 -2.61914L183.174 -2.75196L182.614 -2.75196L182.614 -2.61914L182.334 -2.61914C182.249 -2.61914 182.165 -2.61642 182.081 -2.61231L182.074 -2.74512C181.9 -2.7366 181.728 -2.71869 181.557 -2.69336L181.576 -2.56348C181.409 -2.53869 181.243 -2.50571 181.079 -2.46485L181.047 -2.59278C180.878 -2.55063 180.712 -2.5007 180.549 -2.44239L180.55 -2.44239L180.595 -2.31739C180.436 -2.26059 180.279 -2.19611 180.126 -2.12403L180.069 -2.24317C179.913 -2.16935 179.76 -2.08797 179.611 -1.99903L179.68 -1.88575C179.535 -1.79929 179.394 -1.70612 179.258 -1.60547L179.179 -1.71094C179.04 -1.60819 178.905 -1.49952 178.775 -1.38282L178.865 -1.28418C178.803 -1.22781 178.741 -1.16999 178.682 -1.11035L178.484 -0.913089L178.391 -1.00684L178.39 -1.00684L177.995 -0.614261L178.09 -0.520511L177.695 -0.126956L177.601 -0.220706L177.206 0.172849L177.207 0.172849L177.301 0.266599L176.906 0.659177L176.812 0.565427L176.417 0.958982L176.512 1.05273L176.117 1.44629L176.022 1.35254L175.628 1.74511L175.723 1.83984L175.328 2.23242L175.233 2.13867L174.839 2.53222L174.934 2.62597L174.538 3.01953L174.445 2.9248L174.444 2.9248L174.05 3.31836L174.051 3.31836L174.144 3.41211L173.749 3.80566L173.654 3.71191L173.261 4.10547L173.354 4.19922L172.96 4.59179L172.865 4.49804L172.471 4.8916L172.472 4.8916L172.565 4.98535L172.171 5.3789L172.077 5.28515L171.682 5.67773L171.776 5.77148L171.382 6.16504L171.287 6.07129L170.893 6.46386L170.987 6.55859L170.593 6.95117L170.499 6.85742L170.498 6.85742L170.104 7.25097L170.198 7.34472L169.804 7.73828L169.709 7.64355L169.314 8.03711L169.315 8.03711L169.409 8.13086L169.014 8.52441L168.92 8.43066L168.524 8.82422L168.525 8.82422L168.619 8.91797L168.225 9.31054L168.131 9.21777L167.735 9.61035L167.83 9.7041L167.436 10.0977L167.342 10.0039L167.341 10.0039L166.946 10.3965L167.041 10.4902L166.646 10.8838L166.552 10.79L166.157 11.1836L166.158 11.1836L166.252 11.2773L165.857 11.6699L165.763 11.5762L165.368 11.9697L165.463 12.0635L165.068 12.457L164.974 12.3633L164.579 12.7559L164.674 12.8506L164.279 13.2432L164.185 13.1494L163.79 13.543L163.884 13.6367L163.489 14.0303L163.396 13.9355L163.396 13.9355L163 14.3291L163.095 14.4228L162.7 14.8164L162.605 14.7227L162.212 15.1162L162.306 15.21L161.911 15.6025L161.816 15.5088L161.422 15.9023L161.423 15.9023L161.517 15.9961L161.122 16.3896L161.028 16.2959L160.633 16.6885L160.728 16.7822L160.333 17.1758L160.238 17.082L159.844 17.4746L159.938 17.5693L159.544 17.9619L159.45 17.8682L159.449 17.8682L159.055 18.2617L159.149 18.3555L158.755 18.749L158.66 18.6543L158.266 19.0479L158.267 19.0479L158.359 19.1416L157.965 19.5352L157.87 19.4414L157.476 19.835L157.477 19.835L157.57 19.9287L157.176 20.3213L157.082 20.2285L156.687 20.6211L156.781 20.7148L156.387 21.1084L156.293 21.0146L156.292 21.0146L155.897 21.4072L155.992 21.501L155.598 21.8945L155.503 21.8008L155.108 22.1943L155.203 22.2881L154.809 22.6807L154.714 22.5869L154.319 22.9805L154.414 23.0742L154.02 23.4678L153.925 23.374L153.53 23.7666L153.625 23.8613L153.23 24.2539L153.136 24.1602L152.741 24.5537L152.835 24.6475L152.44 25.041L152.347 24.9473L151.951 25.3398L152.046 25.4336L151.651 25.8271L151.557 25.7334L151.163 26.127L151.257 26.2207L150.862 26.6133L150.768 26.5195L150.373 26.9131L150.374 26.9131L150.468 27.0068L150.073 27.4004L149.979 27.3066L149.584 27.6992L149.679 27.793L149.284 28.1865L149.189 28.0928L148.795 28.4854L148.89 28.5801L148.495 28.9727L148.401 28.8789L148.4 28.8789L148.006 29.2725L148.101 29.3662L147.705 29.7598L147.611 29.665L147.217 30.0586L147.218 30.0586L147.311 30.1523L146.916 30.5459L146.821 30.4521L146.427 30.8457L146.428 30.8457L146.521 30.9395L146.127 31.332L146.033 31.2393L145.638 31.6318L145.732 31.7256L145.535 31.9219L145.335 32.1338L145.236 32.0459C145.102 32.1953 144.978 32.3507 144.864 32.5107L144.971 32.5869C144.857 32.7461 144.753 32.9108 144.66 33.0791L144.545 33.0156C144.448 33.1906 144.362 33.37 144.286 33.5527L144.408 33.6025C144.334 33.7824 144.269 33.9657 144.216 34.1514L144.089 34.1152C144.034 34.3071 143.99 34.5014 143.957 34.6973L144.087 34.7178C144.054 34.9092 144.032 35.1025 144.021 35.2959L143.89 35.29C143.879 35.4738 143.878 35.658 143.887 35.8418L143.89 35.8848L144.021 35.8779C144.032 36.0714 144.054 36.2646 144.087 36.4561L143.957 36.4775C143.99 36.6734 144.034 36.8677 144.089 37.0596L144.216 37.0225C144.269 37.2081 144.334 37.3914 144.408 37.5713L144.286 37.6221C144.362 37.8048 144.448 37.9842 144.545 38.1592L144.66 38.0947C144.753 38.263 144.857 38.4277 144.971 38.5869L144.863 38.6641C144.978 38.8243 145.102 38.9794 145.236 39.1289L145.335 39.041C145.399 39.1127 145.466 39.1831 145.535 39.252L145.732 39.4482L145.638 39.543L146.033 39.9355L146.127 39.8418L146.521 40.2344L146.428 40.3291L146.821 40.7227L146.916 40.6279L147.311 41.0215L147.217 41.1162L147.611 41.5098L147.612 41.5088L147.705 41.4141L148.101 41.8076L148.006 41.9023L148.4 42.2959L148.495 42.2012L148.89 42.5947L148.795 42.6895L149.189 43.082L149.284 42.9873L149.679 43.3809L149.584 43.4756L149.979 43.8682L150.073 43.7744L150.468 44.167L150.373 44.2617L150.768 44.6553L150.862 44.5605L151.257 44.9541L151.163 45.0479L151.558 45.4414L151.651 45.3467L152.046 45.7402L151.951 45.835L152.347 46.2275L152.44 46.1338L152.835 46.5264L152.742 46.6211L152.741 46.6221L153.136 47.0146L153.23 46.9199L153.625 47.3135L153.53 47.4082L153.925 47.8018L153.926 47.8008L154.02 47.7061L154.414 48.0996L154.319 48.1943L154.714 48.5879L154.809 48.4932L155.203 48.8857L155.109 48.9805L155.503 49.374L155.598 49.2793L155.992 49.6729L155.897 49.7676L156.293 50.1602L156.387 50.0654L156.781 50.459L156.687 50.5537L157.082 50.9463L157.176 50.8525L157.57 51.2451L157.477 51.3398L157.871 51.7334L157.965 51.6387L158.359 52.0322L158.266 52.127L158.66 52.5205L158.755 52.4258L159.149 52.8184L159.055 52.9131L159.449 53.3066L159.544 53.2119L159.938 53.6055L159.844 53.7002L160.238 54.0928L160.333 53.998L160.728 54.3916L160.633 54.4863L161.028 54.8789L161.122 54.7852L161.517 55.1777L161.423 55.2725L161.816 55.666L161.911 55.5713L162.306 55.9648L162.212 56.0586L162.606 56.4521L162.7 56.3574L163.095 56.751L163 56.8457L163.396 57.2393L163.396 57.2383L163.489 57.1445L163.884 57.5371L163.791 57.6318L163.79 57.6328L164.185 58.0254L164.279 57.9307L164.674 58.3242L164.579 58.4189L164.974 58.8125L164.975 58.8115L165.068 58.7168L165.463 59.1103L165.368 59.2051L165.763 59.5986L165.857 59.5039L166.252 59.8965L166.158 59.9912L166.552 60.3848L166.646 60.29L167.041 60.6836L166.946 60.7783L167.342 61.1709L167.436 61.0762L167.83 61.4697L167.735 61.5645L168.131 61.957L168.225 61.8633L168.619 62.2568L168.525 62.3506L168.92 62.7441L169.014 62.6494L169.409 63.043L169.314 63.1377L169.709 63.5312L169.804 63.4365L170.198 63.8291L170.104 63.9238L170.498 64.3174L170.593 64.2227L170.987 64.6162L170.893 64.7109L171.288 65.1035L171.382 65.0088L171.776 65.4023L171.682 65.4971L172.077 65.8896L172.171 65.7959L172.565 66.1885L172.472 66.2832L172.865 66.6768L172.96 66.582L173.354 66.9756L173.261 67.0693L173.655 67.4629L173.749 67.3682L174.144 67.7617L174.049 67.8564L174.444 68.25L174.445 68.249L174.538 68.1553L174.934 68.5478L174.84 68.6426L174.839 68.6436L175.233 69.0361L175.328 68.9414L175.723 69.335L175.628 69.4297L176.022 69.8232L176.023 69.8223L176.117 69.7275L176.512 70.1211L176.417 70.2158L176.812 70.6094L176.906 70.5146L177.301 70.9072L177.207 71.002L177.601 71.3955L177.695 71.3008L178.09 71.6943L177.995 71.7891L178.391 72.1816L178.484 72.0879L178.682 72.2842C178.741 72.3438 178.803 72.4016 178.865 72.458L178.776 72.5566L178.775 72.5576C178.841 72.617 178.909 72.6737 178.978 72.7295L179.179 72.8857L179.258 72.7793C179.394 72.88 179.535 72.9741 179.68 73.0605L179.611 73.1738C179.76 73.2628 179.913 73.3451 180.069 73.4189L180.126 73.2988C180.279 73.3709 180.436 73.4354 180.595 73.4922L180.55 73.6172C180.713 73.6754 180.879 73.7255 181.047 73.7676L181.079 73.6387C181.243 73.6795 181.409 73.7125 181.576 73.7373L181.557 73.8682L181.556 73.8691C181.727 73.8945 181.899 73.9114 182.073 73.9199L182.081 73.7871C182.165 73.7912 182.249 73.793 182.334 73.793L182.614 73.793L182.614 73.9258L183.174 73.9258L183.174 73.793L183.733 73.793L183.733 73.9258L184.293 73.9258L184.293 73.793L184.853 73.793L184.853 73.9258L185.412 73.9258L185.412 73.793L185.972 73.793L185.972 73.9258L186.531 73.9258L186.531 73.793L187.092 73.793L187.092 73.9258L187.651 73.9258L187.651 73.793L188.211 73.793L188.211 73.9258L188.771 73.9258L188.771 73.793L189.33 73.793L189.33 73.9258L189.89 73.9258L189.89 73.793L190.449 73.793L190.449 73.9258L191.009 73.9258L191.009 73.793L191.569 73.793L191.569 73.9258L192.129 73.9258L192.129 73.793L192.688 73.793L192.688 73.9258L193.248 73.9258L193.248 73.793L193.808 73.793L193.808 73.9258L194.367 73.9258L194.367 73.793L194.927 73.793L194.927 73.9258L195.486 73.9258L195.486 73.793L196.047 73.793L196.047 73.9258L196.606 73.9258L196.606 73.793L197.166 73.793L197.166 73.9258L197.726 73.9258L197.726 73.793L198.285 73.793L198.285 73.9258L198.845 73.9258L198.845 73.793L199.404 73.793L199.404 73.9258L199.965 73.9258L199.965 73.793L200.524 73.793L200.524 73.9258L201.084 73.9258L201.084 73.793L201.644 73.793L201.644 73.9258L202.203 73.9258L202.203 73.793L202.763 73.793L202.763 73.9258L203.322 73.9258L203.322 73.793L203.882 73.793L203.882 73.9258L204.442 73.9258L204.442 73.793L205.002 73.793L205.002 73.9258L205.562 73.9258L205.562 73.793L206.121 73.793L206.121 73.9258L206.681 73.9258L206.681 73.793L207.24 73.793L207.24 73.9258L207.8 73.9258L207.8 73.793L208.359 73.793L208.359 73.9258L208.92 73.9258L208.92 73.793L209.479 73.793L209.479 73.9258L210.039 73.9258L210.039 73.793L210.599 73.793L210.599 73.9258L211.158 73.9258L211.158 73.793L211.718 73.793L211.718 73.9258L212.277 73.9258L212.277 73.793L212.837 73.793L212.837 73.9258L213.397 73.9258L213.397 73.793L213.957 73.793L213.957 73.9258L214.517 73.9258L214.517 73.793L215.076 73.793L215.076 73.9258L215.636 73.9258L215.636 73.793L216.195 73.793L216.195 73.9258L216.755 73.9258L216.755 73.793L217.315 73.793L217.315 73.9258L217.875 73.9258L217.875 73.793L218.435 73.793L218.435 73.9258L218.994 73.9258L218.994 73.793L219.554 73.793L219.554 73.9258L220.113 73.9258L220.113 73.793L220.673 73.793L220.673 73.9258L221.232 73.9258L221.232 73.793L221.793 73.793L221.793 73.9258L222.353 73.9258L222.353 73.793L222.912 73.793L222.912 73.9258L223.472 73.9258L223.472 73.793L224.031 73.793L224.031 73.9258L224.591 73.9258L224.591 73.793L225.15 73.793L225.15 73.9258L225.71 73.9258L225.71 73.793L226.271 73.793L226.271 73.9258L226.83 73.9258L226.83 73.793L227.39 73.793L227.39 73.9258L227.949 73.9258L227.949 73.793L228.509 73.793L228.509 73.9258L229.068 73.9258L229.068 73.793L229.628 73.793L229.628 73.9258L230.188 73.9258L230.187 73.793L230.748 73.793L230.748 73.9258L231.308 73.9258L231.308 73.793L231.867 73.793L231.867 73.9258L232.427 73.9258L232.427 73.793L232.986 73.793L232.986 73.9258L233.546 73.9258L233.546 73.793L234.105 73.793L234.105 73.9258L234.666 73.9258L234.666 73.793L235.226 73.793L235.226 73.9258L235.785 73.9258L235.785 73.793L236.345 73.793L236.345 73.9258L236.904 73.9258L236.904 73.793L237.464 73.793L237.464 73.9258L238.023 73.9258L238.023 73.793L238.583 73.793L238.583 73.9258L239.144 73.9258L239.144 73.793L239.703 73.793L239.703 73.9258L240.263 73.9258L240.263 73.793L240.822 73.793L240.822 73.9258L241.382 73.9258L241.382 73.793L241.941 73.793L241.941 73.9258L242.501 73.9258L242.501 73.793L243.061 73.793L243.061 73.9258L243.621 73.9258L243.621 73.793L244.181 73.793L244.181 73.9258L244.74 73.9258L244.74 73.793L245.3 73.793L245.3 73.9258L245.859 73.9258L245.859 73.793L246.419 73.793L246.419 73.9258L246.979 73.9258L246.979 73.793L247.538 73.793L247.538 73.9258L248.099 73.9258L248.099 73.793L248.658 73.793L248.658 73.9258L249.218 73.9258L249.218 73.793L249.777 73.793L249.777 73.9258L250.337 73.9258L250.337 73.793L250.896 73.793L250.896 73.9258L251.456 73.9258L251.456 73.793L252.017 73.793L252.017 73.9258L252.576 73.9258L252.576 73.793L253.136 73.793L253.136 73.9258L253.695 73.9258L253.695 73.793L254.255 73.793L254.255 73.9258L254.814 73.9258L254.814 73.793L255.374 73.793L255.374 73.9258L255.934 73.9258L255.934 73.793L256.494 73.793L256.494 73.9258L257.054 73.9258L257.054 73.793L257.613 73.793L257.613 73.9258L258.173 73.9258L258.173 73.793L258.732 73.793L258.732 73.9258L259.292 73.9258L259.292 73.793L259.852 73.793L259.852 73.9258L260.412 73.9258L260.412 73.793L260.691 73.793C260.776 73.793 260.861 73.7912 260.945 73.7871L260.952 73.9189L260.952 73.9199C261.126 73.9114 261.298 73.8934 261.469 73.8682L261.45 73.7373C261.618 73.7124 261.784 73.6787 261.948 73.6377L261.98 73.7676C262.149 73.7253 262.316 73.6747 262.479 73.6162L262.479 73.6152L262.435 73.4902C262.594 73.4332 262.75 73.3692 262.903 73.2969L262.96 73.417C263.117 73.3428 263.27 73.2603 263.419 73.1709L263.352 73.0566C263.496 72.9699 263.637 72.8763 263.773 72.7754L263.852 72.8818C263.991 72.7787 264.126 72.6689 264.255 72.5517L264.166 72.4531C264.229 72.3964 264.29 72.3373 264.35 72.2773L264.547 72.081L264.64 72.1748L265.033 71.7812L264.939 71.6875L265.333 71.2949L265.426 71.3887L265.819 70.9951L265.727 70.9014L266.119 70.5078L266.213 70.6016L266.605 70.209L266.513 70.1152L266.906 69.7217L266.999 69.8154L267.393 69.4219L267.299 69.3281L267.692 68.9355L267.785 69.0293L268.179 68.6357L268.086 68.542L268.479 68.1484L268.572 68.2422L268.965 67.8496L268.872 67.7558L269.266 67.3623L269.358 67.456L269.752 67.0625L269.658 66.9687L270.052 66.5762L270.145 66.6699L270.538 66.2764L270.445 66.1826L270.839 65.7891L270.932 65.8828L271.324 65.4902L271.231 65.3965L271.625 65.0029L271.718 65.0967L272.111 64.7031L272.019 64.6094L272.411 64.2158L272.504 64.3105L272.897 63.917L272.805 63.8232L273.198 63.4297L273.291 63.5234L273.684 63.1308L273.591 63.0361L273.984 62.6435L274.077 62.7373L274.471 62.3437L274.378 62.25L274.771 61.8564L274.864 61.9502L275.257 61.5576L275.164 61.4639L275.558 61.0703L275.65 61.1641L276.044 60.7705L275.95 60.6767L276.344 60.2842L276.437 60.3779L276.83 59.9844L276.737 59.8906L277.13 59.4971L277.224 59.5908L277.616 59.1982L277.523 59.1045L277.917 58.7109L278.01 58.8047L278.403 58.4111L278.31 58.3174L278.703 57.9248L278.796 58.0185L279.189 57.625L279.097 57.5312L279.489 57.1377L279.583 57.2314L279.976 56.8389L279.883 56.7451L280.276 56.3516L280.369 56.4453L280.763 56.0517L280.67 55.958L281.062 55.5654L281.155 55.6592L281.549 55.2656L281.456 55.1719L281.85 54.7783L281.942 54.8721L282.335 54.4795L282.242 54.3848L282.636 53.9922L282.729 54.0859L283.122 53.6924L283.029 53.5986L283.422 53.2051L283.516 53.2988L283.908 52.9062L283.815 52.8125L284.209 52.4189L284.302 52.5127L284.695 52.1191L284.602 52.0254L284.995 51.6328L285.088 51.7266L285.481 51.333L285.389 51.2392L285.781 50.8457L285.875 50.9394L286.268 50.5469L286.175 50.4531L286.568 50.0596L286.661 50.1533L287.055 49.7598L286.961 49.666L287.354 49.2734L287.447 49.3672L287.841 48.9736L287.748 48.8799L288.141 48.4863L288.234 48.5801L288.627 48.1875L288.534 48.0937L288.928 47.7002L289.021 47.7939L289.414 47.4004L289.32 47.3066L289.714 46.9141L289.807 47.0078L290.2 46.6142L290.107 46.5205L290.501 46.1269L290.594 46.2207L290.986 45.8281L290.894 45.7334L291.287 45.3408L291.38 45.4346L291.773 45.041L291.681 44.9473L292.073 44.5537L292.166 44.6484L292.56 44.2549L292.467 44.1611L292.86 43.7676L292.953 43.8613L293.347 43.4678L293.253 43.374L293.646 42.9814L293.739 43.0752L294.133 42.6816L294.04 42.5879L294.433 42.1943L294.526 42.2881L294.919 41.8955L294.826 41.8017L295.22 41.4082L295.312 41.5019L295.706 41.1084L295.612 41.0146L296.006 40.6221L296.099 40.7158L296.492 40.3223L296.399 40.2285L296.792 39.8349L296.886 39.9287L297.278 39.5361L297.186 39.4424L297.382 39.2451C297.451 39.1762 297.518 39.1059 297.582 39.0342L297.68 39.123C297.814 38.9734 297.937 38.8175 298.051 38.6572L297.944 38.581C298.057 38.422 298.16 38.2578 298.253 38.0898L298.367 38.1543C298.464 37.9794 298.55 37.8007 298.626 37.6182L298.505 37.5674C298.579 37.3878 298.643 37.2048 298.696 37.0195L298.822 37.0566C298.877 36.8651 298.92 36.6711 298.953 36.4756L298.825 36.4541C298.857 36.263 298.879 36.07 298.89 35.8769L299.021 35.8848Z" stroke="#677489" stroke-width="0.26532" stroke-dasharray="0.56 0.56"/>
<path opacity="0.6" d="M129.067 40.7393L129.465 40.3418L129.465 40.3408L129.371 40.2471L129.769 39.8486L129.862 39.9424L129.862 39.9434L130.259 39.5449L130.259 39.5439L130.165 39.4502L130.364 39.251C130.433 39.1821 130.5 39.1117 130.563 39.04L130.661 39.1279C130.795 38.9784 130.918 38.8232 131.031 38.6631L130.925 38.5859C131.038 38.4268 131.141 38.2629 131.233 38.0947L131.348 38.1572C131.444 37.9826 131.53 37.8043 131.605 37.6221L131.483 37.5713C131.557 37.3916 131.621 37.2088 131.674 37.0234L131.801 37.0596C131.855 36.8684 131.898 36.6746 131.931 36.4795L131.802 36.457C131.834 36.2661 131.855 36.0737 131.865 35.8809L131.996 35.8877C132.007 35.6899 132.006 35.4917 131.995 35.2939L131.864 35.2998C131.853 35.1069 131.831 34.9145 131.799 34.7236L131.927 34.7021C131.893 34.5069 131.85 34.3133 131.795 34.1221L131.669 34.1582C131.615 33.973 131.551 33.7898 131.477 33.6103L131.598 33.5605C131.522 33.3784 131.436 33.1998 131.339 33.0254L131.225 33.0889C131.131 32.921 131.027 32.7565 130.914 32.5977L131.021 32.5225C130.906 32.3625 130.783 32.2068 130.649 32.0576L130.551 32.1455L130.352 31.9346L130.152 31.7363L130.246 31.6426L129.849 31.248L129.756 31.3408L129.358 30.9453L129.452 30.8516L129.056 30.456L128.962 30.5498L128.564 30.1543L128.658 30.0605L128.262 29.665L128.168 29.7588L127.771 29.3633L127.863 29.2695L127.467 28.873L127.374 28.9678L126.977 28.5713L127.07 28.4775L126.673 28.082L126.579 28.1758L126.183 27.7803L126.276 27.6865L125.879 27.291L125.785 27.3848L125.389 26.9893L125.482 26.8955L125.084 26.5L124.991 26.5937L124.595 26.1982L124.687 26.1045L124.291 25.708L124.197 25.8018L123.801 25.4062L123.894 25.3135L123.497 24.917L123.403 25.0107L123.007 24.6152L123.1 24.5225L122.703 24.126L122.609 24.2197L122.213 23.8242L122.306 23.7295L121.908 23.335L121.815 23.4287L121.418 23.0322L121.512 22.9385L121.114 22.5439L121.021 22.6367L120.624 22.2412L120.718 22.1475L120.321 21.7519L120.228 21.8457L119.83 21.4502L119.924 21.3564L119.526 20.9609L119.434 21.0547L119.036 20.6592L119.129 20.5654L118.732 20.1699L118.64 20.2627L118.242 19.8672L118.335 19.7744L117.938 19.3779L117.846 19.4717L117.448 19.0762L117.542 18.9824L117.145 18.5869L117.051 18.6807L116.654 18.2852L116.748 18.1914L116.35 17.7959L116.257 17.8896L115.86 17.4932L115.953 17.4004L115.557 17.0039L115.463 17.0977L115.066 16.7021L115.159 16.6094L114.763 16.2129L114.669 16.3066L114.272 15.9111L114.365 15.8184L113.969 15.4219L113.875 15.5156L113.479 15.1201L113.571 15.0264L113.174 14.6309L113.081 14.7236L112.685 14.3281L112.777 14.2344L112.38 13.8398L112.287 13.9326L111.89 13.5371L111.983 13.4434L111.587 13.0478L111.493 13.1416L111.096 12.7461L111.189 12.6523L110.792 12.2568L110.699 12.3506L110.302 11.9551L110.395 11.8613L109.998 11.4658L109.905 11.5586L109.508 11.1631L109.601 11.0703L109.204 10.6748L109.111 10.7676L108.714 10.3721L108.808 10.2783L108.41 9.88281L108.317 9.97656L107.92 9.58105L108.013 9.4873L107.615 9.09179L107.523 9.18554L107.126 8.78906L107.219 8.69629L106.822 8.2998L106.729 8.39355L106.332 7.99804L106.425 7.90527L106.028 7.50879L105.935 7.60254L105.538 7.20703L105.631 7.11425L105.233 6.71777L105.141 6.81152L104.744 6.41601L104.837 6.32226L104.439 5.92675L104.347 6.01953L103.95 5.62402L104.043 5.53125L103.646 5.13574L103.553 5.22851L103.156 4.833L103.249 4.73925L102.852 4.34472L102.759 4.4375L102.361 4.04199L102.455 3.94824L102.058 3.55273L101.965 3.64648L101.567 3.25L101.66 3.15722L101.264 2.76172L101.171 2.85449L100.773 2.45898L100.866 2.36621L100.47 1.9707L100.377 2.06347L99.9795 1.66797L100.073 1.57422L99.6758 1.17968L99.583 1.27246L99.3838 1.07422C99.3152 1.00584 99.2452 0.939687 99.1738 0.875973L99.2607 0.77734C99.1112 0.643956 98.956 0.520747 98.7959 0.407223L98.7207 0.514645C98.562 0.402098 98.3981 0.299548 98.2305 0.207028L98.293 0.0927702C98.1184 -0.00356719 97.94 -0.0898645 97.7578 -0.165042L97.708 -0.0439485C97.529 -0.117805 97.3468 -0.181462 97.1621 -0.234378L97.1973 -0.360355C97.0063 -0.415027 96.813 -0.45837 96.6182 -0.491214L96.5967 -0.362308C96.4061 -0.394428 96.214 -0.416039 96.0215 -0.426761L96.0283 -0.55762C95.8308 -0.568596 95.633 -0.568611 95.4355 -0.55762L95.4424 -0.426761C95.2498 -0.416028 95.0578 -0.394453 94.8672 -0.362308L94.8447 -0.491214C94.6499 -0.458322 94.4565 -0.415072 94.2656 -0.360355L94.3027 -0.234378C94.1178 -0.181412 93.935 -0.117901 93.7559 -0.0439482L93.7051 -0.165042C93.5229 -0.0898286 93.3445 -0.00359648 93.1699 0.0927706L93.2344 0.207028C93.0667 0.299562 92.9029 0.402074 92.7441 0.514646L92.667 0.4082C92.5071 0.52165 92.3514 0.644077 92.2021 0.777341L92.291 0.875974C92.2194 0.939838 92.1489 1.00566 92.0801 1.07422L91.8818 1.27246L91.7881 1.17871L91.7871 1.17871L91.3896 1.57422L91.4844 1.66797L91.0879 2.06347L90.9932 1.96972L90.5967 2.36621L90.6904 2.45898L90.2939 2.85449L90.1992 2.76074L89.8027 3.15722L89.8965 3.25L89.499 3.64648L89.4053 3.55176L89.0078 3.94824L89.1025 4.04199L88.7051 4.4375L88.6123 4.34375L88.6113 4.34375L88.2139 4.73926L88.3086 4.83301L87.9111 5.22851L87.8174 5.13574L87.4199 5.53027L87.5146 5.62402L87.1172 6.01953L87.0234 5.92676L86.6269 6.32226L86.7207 6.41601L86.3232 6.81152L86.2295 6.71777L85.832 7.11328L85.833 7.11328L85.9268 7.20703L85.5293 7.60254L85.4346 7.50879L85.0381 7.90429L85.1328 7.99804L84.7353 8.39355L84.6416 8.30078L84.2441 8.69531L84.3379 8.78906L83.9414 9.18554L83.8477 9.09179L83.4502 9.4873L83.5439 9.58105L83.1475 9.97656L83.0527 9.88281L82.6562 10.2793L82.75 10.3721L82.3535 10.7676L82.2588 10.6738L81.8623 11.0703L81.956 11.1631L81.5596 11.5586L81.4648 11.4648L81.0684 11.8613L81.1621 11.9551L80.7656 12.3506L80.6719 12.2568L80.2734 12.6523L80.3682 12.7461L79.9707 13.1416L79.8779 13.0478L79.8769 13.0478L79.4795 13.4434L79.5742 13.5371L79.1768 13.9326L79.083 13.8389L78.6865 14.2353L78.7803 14.3281L78.3828 14.7236L78.2891 14.6309L77.8926 15.0264L77.9863 15.1201L77.5889 15.5156L77.4941 15.4219L77.0977 15.8174L77.1924 15.9111L76.7949 16.3066L76.7012 16.2139L76.3037 16.6084L76.3984 16.7021L76.001 17.0977L75.9072 17.0049L75.5107 17.4004L75.6045 17.4932L75.207 17.8896L75.1133 17.7959L74.7158 18.1914L74.7168 18.1914L74.8096 18.2852L74.4131 18.6807L74.3184 18.5869L73.9219 18.9834L74.0156 19.0762L73.6191 19.4717L73.5254 19.3789L73.1279 19.7744L73.2217 19.8672L72.8252 20.2627L72.7314 20.1699L72.334 20.5654L72.4277 20.6592L72.0312 21.0547L71.9375 20.9609L71.9365 20.9609L71.54 21.3574L71.6338 21.4502L71.2373 21.8457L71.1426 21.752L70.7461 22.1484L70.8398 22.2412L70.4434 22.6367L70.3486 22.543L69.9521 22.9395L70.0459 23.0322L69.6484 23.4287L69.5557 23.335L69.1582 23.7305L69.2519 23.8242L68.8545 24.2197L68.7607 24.127L68.3633 24.5215L68.458 24.6152L68.0605 25.0107L67.9668 24.918L67.5703 25.3135L67.6641 25.4062L67.2666 25.8018L67.1728 25.709L66.7764 26.1045L66.8701 26.1982L66.4727 26.5937L66.3789 26.5L65.9814 26.8955L65.9824 26.8955L66.0762 26.9893L65.6787 27.3848L65.585 27.292L65.1875 27.6865L65.2812 27.7803L64.8848 28.1758L64.791 28.083L64.3936 28.4775L64.4873 28.5713L64.0908 28.9678L63.9971 28.874L63.5996 29.2695L63.6934 29.3633L63.2969 29.7588L63.2021 29.665L62.8057 30.0615L62.8994 30.1543L62.5029 30.5498L62.4082 30.4561L62.0117 30.8525L62.1055 30.9453L61.709 31.3408L61.6152 31.248L61.2178 31.6436L61.3115 31.7363L61.1133 31.9346L60.9131 32.1455L60.8144 32.0576C60.6803 32.207 60.5566 32.3624 60.4424 32.5225L60.5498 32.5977C60.4364 32.7565 60.3335 32.921 60.2402 33.0889L60.125 33.0254C60.0281 33.1999 59.941 33.3783 59.8652 33.5605L59.9873 33.6104C59.9127 33.7898 59.8484 33.973 59.7949 34.1582L59.668 34.1221C59.6128 34.3132 59.5694 34.507 59.5361 34.7021L59.666 34.7236C59.6334 34.9145 59.6107 35.1069 59.5996 35.2998L59.4678 35.2939C59.4564 35.4917 59.4571 35.6899 59.4678 35.8877L59.5986 35.8809C59.6091 36.0738 59.6312 36.2661 59.6631 36.457L59.5322 36.4795C59.5532 36.6048 59.5784 36.7296 59.6084 36.8535L59.6631 37.0596L59.79 37.0234C59.8429 37.2087 59.9065 37.3917 59.9805 37.5713L59.8574 37.6221C59.9326 37.8047 60.0198 37.9832 60.1162 38.1582L60.2314 38.0947C60.324 38.2627 60.4264 38.4269 60.5391 38.5859L60.4326 38.6631C60.546 38.823 60.6686 38.9786 60.8018 39.1279L60.9014 39.04L61.1006 39.251L61.2988 39.4502L61.2051 39.5439L61.6016 39.9424L61.6963 39.8486L62.0928 40.2471L61.999 40.3408L62.3965 40.7393L62.4902 40.6455L62.8867 41.0439L62.793 41.1377L63.1904 41.5361L63.2842 41.4424L63.6807 41.8408L63.5869 41.9346L63.9844 42.333L64.0781 42.2393L64.4746 42.6377L64.3809 42.7314L64.7783 43.1299L64.8721 43.0361L65.2695 43.4346L65.1748 43.5283L65.5723 43.9268L65.666 43.833L66.0635 44.2314L65.9687 44.3252L66.3662 44.7236L66.46 44.6299L66.8574 45.0283L66.7627 45.1221L67.1602 45.5195L67.2539 45.4268L67.6514 45.8242L67.5566 45.9189L67.9541 46.3164L68.0478 46.2227L68.4453 46.6211L68.3506 46.7158L68.748 47.1133L68.8418 47.0195L69.2393 47.418L69.1455 47.5117L69.542 47.9102L69.6367 47.8164L70.0332 48.2148L69.9395 48.3086L70.3359 48.707L70.4307 48.6133L70.8271 49.0117L70.7334 49.1055L71.1299 49.5039L71.2246 49.4102L71.6211 49.8086L71.5273 49.9023L71.9248 50.3008L72.0186 50.207L72.415 50.6055L72.3213 50.6992L72.7187 51.0977L72.8125 51.0039L73.209 51.4023L73.1152 51.4961L73.5127 51.8945L73.6064 51.8008L74.0029 52.1992L73.9092 52.292L74.3057 52.6914L74.3066 52.6904L74.4004 52.5977L74.7978 52.9951L74.7031 53.0889L75.0996 53.4883L75.1943 53.3936L75.5918 53.792L75.4971 53.8857L75.8945 54.2842L75.9883 54.1904L76.3857 54.5889L76.291 54.6826L76.6885 55.0811L76.7822 54.9873L77.1797 55.3857L77.085 55.4805L77.4824 55.8779L77.5762 55.7842L77.9736 56.1826L77.8799 56.2764L78.2764 56.6748L78.3701 56.5811L78.7676 56.9795L78.6738 57.0732L79.0703 57.4717L79.1641 57.3779L79.5615 57.7764L79.4678 57.8701L79.8643 58.2686L79.959 58.1748L80.3555 58.5732L80.2617 58.667L80.6582 59.0654L80.7529 58.9717L81.1494 59.3701L81.0557 59.4629L81.0547 59.4639L81.4521 59.8623L81.5469 59.7676L81.9434 60.166L81.8486 60.2607L82.2461 60.6592L82.3408 60.5645L82.7373 60.9629L82.6436 61.0566L83.04 61.4561L83.1348 61.3613L83.5312 61.7598L83.4375 61.8535L83.834 62.2529L83.9287 62.1582L84.3262 62.5566L84.2314 62.6504L84.6289 63.0488L84.7227 62.9551L85.1201 63.3535L85.0254 63.4473L85.4229 63.8457L85.5166 63.752L85.9141 64.1504L85.8193 64.2441L86.2168 64.6426L86.3105 64.5488L86.708 64.9473L86.6143 65.041L87.0107 65.4395L87.1045 65.3457L87.502 65.7441L87.4082 65.8379L87.8037 66.2363L87.8047 66.2353L87.8984 66.1426L88.2959 66.541L88.2021 66.6338L88.2012 66.6348L88.5977 67.0332L88.6924 66.9385L89.0898 67.3369L88.9951 67.4316L89.3926 67.8291L89.4873 67.7353L89.8838 68.1338L89.7891 68.2285L90.1865 68.626L90.2812 68.5322L90.6777 68.9307L90.583 69.0254L90.9805 69.4238L91.0752 69.3291L91.4717 69.7275L91.3779 69.8213L91.7744 70.2207L91.8691 70.126L92.0674 70.3252C92.1362 70.3943 92.2066 70.461 92.2783 70.5254L92.1895 70.624C92.3391 70.7585 92.4948 70.8826 92.6553 70.9971L92.7324 70.8896C92.8915 71.0031 93.0555 71.1069 93.2236 71.2002L93.1602 71.3154C93.3349 71.4123 93.5139 71.4985 93.6963 71.5742L93.7471 71.4521C93.9268 71.5267 94.1104 71.5911 94.2959 71.6445L94.2598 71.7715C94.4513 71.8266 94.6453 71.8702 94.8408 71.9033L94.8633 71.7734C95.0548 71.8059 95.2479 71.828 95.4414 71.8389L95.4336 71.9707C95.632 71.9818 95.8309 71.9818 96.0293 71.9707L96.0225 71.8389C96.2159 71.828 96.4092 71.8059 96.6006 71.7734L96.6221 71.9033C96.8179 71.8702 97.0123 71.8267 97.2041 71.7715L97.168 71.6445C97.3536 71.5911 97.5369 71.5267 97.7168 71.4521L97.7666 71.5742C97.9493 71.4985 98.1287 71.4125 98.3037 71.3154L98.2402 71.2002C98.4084 71.1069 98.5724 71.0031 98.7314 70.8896L98.8076 70.9971C98.9681 70.8826 99.1237 70.7585 99.2734 70.624L99.1855 70.5254C99.2572 70.461 99.3276 70.3943 99.3965 70.3252L99.5957 70.126L99.6895 70.2197L99.6895 70.2207L100.086 69.8223L100.086 69.8213L99.9922 69.7275L100.39 69.3291L100.483 69.4228L100.483 69.4238L100.88 69.0254L100.88 69.0244L100.786 68.9307L101.184 68.5322L101.277 68.626L101.277 68.6269L101.675 68.2285L101.675 68.2275L101.58 68.1338L101.978 67.7353L102.071 67.8291L102.071 67.8301L102.469 67.4316L102.469 67.4307L102.374 67.3369L102.771 66.9385L102.865 67.0322L102.865 67.0332L103.263 66.6348L103.263 66.6338L103.168 66.541L103.565 66.1426L103.659 66.2353L103.659 66.2363L104.056 65.8379L104.057 65.8379L103.963 65.7441L104.359 65.3457L104.453 65.4394L104.453 65.4404L104.85 65.041L104.851 65.041L104.757 64.9473L105.153 64.5488L105.247 64.6426L105.247 64.6436L105.645 64.2451L105.645 64.2441L105.551 64.1504L105.947 63.7519L106.041 63.8457L106.041 63.8467L106.438 63.4482L106.438 63.4473L106.345 63.3535L106.741 62.9551L106.835 63.0488L107.232 62.6514L107.232 62.6504L107.139 62.5566L107.535 62.1582L107.63 62.2519L107.63 62.2529L108.026 61.8545L108.026 61.8535L107.933 61.7598L108.33 61.3613L108.424 61.4551L108.424 61.4561L108.82 61.0576L108.82 61.0566L108.727 60.9629L109.124 60.5644L109.218 60.6582L109.218 60.6592L109.614 60.2607L109.614 60.2598L109.521 60.166L109.918 59.7676L110.012 59.8613L110.012 59.8623L110.408 59.4639L110.408 59.4629L110.314 59.3701L110.712 58.9717L110.806 59.0644L110.806 59.0654L111.202 58.667L111.108 58.5732L111.506 58.1748L111.599 58.2686L111.996 57.8701L111.997 57.8701L111.902 57.7764L112.3 57.3779L112.394 57.4717L112.394 57.4727L112.79 57.0732L112.791 57.0732L112.696 56.9795L113.094 56.5811L113.187 56.6748L113.187 56.6758L113.584 56.2764L113.585 56.2764L113.491 56.1826L113.888 55.7842L113.981 55.8779L113.981 55.8789L114.379 55.4805L114.379 55.4795L114.285 55.3857L114.682 54.9873L114.775 55.0811L114.775 55.082L115.173 54.6836L115.173 54.6826L115.079 54.5889L115.476 54.1904L115.569 54.2842L115.569 54.2852L115.967 53.8867L115.967 53.8857L115.873 53.792L116.27 53.3935L116.364 53.4873L116.364 53.4883L116.761 53.0898L116.761 53.0889L116.667 52.9951L117.063 52.5977L117.158 52.6904L117.158 52.6914L117.555 52.293L117.555 52.292L117.461 52.1992L117.858 51.8008L117.951 51.8945L118.349 51.4971L118.349 51.4961L118.255 51.4023L118.652 51.0039L118.745 51.0977L119.143 50.7002L119.143 50.6992L119.049 50.6055L119.446 50.207L119.539 50.3008L119.937 49.9033L119.937 49.9023L119.843 49.8086L120.24 49.4102L120.333 49.5039L120.73 49.1055L120.731 49.1055L120.637 49.0117L121.034 48.6133L121.128 48.707L121.128 48.708L121.524 48.3086L121.525 48.3086L121.431 48.2148L121.828 47.8164L121.922 47.9102L121.922 47.9111L122.318 47.5117L122.319 47.5117L122.225 47.418L122.622 47.0195L122.716 47.1133L122.716 47.1143L123.113 46.7158L123.113 46.7148L123.02 46.6211L123.416 46.2227L123.51 46.3164L123.51 46.3174L123.907 45.9189L123.907 45.918L123.813 45.8242L124.21 45.4268L124.304 45.5195L124.304 45.5205L124.7 45.1221L124.607 45.0283L125.004 44.6299L125.098 44.7236L125.098 44.7246L125.494 44.3252L125.495 44.3252L125.401 44.2314L125.798 43.833L125.892 43.9268L126.288 43.5283L126.289 43.5283L126.195 43.4346L126.592 43.0361L126.686 43.1299L127.082 42.7314L127.083 42.7314L126.989 42.6377L127.386 42.2393L127.479 42.333L127.877 41.9355L127.877 41.9346L127.783 41.8408L128.181 41.4424L128.273 41.5361L128.671 41.1387L128.671 41.1377L128.577 41.0439L128.975 40.6455L129.067 40.7393Z" stroke="url(#paint0_linear_348_3701)" stroke-width="0.26532" stroke-dasharray="0.56 0.56"/>
<path opacity="0.8" d="M342.22 40.7393L342.617 40.3418L342.617 40.3408L342.523 40.2471L342.921 39.8486L343.015 39.9424L343.015 39.9434L343.411 39.5449L343.411 39.5439L343.317 39.4502L343.517 39.251C343.585 39.1821 343.652 39.1117 343.716 39.04L343.813 39.1279C343.947 38.9784 344.07 38.8232 344.184 38.6631L344.077 38.5859C344.19 38.4268 344.293 38.2629 344.386 38.0947L344.5 38.1572C344.596 37.9826 344.683 37.8043 344.758 37.6221L344.636 37.5713C344.71 37.3916 344.773 37.2088 344.826 37.0234L344.953 37.0596C345.008 36.8684 345.05 36.6746 345.083 36.4795L344.954 36.457C344.986 36.2661 345.007 36.0737 345.018 35.8809L345.148 35.8877C345.159 35.6899 345.159 35.4917 345.147 35.2939L345.017 35.2998C345.005 35.1069 344.984 34.9145 344.951 34.7236L345.079 34.7021C345.046 34.5069 345.003 34.3133 344.947 34.1221L344.821 34.1582C344.768 33.973 344.704 33.7898 344.629 33.6103L344.75 33.5605C344.674 33.3784 344.588 33.1998 344.491 33.0254L344.377 33.0889C344.284 32.921 344.18 32.7565 344.066 32.5977L344.173 32.5225C344.059 32.3625 343.936 32.2068 343.802 32.0576L343.703 32.1455L343.504 31.9346L343.305 31.7363L343.398 31.6426L343.001 31.248L342.908 31.3408L342.511 30.9453L342.604 30.8516L342.208 30.456L342.114 30.5498L341.717 30.1543L341.811 30.0605L341.414 29.665L341.32 29.7588L340.923 29.3633L341.016 29.2695L340.619 28.873L340.526 28.9678L340.129 28.5713L340.223 28.4775L339.825 28.082L339.731 28.1758L339.335 27.7803L339.429 27.6865L339.031 27.291L338.937 27.3848L338.541 26.9893L338.635 26.8955L338.236 26.5L338.144 26.5937L337.747 26.1982L337.84 26.1045L337.443 25.708L337.35 25.8018L336.953 25.4062L337.046 25.3135L336.649 24.917L336.556 25.0107L336.159 24.6152L336.252 24.5225L335.855 24.126L335.762 24.2197L335.365 23.8242L335.458 23.7295L335.061 23.335L334.968 23.4287L334.57 23.0322L334.664 22.9385L334.267 22.5439L334.174 22.6367L333.776 22.2412L333.87 22.1475L333.474 21.7519L333.38 21.8457L332.982 21.4502L333.076 21.3564L332.679 20.9609L332.586 21.0547L332.188 20.6592L332.281 20.5654L331.885 20.1699L331.792 20.2627L331.395 19.8672L331.487 19.7744L331.091 19.3779L330.998 19.4717L330.601 19.0762L330.694 18.9824L330.297 18.5869L330.203 18.6807L329.807 18.2852L329.9 18.1914L329.502 17.7959L329.409 17.8896L329.013 17.4932L329.105 17.4004L328.709 17.0039L328.615 17.0977L328.219 16.7021L328.312 16.6094L327.915 16.2129L327.821 16.3066L327.425 15.9111L327.518 15.8184L327.121 15.4219L327.027 15.5156L326.631 15.1201L326.724 15.0264L326.326 14.6309L326.233 14.7236L325.837 14.3281L325.93 14.2344L325.532 13.8398L325.439 13.9326L325.042 13.5371L325.136 13.4434L324.739 13.0478L324.646 13.1416L324.248 12.7461L324.342 12.6523L323.944 12.2568L323.852 12.3506L323.454 11.9551L323.547 11.8613L323.15 11.4658L323.058 11.5586L322.66 11.1631L322.753 11.0703L322.356 10.6748L322.264 10.7676L321.866 10.3721L321.96 10.2783L321.562 9.88281L321.47 9.97656L321.072 9.58105L321.165 9.4873L320.768 9.09179L320.676 9.18554L320.278 8.78906L320.371 8.69629L319.975 8.2998L319.881 8.39355L319.484 7.99804L319.577 7.90527L319.181 7.50879L319.087 7.60254L318.69 7.20703L318.783 7.11425L318.386 6.71777L318.293 6.81152L317.896 6.41601L317.989 6.32226L317.592 5.92675L317.499 6.01953L317.103 5.62402L317.195 5.53125L316.798 5.13574L316.705 5.22851L316.309 4.833L316.401 4.73925L316.004 4.34472L315.911 4.4375L315.514 4.04199L315.607 3.94824L315.21 3.55273L315.117 3.64648L314.72 3.25L314.812 3.15722L314.416 2.76172L314.323 2.85449L313.926 2.45898L314.019 2.36621L313.622 1.9707L313.529 2.06347L313.132 1.66797L313.226 1.57422L312.828 1.17968L312.735 1.27246L312.536 1.07422C312.468 1.00584 312.398 0.939687 312.326 0.875973L312.413 0.77734C312.264 0.643956 312.108 0.520747 311.948 0.407223L311.873 0.514645C311.714 0.402098 311.55 0.299548 311.383 0.207028L311.445 0.0927702C311.271 -0.00356719 311.092 -0.0898645 310.91 -0.165042L310.86 -0.0439485C310.681 -0.117805 310.499 -0.181462 310.314 -0.234378L310.35 -0.360355C310.159 -0.415027 309.965 -0.45837 309.771 -0.491214L309.749 -0.362308C309.558 -0.394428 309.366 -0.416039 309.174 -0.426761L309.181 -0.55762C308.983 -0.568596 308.785 -0.568611 308.588 -0.55762L308.595 -0.426761C308.402 -0.416028 308.21 -0.394453 308.02 -0.362308L307.997 -0.491214C307.802 -0.458322 307.609 -0.415072 307.418 -0.360355L307.455 -0.234378C307.27 -0.181412 307.087 -0.117901 306.908 -0.0439482L306.857 -0.165042C306.675 -0.0898286 306.497 -0.00359648 306.322 0.0927706L306.387 0.207028C306.219 0.299562 306.055 0.402074 305.896 0.514646L305.819 0.4082C305.659 0.52165 305.504 0.644077 305.354 0.777341L305.443 0.875974C305.372 0.939838 305.301 1.00566 305.232 1.07422L305.034 1.27246L304.94 1.17871L304.939 1.17871L304.542 1.57422L304.637 1.66797L304.24 2.06347L304.146 1.96972L303.749 2.36621L303.843 2.45898L303.446 2.85449L303.352 2.76074L302.955 3.15722L303.049 3.25L302.651 3.64648L302.558 3.55176L302.16 3.94824L302.255 4.04199L301.857 4.4375L301.765 4.34375L301.764 4.34375L301.366 4.73926L301.461 4.83301L301.063 5.22851L300.97 5.13574L300.572 5.53027L300.667 5.62402L300.27 6.01953L300.176 5.92676L299.779 6.32226L299.873 6.41601L299.476 6.81152L299.382 6.71777L298.984 7.11328L298.985 7.11328L299.079 7.20703L298.682 7.60254L298.587 7.50879L298.19 7.90429L298.285 7.99804L297.888 8.39355L297.794 8.30078L297.396 8.69531L297.49 8.78906L297.094 9.18554L297 9.09179L296.603 9.4873L296.696 9.58105L296.3 9.97656L296.205 9.88281L295.809 10.2793L295.902 10.3721L295.506 10.7676L295.411 10.6738L295.015 11.0703L295.108 11.1631L294.712 11.5586L294.617 11.4648L294.221 11.8613L294.314 11.9551L293.918 12.3506L293.824 12.2568L293.426 12.6523L293.521 12.7461L293.123 13.1416L293.03 13.0478L293.029 13.0478L292.632 13.4434L292.727 13.5371L292.329 13.9326L292.235 13.8389L291.839 14.2353L291.933 14.3281L291.535 14.7236L291.441 14.6309L291.045 15.0264L291.139 15.1201L290.741 15.5156L290.646 15.4219L290.25 15.8174L290.345 15.9111L289.947 16.3066L289.854 16.2139L289.456 16.6084L289.551 16.7021L289.153 17.0977L289.06 17.0049L288.663 17.4004L288.757 17.4932L288.359 17.8896L288.266 17.7959L287.868 18.1914L287.869 18.1914L287.962 18.2852L287.565 18.6807L287.471 18.5869L287.074 18.9834L287.168 19.0762L286.771 19.4717L286.678 19.3789L286.28 19.7744L286.374 19.8672L285.978 20.2627L285.884 20.1699L285.486 20.5654L285.58 20.6592L285.184 21.0547L285.09 20.9609L285.089 20.9609L284.692 21.3574L284.786 21.4502L284.39 21.8457L284.295 21.752L283.898 22.1484L283.992 22.2412L283.596 22.6367L283.501 22.543L283.104 22.9395L283.198 23.0322L282.801 23.4287L282.708 23.335L282.311 23.7305L282.404 23.8242L282.007 24.2197L281.913 24.127L281.516 24.5215L281.61 24.6152L281.213 25.0107L281.119 24.918L280.723 25.3135L280.816 25.4062L280.419 25.8018L280.325 25.709L279.929 26.1045L280.022 26.1982L279.625 26.5937L279.531 26.5L279.134 26.8955L279.135 26.8955L279.229 26.9893L278.831 27.3848L278.737 27.292L278.34 27.6865L278.434 27.7803L278.037 28.1758L277.943 28.083L277.546 28.4775L277.64 28.5713L277.243 28.9678L277.149 28.874L276.752 29.2695L276.846 29.3633L276.449 29.7588L276.354 29.665L275.958 30.0615L276.052 30.1543L275.655 30.5498L275.561 30.4561L275.164 30.8525L275.258 30.9453L274.861 31.3408L274.768 31.248L274.37 31.6436L274.464 31.7363L274.266 31.9346L274.065 32.1455L273.967 32.0576C273.833 32.207 273.709 32.3624 273.595 32.5225L273.702 32.5977C273.589 32.7565 273.486 32.921 273.393 33.0889L273.277 33.0254C273.18 33.1999 273.093 33.3783 273.018 33.5605L273.14 33.6104C273.065 33.7898 273.001 33.973 272.947 34.1582L272.82 34.1221C272.765 34.3132 272.722 34.507 272.688 34.7021L272.818 34.7236C272.786 34.9145 272.763 35.1069 272.752 35.2998L272.62 35.2939C272.609 35.4917 272.609 35.6899 272.62 35.8877L272.751 35.8809C272.761 36.0738 272.783 36.2661 272.815 36.457L272.685 36.4795C272.706 36.6048 272.731 36.7296 272.761 36.8535L272.815 37.0596L272.942 37.0234C272.995 37.2087 273.059 37.3917 273.133 37.5713L273.01 37.6221C273.085 37.8047 273.172 37.9832 273.269 38.1582L273.384 38.0947C273.476 38.2627 273.579 38.4269 273.691 38.5859L273.585 38.6631C273.698 38.823 273.821 38.9786 273.954 39.1279L274.054 39.04L274.253 39.251L274.451 39.4502L274.357 39.5439L274.754 39.9424L274.849 39.8486L275.245 40.2471L275.151 40.3408L275.549 40.7393L275.643 40.6455L276.039 41.0439L275.945 41.1377L276.343 41.5361L276.437 41.4424L276.833 41.8408L276.739 41.9346L277.137 42.333L277.23 42.2393L277.627 42.6377L277.533 42.7314L277.931 43.1299L278.024 43.0361L278.422 43.4346L278.327 43.5283L278.725 43.9268L278.818 43.833L279.216 44.2314L279.121 44.3252L279.519 44.7236L279.612 44.6299L280.01 45.0283L279.915 45.1221L280.312 45.5195L280.406 45.4268L280.804 45.8242L280.709 45.9189L281.106 46.3164L281.2 46.2227L281.598 46.6211L281.503 46.7158L281.9 47.1133L281.994 47.0195L282.392 47.418L282.298 47.5117L282.694 47.9102L282.789 47.8164L283.186 48.2148L283.092 48.3086L283.488 48.707L283.583 48.6133L283.979 49.0117L283.886 49.1055L284.282 49.5039L284.377 49.4102L284.773 49.8086L284.68 49.9023L285.077 50.3008L285.171 50.207L285.567 50.6055L285.474 50.6992L285.871 51.0977L285.965 51.0039L286.361 51.4023L286.268 51.4961L286.665 51.8945L286.759 51.8008L287.155 52.1992L287.062 52.292L287.458 52.6914L287.459 52.6904L287.553 52.5977L287.95 52.9951L287.855 53.0889L288.252 53.4883L288.347 53.3936L288.744 53.792L288.649 53.8857L289.047 54.2842L289.141 54.1904L289.538 54.5889L289.443 54.6826L289.841 55.0811L289.935 54.9873L290.332 55.3857L290.237 55.4805L290.635 55.8779L290.729 55.7842L291.126 56.1826L291.032 56.2764L291.429 56.6748L291.522 56.5811L291.92 56.9795L291.826 57.0732L292.223 57.4717L292.316 57.3779L292.714 57.7764L292.62 57.8701L293.017 58.2686L293.111 58.1748L293.508 58.5732L293.414 58.667L293.811 59.0654L293.905 58.9717L294.302 59.3701L294.208 59.4629L294.207 59.4639L294.604 59.8623L294.699 59.7676L295.096 60.166L295.001 60.2607L295.398 60.6592L295.493 60.5645L295.89 60.9629L295.796 61.0566L296.192 61.4561L296.287 61.3613L296.684 61.7598L296.59 61.8535L296.986 62.2529L297.081 62.1582L297.479 62.5566L297.384 62.6504L297.781 63.0488L297.875 62.9551L298.272 63.3535L298.178 63.4473L298.575 63.8457L298.669 63.752L299.066 64.1504L298.972 64.2441L299.369 64.6426L299.463 64.5488L299.86 64.9473L299.767 65.041L300.163 65.4395L300.257 65.3457L300.654 65.7441L300.561 65.8379L300.956 66.2363L300.957 66.2353L301.051 66.1426L301.448 66.541L301.354 66.6338L301.354 66.6348L301.75 67.0332L301.845 66.9385L302.242 67.3369L302.147 67.4316L302.545 67.8291L302.64 67.7353L303.036 68.1338L302.941 68.2285L303.339 68.626L303.434 68.5322L303.83 68.9307L303.735 69.0254L304.133 69.4238L304.228 69.3291L304.624 69.7275L304.53 69.8213L304.927 70.2207L305.021 70.126L305.22 70.3252C305.289 70.3943 305.359 70.461 305.431 70.5254L305.342 70.624C305.491 70.7585 305.647 70.8826 305.808 70.9971L305.885 70.8896C306.044 71.0031 306.208 71.1069 306.376 71.2002L306.312 71.3154C306.487 71.4123 306.666 71.4985 306.849 71.5742L306.899 71.4521C307.079 71.5267 307.263 71.5911 307.448 71.6445L307.412 71.7715C307.604 71.8266 307.798 71.8702 307.993 71.9033L308.016 71.7734C308.207 71.8059 308.4 71.828 308.594 71.8389L308.586 71.9707C308.784 71.9818 308.983 71.9818 309.182 71.9707L309.175 71.8389C309.368 71.828 309.562 71.8059 309.753 71.7734L309.774 71.9033C309.97 71.8702 310.165 71.8267 310.356 71.7715L310.32 71.6445C310.506 71.5911 310.689 71.5267 310.869 71.4521L310.919 71.5742C311.102 71.4985 311.281 71.4125 311.456 71.3154L311.393 71.2002C311.561 71.1069 311.725 71.0031 311.884 70.8896L311.96 70.9971C312.12 70.8826 312.276 70.7585 312.426 70.624L312.338 70.5254C312.41 70.461 312.48 70.3943 312.549 70.3252L312.748 70.126L312.842 70.2197L312.842 70.2207L313.238 69.8223L313.238 69.8213L313.145 69.7275L313.542 69.3291L313.636 69.4228L313.636 69.4238L314.032 69.0254L314.032 69.0244L313.938 68.9307L314.336 68.5322L314.43 68.626L314.43 68.6269L314.827 68.2285L314.827 68.2275L314.732 68.1338L315.13 67.7353L315.224 67.8291L315.224 67.8301L315.621 67.4316L315.621 67.4307L315.526 67.3369L315.924 66.9385L316.018 67.0322L316.018 67.0332L316.415 66.6348L316.415 66.6338L316.32 66.541L316.718 66.1426L316.812 66.2353L316.812 66.2363L317.208 65.8379L317.209 65.8379L317.115 65.7441L317.512 65.3457L317.605 65.4394L317.605 65.4404L318.002 65.041L318.003 65.041L317.909 64.9473L318.306 64.5488L318.399 64.6426L318.399 64.6436L318.797 64.2451L318.797 64.2441L318.703 64.1504L319.1 63.7519L319.193 63.8457L319.193 63.8467L319.591 63.4482L319.591 63.4473L319.497 63.3535L319.894 62.9551L319.987 63.0488L320.385 62.6514L320.385 62.6504L320.291 62.5566L320.687 62.1582L320.782 62.2519L320.782 62.2529L321.179 61.8545L321.179 61.8535L321.085 61.7598L321.482 61.3613L321.576 61.4551L321.576 61.4561L321.973 61.0576L321.973 61.0566L321.879 60.9629L322.276 60.5644L322.37 60.6582L322.37 60.6592L322.767 60.2607L322.767 60.2598L322.673 60.166L323.07 59.7676L323.164 59.8613L323.164 59.8623L323.561 59.4639L323.561 59.4629L323.467 59.3701L323.864 58.9717L323.958 59.0644L323.958 59.0654L324.354 58.667L324.261 58.5732L324.658 58.1748L324.751 58.2686L325.148 57.8701L325.149 57.8701L325.055 57.7764L325.452 57.3779L325.546 57.4717L325.546 57.4727L325.942 57.0732L325.943 57.0732L325.849 56.9795L326.246 56.5811L326.34 56.6748L326.34 56.6758L326.736 56.2764L326.737 56.2764L326.644 56.1826L327.04 55.7842L327.134 55.8779L327.134 55.8789L327.531 55.4805L327.531 55.4795L327.437 55.3857L327.834 54.9873L327.928 55.0811L327.928 55.082L328.325 54.6836L328.325 54.6826L328.231 54.5889L328.628 54.1904L328.722 54.2842L328.722 54.2852L329.119 53.8867L329.119 53.8857L329.025 53.792L329.422 53.3935L329.517 53.4873L329.517 53.4883L329.913 53.0898L329.913 53.0889L329.819 52.9951L330.216 52.5977L330.311 52.6904L330.311 52.6914L330.707 52.293L330.707 52.292L330.613 52.1992L331.011 51.8008L331.104 51.8945L331.501 51.4971L331.501 51.4961L331.407 51.4023L331.805 51.0039L331.897 51.0977L332.295 50.7002L332.295 50.6992L332.201 50.6055L332.599 50.207L332.691 50.3008L333.089 49.9033L333.089 49.9023L332.995 49.8086L333.393 49.4102L333.485 49.5039L333.883 49.1055L333.884 49.1055L333.789 49.0117L334.187 48.6133L334.28 48.707L334.28 48.708L334.677 48.3086L334.678 48.3086L334.583 48.2148L334.98 47.8164L335.074 47.9102L335.074 47.9111L335.471 47.5117L335.472 47.5117L335.377 47.418L335.774 47.0195L335.868 47.1133L335.868 47.1143L336.266 46.7158L336.266 46.7148L336.172 46.6211L336.568 46.2227L336.662 46.3164L336.662 46.3174L337.06 45.9189L337.06 45.918L336.966 45.8242L337.362 45.4268L337.456 45.5195L337.456 45.5205L337.853 45.1221L337.76 45.0283L338.156 44.6299L338.25 44.7236L338.25 44.7246L338.646 44.3252L338.647 44.3252L338.554 44.2314L338.95 43.833L339.044 43.9268L339.44 43.5283L339.441 43.5283L339.348 43.4346L339.744 43.0361L339.838 43.1299L340.234 42.7314L340.235 42.7314L340.142 42.6377L340.538 42.2393L340.632 42.333L341.029 41.9355L341.029 41.9346L340.936 41.8408L341.333 41.4424L341.426 41.5361L341.823 41.1387L341.823 41.1377L341.729 41.0439L342.127 40.6455L342.22 40.7393Z" stroke="#364153" stroke-width="0.26532" stroke-dasharray="0.56 0.56"/>
<g clip-path="url(#clip1_348_3701)">
<path d="M232.985 24.8849C232.956 24.7162 232.815 24.6037 232.673 24.6037C232.532 24.6037 230.04 24.5475 230.04 24.5475C230.04 24.5475 227.945 22.5234 227.747 22.3266C227.549 22.1298 227.124 22.1861 226.983 22.2423C226.983 22.2423 226.587 22.3547 225.935 22.5515C225.822 22.1861 225.652 21.7644 225.426 21.3146C224.69 19.9089 223.586 19.1499 222.283 19.1499C222.198 19.1499 222.114 19.1499 222 19.178C221.972 19.1218 221.915 19.0937 221.887 19.0375C221.321 18.419 220.585 18.1379 219.707 18.166C218.008 18.2222 216.31 19.431 214.951 21.5957C213.988 23.1138 213.252 25.0254 213.026 26.5154C211.072 27.1057 209.714 27.5274 209.685 27.5555C208.694 27.8648 208.666 27.8929 208.553 28.8206C208.468 29.5234 205.863 49.3427 205.863 49.3427L227.493 53.0535L236.863 50.7483C236.835 50.7202 233.013 25.0535 232.985 24.8849ZM224.86 22.8889C224.35 23.0294 223.784 23.2262 223.189 23.3949C223.189 22.5515 223.076 21.3427 222.68 20.3306C223.954 20.5836 224.577 22.0174 224.86 22.8889ZM222.029 23.7604C220.896 24.0977 219.65 24.4913 218.405 24.8567C218.745 23.5355 219.424 22.2142 220.217 21.3427C220.528 21.0334 220.953 20.668 221.434 20.4431C221.944 21.427 222.057 22.8045 222.029 23.7604ZM219.735 19.2905C220.132 19.2905 220.472 19.3748 220.755 19.5435C220.302 19.7965 219.849 20.1338 219.424 20.5836C218.348 21.7363 217.527 23.5355 217.187 25.2503C216.168 25.5596 215.149 25.8688 214.215 26.1499C214.809 23.4511 217.103 19.3748 219.735 19.2905Z" fill="#95BF47"/>
<path d="M232.673 24.6037C232.532 24.6037 230.04 24.5475 230.04 24.5475C230.04 24.5475 227.945 22.5234 227.747 22.3266C227.662 22.2423 227.577 22.2141 227.464 22.186V53.0254L236.835 50.7202C236.835 50.7202 233.013 25.0535 232.985 24.8567C232.956 24.7162 232.815 24.6037 232.673 24.6037Z" fill="#5E8E3E"/>
<path d="M222.255 29.3828L221.179 33.4309C221.179 33.4309 219.962 32.8687 218.518 32.9811C216.395 33.1217 216.395 34.443 216.395 34.7803C216.508 36.5795 221.293 36.9731 221.576 41.2181C221.774 44.5635 219.792 46.8406 216.933 47.0093C213.479 47.2342 211.582 45.2101 211.582 45.2101L212.318 42.1177C212.318 42.1177 214.215 43.5514 215.744 43.439C216.735 43.3828 217.103 42.5675 217.074 42.0052C216.933 39.6438 213.026 39.7844 212.771 35.9048C212.573 32.6438 214.724 29.3265 219.481 29.0454C221.321 28.9048 222.255 29.3828 222.255 29.3828Z" fill="white"/>
</g>
<path opacity="0.6" d="M380.426 40.7393L380.823 40.3418L380.823 40.3408L380.729 40.2471L381.127 39.8486L381.221 39.9424L381.221 39.9434L381.617 39.5449L381.617 39.5439L381.523 39.4502L381.723 39.251C381.791 39.1821 381.858 39.1117 381.922 39.04L382.02 39.1279C382.153 38.9784 382.276 38.8232 382.39 38.6631L382.283 38.5859C382.396 38.4268 382.499 38.2629 382.592 38.0947L382.706 38.1572C382.802 37.9826 382.889 37.8043 382.964 37.6221L382.842 37.5713C382.916 37.3916 382.979 37.2088 383.032 37.0234L383.159 37.0596C383.214 36.8684 383.256 36.6746 383.289 36.4795L383.16 36.457C383.192 36.2661 383.213 36.0737 383.224 35.8809L383.354 35.8877C383.365 35.6899 383.365 35.4917 383.354 35.2939L383.223 35.2998C383.212 35.1069 383.19 34.9145 383.157 34.7236L383.285 34.7021C383.252 34.5069 383.209 34.3133 383.153 34.1221L383.027 34.1582C382.974 33.973 382.91 33.7898 382.835 33.6103L382.956 33.5605C382.88 33.3784 382.794 33.1998 382.697 33.0254L382.583 33.0889C382.49 32.921 382.386 32.7565 382.272 32.5977L382.379 32.5225C382.265 32.3625 382.142 32.2068 382.008 32.0576L381.909 32.1455L381.71 31.9346L381.511 31.7363L381.604 31.6426L381.207 31.248L381.114 31.3408L380.717 30.9453L380.811 30.8516L380.414 30.456L380.32 30.5498L379.923 30.1543L380.017 30.0605L379.62 29.665L379.526 29.7588L379.129 29.3633L379.222 29.2695L378.825 28.873L378.732 28.9678L378.335 28.5713L378.429 28.4775L378.031 28.082L377.937 28.1758L377.541 27.7803L377.635 27.6865L377.237 27.291L377.144 27.3848L376.747 26.9893L376.841 26.8955L376.442 26.5L376.35 26.5937L375.953 26.1982L376.046 26.1045L375.649 25.708L375.556 25.8018L375.159 25.4062L375.252 25.3135L374.855 24.917L374.762 25.0107L374.365 24.6152L374.458 24.5225L374.062 24.126L373.968 24.2197L373.571 23.8242L373.664 23.7295L373.267 23.335L373.174 23.4287L372.776 23.0322L372.87 22.9385L372.473 22.5439L372.38 22.6367L371.982 22.2412L372.076 22.1475L371.68 21.7519L371.586 21.8457L371.188 21.4502L371.282 21.3564L370.885 20.9609L370.792 21.0547L370.395 20.6592L370.487 20.5654L370.091 20.1699L369.998 20.2627L369.601 19.8672L369.693 19.7744L369.297 19.3779L369.204 19.4717L368.807 19.0762L368.9 18.9824L368.503 18.5869L368.409 18.6807L368.013 18.2852L368.106 18.1914L367.708 17.7959L367.615 17.8896L367.219 17.4932L367.312 17.4004L366.915 17.0039L366.821 17.0977L366.425 16.7021L366.518 16.6094L366.121 16.2129L366.027 16.3066L365.631 15.9111L365.724 15.8184L365.327 15.4219L365.233 15.5156L364.837 15.1201L364.93 15.0264L364.532 14.6309L364.439 14.7236L364.043 14.3281L364.136 14.2344L363.738 13.8398L363.646 13.9326L363.248 13.5371L363.342 13.4434L362.945 13.0478L362.852 13.1416L362.454 12.7461L362.548 12.6523L362.15 12.2568L362.058 12.3506L361.66 11.9551L361.753 11.8613L361.356 11.4658L361.264 11.5586L360.866 11.1631L360.959 11.0703L360.562 10.6748L360.47 10.7676L360.072 10.3721L360.166 10.2783L359.769 9.88281L359.676 9.97656L359.278 9.58105L359.371 9.4873L358.974 9.09179L358.882 9.18554L358.484 8.78906L358.577 8.69629L358.181 8.2998L358.087 8.39355L357.69 7.99804L357.783 7.90527L357.387 7.50879L357.293 7.60254L356.896 7.20703L356.989 7.11425L356.592 6.71777L356.499 6.81152L356.103 6.41601L356.195 6.32226L355.798 5.92675L355.705 6.01953L355.309 5.62402L355.401 5.53125L355.004 5.13574L354.911 5.22851L354.515 4.833L354.607 4.73925L354.21 4.34472L354.117 4.4375L353.72 4.04199L353.813 3.94824L353.416 3.55273L353.323 3.64648L352.926 3.25L353.019 3.15722L352.622 2.76172L352.529 2.85449L352.132 2.45898L352.225 2.36621L351.828 1.9707L351.735 2.06347L351.338 1.66797L351.432 1.57422L351.034 1.17968L350.941 1.27246L350.742 1.07422C350.674 1.00584 350.604 0.939687 350.532 0.875973L350.619 0.77734C350.47 0.643956 350.314 0.520747 350.154 0.407223L350.079 0.514645C349.92 0.402098 349.757 0.299548 349.589 0.207028L349.651 0.0927702C349.477 -0.00356719 349.298 -0.0898645 349.116 -0.165042L349.066 -0.0439485C348.887 -0.117805 348.705 -0.181462 348.521 -0.234378L348.556 -0.360355C348.365 -0.415027 348.171 -0.45837 347.977 -0.491214L347.955 -0.362308C347.765 -0.394428 347.572 -0.416039 347.38 -0.426761L347.387 -0.55762C347.189 -0.568596 346.991 -0.568611 346.794 -0.55762L346.801 -0.426761C346.608 -0.416028 346.416 -0.394453 346.226 -0.362308L346.203 -0.491214C346.008 -0.458322 345.815 -0.415072 345.624 -0.360355L345.661 -0.234378C345.476 -0.181412 345.293 -0.117901 345.114 -0.0439482L345.063 -0.165042C344.881 -0.0898286 344.703 -0.00359648 344.528 0.0927706L344.593 0.207028C344.425 0.299562 344.261 0.402074 344.103 0.514646L344.025 0.4082C343.865 0.52165 343.71 0.644077 343.561 0.777341L343.649 0.875974C343.578 0.939838 343.507 1.00566 343.438 1.07422L343.24 1.27246L343.146 1.17871L343.146 1.17871L342.748 1.57422L342.843 1.66797L342.446 2.06347L342.352 1.96972L341.955 2.36621L342.049 2.45898L341.652 2.85449L341.558 2.76074L341.161 3.15722L341.255 3.25L340.857 3.64648L340.764 3.55176L340.366 3.94824L340.461 4.04199L340.063 4.4375L339.971 4.34375L339.97 4.34375L339.572 4.73926L339.667 4.83301L339.27 5.22851L339.176 5.13574L338.778 5.53027L338.873 5.62402L338.476 6.01953L338.382 5.92676L337.985 6.32226L338.079 6.41601L337.682 6.81152L337.588 6.71777L337.19 7.11328L337.191 7.11328L337.285 7.20703L336.888 7.60254L336.793 7.50879L336.396 7.90429L336.491 7.99804L336.094 8.39355L336 8.30078L335.603 8.69531L335.696 8.78906L335.3 9.18554L335.206 9.09179L334.809 9.4873L334.902 9.58105L334.506 9.97656L334.411 9.88281L334.015 10.2793L334.108 10.3721L333.712 10.7676L333.617 10.6738L333.221 11.0703L333.314 11.1631L332.918 11.5586L332.823 11.4648L332.427 11.8613L332.521 11.9551L332.124 12.3506L332.03 12.2568L331.632 12.6523L331.727 12.7461L331.329 13.1416L331.236 13.0478L331.235 13.0478L330.838 13.4434L330.933 13.5371L330.535 13.9326L330.441 13.8389L330.045 14.2353L330.139 14.3281L329.741 14.7236L329.647 14.6309L329.251 15.0264L329.345 15.1201L328.947 15.5156L328.853 15.4219L328.456 15.8174L328.551 15.9111L328.153 16.3066L328.06 16.2139L327.662 16.6084L327.757 16.7021L327.359 17.0977L327.266 17.0049L326.869 17.4004L326.963 17.4932L326.565 17.8896L326.472 17.7959L326.074 18.1914L326.075 18.1914L326.168 18.2852L325.771 18.6807L325.677 18.5869L325.28 18.9834L325.374 19.0762L324.978 19.4717L324.884 19.3789L324.486 19.7744L324.58 19.8672L324.184 20.2627L324.09 20.1699L323.692 20.5654L323.786 20.6592L323.39 21.0547L323.296 20.9609L323.295 20.9609L322.898 21.3574L322.992 21.4502L322.596 21.8457L322.501 21.752L322.104 22.1484L322.198 22.2412L321.802 22.6367L321.707 22.543L321.311 22.9395L321.404 23.0322L321.007 23.4287L320.914 23.335L320.517 23.7305L320.61 23.8242L320.213 24.2197L320.119 24.127L319.722 24.5215L319.816 24.6152L319.419 25.0107L319.325 24.918L318.929 25.3135L319.022 25.4062L318.625 25.8018L318.531 25.709L318.135 26.1045L318.229 26.1982L317.831 26.5937L317.737 26.5L317.34 26.8955L317.341 26.8955L317.435 26.9893L317.037 27.3848L316.943 27.292L316.546 27.6865L316.64 27.7803L316.243 28.1758L316.149 28.083L315.752 28.4775L315.846 28.5713L315.449 28.9678L315.355 28.874L314.958 29.2695L315.052 29.3633L314.655 29.7588L314.561 29.665L314.164 30.0615L314.258 30.1543L313.861 30.5498L313.767 30.4561L313.37 30.8525L313.464 30.9453L313.067 31.3408L312.974 31.248L312.576 31.6436L312.67 31.7363L312.472 31.9346L312.271 32.1455L312.173 32.0576C312.039 32.207 311.915 32.3624 311.801 32.5225L311.908 32.5977C311.795 32.7565 311.692 32.921 311.599 33.0889L311.483 33.0254C311.386 33.1999 311.299 33.3783 311.224 33.5605L311.346 33.6104C311.271 33.7898 311.207 33.973 311.153 34.1582L311.026 34.1221C310.971 34.3132 310.928 34.507 310.895 34.7021L311.024 34.7236C310.992 34.9145 310.969 35.1069 310.958 35.2998L310.826 35.2939C310.815 35.4917 310.815 35.6899 310.826 35.8877L310.957 35.8809C310.967 36.0738 310.99 36.2661 311.021 36.457L310.891 36.4795C310.912 36.6048 310.937 36.7296 310.967 36.8535L311.021 37.0596L311.148 37.0234C311.201 37.2087 311.265 37.3917 311.339 37.5713L311.216 37.6221C311.291 37.8047 311.378 37.9832 311.475 38.1582L311.59 38.0947C311.682 38.2627 311.785 38.4269 311.897 38.5859L311.791 38.6631C311.904 38.823 312.027 38.9786 312.16 39.1279L312.26 39.04L312.459 39.251L312.657 39.4502L312.563 39.5439L312.96 39.9424L313.055 39.8486L313.451 40.2471L313.357 40.3408L313.755 40.7393L313.849 40.6455L314.245 41.0439L314.151 41.1377L314.549 41.5361L314.643 41.4424L315.039 41.8408L314.945 41.9346L315.343 42.333L315.437 42.2393L315.833 42.6377L315.739 42.7314L316.137 43.1299L316.23 43.0361L316.628 43.4346L316.533 43.5283L316.931 43.9268L317.024 43.833L317.422 44.2314L317.327 44.3252L317.725 44.7236L317.818 44.6299L318.216 45.0283L318.121 45.1221L318.519 45.5195L318.612 45.4268L319.01 45.8242L318.915 45.9189L319.312 46.3164L319.406 46.2227L319.804 46.6211L319.709 46.7158L320.106 47.1133L320.2 47.0195L320.598 47.418L320.504 47.5117L320.9 47.9102L320.995 47.8164L321.392 48.2148L321.298 48.3086L321.694 48.707L321.789 48.6133L322.186 49.0117L322.092 49.1055L322.488 49.5039L322.583 49.4102L322.979 49.8086L322.886 49.9023L323.283 50.3008L323.377 50.207L323.773 50.6055L323.68 50.6992L324.077 51.0977L324.171 51.0039L324.567 51.4023L324.474 51.4961L324.871 51.8945L324.965 51.8008L325.361 52.1992L325.268 52.292L325.664 52.6914L325.665 52.6904L325.759 52.5977L326.156 52.9951L326.062 53.0889L326.458 53.4883L326.553 53.3936L326.95 53.792L326.855 53.8857L327.253 54.2842L327.347 54.1904L327.744 54.5889L327.649 54.6826L328.047 55.0811L328.141 54.9873L328.538 55.3857L328.443 55.4805L328.841 55.8779L328.935 55.7842L329.332 56.1826L329.238 56.2764L329.635 56.6748L329.729 56.5811L330.126 56.9795L330.032 57.0732L330.429 57.4717L330.522 57.3779L330.92 57.7764L330.826 57.8701L331.223 58.2686L331.317 58.1748L331.714 58.5732L331.62 58.667L332.017 59.0654L332.111 58.9717L332.508 59.3701L332.414 59.4629L332.413 59.4639L332.811 59.8623L332.905 59.7676L333.302 60.166L333.207 60.2607L333.604 60.6592L333.699 60.5645L334.096 60.9629L334.002 61.0566L334.398 61.4561L334.493 61.3613L334.89 61.7598L334.796 61.8535L335.192 62.2529L335.287 62.1582L335.685 62.5566L335.59 62.6504L335.987 63.0488L336.081 62.9551L336.479 63.3535L336.384 63.4473L336.781 63.8457L336.875 63.752L337.272 64.1504L337.178 64.2441L337.575 64.6426L337.669 64.5488L338.066 64.9473L337.973 65.041L338.369 65.4395L338.463 65.3457L338.86 65.7441L338.767 65.8379L339.162 66.2363L339.163 66.2353L339.257 66.1426L339.654 66.541L339.561 66.6338L339.56 66.6348L339.956 67.0332L340.051 66.9385L340.448 67.3369L340.354 67.4316L340.751 67.8291L340.846 67.7353L341.242 68.1338L341.147 68.2285L341.545 68.626L341.64 68.5322L342.036 68.9307L341.941 69.0254L342.339 69.4238L342.434 69.3291L342.83 69.7275L342.736 69.8213L343.133 70.2207L343.228 70.126L343.426 70.3252C343.495 70.3943 343.565 70.461 343.637 70.5254L343.548 70.624C343.698 70.7585 343.853 70.8826 344.014 70.9971L344.091 70.8896C344.25 71.0031 344.414 71.1069 344.582 71.2002L344.519 71.3154C344.693 71.4123 344.872 71.4985 345.055 71.5742L345.105 71.4521C345.285 71.5267 345.469 71.5911 345.654 71.6445L345.618 71.7715C345.81 71.8266 346.004 71.8702 346.199 71.9033L346.222 71.7734C346.413 71.8059 346.606 71.828 346.8 71.8389L346.792 71.9707C346.99 71.9818 347.189 71.9818 347.388 71.9707L347.381 71.8389C347.574 71.828 347.768 71.8059 347.959 71.7734L347.98 71.9033C348.176 71.8702 348.371 71.8267 348.562 71.7715L348.526 71.6445C348.712 71.5911 348.895 71.5267 349.075 71.4521L349.125 71.5742C349.308 71.4985 349.487 71.4125 349.662 71.3154L349.599 71.2002C349.767 71.1069 349.931 71.0031 350.09 70.8896L350.166 70.9971C350.326 70.8826 350.482 70.7585 350.632 70.624L350.544 70.5254C350.616 70.461 350.686 70.3943 350.755 70.3252L350.954 70.126L351.048 70.2197L351.048 70.2207L351.444 69.8223L351.444 69.8213L351.351 69.7275L351.748 69.3291L351.842 69.4228L351.842 69.4238L352.238 69.0254L352.238 69.0244L352.145 68.9307L352.542 68.5322L352.636 68.626L352.636 68.6269L353.033 68.2285L353.033 68.2275L352.938 68.1338L353.336 67.7353L353.43 67.8291L353.43 67.8301L353.827 67.4316L353.827 67.4307L353.732 67.3369L354.13 66.9385L354.224 67.0322L354.224 67.0332L354.621 66.6348L354.621 66.6338L354.526 66.541L354.924 66.1426L355.018 66.2353L355.018 66.2363L355.414 65.8379L355.415 65.8379L355.321 65.7441L355.718 65.3457L355.812 65.4394L355.812 65.4404L356.208 65.041L356.209 65.041L356.115 64.9473L356.512 64.5488L356.605 64.6426L356.605 64.6436L357.003 64.2451L357.003 64.2441L356.909 64.1504L357.306 63.7519L357.399 63.8457L357.399 63.8467L357.797 63.4482L357.797 63.4473L357.703 63.3535L358.1 62.9551L358.193 63.0488L358.591 62.6514L358.591 62.6504L358.497 62.5566L358.894 62.1582L358.988 62.2519L358.988 62.2529L359.385 61.8545L359.385 61.8535L359.291 61.7598L359.688 61.3613L359.782 61.4551L359.782 61.4561L360.179 61.0576L360.179 61.0566L360.085 60.9629L360.482 60.5644L360.576 60.6582L360.576 60.6592L360.973 60.2607L360.973 60.2598L360.879 60.166L361.276 59.7676L361.37 59.8613L361.37 59.8623L361.767 59.4639L361.767 59.4629L361.673 59.3701L362.07 58.9717L362.164 59.0644L362.164 59.0654L362.561 58.667L362.467 58.5732L362.864 58.1748L362.957 58.2686L363.354 57.8701L363.355 57.8701L363.261 57.7764L363.658 57.3779L363.752 57.4717L363.752 57.4727L364.148 57.0732L364.149 57.0732L364.055 56.9795L364.452 56.5811L364.546 56.6748L364.546 56.6758L364.942 56.2764L364.943 56.2764L364.85 56.1826L365.246 55.7842L365.34 55.8779L365.34 55.8789L365.737 55.4805L365.737 55.4795L365.644 55.3857L366.04 54.9873L366.134 55.0811L366.134 55.082L366.531 54.6836L366.531 54.6826L366.437 54.5889L366.834 54.1904L366.928 54.2842L366.928 54.2852L367.325 53.8867L367.325 53.8857L367.231 53.792L367.628 53.3935L367.723 53.4873L367.723 53.4883L368.119 53.0898L368.119 53.0889L368.025 52.9951L368.422 52.5977L368.517 52.6904L368.517 52.6914L368.913 52.293L368.913 52.292L368.819 52.1992L369.217 51.8008L369.31 51.8945L369.707 51.4971L369.707 51.4961L369.613 51.4023L370.011 51.0039L370.104 51.0977L370.501 50.7002L370.501 50.6992L370.407 50.6055L370.805 50.207L370.897 50.3008L371.295 49.9033L371.295 49.9023L371.201 49.8086L371.599 49.4102L371.691 49.5039L372.089 49.1055L372.09 49.1055L371.995 49.0117L372.393 48.6133L372.486 48.707L372.486 48.708L372.883 48.3086L372.884 48.3086L372.789 48.2148L373.187 47.8164L373.28 47.9102L373.28 47.9111L373.677 47.5117L373.678 47.5117L373.583 47.418L373.98 47.0195L374.074 47.1133L374.074 47.1143L374.472 46.7158L374.472 46.7148L374.378 46.6211L374.774 46.2227L374.868 46.3164L374.868 46.3174L375.266 45.9189L375.266 45.918L375.172 45.8242L375.568 45.4268L375.662 45.5195L375.662 45.5205L376.059 45.1221L375.966 45.0283L376.362 44.6299L376.456 44.7236L376.456 44.7246L376.853 44.3252L376.854 44.3252L376.76 44.2314L377.156 43.833L377.25 43.9268L377.646 43.5283L377.647 43.5283L377.554 43.4346L377.95 43.0361L378.044 43.1299L378.44 42.7314L378.441 42.7314L378.348 42.6377L378.744 42.2393L378.838 42.333L379.235 41.9355L379.235 41.9346L379.142 41.8408L379.539 41.4424L379.632 41.5361L380.029 41.1387L380.029 41.1377L379.936 41.0439L380.333 40.6455L380.426 40.7393Z" stroke="#364153" stroke-width="0.26532" stroke-dasharray="0.56 0.56"/>
</g>
<defs>
<linearGradient id="paint0_linear_348_3701" x1="134.204" y1="35.719" x2="57.2607" y2="35.719" gradientUnits="userSpaceOnUse">
<stop stop-color="#364153"/>
<stop offset="0.445" stop-color="#364153" stop-opacity="0"/>
</linearGradient>
<clipPath id="clip0_348_3701">
<rect width="374.67" height="72.3333" rx="14" fill="white"/>
</clipPath>
<clipPath id="clip1_348_3701">
<rect width="31" height="35" fill="white" transform="translate(205.835 18.166)"/>
</clipPath>
</defs>
</svg>
