<svg width="375" height="73" viewBox="0 0 375 73" fill="none" xmlns="http://www.w3.org/2000/svg">
<g clip-path="url(#clip0_19001_109172)">
<g clip-path="url(#clip1_19001_109172)">
<path opacity="0.4" d="M418.195 -1.81369L389.798 -1.81369C384.176 -1.81369 378.784 0.414325 374.803 4.38226L346.279 32.8073C344.202 34.8777 344.196 38.2403 346.266 40.3178L374.794 68.9437C378.78 72.9433 384.194 75.1914 389.841 75.1914L418.195 75.1914" stroke="#364153" stroke-width="0.265535" stroke-dasharray="0.56 0.56"/>
<path opacity="0.8" d="M162.836 41.4473L163.233 41.0488L163.234 41.0488L163.141 40.9551L163.538 40.5566L163.631 40.6504L164.028 40.2519L163.936 40.1582L164.134 39.958C164.202 39.889 164.269 39.8188 164.333 39.7471L164.432 39.835C164.565 39.6851 164.689 39.5296 164.803 39.3691L164.695 39.293C164.808 39.1336 164.911 38.9691 165.004 38.8008L165.118 38.8652C165.215 38.6901 165.301 38.5109 165.376 38.3281L165.255 38.2773C165.329 38.0975 165.392 37.9141 165.445 37.7285L165.571 37.7646C165.626 37.5733 165.669 37.3798 165.702 37.1846L165.573 37.1621C165.605 36.9709 165.626 36.7781 165.637 36.585L165.768 36.5918C165.778 36.3936 165.778 36.1952 165.767 35.9971L165.636 36.0039C165.625 35.8108 165.603 35.6179 165.57 35.4268L165.698 35.4053C165.665 35.2101 165.622 35.0164 165.566 34.8252L165.44 34.8613C165.387 34.6761 165.323 34.4929 165.248 34.3135L165.369 34.2627C165.293 34.0802 165.206 33.9014 165.109 33.7266L164.995 33.79C164.902 33.6222 164.798 33.4586 164.685 33.2998L164.792 33.2236C164.678 33.0634 164.553 32.9083 164.419 32.7588L164.321 32.8467L164.121 32.6357L163.923 32.4375L164.016 32.3447L163.618 31.9482L163.525 32.042L163.128 31.6455L163.221 31.5527L162.824 31.1562L162.73 31.25L162.333 30.8535L162.426 30.7607L162.029 30.3643L161.936 30.458L161.539 30.0615L161.632 29.9687L161.234 29.5732L161.142 29.666L160.744 29.2705L160.837 29.1768L160.439 28.7812L160.347 28.874L159.949 28.4785L160.042 28.3848L159.645 27.9893L159.552 28.082L159.154 27.6865L159.247 27.5928L158.851 27.1963L158.757 27.29L158.36 26.8945L158.453 26.8008L158.056 26.4053L157.963 26.498L157.565 26.1025L157.658 26.0088L157.261 25.6133L157.168 25.706L156.771 25.3105L156.864 25.2168L156.466 24.8213L156.373 24.9141L155.976 24.5185L156.069 24.4248L155.671 24.0293L155.579 24.1221L155.182 23.7266L155.274 23.6338L154.877 23.2373L154.784 23.331L154.387 22.9346L154.479 22.8418L154.082 22.4453L153.989 22.5391L153.592 22.1426L153.685 22.0498L153.287 21.6533L153.194 21.7471L152.797 21.3506L152.891 21.2568L152.493 20.8613L152.4 20.9551L152.003 20.5586L152.096 20.4658L151.698 20.0693L151.605 20.1631L151.208 19.7666L151.301 19.6738L150.904 19.2773L150.811 19.3711L150.413 18.9746L150.506 18.8818L150.109 18.4853L150.016 18.5791L149.618 18.1826L149.711 18.0898L149.314 17.6943L149.222 17.7871L148.824 17.3916L148.917 17.2978L148.52 16.9023L148.427 16.9951L148.029 16.5996L148.122 16.5059L147.726 16.1094L147.632 16.2031L147.234 15.8076L147.327 15.7139L146.931 15.3174L146.837 15.4111L146.44 15.0156L146.532 14.9219L146.136 14.5264L146.043 14.6191L145.646 14.2236L145.738 14.1299L145.341 13.7344L145.248 13.8271L144.851 13.4316L144.944 13.3379L144.546 12.9424L144.453 13.0352L144.056 12.6396L144.149 12.5459L143.752 12.1494L143.658 12.2432L143.262 11.8477L143.354 11.7549L142.957 11.3584L142.864 11.4521L142.467 11.0557L142.56 10.9629L142.162 10.5664L142.069 10.6602L141.672 10.2637L141.766 10.1699L141.367 9.77441L141.274 9.86816L140.877 9.47168L140.971 9.37793L140.572 8.98242L140.479 9.07617L140.083 8.67968L140.176 8.58691L139.778 8.19043L139.686 8.28418L139.288 7.88769L139.381 7.79492L138.984 7.39843L138.891 7.49218L138.493 7.0957L138.586 7.00293L138.189 6.60644L138.096 6.70019L137.698 6.30371L137.792 6.20996L137.395 5.81445L137.301 5.9082L136.904 5.51172L136.997 5.41894L136.6 5.02343L136.507 5.11621L136.109 4.7207L136.202 4.62695L135.806 4.23047L135.712 4.32422L135.314 3.92871L135.407 3.83496L135.011 3.43847L134.917 3.53222L134.52 3.13672L134.612 3.04297L134.216 2.64648L134.123 2.74023L133.726 2.34472L133.818 2.25097L133.421 1.85547L133.328 1.94824L133.129 1.75097C133.06 1.68228 132.99 1.61575 132.918 1.55175L133.006 1.45312C132.857 1.31987 132.701 1.19743 132.541 1.08398L132.465 1.19043C132.306 1.07773 132.142 0.974463 131.975 0.881833L132.037 0.767575C131.863 0.671256 131.684 0.584943 131.502 0.509762L131.452 0.631833C131.273 0.557817 131.09 0.493439 130.905 0.440427L130.94 0.31445C130.749 0.259784 130.556 0.216446 130.361 0.183591L130.34 0.312497C130.149 0.280319 129.956 0.25878 129.764 0.248044L129.771 0.117184C129.573 0.106196 129.375 0.106152 129.177 0.117184L129.185 0.248044C128.992 0.258782 128.799 0.280311 128.608 0.312497L128.587 0.183591C128.392 0.216506 128.198 0.259657 128.007 0.31445L128.043 0.440427C127.858 0.493427 127.675 0.557844 127.496 0.631833L127.445 0.509763C127.263 0.584926 127.086 0.672282 126.911 0.768552L126.975 0.881833C126.807 0.974475 126.642 1.07772 126.483 1.19043L126.406 1.08398C126.246 1.19744 126.091 1.31986 125.941 1.45312L126.03 1.55176C125.959 1.61572 125.888 1.68231 125.819 1.75097L125.62 1.94824L125.526 1.85547L125.129 2.25L125.224 2.34472L124.826 2.74023L124.731 2.64648L124.335 3.04297L124.429 3.13672L124.031 3.53222L123.937 3.43847L123.54 3.83496L123.634 3.92871L123.236 4.32422L123.142 4.23047L122.745 4.62695L122.839 4.7207L122.441 5.11621L122.348 5.02343L121.95 5.41797L122.045 5.51269L121.647 5.9082L121.554 5.81445L121.553 5.81445L121.155 6.20996L121.25 6.30371L120.853 6.70019L120.758 6.60644L120.361 7.00293L120.455 7.0957L120.058 7.49219L119.963 7.39844L119.566 7.79492L119.66 7.88769L119.264 8.28418L119.169 8.18945L118.771 8.58594L118.866 8.67969L118.469 9.07617L118.375 8.98242L117.977 9.37793L118.071 9.47168L117.674 9.86816L117.58 9.77441L117.182 10.1699L117.276 10.2637L116.879 10.6602L116.785 10.5664L116.388 10.9629L116.481 11.0557L116.085 11.4521L115.99 11.3574L115.593 11.7539L115.594 11.7539L115.687 11.8477L115.29 12.2432L115.195 12.1494L114.798 12.5459L114.893 12.6396L114.495 13.0352L114.401 12.9424L114.003 13.3379L114.098 13.4316L113.7 13.8271L113.606 13.7344L113.209 14.1299L113.303 14.2236L112.906 14.6191L112.812 14.5254L112.415 14.9219L112.509 15.0156L112.111 15.4111L112.017 15.3174L111.62 15.7139L111.714 15.8076L111.316 16.2031L111.222 16.1094L110.825 16.5059L110.919 16.5996L110.521 16.9951L110.428 16.9023L110.03 17.2969L110.124 17.3916L109.728 17.7871L109.634 17.6934L109.633 17.6934L109.236 18.0898L109.33 18.1826L108.933 18.5791L108.838 18.4854L108.441 18.8818L108.535 18.9746L108.138 19.3711L108.043 19.2773L107.646 19.6738L107.74 19.7666L107.343 20.1631L107.249 20.0693L106.852 20.4648L106.946 20.5586L106.549 20.9551L106.455 20.8613L106.057 21.2568L106.151 21.3506L105.754 21.7471L105.66 21.6533L105.263 22.0498L105.356 22.1426L104.959 22.5391L104.865 22.4453L104.468 22.8418L104.562 22.9346L104.164 23.3311L104.07 23.2373L103.673 23.6328L103.674 23.6328L103.768 23.7266L103.37 24.1221L103.276 24.0293L102.878 24.4248L102.973 24.5186L102.575 24.9141L102.481 24.8213L102.083 25.2168L102.178 25.3105L101.78 25.7061L101.687 25.6133L101.289 26.0098L101.383 26.1025L100.985 26.498L100.892 26.4043L100.495 26.8008L100.589 26.8945L100.191 27.29L100.097 27.1963L99.7002 27.5928L99.7939 27.6865L99.3965 28.082L99.3027 27.9893L98.9053 28.3848L98.999 28.4785L98.6016 28.874L98.5078 28.7812L98.1103 29.1768L98.2041 29.2705L97.8076 29.666L97.7139 29.5723L97.7129 29.5723L97.3164 29.9687L97.4102 30.0615L97.0127 30.458L96.918 30.3643L96.5215 30.7607L96.6152 30.8535L96.2178 31.25L96.123 31.1562L95.7266 31.5527L95.8203 31.6455L95.4228 32.042L95.3291 31.9492L94.9316 32.3447L95.0254 32.4375L94.8271 32.6357L94.6269 32.8467L94.5283 32.7588C94.394 32.9084 94.2706 33.0643 94.1562 33.2246L94.2637 33.2998C94.1503 33.4586 94.0464 33.6222 93.9531 33.79L93.8379 33.7266C93.7408 33.9013 93.654 34.0802 93.5781 34.2627L93.7002 34.3135C93.6256 34.4929 93.5613 34.6761 93.5078 34.8613L93.3809 34.8252C93.3257 35.0164 93.2823 35.2101 93.249 35.4053L93.3789 35.4268C93.3463 35.6179 93.3236 35.8108 93.3125 36.0039L93.1807 35.9971C93.1701 36.1808 93.1683 36.365 93.1768 36.5488L93.1797 36.5918L93.3115 36.585C93.322 36.7782 93.344 36.9708 93.376 37.1621L93.2451 37.1846C93.2661 37.3099 93.2913 37.4347 93.3213 37.5586L93.376 37.7646L93.5029 37.7285C93.5559 37.914 93.6193 38.0975 93.6934 38.2773L93.5713 38.3281C93.6464 38.5106 93.7328 38.6894 93.8291 38.8643L93.9443 38.8008C94.0371 38.9691 94.14 39.1336 94.2529 39.293L94.1455 39.3691C94.2591 39.5294 94.3821 39.6853 94.5156 39.835L94.6152 39.7471L94.8144 39.958L95.0127 40.1582L94.9189 40.252L95.3164 40.6504L95.4102 40.5566L95.8076 40.9551L95.7139 41.0488L96.1113 41.4473L96.2051 41.3535L96.6025 41.7529L96.5088 41.8467L96.9062 42.2451L97 42.1514L97.3975 42.5498L97.3027 42.6436L97.7002 43.042L97.7949 42.9492L98.1914 43.3477L98.0977 43.4414L98.4951 43.8398L98.5889 43.7461L98.9863 44.1445L98.8926 44.2383L99.29 44.6377L99.3838 44.5439L99.7812 44.9424L99.6875 45.0361L100.084 45.4355L100.179 45.3408L100.576 45.7393L100.481 45.833L100.879 46.2324L100.974 46.1387L101.37 46.5371L101.276 46.6309L101.674 47.0293L101.768 46.9355L102.165 47.335L102.071 47.4277L102.07 47.4287L102.469 47.8271L102.562 47.7334L102.96 48.1318L102.866 48.2256L103.263 48.624L103.357 48.5303L103.755 48.9297L103.66 49.0234L104.058 49.4219L104.152 49.3281L104.549 49.7266L104.455 49.8203L104.853 50.2187L104.946 50.125L105.344 50.5244L105.25 50.6182L105.647 51.0166L105.741 50.9229L106.139 51.3213L106.044 51.416L106.441 51.8135L106.536 51.7207L106.934 52.1191L106.839 52.2129L107.236 52.6113L107.33 52.5176L107.728 52.916L107.634 53.0098L108.031 53.4092L108.125 53.3154L108.522 53.7139L108.429 53.8076L108.825 54.207L108.92 54.1123L109.317 54.5107L109.223 54.6055L109.62 55.0039L109.715 54.9102L110.112 55.3086L110.018 55.4023L110.415 55.8008L110.509 55.707L110.906 56.1064L110.812 56.2002L111.21 56.5986L111.304 56.5049L111.701 56.9033L111.607 56.9971L112.004 57.3965L112.099 57.3018L112.496 57.7012L112.401 57.7949L112.799 58.1934L112.894 58.0996L113.291 58.498L113.196 58.5918L113.594 58.9902L113.687 58.8965L114.085 59.2959L113.991 59.3896L114.389 59.7881L114.482 59.6943L114.88 60.0928L114.785 60.1875L115.184 60.5859L115.277 60.4922L115.675 60.8906L115.58 60.9844L115.978 61.3828L116.072 61.2891L116.469 61.6875L116.375 61.7812L116.772 62.1807L116.866 62.0869L117.264 62.4853L117.17 62.5791L117.566 62.9785L117.661 62.8838L118.059 63.2822L117.964 63.377L118.362 63.7754L118.456 63.6816L118.854 64.0801L118.759 64.1738L119.156 64.5723L119.251 64.4785L119.647 64.8779L119.554 64.9717L119.951 65.3701L120.045 65.2764L120.442 65.6748L120.349 65.7686L120.745 66.168L120.84 66.0732L121.237 66.4727L121.144 66.5664L121.54 66.9658L121.635 66.8711L122.032 67.2695L121.937 67.3633L122.334 67.7627L122.335 67.7617L122.43 67.668L122.826 68.0674L122.732 68.1611L123.13 68.5596L123.224 68.4658L123.621 68.8643L123.526 68.959L123.925 69.3574L124.019 69.2637L124.416 69.6621L124.321 69.7568L124.719 70.1543L124.813 70.0605L125.211 70.459L125.116 70.5527L125.514 70.9521L125.608 70.8584L125.807 71.0576C125.876 71.1267 125.946 71.1934 126.018 71.2578L125.929 71.3564C126.079 71.4911 126.235 71.6149 126.396 71.7295L126.472 71.6221C126.631 71.7357 126.796 71.8392 126.964 71.9326L126.9 72.0478C127.076 72.145 127.255 72.2318 127.437 72.3076L127.488 72.1855C127.668 72.2602 127.851 72.3245 128.037 72.3779L128.001 72.5049C128.193 72.5601 128.387 72.6035 128.583 72.6367L128.604 72.5068C128.796 72.5393 128.99 72.5614 129.184 72.5723L129.176 72.7041C129.374 72.7152 129.573 72.7152 129.771 72.7041L129.766 72.5723C129.959 72.5614 130.152 72.5393 130.344 72.5068L130.365 72.6367C130.561 72.6036 130.755 72.5601 130.947 72.5049L130.911 72.3779C131.097 72.3245 131.28 72.2602 131.46 72.1855L131.511 72.3076C131.694 72.2318 131.873 72.145 132.048 72.0478L131.984 71.9326C132.153 71.8392 132.317 71.7357 132.477 71.6221L132.552 71.7295C132.712 71.6149 132.869 71.4911 133.019 71.3564L132.931 71.2578C133.002 71.1934 133.073 71.1267 133.142 71.0576L133.341 70.8584L133.435 70.9521L133.435 70.9531L133.832 70.5537L133.832 70.5527L133.738 70.459L134.135 70.0605L134.229 70.1543L134.229 70.1553L134.627 69.7568L134.627 69.7559L134.532 69.6621L134.93 69.2637L135.023 69.3574L135.023 69.3584L135.421 68.959L135.421 68.958L135.327 68.8643L135.725 68.4658L135.818 68.5596L135.818 68.5605L136.216 68.1621L136.216 68.1611L136.122 68.0674L136.52 67.668L136.613 67.7617L136.613 67.7627L137.011 67.3643L137.011 67.3633L136.917 67.2695L137.313 66.8711L137.408 66.9648L137.408 66.9658L137.805 66.5664L137.806 66.5664L137.711 66.4727L138.108 66.0732L138.202 66.167L138.202 66.168L138.6 65.7695L138.6 65.7686L138.506 65.6748L138.903 65.2764L138.997 65.3701L138.997 65.3711L139.394 64.9717L139.395 64.9717L139.301 64.8779L139.698 64.4785L139.792 64.5723L139.792 64.5732L140.189 64.1748L140.189 64.1738L140.096 64.0801L140.492 63.6816L140.586 63.7754L140.984 63.3769L140.984 63.376L140.89 63.2822L141.287 62.8838L141.381 62.9775L141.381 62.9785L141.778 62.5801L141.778 62.5791L141.685 62.4853L142.082 62.0869L142.175 62.1807L142.573 61.7822L142.573 61.7812L142.479 61.6875L142.877 61.2891L142.971 61.3828L142.971 61.3838L143.367 60.9844L143.368 60.9844L143.273 60.8906L143.671 60.4922L143.765 60.5859L144.162 60.1865L144.163 60.1865L144.068 60.0928L144.466 59.6943L144.56 59.7881L144.56 59.7891L144.957 59.3906L144.957 59.3896L144.863 59.2959L145.261 58.8965L145.354 58.9902L145.354 58.9912L145.752 58.5928L145.752 58.5918L145.658 58.498L146.056 58.0996L146.148 58.1934L146.546 57.7949L146.452 57.7012L146.85 57.3018L146.943 57.3955L147.341 56.998L147.341 56.9971L147.247 56.9033L147.645 56.5049L147.738 56.5986L147.738 56.5996L148.135 56.2002L148.136 56.2002L148.042 56.1064L148.439 55.707L148.533 55.8008L148.533 55.8018L148.93 55.4023L148.931 55.4023L148.837 55.3086L149.234 54.9102L149.327 55.0039L149.725 54.6045L149.726 54.6045L149.631 54.5107L150.028 54.1123L150.122 54.206L150.52 53.8086L150.52 53.8076L150.426 53.7139L150.823 53.3154L150.916 53.4092L151.314 53.0107L151.314 53.0098L151.221 52.916L151.618 52.5176L151.711 52.6113L152.108 52.2129L152.016 52.1191L152.412 51.7207L152.506 51.8135L152.903 51.415L152.904 51.415L152.81 51.3213L153.207 50.9228L153.301 51.0166L153.697 50.6182L153.698 50.6182L153.604 50.5244L154.002 50.125L154.096 50.2187L154.096 50.2197L154.492 49.8203L154.493 49.8203L154.399 49.7266L154.797 49.3281L154.89 49.4219L155.287 49.0234L155.194 48.9297L155.591 48.5303L155.685 48.624L156.082 48.2256L155.988 48.1318L156.386 47.7334L156.479 47.8271L156.877 47.4287L156.877 47.4277L156.783 47.335L157.181 46.9355L157.273 47.0293L157.671 46.6309L157.578 46.5371L157.976 46.1387L158.068 46.2324L158.466 45.833L158.467 45.833L158.373 45.7393L158.77 45.3408L158.863 45.4346L159.261 45.0361L159.167 44.9424L159.564 44.5439L159.657 44.6377L160.055 44.2383L160.056 44.2383L159.962 44.1445L160.359 43.7461L160.452 43.8398L160.85 43.4414L160.757 43.3477L161.154 42.9492L161.247 43.042L161.645 42.6435L161.552 42.5498L161.948 42.1514L162.042 42.2451L162.439 41.8467L162.346 41.7529L162.743 41.3535L162.836 41.4473Z" stroke="#364153" stroke-width="0.265535" stroke-dasharray="0.56 0.56"/>
<path d="M295.132 36.5879C295.143 36.3898 295.143 36.1913 295.132 35.9932L295.001 36C294.99 35.8068 294.968 35.6141 294.936 35.4228L295.064 35.4014C295.031 35.2062 294.988 35.0125 294.934 34.8213L294.808 34.8564C294.754 34.6711 294.69 34.4882 294.616 34.3086L294.737 34.2588C294.662 34.076 294.575 33.8968 294.479 33.7217L294.364 33.7851C294.271 33.617 294.168 33.453 294.055 33.2939L294.161 33.2187C294.047 33.0584 293.924 32.9026 293.79 32.7529L293.692 32.8398L293.492 32.6289L293.295 32.4326L293.389 32.3389L292.995 31.9453L292.901 32.0391L292.508 31.6455L292.602 31.5517L292.208 31.1582L292.114 31.2519L291.721 30.8584L291.814 30.7646L291.421 30.3711L291.327 30.4648L290.934 30.0713L291.027 29.9775L290.634 29.584L290.54 29.6777L290.146 29.2842L290.24 29.1904L289.847 28.7969L289.753 28.8906L289.359 28.4971L289.453 28.4033L289.06 28.0088L288.966 28.1035L288.572 27.7099L288.666 27.6152L288.272 27.2217L288.179 27.3164L287.785 26.9228L287.879 26.8281L287.485 26.4346L287.392 26.5293L286.998 26.1357L287.092 26.041L286.698 25.6474L286.604 25.7422L286.211 25.3486L286.305 25.2539L285.911 24.8603L285.817 24.9541L285.424 24.5605L285.518 24.4668L285.124 24.0732L285.03 24.167L284.637 23.7734L284.73 23.6797L284.337 23.2861L284.243 23.3799L283.85 22.9863L283.943 22.8926L283.55 22.499L283.456 22.5928L283.062 22.1992L283.156 22.1055L282.763 21.7119L282.669 21.8057L282.275 21.4121L282.369 21.3183L281.976 20.9248L281.882 21.0185L281.488 20.625L281.582 20.5312L281.188 20.1377L281.095 20.2314L280.701 19.8379L280.795 19.7441L280.401 19.3506L280.308 19.4443L279.914 19.0508L280.008 18.957L279.614 18.5635L279.521 18.6572L279.127 18.2637L279.221 18.1699L278.827 17.7764L278.733 17.8701L278.34 17.4766L278.434 17.3828L278.04 16.9892L277.946 17.083L277.553 16.6894L277.646 16.5957L277.253 16.2021L277.159 16.2959L276.766 15.9023L276.859 15.8086L276.466 15.415L276.372 15.5088L275.979 15.1152L276.072 15.0215L275.679 14.6279L275.585 14.7217L275.191 14.3281L275.285 14.2344L274.892 13.8408L274.798 13.9346L274.404 13.541L274.498 13.4473L274.104 13.0537L274.011 13.1475L273.617 12.7539L273.711 12.6601L273.317 12.2666L273.224 12.3603L272.83 11.9668L272.924 11.873L272.53 11.4795L272.437 11.5732L272.043 11.1797L272.137 11.0859L271.743 10.6924L271.649 10.7861L271.256 10.3926L271.35 10.2988L270.956 9.90526L270.862 9.99901L270.469 9.60546L270.562 9.51171L270.169 9.11815L270.075 9.2119L269.682 8.81835L269.775 8.7246L269.382 8.33104L269.288 8.42479L268.895 8.03124L268.988 7.93749L268.595 7.54393L268.501 7.63768L268.107 7.24413L268.201 7.15038L267.808 6.75683L267.714 6.85058L267.32 6.45702L267.414 6.36327L267.021 5.96972L266.927 6.06347L266.533 5.66991L266.627 5.57616L266.233 5.18261L266.14 5.27636L265.746 4.8828L265.84 4.78905L265.446 4.3955L265.353 4.48925L264.959 4.09569L265.053 4.00194L264.659 3.60839L264.565 3.70214L264.172 3.30858L264.266 3.21483L263.872 2.82128L263.778 2.91503L263.385 2.52147L263.479 2.42772L263.085 2.03417L262.991 2.12792L262.598 1.73437L262.691 1.64062L262.298 1.24706L262.204 1.34081L261.811 0.947256L261.904 0.853506L261.511 0.459951L261.417 0.553701L261.023 0.160146L261.117 0.0663964L260.724 -0.327158L260.63 -0.233408L260.433 -0.429697C260.373 -0.489732 260.312 -0.548727 260.249 -0.605479L260.337 -0.703135C260.208 -0.820147 260.074 -0.930159 259.935 -1.03321L259.856 -0.927744C259.72 -1.02894 259.579 -1.12305 259.434 -1.20997L259.501 -1.32325C259.352 -1.41265 259.199 -1.49516 259.042 -1.56935L258.985 -1.44923C258.832 -1.52167 258.675 -1.58648 258.516 -1.64356L258.561 -1.76856C258.397 -1.82707 258.23 -1.87666 258.062 -1.91895L258.03 -1.79103C257.866 -1.83211 257.699 -1.86571 257.531 -1.89063L257.551 -2.02149C257.379 -2.0469 257.206 -2.0647 257.032 -2.07325L257.025 -1.94044C256.941 -1.94457 256.856 -1.9463 256.771 -1.9463L256.491 -1.9463L256.491 -2.07911L255.932 -2.07911L255.932 -1.9463L255.372 -1.9463L255.372 -2.07911L254.812 -2.07911L254.812 -1.9463L254.252 -1.9463L254.252 -2.07911L253.691 -2.07911L253.691 -1.9463L253.132 -1.9463L253.132 -2.07911L252.571 -2.07911L252.571 -1.9463L252.012 -1.9463L252.012 -2.07911L251.451 -2.07911L251.451 -1.9463L250.892 -1.9463L250.892 -2.07911L250.331 -2.07911L250.331 -1.9463L249.771 -1.9463L249.771 -2.07911L249.211 -2.07911L249.211 -1.9463L248.651 -1.9463L248.651 -2.07911L248.091 -2.07911L248.091 -1.9463L247.531 -1.9463L247.531 -2.07911L246.971 -2.07911L246.971 -1.9463L246.411 -1.9463L246.411 -2.07911L245.851 -2.07911L245.851 -1.9463L245.291 -1.9463L245.291 -2.07911L244.731 -2.07911L244.731 -1.9463L244.171 -1.9463L244.171 -2.07911L243.611 -2.07911L243.611 -1.9463L243.051 -1.9463L243.051 -2.07911L242.491 -2.07911L242.491 -1.9463L241.931 -1.9463L241.931 -2.07911L241.371 -2.07911L241.371 -1.9463L240.811 -1.9463L240.811 -2.07911L240.251 -2.07911L240.251 -1.9463L239.69 -1.9463L239.69 -2.07911L239.131 -2.07911L239.131 -1.9463L238.57 -1.9463L238.57 -2.07911L238.011 -2.07911L238.011 -1.9463L237.45 -1.9463L237.45 -2.07911L236.891 -2.07911L236.891 -1.9463L236.33 -1.9463L236.33 -2.07911L235.771 -2.07911L235.771 -1.9463L235.21 -1.9463L235.21 -2.07911L234.65 -2.07911L234.65 -1.9463L234.09 -1.9463L234.09 -2.07911L233.53 -2.07911L233.53 -1.9463L232.971 -1.9463L232.971 -2.07911L232.41 -2.07911L232.41 -1.9463L231.851 -1.9463L231.851 -2.07911L231.29 -2.07911L231.29 -1.9463L230.73 -1.9463L230.73 -2.07911L230.17 -2.07911L230.17 -1.9463L229.61 -1.9463L229.61 -2.07911L229.05 -2.07911L229.05 -1.9463L228.49 -1.9463L228.49 -2.07911L227.93 -2.07911L227.93 -1.9463L227.37 -1.9463L227.37 -2.07911L226.81 -2.07911L226.81 -1.9463L226.25 -1.9463L226.25 -2.07911L225.689 -2.07911L225.689 -1.9463L225.13 -1.9463L225.13 -2.07911L224.569 -2.07911L224.569 -1.9463L224.01 -1.9463L224.01 -2.07911L223.449 -2.07911L223.449 -1.9463L222.89 -1.9463L222.89 -2.07911L222.33 -2.07911L222.33 -1.9463L221.77 -1.9463L221.77 -2.07911L221.21 -2.07911L221.21 -1.9463L220.649 -1.9463L220.649 -2.07911L220.09 -2.07911L220.09 -1.9463L219.529 -1.9463L219.529 -2.07911L218.97 -2.07911L218.97 -1.9463L218.409 -1.9463L218.409 -2.07911L217.85 -2.07911L217.85 -1.9463L217.289 -1.9463L217.289 -2.07911L216.729 -2.07911L216.729 -1.9463L216.169 -1.9463L216.169 -2.07911L215.609 -2.07911L215.609 -1.9463L215.049 -1.9463L215.049 -2.07911L214.489 -2.07911L214.489 -1.9463L213.929 -1.9463L213.929 -2.07911L213.369 -2.07911L213.369 -1.9463L212.809 -1.9463L212.809 -2.07911L212.249 -2.07911L212.249 -1.9463L211.688 -1.94629L211.688 -2.07911L211.129 -2.07911L211.129 -1.94629L210.568 -1.94629L210.568 -2.07911L210.009 -2.07911L210.009 -1.94629L209.449 -1.94629L209.449 -2.07911L208.889 -2.07911L208.889 -1.94629L208.329 -1.94629L208.329 -2.07911L207.769 -2.07911L207.769 -1.94629L207.209 -1.94629L207.209 -2.07911L206.648 -2.07911L206.648 -1.94629L206.089 -1.94629L206.089 -2.07911L205.528 -2.07911L205.528 -1.94629L204.969 -1.94629L204.969 -2.07911L204.408 -2.07911L204.408 -1.94629L203.849 -1.94629L203.849 -2.07911L203.288 -2.07911L203.288 -1.94629L202.729 -1.94629L202.729 -2.07911L202.168 -2.07911L202.168 -1.94629L201.608 -1.94629L201.608 -2.07911L201.048 -2.07911L201.048 -1.94629L200.488 -1.94629L200.488 -2.07911L199.928 -2.07911L199.928 -1.94629L199.368 -1.94629L199.368 -2.07911L198.808 -2.07911L198.808 -1.94629L198.248 -1.94629L198.248 -2.07911L197.688 -2.07911L197.688 -1.94629L197.128 -1.94629L197.128 -2.07911L196.568 -2.07911L196.568 -1.94629L196.008 -1.94629L196.008 -2.07911L195.448 -2.07911L195.448 -1.94629L194.888 -1.94629L194.888 -2.07911L194.328 -2.07911L194.328 -1.94629L193.768 -1.94629L193.768 -2.07911L193.208 -2.07911L193.208 -1.94629L192.647 -1.94629L192.647 -2.07911L192.088 -2.07911L192.088 -1.94629L191.527 -1.94629L191.527 -2.07911L190.968 -2.07911L190.968 -1.94629L190.407 -1.94629L190.407 -2.07911L189.848 -2.07911L189.848 -1.94629L189.287 -1.94629L189.287 -2.07911L188.728 -2.07911L188.728 -1.94629L188.167 -1.94629L188.167 -2.07911L187.607 -2.07911L187.607 -1.94629L187.047 -1.94629L187.047 -2.07911L186.487 -2.07911L186.487 -1.94629L185.928 -1.94629L185.928 -2.07911L185.367 -2.07911L185.367 -1.94629L184.808 -1.94629L184.808 -2.07911L184.247 -2.07911L184.247 -1.94629L183.687 -1.94629L183.687 -2.07911L183.127 -2.07911L183.127 -1.94629L182.567 -1.94629L182.567 -2.07911L182.007 -2.07911L182.007 -1.94629L181.447 -1.94629L181.447 -2.07911L180.887 -2.07911L180.887 -1.94629L180.327 -1.94629L180.327 -2.0791L179.767 -2.0791L179.767 -1.94629L179.207 -1.94629L179.207 -2.0791L178.646 -2.0791L178.646 -1.94629L178.367 -1.94629C178.282 -1.94629 178.198 -1.94456 178.113 -1.94043L178.106 -2.07325L178.104 -2.07325C177.931 -2.06468 177.759 -2.04672 177.589 -2.02149L177.608 -1.89063C177.441 -1.86582 177.275 -1.83288 177.111 -1.792L177.079 -1.91993C176.911 -1.87778 176.744 -1.82783 176.581 -1.76953L176.626 -1.64551C176.467 -1.58866 176.31 -1.52332 176.157 -1.45117L176.101 -1.57032C175.944 -1.49638 175.791 -1.41527 175.642 -1.32617L175.71 -1.21289C175.565 -1.12637 175.424 -1.03237 175.288 -0.931644L175.209 -1.03809C175.07 -0.935214 174.935 -0.825833 174.806 -0.708987L174.896 -0.611331C174.833 -0.554827 174.772 -0.4963 174.712 -0.436526L174.515 -0.239261L174.421 -0.333011L174.025 0.060544L174.119 0.154294L173.725 0.547849L173.631 0.454099L173.236 0.847653L173.33 0.941403L172.935 1.33496L172.841 1.24121L172.446 1.63476L172.54 1.72851L172.145 2.12207L172.051 2.02832L171.656 2.42187L171.75 2.51562L171.355 2.90918L171.262 2.81543L170.866 3.20898L170.96 3.30273L170.565 3.69629L170.472 3.60254L170.076 3.99609L170.17 4.08984L169.775 4.4834L169.682 4.38965L169.287 4.7832L169.381 4.87695L168.985 5.27051L168.892 5.17676L168.497 5.57031L168.591 5.66406L168.195 6.05761L168.102 5.96386L167.707 6.35742L167.801 6.45117L167.406 6.84472L167.312 6.75097L166.917 7.14453L167.011 7.23828L166.616 7.63183L166.521 7.53808L166.126 7.93164L166.221 8.02539L165.826 8.41894L165.731 8.32519L165.337 8.71875L165.432 8.8125L165.036 9.20605L164.941 9.1123L164.547 9.50586L164.642 9.59961L164.246 9.99316L164.151 9.89941L163.757 10.293L163.852 10.3867L163.457 10.7803L163.362 10.6865L162.967 11.0801L163.062 11.1738L162.667 11.5674L162.572 11.4736L162.177 11.8672L162.271 11.9609L161.877 12.3545L161.782 12.2607L161.388 12.6543L161.482 12.748L161.087 13.1416L160.992 13.0478L160.598 13.4414L160.692 13.5352L160.297 13.9287L160.202 13.835L159.808 14.2285L159.902 14.3223L159.508 14.7158L159.413 14.6221L159.018 15.0156L159.112 15.1094L158.718 15.5029L158.623 15.4092L158.228 15.8027L158.322 15.8965L157.928 16.29L157.833 16.1963L157.438 16.5898L157.533 16.6836L157.138 17.0771L157.044 16.9834L157.043 16.9834L156.648 17.377L156.743 17.4707L156.348 17.8643L156.253 17.7705L155.858 18.1641L155.953 18.2578L155.559 18.6514L155.464 18.5576L155.068 18.9512L155.069 18.9512L155.163 19.0449L154.769 19.4385L154.674 19.3447L154.278 19.7383L154.373 19.832L153.979 20.2256L153.884 20.1318L153.489 20.5254L153.584 20.6191L153.188 21.0127L153.095 20.9189L153.094 20.9189L152.699 21.3125L152.794 21.4062L152.398 21.7998L152.304 21.7061L151.909 22.0996L152.004 22.1934L151.609 22.5869L151.515 22.4932L151.119 22.8867L151.12 22.8867L151.214 22.9805L150.819 23.374L150.725 23.2803L150.329 23.6738L150.424 23.7676L150.029 24.1611L149.935 24.0674L149.54 24.4609L149.635 24.5547L149.239 24.9482L149.146 24.8545L149.145 24.8545L148.75 25.248L148.845 25.3418L148.449 25.7354L148.354 25.6416L147.96 26.0352L148.055 26.1289L147.66 26.5225L147.565 26.4287L147.17 26.8223L147.171 26.8223L147.265 26.916L146.87 27.3096L146.775 27.2158L146.38 27.6094L146.475 27.7031L146.08 28.0967L145.985 28.0029L145.591 28.3965L145.686 28.4902L145.29 28.8838L145.196 28.79L145.195 28.79L144.801 29.1836L144.896 29.2773L144.5 29.6709L144.405 29.5771L144.011 29.9707L144.105 30.0645L143.711 30.458L143.616 30.3643L143.221 30.7578L143.222 30.7578L143.315 30.8516L142.921 31.2451L142.826 31.1514L142.431 31.5449L142.525 31.6387L142.131 32.0322L142.036 31.9385L141.642 32.332L141.736 32.4258L141.538 32.623C141.469 32.6919 141.402 32.7623 141.338 32.834L141.239 32.7461C141.105 32.896 140.981 33.0522 140.866 33.2129L140.974 33.2881C140.86 33.4474 140.757 33.6119 140.663 33.7803L140.548 33.7168C140.451 33.8919 140.364 34.0711 140.288 34.2539L140.41 34.3037C140.335 34.4837 140.271 34.6677 140.218 34.8535L140.091 34.8174C140.036 35.0092 139.992 35.2036 139.959 35.3994L140.089 35.4209C140.056 35.6125 140.034 35.8055 140.023 35.999L139.892 35.9932C139.881 36.1916 139.88 36.3904 139.892 36.5889L140.023 36.5811C140.034 36.7747 140.056 36.9685 140.089 37.1602L139.959 37.1816C139.992 37.3775 140.036 37.5718 140.091 37.7637L140.218 37.7275C140.271 37.9132 140.336 38.0964 140.41 38.2764L140.288 38.3271C140.364 38.51 140.451 38.6891 140.548 38.8643L140.663 38.8008C140.756 38.9691 140.86 39.1337 140.974 39.293L140.866 39.3691C140.981 39.5296 141.105 39.6853 141.239 39.835L141.338 39.7471C141.402 39.8188 141.469 39.8891 141.538 39.958L141.735 40.1553L141.643 40.249L141.642 40.25L142.037 40.6426L142.131 40.5488L142.525 40.9424L142.432 41.0361L142.826 41.4307L142.921 41.3359L143.315 41.7295L143.222 41.8232L143.616 42.2178L143.617 42.2168L143.71 42.123L144.105 42.5166L144.012 42.6104L144.406 43.0039L144.5 42.9102L144.896 43.3037L144.801 43.3984L145.196 43.791L145.29 43.6973L145.685 44.0908L145.592 44.1846L145.591 44.1855L145.986 44.5781L146.08 44.4844L146.475 44.8779L146.381 44.9717L146.775 45.3662L146.87 45.2715L147.265 45.665L147.171 45.7588L147.565 46.1533L147.566 46.1523L147.659 46.0586L148.055 46.4521L147.96 46.5469L148.355 46.9395L148.449 46.8457L148.845 47.2393L148.75 47.334L149.146 47.7266L149.239 47.6328L149.634 48.0264L149.541 48.1201L149.54 48.1211L149.935 48.5146L150.029 48.4199L150.424 48.8135L150.33 48.9072L150.725 49.3018L150.819 49.207L151.214 49.6006L151.12 49.6943L151.515 50.0889L151.609 49.9941L152.004 50.3877L151.909 50.4824L152.305 50.875L152.398 50.7812L152.794 51.1748L152.699 51.2695L153.095 51.6621L153.188 51.5684L153.584 51.9619L153.489 52.0566L153.884 52.4502L153.979 52.3555L154.373 52.749L154.279 52.8428L154.674 53.2373L154.769 53.1426L155.163 53.5361L155.069 53.6299L155.464 54.0244L155.559 53.9297L155.953 54.3232L155.858 54.418L156.254 54.8105L156.348 54.7168L156.743 55.1104L156.648 55.2051L157.044 55.5977L157.138 55.5039L157.533 55.8975L157.438 55.9922L157.833 56.3857L157.928 56.291L158.322 56.6846L158.229 56.7783L158.623 57.1728L158.718 57.0781L159.112 57.4717L159.018 57.5664L159.413 57.96L159.508 57.8652L159.902 58.2588L159.808 58.3535L160.203 58.7461L160.297 58.6523L160.692 59.0459L160.598 59.1406L160.992 59.5342L161.087 59.4395L161.482 59.833L161.388 59.9277L161.782 60.3213L161.877 60.2266L162.271 60.6201L162.178 60.7139L162.572 61.1084L162.667 61.0137L163.062 61.4072L162.967 61.502L163.362 61.8955L163.457 61.8008L163.852 62.1943L163.757 62.2891L164.152 62.6816L164.246 62.5879L164.642 62.9814L164.547 63.0762L164.941 63.4697L165.036 63.375L165.432 63.7686L165.337 63.8633L165.731 64.2568L165.826 64.1621L166.221 64.5557L166.127 64.6494L166.521 65.0439L166.616 64.9492L167.011 65.3428L166.916 65.4375L167.312 65.8311L167.406 65.7363L167.801 66.1299L167.706 66.2246L168.102 66.6172L168.195 66.5234L168.591 66.917L168.496 67.0117L168.891 67.4053L168.985 67.3105L169.381 67.7041L169.286 67.7988L169.681 68.1924L169.775 68.0977L170.17 68.4912L170.075 68.5859L170.471 68.9795L170.565 68.8848L170.96 69.2783L170.865 69.373L171.261 69.7666L171.355 69.6719L171.75 70.0654L171.655 70.1602L172.05 70.5537L172.145 70.459L172.54 70.8525L172.445 70.9473L172.84 71.3408L172.935 71.2461L173.33 71.6396L173.235 71.7344L173.63 72.1279L173.725 72.0332L174.119 72.4268L174.024 72.5215L174.42 72.915L174.515 72.8203L174.712 73.0176C174.772 73.0772 174.833 73.135 174.896 73.1914L174.807 73.29L174.806 73.291C174.871 73.3504 174.939 73.4071 175.008 73.4629L175.209 73.6191L175.288 73.5127C175.424 73.6135 175.565 73.7074 175.71 73.7939L175.642 73.9082C175.717 73.9533 175.794 73.9959 175.871 74.0371L176.101 74.1523L176.157 74.0322C176.31 74.1043 176.467 74.1688 176.626 74.2256L176.581 74.3506L176.58 74.3516C176.744 74.41 176.91 74.4598 177.079 74.5019L177.111 74.373C177.275 74.4139 177.441 74.4469 177.608 74.4717L177.589 74.6025L177.588 74.6035C177.759 74.6289 177.932 74.6457 178.105 74.6543L178.106 74.6533L178.113 74.5215C178.198 74.5256 178.282 74.5273 178.367 74.5273L178.646 74.5273L178.646 74.6602L179.207 74.6602L179.207 74.5273L179.767 74.5273L179.767 74.6602L180.327 74.6602L180.327 74.5273L180.887 74.5273L180.887 74.6602L181.447 74.6602L181.447 74.5273L182.007 74.5273L182.007 74.6602L182.567 74.6602L182.567 74.5273L183.127 74.5273L183.127 74.6602L183.688 74.6602L183.687 74.5273L184.247 74.5273L184.247 74.6602L184.808 74.6602L184.808 74.5273L185.367 74.5273L185.367 74.6602L185.928 74.6602L185.928 74.5273L186.487 74.5273L186.487 74.6602L187.048 74.6602L187.048 74.5273L187.607 74.5273L187.607 74.6602L188.167 74.6602L188.167 74.5273L188.728 74.5273L188.728 74.6602L189.287 74.6602L189.287 74.5273L189.848 74.5273L189.848 74.6602L190.407 74.6602L190.407 74.5273L190.968 74.5273L190.968 74.6602L191.527 74.6602L191.527 74.5273L192.088 74.5273L192.088 74.6602L192.647 74.6602L192.647 74.5273L193.208 74.5273L193.208 74.6602L193.768 74.6602L193.768 74.5273L194.328 74.5273L194.328 74.6602L194.888 74.6602L194.888 74.5273L195.448 74.5273L195.448 74.6602L196.008 74.6602L196.008 74.5273L196.568 74.5273L196.568 74.6602L197.128 74.6602L197.128 74.5273L197.688 74.5273L197.688 74.6602L198.248 74.6602L198.248 74.5273L198.809 74.5273L198.809 74.6602L199.368 74.6602L199.368 74.5273L199.928 74.5273L199.928 74.6602L200.488 74.6602L200.488 74.5273L201.048 74.5273L201.048 74.6602L201.608 74.6602L201.608 74.5273L202.168 74.5273L202.168 74.6602L202.729 74.6602L202.729 74.5273L203.288 74.5273L203.288 74.6602L203.849 74.6602L203.849 74.5273L204.408 74.5273L204.408 74.6602L204.969 74.6602L204.969 74.5273L205.528 74.5273L205.528 74.6602L206.089 74.6602L206.089 74.5273L206.648 74.5273L206.648 74.6602L207.209 74.6602L207.209 74.5273L207.769 74.5273L207.769 74.6602L208.329 74.6602L208.329 74.5273L208.889 74.5273L208.889 74.6602L209.449 74.6602L209.449 74.5273L210.009 74.5273L210.009 74.6602L210.568 74.6602L210.568 74.5273L211.129 74.5273L211.129 74.6602L211.688 74.6602L211.688 74.5273L212.249 74.5273L212.249 74.6602L212.809 74.6602L212.809 74.5273L213.369 74.5273L213.369 74.6602L213.929 74.6602L213.929 74.5273L214.489 74.5273L214.489 74.6602L215.049 74.6602L215.049 74.5273L215.609 74.5273L215.609 74.6602L216.169 74.6601L216.169 74.5273L216.729 74.5273L216.729 74.6601L217.289 74.6601L217.289 74.5273L217.85 74.5273L217.85 74.6601L218.409 74.6601L218.409 74.5273L218.97 74.5273L218.97 74.6601L219.529 74.6601L219.529 74.5273L220.09 74.5273L220.09 74.6601L220.649 74.6601L220.649 74.5273L221.21 74.5273L221.21 74.6601L221.77 74.6601L221.77 74.5273L222.329 74.5273L222.329 74.6601L222.89 74.6601L222.89 74.5273L223.449 74.5273L223.449 74.6601L224.01 74.6601L224.01 74.5273L224.569 74.5273L224.569 74.6601L225.13 74.6601L225.13 74.5273L225.689 74.5273L225.689 74.6601L226.25 74.6601L226.25 74.5273L226.81 74.5273L226.81 74.6601L227.37 74.6601L227.37 74.5273L227.93 74.5273L227.93 74.6601L228.49 74.6601L228.49 74.5273L229.05 74.5273L229.05 74.6601L229.61 74.6601L229.61 74.5273L230.17 74.5273L230.17 74.6601L230.73 74.6601L230.73 74.5273L231.29 74.5273L231.29 74.6601L231.851 74.6601L231.851 74.5273L232.41 74.5273L232.41 74.6601L232.971 74.6601L232.971 74.5273L233.53 74.5273L233.53 74.6601L234.09 74.6601L234.09 74.5273L234.65 74.5273L234.65 74.6601L235.21 74.6601L235.21 74.5273L235.771 74.5273L235.771 74.6601L236.33 74.6601L236.33 74.5273L236.891 74.5273L236.891 74.6601L237.45 74.6601L237.45 74.5273L238.011 74.5273L238.011 74.6601L238.57 74.6601L238.57 74.5273L239.131 74.5273L239.131 74.6601L239.69 74.6601L239.69 74.5273L240.251 74.5273L240.251 74.6601L240.811 74.6601L240.811 74.5273L241.371 74.5273L241.371 74.6601L241.931 74.6601L241.931 74.5273L242.491 74.5273L242.491 74.6601L243.051 74.6601L243.051 74.5273L243.611 74.5273L243.611 74.6601L244.171 74.6601L244.171 74.5273L244.731 74.5273L244.731 74.6601L245.291 74.6601L245.291 74.5273L245.851 74.5273L245.851 74.6601L246.411 74.6601L246.411 74.5273L246.971 74.5273L246.971 74.6601L247.531 74.6601L247.531 74.5273L248.091 74.5273L248.091 74.6601L248.651 74.6601L248.651 74.5273L249.211 74.5273L249.211 74.6601L249.771 74.6601L249.771 74.5273L250.331 74.5273L250.331 74.6601L250.892 74.6601L250.892 74.5273L251.451 74.5273L251.451 74.6601L252.012 74.6601L252.012 74.5273L252.571 74.5273L252.571 74.6601L253.132 74.6601L253.132 74.5273L253.691 74.5273L253.691 74.6601L254.252 74.6601L254.252 74.5273L254.812 74.5273L254.812 74.6601L255.372 74.6601L255.372 74.5273L255.932 74.5273L255.932 74.6601L256.492 74.6601L256.492 74.5273L256.771 74.5273C256.856 74.5273 256.941 74.5256 257.025 74.5215L257.032 74.6543C257.206 74.6458 257.379 74.6279 257.55 74.6025L257.531 74.4717C257.699 74.4467 257.866 74.4131 258.03 74.3721L258.062 74.501C258.23 74.4587 258.397 74.4091 258.561 74.3506L258.516 74.2246C258.675 74.1675 258.832 74.1027 258.985 74.0303L259.042 74.1504L259.042 74.1514C259.199 74.0771 259.353 73.9948 259.502 73.9053L259.502 73.9043L259.434 73.791C259.579 73.7041 259.72 73.61 259.856 73.5088L259.935 73.6152C260.074 73.5121 260.209 73.4023 260.338 73.2851L260.249 73.1865C260.312 73.1298 260.373 73.0707 260.433 73.0107L260.63 72.8144L260.724 72.9082L261.117 72.5146L261.023 72.4209L261.417 72.0273L261.511 72.1211L261.904 71.7275L261.811 71.6338L262.204 71.2402L262.298 71.334L262.691 70.9404L262.598 70.8467L262.991 70.4531L263.085 70.5469L263.479 70.1533L263.385 70.0596L263.778 69.666L263.872 69.7598L264.266 69.3662L264.172 69.2725L264.565 68.8779L264.659 68.9726L265.053 68.5791L264.959 68.4844L265.353 68.0908L265.446 68.1855L265.84 67.792L265.746 67.6973L266.14 67.3037L266.233 67.3984L266.627 67.0049L266.533 66.9101L266.927 66.5166L267.021 66.6113L267.414 66.2178L267.32 66.123L267.714 65.7295L267.808 65.8242L268.201 65.4307L268.107 65.3359L268.501 64.9424L268.595 65.0371L268.988 64.6435L268.895 64.5488L269.288 64.1553L269.382 64.25L269.775 63.8564L269.682 63.7617L270.075 63.3682L270.169 63.4629L270.562 63.0693L270.469 62.9746L270.862 62.581L270.956 62.6758L271.35 62.2822L271.256 62.1875L271.649 61.7939L271.743 61.8887L272.137 61.4951L272.043 61.4004L272.437 61.0068L272.53 61.1016L272.924 60.708L272.83 60.6133L273.224 60.2197L273.317 60.3144L273.711 59.9209L273.617 59.8262L274.011 59.4326L274.104 59.5273L274.498 59.1338L274.404 59.0391L274.798 58.6455L274.892 58.7402L275.285 58.3467L275.191 58.2519L275.585 57.8584L275.679 57.9531L276.072 57.5596L275.979 57.4648L276.372 57.0713L276.466 57.166L276.859 56.7724L276.766 56.6777L277.159 56.2842L277.253 56.3789L277.646 55.9853L277.553 55.8906L277.946 55.4971L278.04 55.5918L278.434 55.1982L278.34 55.1035L278.733 54.7099L278.827 54.8047L279.221 54.4111L279.127 54.3164L279.521 53.9228L279.614 54.0176L280.008 53.624L279.914 53.5293L280.308 53.1357L280.401 53.2305L280.795 52.8369L280.701 52.7422L281.095 52.3486L281.188 52.4433L281.582 52.0498L281.488 51.9551L281.882 51.5615L281.976 51.6562L282.369 51.2627L282.275 51.168L282.669 50.7744L282.763 50.8691L283.156 50.4756L283.062 50.3808L283.456 49.9873L283.55 50.082L283.943 49.6885L283.85 49.5937L284.243 49.2002L284.337 49.2949L284.73 48.9014L284.637 48.8066L285.03 48.4131L285.124 48.5078L285.518 48.1142L285.424 48.0195L285.817 47.626L285.911 47.7207L286.305 47.3271L286.211 47.2324L286.604 46.8389L286.698 46.9336L287.092 46.54L286.998 46.4453L287.392 46.0517L287.485 46.1465L287.88 45.7519L287.785 45.6582L288.179 45.2646L288.273 45.3584L288.667 44.9648L288.572 44.8711L288.966 44.4775L289.061 44.5713L289.454 44.1777L289.359 44.084L289.753 43.6904L289.848 43.7842L290.241 43.3906L290.146 43.2969L290.54 42.9033L290.635 42.9971L291.028 42.6035L290.934 42.5098L291.327 42.1162L291.422 42.2099L291.815 41.8164L291.721 41.7226L292.114 41.3291L292.209 41.4228L292.603 41.0293L292.508 40.9355L292.901 40.542L292.996 40.6357L293.39 40.2422L293.295 40.1484L293.492 39.9521C293.561 39.8832 293.628 39.812 293.692 39.7402L293.79 39.8291C293.924 39.6795 294.047 39.5236 294.161 39.3633L294.055 39.2871C294.168 39.128 294.271 38.964 294.364 38.7959L294.479 38.8594C294.575 38.6845 294.662 38.5057 294.737 38.3232L294.738 38.3232L294.616 38.2724C294.691 38.0929 294.754 37.9099 294.808 37.7246L294.934 37.7607C294.989 37.5692 295.031 37.3752 295.064 37.1797L294.936 37.1582C294.968 36.967 294.99 36.7742 295.001 36.581L295.132 36.5879Z" stroke="#677489" stroke-width="0.265535" stroke-dasharray="0.56 0.56"/>
<g clip-path="url(#clip2_19001_109172)">
<path fill-rule="evenodd" clip-rule="evenodd" d="M211.599 27.332C210.007 27.332 208.97 27.8626 208.044 29.6436L203.822 37.791V30.5531C203.822 28.3931 202.822 27.332 200.97 27.332C199.118 27.332 198.34 27.9762 197.414 29.7952L193.414 37.791V30.6289C193.414 28.3173 192.488 27.332 190.229 27.332H185.636C183.896 27.332 182.933 28.1657 182.933 29.6815C182.933 31.1973 183.859 32.1068 185.562 32.1068H187.451V41.2394C187.451 43.8162 189.155 45.332 191.599 45.332C194.044 45.332 195.155 44.3468 196.377 42.0352L199.044 36.9194V41.2394C199.044 43.7783 200.673 45.332 203.155 45.332C205.636 45.332 206.562 44.4605 207.97 42.0352L214.118 31.4247C215.451 29.1131 214.525 27.332 211.562 27.332C211.562 27.332 211.562 27.332 211.599 27.332Z" fill="#873EFF"/>
<path fill-rule="evenodd" clip-rule="evenodd" d="M223.155 27.332C218.118 27.332 214.303 31.1594 214.303 36.351C214.303 41.5426 218.155 45.332 223.155 45.332C228.155 45.332 231.969 41.5047 232.006 36.351C232.006 31.1594 228.155 27.332 223.155 27.332ZM223.155 39.7994C221.266 39.7994 219.969 38.3594 219.969 36.351C219.969 34.3426 221.266 32.8647 223.155 32.8647C225.043 32.8647 226.34 34.3426 226.34 36.351C226.34 38.3594 225.081 39.7994 223.155 39.7994Z" fill="#873EFF"/>
<path fill-rule="evenodd" clip-rule="evenodd" d="M242.08 27.332C237.08 27.332 233.229 31.1594 233.229 36.351C233.229 41.5426 237.08 45.332 242.08 45.332C247.08 45.332 250.932 41.5047 250.932 36.351C250.932 31.1973 247.08 27.332 242.08 27.332ZM242.08 39.7994C240.154 39.7994 238.932 38.3594 238.932 36.351C238.932 34.3426 240.191 32.8647 242.08 32.8647C243.969 32.8647 245.266 34.3426 245.266 36.351C245.266 38.3594 244.006 39.7994 242.08 39.7994Z" fill="#873EFF"/>
</g>
<path opacity="0.6" d="M124.603 41.4453L125.001 41.0469L125.001 41.0459L124.907 40.9521L125.305 40.5537L125.398 40.6475L125.398 40.6484L125.796 40.249L125.796 40.248L125.702 40.1553L125.9 39.9551C125.969 39.8861 126.036 39.8159 126.1 39.7441L126.198 39.832C126.332 39.6823 126.455 39.5265 126.568 39.3662L126.462 39.29C126.575 39.131 126.677 38.9668 126.77 38.7988L126.884 38.8623C126.98 38.6873 127.067 38.5088 127.143 38.3262L127.021 38.2754C127.094 38.0958 127.158 37.9129 127.211 37.7275L127.337 37.7637C127.391 37.5724 127.435 37.3788 127.468 37.1836L127.339 37.1611C127.371 36.9702 127.392 36.7778 127.402 36.585L127.533 36.5918C127.544 36.394 127.544 36.1958 127.532 35.998L127.401 36.0039C127.39 35.811 127.369 35.6186 127.336 35.4277L127.464 35.4062C127.431 35.211 127.387 35.0174 127.332 34.8262L127.206 34.8623C127.153 34.6771 127.088 34.4939 127.014 34.3144L127.135 34.2646C127.059 34.0824 126.972 33.9041 126.875 33.7295L126.762 33.793C126.668 33.6251 126.565 33.4606 126.451 33.3018L126.558 33.2266C126.443 33.0665 126.32 32.9111 126.186 32.7617L126.088 32.8496L125.888 32.6387L125.689 32.4404L125.782 32.3477L125.385 31.9521L125.292 32.0449L124.895 31.6484L124.987 31.5557L124.59 31.1592L124.497 31.2529L124.1 30.8564L124.192 30.7637L123.795 30.3672L123.702 30.4609L123.305 30.0644L123.397 29.9717L123 29.5752L122.907 29.668L122.51 29.2725L122.604 29.1787L122.205 28.7832L122.112 28.876L121.715 28.4805L121.809 28.3867L121.41 27.9912L121.318 28.084L120.921 27.6885L121.013 27.5947L120.616 27.1992L120.523 27.292L120.126 26.8965L120.219 26.8027L119.821 26.4072L119.729 26.5L119.331 26.1045L119.424 26.0107L119.026 25.6152L118.934 25.708L118.536 25.3115L118.629 25.2187L118.231 24.8232L118.139 24.916L117.741 24.5195L117.834 24.4268L117.437 24.0312L117.344 24.124L116.946 23.7275L117.039 23.6348L116.642 23.2383L116.549 23.332L116.151 22.9355L116.244 22.8428L115.847 22.4463L115.754 22.54L115.356 22.1435L115.449 22.0508L115.052 21.6543L114.959 21.748L114.562 21.3516L114.655 21.2578L114.257 20.8623L114.164 20.9551L113.767 20.5596L113.86 20.4658L113.462 20.0703L113.37 20.1631L112.973 19.7676L113.065 19.6738L112.668 19.2783L112.575 19.3711L112.178 18.9756L112.271 18.8818L111.873 18.4863L111.78 18.5791L111.383 18.1836L111.476 18.0898L111.078 17.6943L110.985 17.7871L110.588 17.3906L110.681 17.2978L110.283 16.9023L110.19 16.9951L109.793 16.5986L109.886 16.5059L109.489 16.1094L109.396 16.2031L108.998 15.8066L109.091 15.7139L108.694 15.3174L108.601 15.4111L108.203 15.0146L108.296 14.9219L107.898 14.5254L107.806 14.6191L107.408 14.2227L107.502 14.1289L107.104 13.7334L107.011 13.8271L106.613 13.4307L106.707 13.3369L106.309 12.9414L106.216 13.0342L105.818 12.6387L105.912 12.5449L105.515 12.1484L105.422 12.2422L105.024 11.8467L105.117 11.7529L104.72 11.3564L104.627 11.4502L104.229 11.0547L104.322 10.9619L103.925 10.5654L103.832 10.6582L103.435 10.2627L103.527 10.1689L103.13 9.77343L103.037 9.86621L102.64 9.4707L102.732 9.37695L102.335 8.98144L102.242 9.07421L101.845 8.67773L101.937 8.58496L101.541 8.18847L101.447 8.28222L101.05 7.88574L101.143 7.79296L100.746 7.39648L100.652 7.49023L100.255 7.09375L100.348 7.00097L99.9502 6.60449L99.8574 6.69824L99.46 6.30175L99.5537 6.208L99.1553 5.8125L99.0625 5.90625L98.665 5.50976L98.7588 5.41601L98.3603 5.0205L98.2676 5.11425L97.8701 4.71777L97.9639 4.62402L97.5664 4.22754L97.4726 4.32129L97.0762 3.92578L97.1689 3.83203L96.7715 3.43554L96.6787 3.52929L96.2812 3.13379L96.374 3.04101L95.9766 2.64453L95.8838 2.7373L95.4863 2.34179L95.5791 2.24804L95.1816 1.85254L95.0889 1.94531L94.8896 1.74707C94.8209 1.67855 94.7502 1.61266 94.6787 1.54882L94.7666 1.45019C94.617 1.31676 94.4609 1.19461 94.3008 1.08105L94.2266 1.1875C94.0679 1.07495 93.904 0.9724 93.7363 0.87988L93.7988 0.765622C93.6242 0.669288 93.4459 0.582985 93.2637 0.507809L93.2139 0.628903C93.0349 0.555049 92.8526 0.491389 92.668 0.438473L92.7031 0.312497C92.5122 0.257825 92.3189 0.214482 92.124 0.181637L92.1025 0.310544C91.912 0.278418 91.7198 0.256813 91.5273 0.246091L91.5342 0.115231C91.3367 0.104253 91.1389 0.104245 90.9414 0.115231L90.9482 0.246091C90.7557 0.256819 90.5636 0.278404 90.373 0.310544L90.3506 0.181638C90.1557 0.214524 89.9624 0.257786 89.7715 0.312497L89.8086 0.438474C89.6237 0.491425 89.4409 0.554976 89.2617 0.628903L89.2109 0.50781C89.0288 0.583016 88.8503 0.669263 88.6758 0.765622L88.7402 0.87988C88.5726 0.972384 88.4087 1.07497 88.25 1.1875L88.1738 1.08105C88.0137 1.19462 87.8575 1.31676 87.708 1.45019L87.7969 1.54883C87.7253 1.61269 87.6547 1.67852 87.5859 1.74707L87.3867 1.94531L87.2939 1.85156L87.293 1.85156L86.8955 2.24707L86.9893 2.34179L86.5928 2.7373L86.498 2.64355L86.1006 3.04004L86.1016 3.04004L86.1953 3.13379L85.7978 3.52929L85.7031 3.43554L85.3057 3.83203L85.3066 3.83203L85.4004 3.92578L85.0029 4.32129L84.9082 4.22754L84.5107 4.62402L84.6055 4.71777L84.208 5.11426L84.1143 5.02051L83.7158 5.41601L83.8105 5.50976L83.4131 5.90625L83.3193 5.8125L82.9209 6.20801L83.0156 6.30176L82.6182 6.69824L82.5244 6.60449L82.1269 7.00097L82.2207 7.09375L81.8232 7.49023L81.7285 7.39648L81.332 7.79297L81.4258 7.88574L81.0283 8.28222L80.9336 8.18847L80.5371 8.58496L80.6309 8.67773L80.2334 9.07422L80.1396 8.98144L79.7422 9.37695L79.8359 9.4707L79.4385 9.86621L79.3457 9.77246L79.3447 9.77246L78.9473 10.168L79.041 10.2627L78.6445 10.6582L78.5498 10.5645L78.1523 10.9609L78.1533 10.9609L78.2471 11.0547L77.8496 11.4502L77.7549 11.3564L77.3574 11.7529L77.3584 11.7529L77.4521 11.8467L77.0547 12.2422L76.96 12.1484L76.5625 12.5449L76.6572 12.6387L76.2598 13.0342L76.166 12.9414L75.7676 13.3369L75.8623 13.4307L75.4648 13.8271L75.3711 13.7334L74.9727 14.1289L75.0674 14.2227L74.6699 14.6191L74.5762 14.5254L74.1787 14.9219L74.2725 15.0146L73.875 15.4111L73.7803 15.3174L73.3838 15.7139L73.4775 15.8066L73.0801 16.2031L72.9853 16.1094L72.5889 16.5059L72.6826 16.5986L72.2852 16.9951L72.1914 16.9023L71.7939 17.2979L71.8877 17.3906L71.4902 17.7871L71.3975 17.6934L71.3965 17.6934L71 18.0898L71.0928 18.1836L70.6963 18.5791L70.6016 18.4854L70.2051 18.8818L70.2988 18.9756L69.9014 19.3711L69.8066 19.2773L69.4092 19.6738L69.4102 19.6738L69.5039 19.7676L69.1064 20.1631L69.0127 20.0703L68.6143 20.4658L68.709 20.5596L68.3115 20.9551L68.2178 20.8623L67.8193 21.2578L67.9141 21.3516L67.5166 21.7471L67.4228 21.6543L67.0254 22.0508L67.1191 22.1436L66.7217 22.54L66.6279 22.4463L66.2305 22.8428L66.3242 22.9355L65.9268 23.332L65.833 23.2383L65.4355 23.6348L65.5293 23.7275L65.1318 24.124L65.0381 24.0312L64.6406 24.4268L64.7344 24.5195L64.3369 24.916L64.2432 24.8232L63.8457 25.2187L63.9394 25.3115L63.542 25.708L63.4492 25.6143L63.4482 25.6143L63.0518 26.0107L63.1445 26.1045L62.748 26.5L62.6533 26.4062L62.2568 26.8027L62.3506 26.8965L61.9531 27.292L61.8584 27.1982L61.4619 27.5947L61.5557 27.6885L61.1582 28.084L61.0644 27.9912L60.666 28.3867L60.7607 28.4805L60.3633 28.876L60.2695 28.7832L59.8711 29.1787L59.9658 29.2725L59.5684 29.668L59.4746 29.5752L59.0771 29.9717L59.1709 30.0645L58.7734 30.4609L58.6797 30.3672L58.2822 30.7637L58.376 30.8564L57.9785 31.2529L57.8848 31.1592L57.4873 31.5557L57.5811 31.6484L57.1836 32.0449L57.0898 31.9512L56.6924 32.3477L56.7861 32.4404L56.5879 32.6387L56.3877 32.8496L56.2891 32.7617C56.1549 32.9111 56.0312 33.0665 55.917 33.2266L56.0244 33.3018C55.911 33.4606 55.8081 33.6251 55.7148 33.793L55.5996 33.7295C55.5027 33.904 55.4156 34.0824 55.3398 34.2646L55.4619 34.3145C55.3873 34.4939 55.3231 34.6771 55.2695 34.8623L55.1426 34.8262C55.0874 35.0173 55.0441 35.2111 55.0107 35.4062L55.1406 35.4277C55.108 35.6186 55.0853 35.811 55.0742 36.0039L54.9424 35.998C54.931 36.1958 54.9317 36.394 54.9424 36.5918L55.0732 36.585C55.0837 36.7779 55.1058 36.9702 55.1377 37.1611L55.0068 37.1836C55.0278 37.3089 55.053 37.4337 55.083 37.5576L55.1377 37.7637L55.2646 37.7275C55.3175 37.9129 55.3811 38.0958 55.4551 38.2754L55.332 38.3262C55.4072 38.5088 55.4944 38.6873 55.5908 38.8623L55.7061 38.7988C55.7986 38.9668 55.901 39.131 56.0137 39.29L55.9072 39.3672C56.0206 39.5271 56.1432 39.6827 56.2764 39.832L56.376 39.7441L56.5752 39.9551L56.7734 40.1553L56.6797 40.248L57.0771 40.6475L57.1709 40.5537L57.5684 40.9521L57.4746 41.0459L57.8721 41.4453L57.9658 41.3516L58.3633 41.75L58.2695 41.8437L58.667 42.2422L58.7607 42.1484L59.1582 42.5479L59.0645 42.6416L59.4619 43.04L59.5557 42.9463L59.9531 43.3447L59.8594 43.4385L60.2568 43.8379L60.3506 43.7441L60.748 44.1426L60.6543 44.2363L61.0508 44.6357L61.1455 44.541L61.543 44.9404L61.4492 45.0342L61.8457 45.4326L61.9404 45.3389L62.3379 45.7383L62.2432 45.8311L62.6406 46.2305L62.7353 46.1367L63.1328 46.5352L63.0381 46.6289L63.4355 47.0273L63.5293 46.9346L63.9268 47.333L63.833 47.4268L64.2305 47.8252L64.3242 47.7314L64.7217 48.1309L64.6279 48.2246L65.0254 48.623L65.1191 48.5293L65.5166 48.9277L65.4228 49.0215L65.8203 49.4209L65.9141 49.3271L66.3115 49.7256L66.2178 49.8193L66.6152 50.2178L66.709 50.124L67.1064 50.5234L67.0127 50.6172L67.4102 51.0156L67.5039 50.9219L67.9014 51.3203L67.8066 51.415L68.2051 51.8135L68.2988 51.7197L68.6963 52.1182L68.6016 52.2129L68.999 52.6113L69 52.6104L69.0937 52.5176L69.4912 52.916L69.3975 53.0098L69.7939 53.4082L69.8887 53.3145L70.2861 53.7139L70.1914 53.8066L70.5889 54.2061L70.6836 54.1123L71.0811 54.5107L70.9863 54.6045L71.3838 55.0039L71.4775 54.9102L71.875 55.3086L71.7812 55.4023L72.1787 55.8008L72.2725 55.707L72.6699 56.1064L72.5762 56.2002L72.9736 56.5986L73.0674 56.5049L73.4648 56.9033L73.3711 56.9971L73.7686 57.3965L73.8623 57.3027L74.2598 57.7012L74.166 57.7949L74.5625 58.1943L74.6572 58.0996L75.0547 58.499L74.9609 58.5928L75.3584 58.9912L75.4521 58.8975L75.8496 59.2969L75.7559 59.3896L75.7549 59.3906L76.1533 59.7891L76.2471 59.6953L76.6445 60.0937L76.5498 60.1885L76.9482 60.5869L77.042 60.4932L77.4395 60.8916L77.3447 60.9863L77.7422 61.3838L77.8369 61.29L78.2344 61.6895L78.1396 61.7832L78.5371 62.1816L78.6318 62.0879L79.0293 62.4863L78.9346 62.5801L79.332 62.9795L79.4268 62.8857L79.8232 63.2842L79.7295 63.3779L80.127 63.7764L80.2207 63.6826L80.6182 64.082L80.5244 64.1758L80.9219 64.5742L81.0156 64.4805L81.4131 64.8799L81.3193 64.9727L81.3184 64.9736L81.7168 65.3721L81.8105 65.2783L82.208 65.6768L82.1143 65.7705L82.5107 66.1699L82.5117 66.1689L82.6055 66.0762L83.0029 66.4746L82.9092 66.5684L83.3057 66.9678L83.4004 66.873L83.7979 67.2725L83.7041 67.3662L84.1006 67.7656L84.1953 67.6709L84.5928 68.0693L84.498 68.1641L84.8965 68.5625L84.9902 68.4687L85.3877 68.8672L85.293 68.9619L85.6904 69.3594L85.7852 69.2656L86.1826 69.665L86.0879 69.7588L86.4854 70.1572L86.5801 70.0635L86.9775 70.4619L86.8828 70.5557L87.2803 70.9551L87.375 70.8613L87.5732 71.0605C87.6421 71.1297 87.7125 71.1964 87.7842 71.2607L87.6953 71.3594C87.845 71.4938 88.0007 71.618 88.1611 71.7324L88.2383 71.625C88.3974 71.7385 88.5613 71.8422 88.7295 71.9355L88.665 72.0498C88.8401 72.147 89.0193 72.2337 89.2021 72.3096L89.2529 72.1875C89.4327 72.2621 89.6162 72.3265 89.8018 72.3799L89.7656 72.5068C89.9571 72.5619 90.1512 72.6055 90.3467 72.6387L90.3691 72.5088C90.5606 72.5412 90.7538 72.5634 90.9473 72.5742L90.9395 72.7061C91.1379 72.7172 91.3367 72.7171 91.5352 72.7061L91.5283 72.5742C91.7217 72.5634 91.915 72.5412 92.1064 72.5088L92.1279 72.6387C92.3235 72.6056 92.5174 72.5619 92.709 72.5068L92.6738 72.3799C92.8594 72.3265 93.0428 72.2621 93.2227 72.1875L93.2725 72.3096C93.4552 72.2338 93.6346 72.1478 93.8096 72.0508L93.7461 71.9355C93.9143 71.8423 94.0782 71.7385 94.2373 71.625L94.3135 71.7324C94.4739 71.618 94.6296 71.4938 94.7793 71.3594L94.6914 71.2607C94.7631 71.1964 94.8335 71.1297 94.9023 71.0605L95.1016 70.8613L95.1943 70.9551L95.5918 70.5557L95.5928 70.5557L95.499 70.4619L95.8965 70.0635L95.9893 70.1572L96.3867 69.7588L96.2939 69.665L96.6914 69.2656L96.7842 69.3594L97.1816 68.9609L97.0879 68.8672L97.4854 68.4687L97.5791 68.5625L97.9766 68.1631L97.9775 68.1631L97.8828 68.0693L98.2803 67.6709L98.374 67.7646L98.7705 67.3662L98.7715 67.3662L98.6777 67.2725L99.0752 66.873L99.1689 66.9668L99.1689 66.9678L99.5654 66.5684L99.5664 66.5684L99.4727 66.4746L99.8701 66.0762L99.9639 66.1689L99.9639 66.1699L100.361 65.7715L100.361 65.7705L100.268 65.6768L100.665 65.2783L100.758 65.3721L101.156 64.9736L101.156 64.9727L101.062 64.8799L101.46 64.4805L101.553 64.5742L101.95 64.1758L101.951 64.1758L101.857 64.082L102.255 63.6826L102.349 63.7764L102.349 63.7773L102.745 63.3779L102.746 63.3779L102.652 63.2842L103.05 62.8857L103.143 62.9795L103.54 62.5801L103.541 62.5801L103.447 62.4863L103.845 62.0879L103.937 62.1816L104.335 61.7832L104.242 61.6894L104.64 61.29L104.732 61.3838L105.13 60.9853L105.036 60.8916L105.434 60.4932L105.527 60.5869L105.925 60.1875L105.926 60.1875L105.831 60.0937L106.229 59.6953L106.322 59.7891L106.72 59.3906L106.72 59.3896L106.626 59.2969L107.023 58.8975L107.117 58.9912L107.117 58.9922L107.514 58.5928L107.515 58.5928L107.421 58.499L107.818 58.1006L107.912 58.1934L107.912 58.1943L108.31 57.7959L108.31 57.7949L108.216 57.7012L108.613 57.3027L108.706 57.3965L109.104 56.998L109.104 56.9971L109.011 56.9033L109.408 56.5049L109.501 56.5986L109.898 56.2002L109.899 56.2002L109.806 56.1064L110.203 55.707L110.297 55.8008L110.297 55.8018L110.693 55.4023L110.694 55.4023L110.601 55.3086L110.998 54.9102L111.091 55.0039L111.489 54.6055L111.489 54.6045L111.396 54.5107L111.793 54.1123L111.886 54.206L112.283 53.8076L112.19 53.7139L112.588 53.3144L112.681 53.4082L113.078 53.0098L112.984 52.916L113.382 52.5176L113.477 52.6103L113.477 52.6113L113.873 52.2119L113.874 52.2119L113.779 52.1182L114.177 51.7197L114.271 51.8135L114.668 51.415L114.668 51.4141L114.574 51.3203L114.972 50.9219L115.065 51.0156L115.065 51.0166L115.463 50.6182L115.463 50.6172L115.369 50.5234L115.767 50.124L115.86 50.2178L115.86 50.2187L116.258 49.8203L116.258 49.8193L116.164 49.7256L116.562 49.3271L116.654 49.4209L117.053 49.0225L117.053 49.0215L116.959 48.9277L117.356 48.5293L117.45 48.623L117.45 48.624L117.847 48.2246L117.848 48.2246L117.754 48.1309L118.151 47.7314L118.245 47.8252L118.245 47.8262L118.642 47.4268L118.643 47.4268L118.549 47.333L118.946 46.9346L119.039 47.0283L119.437 46.6299L119.437 46.6289L119.344 46.5352L119.741 46.1367L119.834 46.2305L120.232 45.832L120.232 45.831L120.139 45.7383L120.536 45.3389L120.629 45.4326L121.026 45.0342L120.933 44.9404L121.33 44.541L121.425 44.6348L121.425 44.6357L121.821 44.2363L121.822 44.2363L121.728 44.1426L122.125 43.7441L122.219 43.8379L122.616 43.4385L122.617 43.4385L122.522 43.3447L122.92 42.9463L123.014 43.04L123.014 43.041L123.411 42.6426L123.411 42.6416L123.317 42.5478L123.715 42.1484L123.809 42.2422L123.809 42.2432L124.206 41.8447L124.206 41.8437L124.112 41.75L124.51 41.3516L124.603 41.4453Z" stroke="url(#paint0_linear_19001_109172)" stroke-width="0.26532" stroke-dasharray="0.56 0.56"/>
<path opacity="0.8" d="M337.908 41.4473L338.306 41.0488L338.307 41.0488L338.213 40.9551L338.61 40.5566L338.703 40.6504L339.101 40.2519L339.008 40.1582L339.206 39.958C339.275 39.889 339.341 39.8188 339.405 39.7471L339.504 39.835C339.638 39.6851 339.761 39.5296 339.875 39.3691L339.768 39.293C339.88 39.1336 339.983 38.9691 340.076 38.8008L340.19 38.8652C340.287 38.6901 340.373 38.5109 340.448 38.3281L340.327 38.2773C340.401 38.0975 340.465 37.9141 340.518 37.7285L340.644 37.7646C340.698 37.5733 340.742 37.3798 340.774 37.1846L340.646 37.1621C340.677 36.9709 340.699 36.7781 340.709 36.585L340.84 36.5918C340.851 36.3936 340.85 36.1952 340.839 35.9971L340.708 36.0039C340.697 35.8108 340.675 35.6179 340.643 35.4268L340.771 35.4053C340.737 35.2101 340.694 35.0164 340.639 34.8252L340.513 34.8613C340.459 34.6761 340.395 34.4929 340.32 34.3135L340.441 34.2627C340.366 34.0802 340.279 33.9014 340.182 33.7266L340.067 33.79C339.974 33.6222 339.87 33.4586 339.757 33.2998L339.864 33.2236C339.75 33.0634 339.626 32.9083 339.491 32.7588L339.394 32.8467L339.193 32.6357L338.995 32.4375L339.088 32.3447L338.69 31.9482L338.598 32.042L338.2 31.6455L338.293 31.5527L337.896 31.1562L337.803 31.25L337.405 30.8535L337.498 30.7607L337.102 30.3643L337.008 30.458L336.611 30.0615L336.704 29.9687L336.307 29.5732L336.214 29.666L335.816 29.2705L335.909 29.1768L335.512 28.7812L335.419 28.874L335.021 28.4785L335.114 28.3848L334.717 27.9893L334.624 28.082L334.227 27.6865L334.319 27.5928L333.923 27.1963L333.829 27.29L333.433 26.8945L333.525 26.8008L333.128 26.4053L333.035 26.498L332.638 26.1025L332.73 26.0088L332.333 25.6133L332.24 25.706L331.843 25.3105L331.937 25.2168L331.538 24.8213L331.445 24.9141L331.048 24.5185L331.142 24.4248L330.743 24.0293L330.651 24.1221L330.254 23.7266L330.347 23.6338L329.949 23.2373L329.856 23.331L329.459 22.9346L329.552 22.8418L329.154 22.4453L329.062 22.5391L328.664 22.1426L328.757 22.0498L328.359 21.6533L328.267 21.7471L327.869 21.3506L327.963 21.2568L327.565 20.8613L327.473 20.9551L327.075 20.5586L327.168 20.4658L326.771 20.0693L326.678 20.1631L326.28 19.7666L326.373 19.6738L325.977 19.2773L325.883 19.3711L325.485 18.9746L325.578 18.8818L325.182 18.4853L325.088 18.5791L324.69 18.1826L324.783 18.0898L324.387 17.6943L324.294 17.7871L323.896 17.3916L323.989 17.2978L323.592 16.9023L323.499 16.9951L323.102 16.5996L323.194 16.5059L322.798 16.1094L322.704 16.2031L322.307 15.8076L322.399 15.7139L322.003 15.3174L321.909 15.4111L321.513 15.0156L321.604 14.9219L321.208 14.5264L321.115 14.6191L320.718 14.2236L320.811 14.1299L320.413 13.7344L320.32 13.8271L319.923 13.4316L320.017 13.3379L319.618 12.9424L319.525 13.0352L319.128 12.6396L319.222 12.5459L318.824 12.1494L318.73 12.2432L318.334 11.8477L318.427 11.7549L318.029 11.3584L317.937 11.4521L317.539 11.0557L317.632 10.9629L317.234 10.5664L317.142 10.6602L316.744 10.2637L316.838 10.1699L316.439 9.77441L316.347 9.86816L315.949 9.47168L316.043 9.37793L315.645 8.98242L315.552 9.07617L315.155 8.67968L315.248 8.58691L314.851 8.19043L314.758 8.28418L314.36 7.88769L314.453 7.79492L314.057 7.39843L313.963 7.49218L313.565 7.0957L313.658 7.00293L313.262 6.60644L313.168 6.70019L312.771 6.30371L312.864 6.20996L312.467 5.81445L312.373 5.9082L311.977 5.51172L312.069 5.41894L311.672 5.02343L311.579 5.11621L311.182 4.7207L311.274 4.62695L310.878 4.23047L310.784 4.32422L310.387 3.92871L310.479 3.83496L310.083 3.43847L309.989 3.53222L309.592 3.13672L309.685 3.04297L309.288 2.64648L309.195 2.74023L308.798 2.34472L308.891 2.25097L308.493 1.85547L308.4 1.94824L308.201 1.75097C308.132 1.68228 308.062 1.61575 307.99 1.55175L308.078 1.45312C307.929 1.31987 307.773 1.19743 307.613 1.08398L307.537 1.19043C307.378 1.07773 307.215 0.974463 307.047 0.881833L307.109 0.767575C306.935 0.671256 306.756 0.584943 306.574 0.509762L306.524 0.631833C306.345 0.557817 306.163 0.493439 305.978 0.440427L306.013 0.31445C305.822 0.259784 305.628 0.216446 305.434 0.183591L305.412 0.312497C305.221 0.280319 305.029 0.25878 304.836 0.248044L304.843 0.117184C304.645 0.106196 304.447 0.106152 304.249 0.117184L304.257 0.248044C304.064 0.258782 303.871 0.280311 303.681 0.312497L303.659 0.183591C303.464 0.216506 303.27 0.259657 303.079 0.31445L303.115 0.440427C302.93 0.493427 302.748 0.557844 302.568 0.631833L302.518 0.509763C302.336 0.584926 302.158 0.672282 301.983 0.768552L302.047 0.881833C301.879 0.974475 301.715 1.07772 301.556 1.19043L301.479 1.08398C301.319 1.19744 301.163 1.31986 301.014 1.45312L301.103 1.55176C301.031 1.61572 300.96 1.68231 300.892 1.75097L300.692 1.94824L300.599 1.85547L300.201 2.25L300.296 2.34472L299.898 2.74023L299.804 2.64648L299.407 3.04297L299.501 3.13672L299.104 3.53222L299.009 3.43847L298.612 3.83496L298.706 3.92871L298.309 4.32422L298.214 4.23047L297.817 4.62695L297.911 4.7207L297.514 5.11621L297.42 5.02343L297.022 5.41797L297.117 5.51269L296.72 5.9082L296.626 5.81445L296.625 5.81445L296.228 6.20996L296.322 6.30371L295.925 6.70019L295.83 6.60644L295.434 7.00293L295.527 7.0957L295.13 7.49219L295.035 7.39844L294.639 7.79492L294.732 7.88769L294.336 8.28418L294.241 8.18945L293.844 8.58594L293.938 8.67969L293.541 9.07617L293.447 8.98242L293.049 9.37793L293.144 9.47168L292.746 9.86816L292.652 9.77441L292.254 10.1699L292.349 10.2637L291.951 10.6602L291.857 10.5664L291.46 10.9629L291.554 11.0557L291.157 11.4521L291.062 11.3574L290.665 11.7539L290.666 11.7539L290.76 11.8477L290.362 12.2432L290.268 12.1494L289.87 12.5459L289.965 12.6396L289.567 13.0352L289.474 12.9424L289.075 13.3379L289.17 13.4316L288.772 13.8271L288.679 13.7344L288.281 14.1299L288.375 14.2236L287.979 14.6191L287.884 14.5254L287.487 14.9219L287.581 15.0156L287.184 15.4111L287.089 15.3174L286.692 15.7139L286.786 15.8076L286.389 16.2031L286.294 16.1094L285.897 16.5059L285.991 16.5996L285.594 16.9951L285.5 16.9023L285.103 17.2969L285.196 17.3916L284.8 17.7871L284.706 17.6934L284.705 17.6934L284.309 18.0898L284.402 18.1826L284.005 18.5791L283.91 18.4854L283.514 18.8818L283.607 18.9746L283.21 19.3711L283.115 19.2773L282.719 19.6738L282.812 19.7666L282.415 20.1631L282.321 20.0693L281.924 20.4648L282.019 20.5586L281.621 20.9551L281.527 20.8613L281.129 21.2568L281.224 21.3506L280.826 21.7471L280.732 21.6533L280.335 22.0498L280.429 22.1426L280.031 22.5391L279.937 22.4453L279.54 22.8418L279.634 22.9346L279.236 23.3311L279.143 23.2373L278.745 23.6328L278.746 23.6328L278.84 23.7266L278.442 24.1221L278.349 24.0293L277.95 24.4248L278.045 24.5186L277.647 24.9141L277.554 24.8213L277.155 25.2168L277.25 25.3105L276.853 25.7061L276.759 25.6133L276.361 26.0098L276.455 26.1025L276.058 26.498L275.964 26.4043L275.567 26.8008L275.661 26.8945L275.264 27.29L275.169 27.1963L274.772 27.5928L274.866 27.6865L274.469 28.082L274.375 27.9893L273.978 28.3848L274.071 28.4785L273.674 28.874L273.58 28.7812L273.183 29.1768L273.276 29.2705L272.88 29.666L272.786 29.5723L272.785 29.5723L272.389 29.9687L272.482 30.0615L272.085 30.458L271.99 30.3643L271.594 30.7607L271.687 30.8535L271.29 31.25L271.195 31.1562L270.799 31.5527L270.893 31.6455L270.495 32.042L270.401 31.9492L270.004 32.3447L270.098 32.4375L269.899 32.6357L269.699 32.8467L269.601 32.7588C269.466 32.9084 269.343 33.0643 269.229 33.2246L269.336 33.2998C269.223 33.4586 269.119 33.6222 269.025 33.79L268.91 33.7266C268.813 33.9013 268.726 34.0802 268.65 34.2627L268.772 34.3135C268.698 34.4929 268.634 34.6761 268.58 34.8613L268.453 34.8252C268.398 35.0164 268.355 35.2101 268.321 35.4053L268.451 35.4268C268.419 35.6179 268.396 35.8108 268.385 36.0039L268.253 35.9971C268.242 36.1808 268.241 36.365 268.249 36.5488L268.252 36.5918L268.384 36.585C268.394 36.7782 268.416 36.9708 268.448 37.1621L268.317 37.1846C268.338 37.3099 268.364 37.4347 268.394 37.5586L268.448 37.7646L268.575 37.7285C268.628 37.914 268.692 38.0975 268.766 38.2773L268.644 38.3281C268.719 38.5106 268.805 38.6894 268.901 38.8643L269.017 38.8008C269.109 38.9691 269.212 39.1336 269.325 39.293L269.218 39.3691C269.331 39.5294 269.454 39.6853 269.588 39.835L269.687 39.7471L269.887 39.958L270.085 40.1582L269.991 40.252L270.389 40.6504L270.482 40.5566L270.88 40.9551L270.786 41.0488L271.184 41.4473L271.277 41.3535L271.675 41.7529L271.581 41.8467L271.979 42.2451L272.072 42.1514L272.47 42.5498L272.375 42.6436L272.772 43.042L272.867 42.9492L273.264 43.3477L273.17 43.4414L273.567 43.8398L273.661 43.7461L274.059 44.1445L273.965 44.2383L274.362 44.6377L274.456 44.5439L274.854 44.9424L274.76 45.0361L275.156 45.4355L275.251 45.3408L275.648 45.7393L275.554 45.833L275.951 46.2324L276.046 46.1387L276.442 46.5371L276.349 46.6309L276.746 47.0293L276.84 46.9355L277.237 47.335L277.144 47.4277L277.143 47.4287L277.541 47.8271L277.635 47.7334L278.032 48.1318L277.938 48.2256L278.335 48.624L278.43 48.5303L278.827 48.9297L278.732 49.0234L279.13 49.4219L279.225 49.3281L279.621 49.7266L279.527 49.8203L279.925 50.2187L280.019 50.125L280.416 50.5244L280.322 50.6182L280.72 51.0166L280.813 50.9229L281.211 51.3213L281.116 51.416L281.514 51.8135L281.608 51.7207L282.006 52.1191L281.911 52.2129L282.309 52.6113L282.402 52.5176L282.8 52.916L282.706 53.0098L283.104 53.4092L283.197 53.3154L283.595 53.7139L283.501 53.8076L283.897 54.207L283.992 54.1123L284.39 54.5107L284.295 54.6055L284.692 55.0039L284.787 54.9102L285.185 55.3086L285.09 55.4023L285.487 55.8008L285.581 55.707L285.979 56.1064L285.885 56.2002L286.282 56.5986L286.376 56.5049L286.773 56.9033L286.68 56.9971L287.076 57.3965L287.171 57.3018L287.568 57.7012L287.474 57.7949L287.871 58.1934L287.966 58.0996L288.363 58.498L288.269 58.5918L288.666 58.9902L288.76 58.8965L289.157 59.2959L289.063 59.3896L289.461 59.7881L289.555 59.6943L289.952 60.0928L289.857 60.1875L290.256 60.5859L290.35 60.4922L290.747 60.8906L290.652 60.9844L291.05 61.3828L291.145 61.2891L291.541 61.6875L291.447 61.7812L291.845 62.1807L291.938 62.0869L292.336 62.4853L292.242 62.5791L292.639 62.9785L292.733 62.8838L293.131 63.2822L293.036 63.377L293.435 63.7754L293.528 63.6816L293.926 64.0801L293.831 64.1738L294.229 64.5723L294.323 64.4785L294.72 64.8779L294.626 64.9717L295.023 65.3701L295.117 65.2764L295.515 65.6748L295.421 65.7686L295.817 66.168L295.912 66.0732L296.31 66.4727L296.216 66.5664L296.612 66.9658L296.707 66.8711L297.104 67.2695L297.01 67.3633L297.406 67.7627L297.407 67.7617L297.502 67.668L297.898 68.0674L297.805 68.1611L298.202 68.5596L298.296 68.4658L298.693 68.8643L298.599 68.959L298.997 69.3574L299.091 69.2637L299.488 69.6621L299.394 69.7568L299.791 70.1543L299.886 70.0605L300.283 70.459L300.188 70.5527L300.586 70.9521L300.681 70.8584L300.879 71.0576C300.948 71.1267 301.018 71.1934 301.09 71.2578L301.001 71.3564C301.151 71.4911 301.307 71.6149 301.468 71.7295L301.544 71.6221C301.703 71.7357 301.868 71.8392 302.036 71.9326L301.973 72.0478C302.148 72.145 302.327 72.2318 302.51 72.3076L302.561 72.1855C302.74 72.2602 302.924 72.3245 303.109 72.3779L303.073 72.5049C303.265 72.5601 303.459 72.6035 303.655 72.6367L303.677 72.5068C303.868 72.5393 304.062 72.5614 304.256 72.5723L304.248 72.7041C304.446 72.7152 304.645 72.7152 304.844 72.7041L304.838 72.5723C305.031 72.5614 305.224 72.5393 305.416 72.5068L305.437 72.6367C305.633 72.6036 305.828 72.5601 306.02 72.5049L305.983 72.3779C306.169 72.3245 306.352 72.2602 306.532 72.1855L306.583 72.3076C306.766 72.2318 306.945 72.145 307.12 72.0478L307.057 71.9326C307.225 71.8392 307.39 71.7357 307.549 71.6221L307.624 71.7295C307.785 71.6149 307.941 71.4911 308.091 71.3564L308.003 71.2578C308.075 71.1934 308.145 71.1267 308.214 71.0576L308.413 70.8584L308.507 70.9521L308.507 70.9531L308.904 70.5537L308.904 70.5527L308.811 70.459L309.207 70.0605L309.302 70.1543L309.302 70.1553L309.699 69.7568L309.699 69.7559L309.604 69.6621L310.002 69.2637L310.096 69.3574L310.096 69.3584L310.493 68.959L310.493 68.958L310.399 68.8643L310.797 68.4658L310.891 68.5596L310.891 68.5605L311.288 68.1621L311.288 68.1611L311.194 68.0674L311.592 67.668L311.686 67.7617L311.686 67.7627L312.083 67.3643L312.083 67.3633L311.989 67.2695L312.386 66.8711L312.48 66.9648L312.48 66.9658L312.877 66.5664L312.878 66.5664L312.783 66.4727L313.181 66.0732L313.274 66.167L313.274 66.168L313.672 65.7695L313.672 65.7686L313.578 65.6748L313.976 65.2764L314.069 65.3701L314.069 65.3711L314.466 64.9717L314.467 64.9717L314.373 64.8779L314.771 64.4785L314.864 64.5723L314.864 64.5732L315.262 64.1748L315.262 64.1738L315.168 64.0801L315.564 63.6816L315.658 63.7754L316.057 63.3769L316.057 63.376L315.962 63.2822L316.359 62.8838L316.453 62.9775L316.453 62.9785L316.851 62.5801L316.851 62.5791L316.757 62.4853L317.154 62.0869L317.247 62.1807L317.646 61.7822L317.646 61.7812L317.552 61.6875L317.949 61.2891L318.043 61.3828L318.043 61.3838L318.439 60.9844L318.44 60.9844L318.346 60.8906L318.743 60.4922L318.837 60.5859L319.234 60.1865L319.235 60.1865L319.141 60.0928L319.538 59.6943L319.632 59.7881L319.632 59.7891L320.029 59.3906L320.029 59.3896L319.936 59.2959L320.333 58.8965L320.427 58.9902L320.427 58.9912L320.824 58.5928L320.824 58.5918L320.73 58.498L321.128 58.0996L321.221 58.1934L321.618 57.7949L321.524 57.7012L321.922 57.3018L322.016 57.3955L322.413 56.998L322.413 56.9971L322.319 56.9033L322.717 56.5049L322.811 56.5986L322.811 56.5996L323.207 56.2002L323.208 56.2002L323.114 56.1064L323.512 55.707L323.605 55.8008L323.605 55.8018L324.002 55.4023L324.003 55.4023L323.909 55.3086L324.307 54.9102L324.399 55.0039L324.797 54.6045L324.798 54.6045L324.703 54.5107L325.101 54.1123L325.194 54.206L325.592 53.8086L325.592 53.8076L325.498 53.7139L325.896 53.3154L325.988 53.4092L326.387 53.0107L326.387 53.0098L326.293 52.916L326.69 52.5176L326.783 52.6113L327.181 52.2129L327.088 52.1191L327.484 51.7207L327.578 51.8135L327.976 51.415L327.977 51.415L327.882 51.3213L328.279 50.9228L328.373 51.0166L328.77 50.6182L328.771 50.6182L328.677 50.5244L329.074 50.125L329.168 50.2187L329.168 50.2197L329.564 49.8203L329.565 49.8203L329.472 49.7266L329.869 49.3281L329.962 49.4219L330.359 49.0234L330.267 48.9297L330.663 48.5303L330.757 48.624L331.154 48.2256L331.061 48.1318L331.458 47.7334L331.552 47.8271L331.949 47.4287L331.949 47.4277L331.855 47.335L332.253 46.9355L332.346 47.0293L332.743 46.6309L332.65 46.5371L333.048 46.1387L333.141 46.2324L333.538 45.833L333.539 45.833L333.445 45.7393L333.842 45.3408L333.936 45.4346L334.333 45.0361L334.239 44.9424L334.637 44.5439L334.729 44.6377L335.127 44.2383L335.128 44.2383L335.034 44.1445L335.432 43.7461L335.524 43.8398L335.922 43.4414L335.829 43.3477L336.227 42.9492L336.319 43.042L336.717 42.6435L336.624 42.5498L337.021 42.1514L337.114 42.2451L337.512 41.8467L337.418 41.7529L337.815 41.3535L337.908 41.4473Z" stroke="#364153" stroke-width="0.265535" stroke-dasharray="0.56 0.56"/>
<path opacity="0.6" d="M376.146 41.4473L376.543 41.0488L376.544 41.0488L376.45 40.9551L376.848 40.5566L376.94 40.6504L377.338 40.2519L377.245 40.1582L377.443 39.958C377.512 39.889 377.579 39.8188 377.643 39.7471L377.741 39.835C377.875 39.6851 377.999 39.5296 378.112 39.3691L378.005 39.293C378.118 39.1336 378.221 38.9691 378.313 38.8008L378.428 38.8652C378.524 38.6901 378.61 38.5109 378.686 38.3281L378.564 38.2773C378.638 38.0975 378.702 37.9141 378.755 37.7285L378.881 37.7646C378.935 37.5733 378.979 37.3798 379.012 37.1846L378.883 37.1621C378.915 36.9709 378.936 36.7781 378.946 36.585L379.077 36.5918C379.088 36.3936 379.088 36.1952 379.076 35.9971L378.945 36.0039C378.934 35.8108 378.913 35.6179 378.88 35.4268L379.008 35.4053C378.974 35.2101 378.931 35.0164 378.876 34.8252L378.75 34.8613C378.696 34.6761 378.632 34.4929 378.558 34.3135L378.679 34.2627C378.603 34.0802 378.516 33.9014 378.419 33.7266L378.305 33.79C378.211 33.6222 378.108 33.4586 377.994 33.2998L378.102 33.2236C377.987 33.0634 377.863 32.9083 377.729 32.7588L377.631 32.8467L377.431 32.6357L377.232 32.4375L377.325 32.3447L376.928 31.9482L376.835 32.042L376.437 31.6455L376.53 31.5527L376.134 31.1562L376.04 31.25L375.643 30.8535L375.735 30.7607L375.339 30.3643L375.245 30.458L374.849 30.0615L374.941 29.9687L374.544 29.5732L374.451 29.666L374.054 29.2705L374.146 29.1768L373.749 28.7812L373.656 28.874L373.259 28.4785L373.352 28.3848L372.954 27.9893L372.861 28.082L372.464 27.6865L372.557 27.5928L372.16 27.1963L372.066 27.29L371.67 26.8945L371.763 26.8008L371.365 26.4053L371.272 26.498L370.875 26.1025L370.968 26.0088L370.57 25.6133L370.478 25.706L370.08 25.3105L370.174 25.2168L369.775 24.8213L369.683 24.9141L369.285 24.5185L369.379 24.4248L368.98 24.0293L368.889 24.1221L368.491 23.7266L368.584 23.6338L368.187 23.2373L368.094 23.331L367.696 22.9346L367.789 22.8418L367.392 22.4453L367.299 22.5391L366.901 22.1426L366.994 22.0498L366.597 21.6533L366.504 21.7471L366.106 21.3506L366.2 21.2568L365.803 20.8613L365.71 20.9551L365.312 20.5586L365.405 20.4658L365.008 20.0693L364.915 20.1631L364.518 19.7666L364.61 19.6738L364.214 19.2773L364.12 19.3711L363.723 18.9746L363.815 18.8818L363.419 18.4853L363.325 18.5791L362.928 18.1826L363.021 18.0898L362.624 17.6943L362.531 17.7871L362.134 17.3916L362.227 17.2978L361.829 16.9023L361.736 16.9951L361.339 16.5996L361.432 16.5059L361.035 16.1094L360.941 16.2031L360.544 15.8076L360.637 15.7139L360.24 15.3174L360.146 15.4111L359.75 15.0156L359.842 14.9219L359.445 14.5264L359.353 14.6191L358.955 14.2236L359.048 14.1299L358.65 13.7344L358.558 13.8271L358.16 13.4316L358.254 13.3379L357.855 12.9424L357.763 13.0352L357.365 12.6396L357.459 12.5459L357.062 12.1494L356.968 12.2432L356.571 11.8477L356.664 11.7549L356.267 11.3584L356.174 11.4521L355.776 11.0557L355.869 10.9629L355.472 10.5664L355.379 10.6602L354.981 10.2637L355.075 10.1699L354.677 9.77441L354.584 9.86816L354.187 9.47168L354.28 9.37793L353.882 8.98242L353.789 9.07617L353.393 8.67968L353.485 8.58691L353.088 8.19043L352.995 8.28418L352.598 7.88769L352.69 7.79492L352.294 7.39843L352.2 7.49218L351.803 7.0957L351.896 7.00293L351.499 6.60644L351.405 6.70019L351.008 6.30371L351.102 6.20996L350.704 5.81445L350.61 5.9082L350.214 5.51172L350.307 5.41894L349.909 5.02343L349.816 5.11621L349.419 4.7207L349.512 4.62695L349.115 4.23047L349.021 4.32422L348.624 3.92871L348.717 3.83496L348.32 3.43847L348.227 3.53222L347.829 3.13672L347.922 3.04297L347.525 2.64648L347.433 2.74023L347.035 2.34472L347.128 2.25097L346.73 1.85547L346.638 1.94824L346.438 1.75097C346.37 1.68228 346.299 1.61575 346.228 1.55175L346.315 1.45312C346.166 1.31987 346.011 1.19743 345.851 1.08398L345.774 1.19043C345.616 1.07773 345.452 0.974463 345.284 0.881833L345.347 0.767575C345.172 0.671256 344.994 0.584943 344.812 0.509762L344.762 0.631833C344.582 0.557817 344.4 0.493439 344.215 0.440427L344.25 0.31445C344.059 0.259784 343.866 0.216446 343.671 0.183591L343.649 0.312497C343.459 0.280319 343.266 0.25878 343.073 0.248044L343.08 0.117184C342.882 0.106196 342.684 0.106152 342.486 0.117184L342.494 0.248044C342.301 0.258782 342.109 0.280311 341.918 0.312497L341.896 0.183591C341.701 0.216506 341.508 0.259657 341.316 0.31445L341.353 0.440427C341.168 0.493427 340.985 0.557844 340.806 0.631833L340.755 0.509763C340.573 0.584926 340.395 0.672282 340.221 0.768552L340.284 0.881833C340.116 0.974475 339.952 1.07772 339.793 1.19043L339.716 1.08398C339.556 1.19744 339.4 1.31986 339.251 1.45312L339.34 1.55176C339.268 1.61572 339.198 1.68231 339.129 1.75097L338.93 1.94824L338.836 1.85547L338.438 2.25L338.533 2.34472L338.136 2.74023L338.041 2.64648L337.645 3.04297L337.738 3.13672L337.341 3.53222L337.246 3.43847L336.85 3.83496L336.943 3.92871L336.546 4.32422L336.451 4.23047L336.055 4.62695L336.148 4.7207L335.751 5.11621L335.657 5.02343L335.26 5.41797L335.354 5.51269L334.957 5.9082L334.863 5.81445L334.862 5.81445L334.465 6.20996L334.56 6.30371L334.162 6.70019L334.067 6.60644L333.671 7.00293L333.765 7.0957L333.367 7.49219L333.272 7.39844L332.876 7.79492L332.97 7.88769L332.573 8.28418L332.479 8.18945L332.081 8.58594L332.176 8.67969L331.778 9.07617L331.685 8.98242L331.286 9.37793L331.381 9.47168L330.983 9.86816L330.89 9.77441L330.491 10.1699L330.586 10.2637L330.188 10.6602L330.095 10.5664L329.697 10.9629L329.791 11.0557L329.395 11.4521L329.3 11.3574L328.902 11.7539L328.903 11.7539L328.997 11.8477L328.6 12.2432L328.505 12.1494L328.107 12.5459L328.202 12.6396L327.805 13.0352L327.711 12.9424L327.312 13.3379L327.407 13.4316L327.01 13.8271L326.916 13.7344L326.519 14.1299L326.612 14.2236L326.216 14.6191L326.121 14.5254L325.725 14.9219L325.818 15.0156L325.421 15.4111L325.326 15.3174L324.93 15.7139L325.023 15.8076L324.626 16.2031L324.531 16.1094L324.135 16.5059L324.229 16.5996L323.831 16.9951L323.737 16.9023L323.34 17.2969L323.434 17.3916L323.037 17.7871L322.943 17.6934L322.942 17.6934L322.546 18.0898L322.64 18.1826L322.242 18.5791L322.147 18.4854L321.751 18.8818L321.845 18.9746L321.447 19.3711L321.353 19.2773L320.956 19.6738L321.05 19.7666L320.652 20.1631L320.559 20.0693L320.161 20.4648L320.256 20.5586L319.858 20.9551L319.765 20.8613L319.366 21.2568L319.461 21.3506L319.063 21.7471L318.97 21.6533L318.572 22.0498L318.666 22.1426L318.269 22.5391L318.175 22.4453L317.777 22.8418L317.871 22.9346L317.474 23.3311L317.38 23.2373L316.982 23.6328L316.983 23.6328L317.077 23.7266L316.68 24.1221L316.586 24.0293L316.187 24.4248L316.282 24.5186L315.885 24.9141L315.791 24.8213L315.393 25.2168L315.487 25.3105L315.09 25.7061L314.996 25.6133L314.599 26.0098L314.692 26.1025L314.295 26.498L314.201 26.4043L313.805 26.8008L313.898 26.8945L313.501 27.29L313.406 27.1963L313.01 27.5928L313.104 27.6865L312.706 28.082L312.612 27.9893L312.215 28.3848L312.309 28.4785L311.911 28.874L311.817 28.7812L311.42 29.1768L311.514 29.2705L311.117 29.666L311.023 29.5723L311.022 29.5723L310.626 29.9687L310.72 30.0615L310.322 30.458L310.228 30.3643L309.831 30.7607L309.925 30.8535L309.527 31.25L309.433 31.1562L309.036 31.5527L309.13 31.6455L308.732 32.042L308.639 31.9492L308.241 32.3447L308.335 32.4375L308.137 32.6357L307.937 32.8467L307.838 32.7588C307.704 32.9084 307.58 33.0643 307.466 33.2246L307.573 33.2998C307.46 33.4586 307.356 33.6222 307.263 33.79L307.147 33.7266C307.05 33.9013 306.964 34.0802 306.888 34.2627L307.01 34.3135C306.935 34.4929 306.871 34.6761 306.817 34.8613L306.69 34.8252C306.635 35.0164 306.592 35.2101 306.559 35.4053L306.688 35.4268C306.656 35.6179 306.633 35.8108 306.622 36.0039L306.49 35.9971C306.48 36.1808 306.478 36.365 306.486 36.5488L306.489 36.5918L306.621 36.585C306.632 36.7782 306.654 36.9708 306.686 37.1621L306.555 37.1846C306.576 37.3099 306.601 37.4347 306.631 37.5586L306.686 37.7646L306.812 37.7285C306.865 37.914 306.929 38.0975 307.003 38.2773L306.881 38.3281C306.956 38.5106 307.042 38.6894 307.139 38.8643L307.254 38.8008C307.347 38.9691 307.45 39.1336 307.562 39.293L307.455 39.3691C307.569 39.5294 307.692 39.6853 307.825 39.835L307.925 39.7471L308.124 39.958L308.322 40.1582L308.229 40.252L308.626 40.6504L308.72 40.5566L309.117 40.9551L309.023 41.0488L309.421 41.4473L309.515 41.3535L309.912 41.7529L309.818 41.8467L310.216 42.2451L310.31 42.1514L310.707 42.5498L310.612 42.6436L311.01 43.042L311.104 42.9492L311.501 43.3477L311.407 43.4414L311.805 43.8398L311.898 43.7461L312.296 44.1445L312.202 44.2383L312.6 44.6377L312.693 44.5439L313.091 44.9424L312.997 45.0361L313.394 45.4355L313.488 45.3408L313.886 45.7393L313.791 45.833L314.188 46.2324L314.283 46.1387L314.68 46.5371L314.586 46.6309L314.983 47.0293L315.077 46.9355L315.475 47.335L315.381 47.4277L315.38 47.4287L315.778 47.8271L315.872 47.7334L316.27 48.1318L316.176 48.2256L316.572 48.624L316.667 48.5303L317.064 48.9297L316.97 49.0234L317.367 49.4219L317.462 49.3281L317.858 49.7266L317.765 49.8203L318.162 50.2187L318.256 50.125L318.653 50.5244L318.56 50.6182L318.957 51.0166L319.051 50.9229L319.448 51.3213L319.354 51.416L319.751 51.8135L319.846 51.7207L320.243 52.1191L320.148 52.2129L320.546 52.6113L320.64 52.5176L321.037 52.916L320.943 53.0098L321.341 53.4092L321.435 53.3154L321.832 53.7139L321.738 53.8076L322.135 54.207L322.229 54.1123L322.627 54.5107L322.532 54.6055L322.93 55.0039L323.024 54.9102L323.422 55.3086L323.327 55.4023L323.725 55.8008L323.818 55.707L324.216 56.1064L324.122 56.2002L324.52 56.5986L324.613 56.5049L325.011 56.9033L324.917 56.9971L325.313 57.3965L325.408 57.3018L325.806 57.7012L325.711 57.7949L326.108 58.1934L326.203 58.0996L326.601 58.498L326.506 58.5918L326.903 58.9902L326.997 58.8965L327.395 59.2959L327.301 59.3896L327.698 59.7881L327.792 59.6943L328.189 60.0928L328.095 60.1875L328.493 60.5859L328.587 60.4922L328.984 60.8906L328.89 60.9844L329.287 61.3828L329.382 61.2891L329.778 61.6875L329.685 61.7812L330.082 62.1807L330.176 62.0869L330.573 62.4853L330.479 62.5791L330.876 62.9785L330.971 62.8838L331.368 63.2822L331.273 63.377L331.672 63.7754L331.766 63.6816L332.163 64.0801L332.068 64.1738L332.466 64.5723L332.561 64.4785L332.957 64.8779L332.863 64.9717L333.261 65.3701L333.354 65.2764L333.752 65.6748L333.658 65.7686L334.055 66.168L334.149 66.0732L334.547 66.4727L334.453 66.5664L334.85 66.9658L334.944 66.8711L335.342 67.2695L335.247 67.3633L335.644 67.7627L335.645 67.7617L335.739 67.668L336.136 68.0674L336.042 68.1611L336.439 68.5596L336.533 68.4658L336.931 68.8643L336.836 68.959L337.234 69.3574L337.328 69.2637L337.726 69.6621L337.631 69.7568L338.028 70.1543L338.123 70.0605L338.521 70.459L338.426 70.5527L338.823 70.9521L338.918 70.8584L339.116 71.0576C339.185 71.1267 339.255 71.1934 339.327 71.2578L339.238 71.3564C339.388 71.4911 339.544 71.6149 339.705 71.7295L339.781 71.6221C339.94 71.7357 340.105 71.8392 340.273 71.9326L340.21 72.0478C340.385 72.145 340.564 72.2318 340.747 72.3076L340.798 72.1855C340.978 72.2602 341.161 72.3245 341.347 72.3779L341.311 72.5049C341.502 72.5601 341.697 72.6035 341.893 72.6367L341.914 72.5068C342.106 72.5393 342.3 72.5614 342.493 72.5723L342.485 72.7041C342.684 72.7152 342.883 72.7152 343.081 72.7041L343.075 72.5723C343.269 72.5614 343.462 72.5393 343.653 72.5068L343.675 72.6367C343.871 72.6036 344.065 72.5601 344.257 72.5049L344.221 72.3779C344.406 72.3245 344.59 72.2602 344.77 72.1855L344.82 72.3076C345.003 72.2318 345.182 72.145 345.357 72.0478L345.294 71.9326C345.462 71.8392 345.627 71.7357 345.786 71.6221L345.861 71.7295C346.022 71.6149 346.178 71.4911 346.328 71.3564L346.24 71.2578C346.312 71.1934 346.382 71.1267 346.451 71.0576L346.65 70.8584L346.744 70.9521L346.744 70.9531L347.142 70.5537L347.142 70.5527L347.048 70.459L347.444 70.0605L347.539 70.1543L347.539 70.1553L347.937 69.7568L347.937 69.7559L347.842 69.6621L348.239 69.2637L348.333 69.3574L348.333 69.3584L348.73 68.959L348.73 68.958L348.637 68.8643L349.034 68.4658L349.128 68.5596L349.128 68.5605L349.525 68.1621L349.525 68.1611L349.432 68.0674L349.829 67.668L349.923 67.7617L349.923 67.7627L350.32 67.3643L350.32 67.3633L350.227 67.2695L350.623 66.8711L350.718 66.9648L350.718 66.9658L351.114 66.5664L351.115 66.5664L351.021 66.4727L351.418 66.0732L351.512 66.167L351.512 66.168L351.909 65.7695L351.909 65.7686L351.815 65.6748L352.213 65.2764L352.307 65.3701L352.307 65.3711L352.703 64.9717L352.704 64.9717L352.61 64.8779L353.008 64.4785L353.102 64.5723L353.102 64.5732L353.499 64.1748L353.499 64.1738L353.405 64.0801L353.802 63.6816L353.896 63.7754L354.294 63.3769L354.294 63.376L354.199 63.2822L354.597 62.8838L354.69 62.9775L354.69 62.9785L355.088 62.5801L355.088 62.5791L354.994 62.4853L355.392 62.0869L355.484 62.1807L355.883 61.7822L355.883 61.7812L355.789 61.6875L356.187 61.2891L356.28 61.3828L356.28 61.3838L356.677 60.9844L356.678 60.9844L356.583 60.8906L356.98 60.4922L357.074 60.5859L357.472 60.1865L357.473 60.1865L357.378 60.0928L357.775 59.6943L357.869 59.7881L357.869 59.7891L358.267 59.3906L358.267 59.3896L358.173 59.2959L358.57 58.8965L358.664 58.9902L358.664 58.9912L359.062 58.5928L359.062 58.5918L358.968 58.498L359.365 58.0996L359.458 58.1934L359.855 57.7949L359.762 57.7012L360.159 57.3018L360.253 57.3955L360.65 56.998L360.65 56.9971L360.557 56.9033L360.954 56.5049L361.048 56.5986L361.048 56.5996L361.444 56.2002L361.445 56.2002L361.352 56.1064L361.749 55.707L361.843 55.8008L361.843 55.8018L362.239 55.4023L362.24 55.4023L362.146 55.3086L362.544 54.9102L362.637 55.0039L363.034 54.6045L363.035 54.6045L362.94 54.5107L363.338 54.1123L363.432 54.206L363.829 53.8086L363.829 53.8076L363.735 53.7139L364.133 53.3154L364.226 53.4092L364.624 53.0107L364.624 53.0098L364.53 52.916L364.928 52.5176L365.021 52.6113L365.418 52.2129L365.325 52.1191L365.722 51.7207L365.815 51.8135L366.213 51.415L366.214 51.415L366.119 51.3213L366.517 50.9228L366.61 51.0166L367.007 50.6182L367.008 50.6182L366.914 50.5244L367.312 50.125L367.405 50.2187L367.405 50.2197L367.802 49.8203L367.803 49.8203L367.709 49.7266L368.106 49.3281L368.199 49.4219L368.597 49.0234L368.504 48.9297L368.9 48.5303L368.994 48.624L369.392 48.2256L369.298 48.1318L369.695 47.7334L369.789 47.8271L370.187 47.4287L370.187 47.4277L370.093 47.335L370.49 46.9355L370.583 47.0293L370.98 46.6309L370.888 46.5371L371.285 46.1387L371.378 46.2324L371.775 45.833L371.776 45.833L371.683 45.7393L372.079 45.3408L372.173 45.4346L372.57 45.0361L372.477 44.9424L372.874 44.5439L372.967 44.6377L373.364 44.2383L373.365 44.2383L373.271 44.1445L373.669 43.7461L373.762 43.8398L374.159 43.4414L374.066 43.3477L374.464 42.9492L374.557 43.042L374.954 42.6435L374.861 42.5498L375.258 42.1514L375.352 42.2451L375.749 41.8467L375.655 41.7529L376.053 41.3535L376.146 41.4473Z" stroke="#364153" stroke-width="0.265535" stroke-dasharray="0.56 0.56"/>
</g>
</g>
<defs>
<linearGradient id="paint0_linear_19001_109172" x1="129.74" y1="36.4232" x2="52.7354" y2="36.4232" gradientUnits="userSpaceOnUse">
<stop stop-color="#364153"/>
<stop offset="0.445" stop-color="#364153" stop-opacity="0"/>
</linearGradient>
<clipPath id="clip0_19001_109172">
<rect width="374.67" height="72.3333" rx="14" fill="white"/>
</clipPath>
<clipPath id="clip1_19001_109172">
<rect x="35.6699" y="-9.66797" width="382.526" height="92" rx="5.81053" fill="white"/>
</clipPath>
<clipPath id="clip2_19001_109172">
<rect width="68" height="18" fill="white" transform="translate(182.933 27.332)"/>
</clipPath>
</defs>
</svg>
