<svg width="182" height="251" viewBox="0 0 182 251" fill="none" xmlns="http://www.w3.org/2000/svg">
<g clip-path="url(#clip0_4157_58518)">
<g opacity="0.4">
<line x1="5.79643e-09" y1="74.6" x2="182.277" y2="74.6" stroke="#BABABA" stroke-width="0.8" stroke-dasharray="2.16 2.16"/>
<line x1="5.79643e-09" y1="114.6" x2="182.277" y2="114.6" stroke="url(#paint0_linear_4157_58518)" stroke-width="0.8" stroke-dasharray="2.16 2.16"/>
<line x1="5.79643e-09" y1="154.6" x2="182.277" y2="154.6" stroke="url(#paint1_linear_4157_58518)" stroke-width="0.8" stroke-dasharray="2.16 2.16"/>
<line opacity="0.3" x1="5.79643e-09" y1="194.6" x2="182.277" y2="194.6" stroke="#BABABA" stroke-width="0.8" stroke-dasharray="2.16 2.16"/>
</g>
<path opacity="0.7" d="M159.377 65.1347C159.451 64.9267 159.343 64.6978 159.135 64.6234L155.745 63.4107C155.537 63.3363 155.309 63.4446 155.234 63.6526C155.16 63.8606 155.268 64.0896 155.476 64.164L158.489 65.2419L157.411 68.2549C157.337 68.4629 157.445 68.6918 157.653 68.7662C157.861 68.8407 158.09 68.7324 158.164 68.5244L159.377 65.1347ZM122.901 83.5063L122.574 83.2756L122.901 83.5063ZM126.794 80.2344L126.965 80.596L126.794 80.2344ZM103.783 101.006L103.843 100.61L103.783 101.006ZM113.454 96.8871L113.78 97.1178L113.454 96.8871ZM86.2966 101.788L86.0392 101.482L86.2966 101.788ZM94.2336 99.5555L94.2937 99.16L94.2336 99.5555ZM58.3467 116.577L58.5495 116.232L58.3467 116.577ZM69.8542 115.612L70.1116 115.919L69.8542 115.612ZM32.5278 113.922L32.1679 113.747L32.5278 113.922ZM46.5996 109.663L46.8025 109.318L46.5996 109.663ZM11.0212 158.319L11.3812 158.494L11.0212 158.319ZM-0.266461 160.798C0.0238247 161.058 0.327647 161.29 0.642181 161.495L1.07903 160.824C0.798349 160.641 0.526639 160.434 0.266461 160.202L-0.266461 160.798ZM2.72572 162.43C3.47141 162.634 4.23739 162.716 4.99511 162.683L4.96081 161.884C4.28391 161.913 3.6005 161.84 2.93601 161.658L2.72572 162.43ZM7.23384 162.24C7.94686 161.982 8.62377 161.614 9.23591 161.142L8.74753 160.509C8.20205 160.929 7.59816 161.257 6.9612 161.488L7.23384 162.24ZM10.8061 159.484C11.0189 159.174 11.2115 158.844 11.3812 158.494L10.6612 158.145C10.5091 158.459 10.3368 158.754 10.147 159.03L10.8061 159.484ZM11.3812 158.494L11.87 157.485L11.15 157.136L10.6612 158.145L11.3812 158.494ZM12.8475 155.467L13.8251 153.449L13.1051 153.1L12.1276 155.118L12.8475 155.467ZM14.8027 151.431L15.7803 149.412L15.0603 149.064L14.0827 151.082L14.8027 151.431ZM16.7578 147.394L17.7354 145.376L17.0154 145.028L16.0379 147.046L16.7578 147.394ZM18.713 143.358L19.6906 141.34L18.9706 140.991L17.993 143.01L18.713 143.358ZM20.6681 139.322L21.6457 137.304L20.9257 136.955L19.9482 138.973L20.6681 139.322ZM22.6233 135.286L23.6009 133.268L22.8809 132.919L21.9033 134.937L22.6233 135.286ZM24.5784 131.25L25.556 129.232L24.836 128.883L23.8585 130.901L24.5784 131.25ZM26.5336 127.214L27.5112 125.196L26.7912 124.847L25.8136 126.865L26.5336 127.214ZM28.4887 123.178L29.4663 121.159L28.7463 120.811L27.7688 122.829L28.4887 123.178ZM30.4439 119.141L31.4215 117.123L30.7015 116.775L29.7239 118.793L30.4439 119.141ZM32.399 115.105L32.8878 114.096L32.1679 113.747L31.6791 114.757L32.399 115.105ZM32.8878 114.096C33.0338 113.795 33.1931 113.505 33.3648 113.227L32.684 112.807C32.4981 113.108 32.3256 113.422 32.1679 113.747L32.8878 114.096ZM34.572 111.66C35.0319 111.176 35.537 110.747 36.0768 110.376L35.6235 109.717C35.0385 110.119 34.491 110.584 33.9923 111.108L34.572 111.66ZM37.8142 109.428C38.4243 109.173 39.0594 108.981 39.7087 108.855L39.5566 108.069C38.8535 108.206 38.1659 108.414 37.5053 108.69L37.8142 109.428ZM41.6799 108.68C42.335 108.69 42.9931 108.767 43.644 108.914L43.8207 108.134C43.115 107.974 42.4015 107.89 41.6916 107.88L41.6799 108.68ZM45.5178 109.549C45.8149 109.685 46.1082 109.838 46.3967 110.008L46.8025 109.318C46.4906 109.135 46.1731 108.969 45.8514 108.822L45.5178 109.549ZM46.3967 110.008L47.3757 110.584L47.7814 109.895L46.8025 109.318L46.3967 110.008ZM49.3335 111.736L51.2913 112.888L51.6971 112.199L49.7393 111.047L49.3335 111.736ZM53.2492 114.041L55.207 115.193L55.6128 114.504L53.6549 113.351L53.2492 114.041ZM57.1649 116.345L58.1438 116.921L58.5495 116.232L57.5706 115.656L57.1649 116.345ZM58.1438 116.921C58.4528 117.103 58.7684 117.268 59.0894 117.415L59.4227 116.687C59.1264 116.552 58.835 116.4 58.5495 116.232L58.1438 116.921ZM61.1067 118.099C61.8042 118.258 62.5128 118.343 63.2212 118.357L63.2363 117.557C62.5823 117.544 61.9281 117.465 61.2845 117.319L61.1067 118.099ZM65.3437 118.179C66.0401 118.048 66.7246 117.845 67.3859 117.573L67.0808 116.833C66.4705 117.085 65.8387 117.272 65.1958 117.393L65.3437 118.179ZM69.2612 116.563C69.5533 116.364 69.8372 116.149 70.1116 115.919L69.5968 115.306C69.3433 115.519 69.0812 115.718 68.8116 115.901L69.2612 116.563ZM70.1116 115.919L70.9337 115.227L70.4189 114.615L69.5968 115.306L70.1116 115.919ZM72.578 113.845L74.2222 112.463L73.7074 111.85L72.0631 113.233L72.578 113.845ZM75.8664 111.08L77.5107 109.698L76.9958 109.085L75.3516 110.468L75.8664 111.08ZM79.1549 108.315L80.7991 106.933L80.2843 106.32L78.6401 107.703L79.1549 108.315ZM82.4434 105.55L84.0876 104.168L83.5728 103.556L81.9286 104.938L82.4434 105.55ZM85.7319 102.785L86.554 102.094L86.0392 101.482L85.217 102.173L85.7319 102.785ZM86.554 102.094C86.8156 101.874 87.0874 101.67 87.3679 101.48L86.9209 100.817C86.6169 101.022 86.3225 101.244 86.0392 101.482L86.554 102.094ZM89.1674 100.528C89.7992 100.276 90.4562 100.091 91.1271 99.9772L90.9934 99.1885C90.2666 99.3117 89.5548 99.5119 88.8703 99.7856L89.1674 100.528ZM93.159 99.8516C93.497 99.8666 93.8356 99.8996 94.1736 99.951L94.2937 99.16C93.9276 99.1044 93.5608 99.0687 93.1947 99.0524L93.159 99.8516ZM94.1736 99.951L95.3672 100.132L95.4873 99.3413L94.2937 99.16L94.1736 99.951ZM97.7545 100.495L100.142 100.857L100.262 100.067L97.8747 99.7039L97.7545 100.495ZM102.529 101.22L103.723 101.401L103.843 100.61L102.649 100.429L102.529 101.22ZM103.723 101.401C104.041 101.45 104.359 101.483 104.677 101.502L104.723 100.703C104.431 100.686 104.137 100.655 103.843 100.61L103.723 101.401ZM106.591 101.437C107.228 101.356 107.854 101.217 108.461 101.022L108.217 100.261C107.657 100.44 107.079 100.569 106.491 100.644L106.591 101.437ZM110.224 100.272C110.785 99.969 111.319 99.6143 111.819 99.2107L111.316 98.5883C110.855 98.9608 110.362 99.2882 109.844 99.5676L110.224 100.272ZM113.192 97.8749C113.398 97.6332 113.595 97.3807 113.78 97.1178L113.127 96.6564C112.955 96.8991 112.774 97.1322 112.583 97.3554L113.192 97.8749ZM113.78 97.1178L114.371 96.2815L113.717 95.8201L113.127 96.6564L113.78 97.1178ZM115.552 94.6089L116.733 92.9363L116.079 92.4749L114.898 94.1475L115.552 94.6089ZM117.914 91.2637L119.095 89.5911L118.441 89.1297L117.26 90.8023L117.914 91.2637ZM120.276 87.9185L121.456 86.2459L120.803 85.7845L119.622 87.4571L120.276 87.9185ZM122.637 84.5733L123.228 83.737L122.574 83.2756L121.984 84.1119L122.637 84.5733ZM123.228 83.737C123.466 83.3998 123.725 83.0794 124.002 82.7774L123.413 82.236C123.113 82.5631 122.832 82.9103 122.574 83.2756L123.228 83.737ZM125.887 81.1938C126.232 80.9723 126.592 80.7725 126.965 80.596L126.623 79.8728C126.219 80.064 125.829 80.2805 125.455 80.5204L125.887 81.1938ZM126.965 80.596L127.972 80.1199L127.63 79.3967L126.623 79.8728L126.965 80.596ZM129.985 79.1677L131.997 78.2156L131.655 77.4924L129.642 78.4446L129.985 79.1677ZM134.01 77.2634L136.023 76.3113L135.681 75.5881L133.668 76.5403L134.01 77.2634ZM138.036 75.3592L140.049 74.407L139.707 73.6838L137.694 74.636L138.036 75.3592ZM142.062 73.4549L144.075 72.5027L143.733 71.7795L141.72 72.7317L142.062 73.4549ZM146.088 71.5506L148.101 70.5984L147.758 69.8752L145.746 70.8274L146.088 71.5506ZM150.113 69.6463L152.126 68.6941L151.784 67.9709L149.771 68.9231L150.113 69.6463ZM154.139 67.742L156.152 66.7898L155.81 66.0666L153.797 67.0188L154.139 67.742ZM158.165 65.8377L159.171 65.3616L158.829 64.6384L157.823 65.1145L158.165 65.8377Z" fill="url(#paint2_linear_4157_58518)"/>
<path d="M72.2611 157.916H68.4251V142.88L70.0211 141.2H72.2611V157.916ZM70.1331 143.972C69.6291 144.271 69.1251 144.551 68.6211 144.812C68.1357 145.073 67.6037 145.335 67.0251 145.596C66.4651 145.839 65.8211 146.091 65.0931 146.352L63.8611 143.16L70.0211 141.2L70.1331 143.972ZM64.4491 154.556H75.3131V158H64.4491V154.556ZM74.7699 144.784V141.2H88.6859V144.784C86.9126 146.632 85.5872 148.657 84.7099 150.86C83.8326 153.044 83.3286 155.424 83.1979 158H78.7459C78.8392 156.021 79.1939 154.173 79.8099 152.456C80.4446 150.72 81.2939 149.133 82.3579 147.696C83.4406 146.24 84.7099 144.943 86.1659 143.804L87.2299 144.308C86.6512 144.383 86.0072 144.457 85.2979 144.532C84.5886 144.607 83.8419 144.672 83.0579 144.728C82.2739 144.765 81.4712 144.784 80.6499 144.784H74.7699ZM96.9433 144.336C96.122 144.336 95.45 144.541 94.9273 144.952C94.4046 145.363 94.0126 145.96 93.7513 146.744C93.49 147.509 93.3593 148.443 93.3593 149.544C93.3593 150.645 93.49 151.597 93.7513 152.4C94.0126 153.203 94.4046 153.819 94.9273 154.248C95.45 154.677 96.1126 154.892 96.9153 154.892C97.718 154.892 98.3806 154.677 98.9033 154.248C99.4446 153.819 99.846 153.203 100.107 152.4C100.387 151.597 100.527 150.645 100.527 149.544C100.527 148.443 100.397 147.509 100.135 146.744C99.874 145.96 99.482 145.363 98.9593 144.952C98.4366 144.541 97.7646 144.336 96.9433 144.336ZM96.9433 140.808C98.4926 140.808 99.8273 141.144 100.947 141.816C102.086 142.469 102.963 143.449 103.579 144.756C104.214 146.044 104.531 147.64 104.531 149.544C104.531 151.448 104.223 153.063 103.607 154.388C103.01 155.695 102.142 156.693 101.003 157.384C99.8646 158.056 98.5113 158.392 96.9433 158.392C95.3753 158.392 94.022 158.056 92.8833 157.384C91.7446 156.693 90.8673 155.695 90.2513 154.388C89.654 153.063 89.3553 151.448 89.3553 149.544C89.3553 147.64 89.6726 146.044 90.3073 144.756C90.942 143.449 91.8286 142.469 92.9673 141.816C94.106 141.144 95.4313 140.808 96.9433 140.808Z" fill="#97A3B6"/>
<path d="M110.122 153L113.922 145.88H114.874L111.074 153H110.122ZM109.894 149.9C109.501 149.9 109.173 149.82 108.909 149.66C108.646 149.5 108.449 149.267 108.317 148.962C108.187 148.657 108.122 148.287 108.122 147.85C108.122 147.41 108.187 147.037 108.317 146.73C108.449 146.423 108.646 146.19 108.909 146.03C109.173 145.87 109.501 145.79 109.894 145.79C110.288 145.79 110.615 145.87 110.877 146.03C111.14 146.19 111.337 146.423 111.467 146.73C111.599 147.037 111.664 147.41 111.664 147.85C111.664 148.287 111.599 148.657 111.467 148.962C111.337 149.267 111.14 149.5 110.877 149.66C110.615 149.82 110.288 149.9 109.894 149.9ZM109.899 149.027C110.049 149.027 110.174 148.989 110.274 148.912C110.374 148.836 110.45 148.712 110.502 148.54C110.554 148.367 110.579 148.137 110.579 147.85C110.579 147.558 110.554 147.326 110.502 147.152C110.45 146.977 110.374 146.852 110.274 146.777C110.174 146.701 110.049 146.662 109.899 146.662C109.744 146.662 109.617 146.701 109.517 146.777C109.417 146.852 109.34 146.977 109.287 147.152C109.235 147.327 109.209 147.56 109.209 147.85C109.209 148.137 109.235 148.367 109.287 148.54C109.34 148.712 109.417 148.836 109.517 148.912C109.619 148.989 109.746 149.027 109.899 149.027ZM115.102 153.09C114.707 153.09 114.378 153.01 114.114 152.85C113.853 152.69 113.656 152.457 113.524 152.152C113.394 151.847 113.329 151.477 113.329 151.04C113.329 150.6 113.394 150.227 113.524 149.92C113.656 149.612 113.853 149.378 114.114 149.22C114.378 149.06 114.707 148.98 115.102 148.98C115.494 148.98 115.821 149.06 116.084 149.22C116.348 149.38 116.544 149.613 116.674 149.92C116.806 150.227 116.872 150.6 116.872 151.04C116.872 151.477 116.806 151.847 116.674 152.152C116.544 152.457 116.348 152.69 116.084 152.85C115.821 153.01 115.494 153.09 115.102 153.09ZM115.107 152.217C115.259 152.217 115.384 152.179 115.482 152.102C115.582 152.026 115.658 151.902 115.709 151.73C115.761 151.557 115.787 151.327 115.787 151.04C115.787 150.748 115.761 150.516 115.709 150.342C115.658 150.167 115.582 150.042 115.482 149.967C115.384 149.891 115.259 149.852 115.107 149.852C114.952 149.852 114.824 149.891 114.724 149.967C114.624 150.042 114.548 150.167 114.494 150.342C114.443 150.517 114.417 150.75 114.417 151.04C114.417 151.327 114.443 151.557 114.494 151.73C114.548 151.902 114.624 152.026 114.724 152.102C114.826 152.179 114.954 152.217 115.107 152.217Z" fill="#97A3B6"/>
<path d="M53.8582 172L52.2682 166.84H53.2482L54.0882 169.82C54.1532 170.052 54.2165 170.285 54.2782 170.52C54.3415 170.755 54.3982 170.975 54.4482 171.18H54.3682C54.4365 170.907 54.499 170.667 54.5557 170.46C54.6123 170.253 54.6765 170.04 54.7482 169.82L55.6682 166.84H56.6282L57.5482 169.82C57.6198 170.09 57.6832 170.333 57.7382 170.55C57.7932 170.765 57.8432 170.975 57.8882 171.18L57.8282 171.21C57.8732 171.008 57.9248 170.792 57.9832 170.562C58.0432 170.332 58.1082 170.085 58.1782 169.82L59.0382 166.84H59.9882L58.3582 172H57.3482L56.4582 168.92C56.3865 168.677 56.3115 168.408 56.2332 168.115C56.1548 167.822 56.0665 167.48 55.9682 167.09H56.2982C56.2215 167.403 56.1415 167.716 56.0582 168.027C55.9748 168.339 55.8915 168.637 55.8082 168.92L54.8682 172H53.8582ZM60.7408 172V166.84H61.6608V172H60.7408ZM60.7408 165.87V164.88H61.6608V165.87H60.7408ZM62.9604 172V166.84H63.8204V167.84H63.8804V172H62.9604ZM66.3804 168.6C66.3804 168.362 66.3429 168.162 66.2679 168C66.1929 167.838 66.0787 167.717 65.9254 167.635C65.7737 167.552 65.582 167.51 65.3504 167.51C65.092 167.51 64.852 167.562 64.6304 167.667C64.4104 167.772 64.2304 167.946 64.0904 168.187C63.9504 168.429 63.8804 168.743 63.8804 169.13H63.5704V167.75H63.7204C63.8304 167.53 63.9745 167.342 64.1529 167.187C64.3329 167.032 64.5412 166.914 64.7779 166.832C65.0145 166.751 65.272 166.71 65.5504 166.71C65.9104 166.71 66.2212 166.777 66.4829 166.912C66.7462 167.046 66.9479 167.241 67.0879 167.497C67.2295 167.752 67.3004 168.06 67.3004 168.42V172H66.3804V168.6ZM68.2979 169.64V168.81H71.0979V169.64H68.2979ZM72.0967 172V166.84H72.9567V168.14H73.0167V172H72.0967ZM72.7767 168.35C72.87 168.008 72.9942 167.715 73.1492 167.47C73.3058 167.225 73.5 167.036 73.7317 166.902C73.9633 166.767 74.235 166.7 74.5467 166.7C74.5933 166.7 74.6408 166.702 74.6892 166.705C74.7375 166.708 74.7833 166.712 74.8267 166.717V167.612C74.7667 167.607 74.7083 167.604 74.6517 167.602C74.595 167.601 74.5433 167.6 74.4967 167.6C74.26 167.6 74.03 167.661 73.8067 167.782C73.585 167.904 73.4008 168.084 73.2542 168.322C73.1092 168.561 73.03 168.847 73.0167 169.18H72.8167L72.7767 168.35ZM79.6395 172C79.4395 172 79.2728 171.967 79.1395 171.9C79.0062 171.832 78.9062 171.731 78.8395 171.597C78.7728 171.462 78.7395 171.297 78.7395 171.1L78.5995 171.02V169.17V168.88V168.26C78.5995 168.078 78.5578 167.929 78.4745 167.812C78.3928 167.694 78.2662 167.606 78.0945 167.547C77.9245 167.489 77.7062 167.46 77.4395 167.46C77.1862 167.46 76.9778 167.489 76.8145 167.547C76.6512 167.606 76.5245 167.702 76.4345 167.837C76.3462 167.971 76.2912 168.152 76.2695 168.38H75.3595C75.3878 168.003 75.487 167.691 75.657 167.442C75.8287 167.192 76.0687 167.007 76.377 166.885C76.687 166.762 77.0645 166.7 77.5095 166.7C77.9412 166.7 78.307 166.76 78.607 166.88C78.907 166.998 79.1353 167.18 79.292 167.425C79.4503 167.67 79.5295 167.978 79.5295 168.35V170.87C79.5295 170.985 79.5437 171.075 79.572 171.14C79.6003 171.203 79.6462 171.249 79.7095 171.277C79.7745 171.306 79.8645 171.32 79.9795 171.32C80.0045 171.32 80.0295 171.32 80.0545 171.32C80.0795 171.32 80.1045 171.32 80.1295 171.32V172C80.0478 172 79.9662 172 79.8845 172C79.8028 172 79.7212 172 79.6395 172ZM76.8795 172.13C76.5295 172.13 76.2245 172.071 75.9645 171.952C75.7045 171.834 75.5037 171.662 75.362 171.437C75.2203 171.211 75.1495 170.942 75.1495 170.63C75.1495 170.34 75.2103 170.084 75.332 169.862C75.4553 169.641 75.647 169.458 75.907 169.315C76.1687 169.17 76.5028 169.072 76.9095 169.02L78.2295 168.85C78.3145 168.838 78.3837 168.817 78.437 168.787C78.492 168.756 78.5328 168.713 78.5595 168.66C78.5862 168.607 78.5995 168.54 78.5995 168.46L78.9695 168.99C78.9695 169.087 78.957 169.168 78.932 169.235C78.907 169.302 78.8678 169.354 78.8145 169.392C78.7612 169.431 78.6928 169.457 78.6095 169.47L77.0595 169.7C76.8245 169.735 76.6328 169.793 76.4845 169.875C76.3378 169.955 76.2303 170.055 76.162 170.175C76.0937 170.293 76.0595 170.432 76.0595 170.59C76.0595 170.763 76.0995 170.912 76.1795 171.037C76.2612 171.162 76.3762 171.257 76.5245 171.322C76.6745 171.387 76.8495 171.42 77.0495 171.42C77.3212 171.42 77.5762 171.363 77.8145 171.25C78.0528 171.137 78.2428 170.986 78.3845 170.797C78.5278 170.609 78.5995 170.407 78.5995 170.19H78.8895V170.95C78.8078 171.168 78.6737 171.367 78.487 171.547C78.3003 171.726 78.0695 171.867 77.7945 171.972C77.5195 172.078 77.2145 172.13 76.8795 172.13ZM82.2226 172C81.9543 172 81.736 171.96 81.5676 171.88C81.3993 171.798 81.2743 171.673 81.1926 171.505C81.1126 171.337 81.0726 171.118 81.0726 170.85V167.95V167.17V166.45V165.26H81.9926V166.45V167.17V167.95V170.73C81.9926 170.858 82.0076 170.958 82.0376 171.03C82.0693 171.102 82.121 171.153 82.1926 171.185C82.2643 171.215 82.3643 171.23 82.4926 171.23C82.586 171.23 82.6793 171.23 82.7726 171.23C82.8676 171.23 82.9626 171.23 83.0576 171.23H83.1626V172C83.146 172 83.1301 172 83.1151 172C83.1001 172 83.0843 172 83.0676 172C82.9276 172 82.7868 172 82.6451 172C82.5035 172 82.3626 172 82.2226 172ZM80.2326 167.55V166.84L81.5326 166.89L83.1726 166.84V167.55L81.5326 167.5L80.2326 167.55ZM86.1006 172.12C85.5973 172.12 85.1606 172.005 84.7906 171.775C84.4223 171.545 84.1398 171.225 83.9431 170.815C83.7481 170.403 83.6506 169.932 83.6506 169.4C83.6506 168.872 83.7464 168.406 83.9381 168.002C84.1314 167.597 84.4106 167.282 84.7756 167.057C85.1423 166.832 85.5773 166.72 86.0806 166.72C86.5623 166.72 86.9798 166.823 87.3331 167.03C87.6881 167.237 87.9614 167.534 88.1531 167.922C88.3448 168.309 88.4406 168.768 88.4406 169.3C88.4406 169.357 88.4406 169.413 88.4406 169.47C88.4406 169.527 88.4406 169.583 88.4406 169.64H84.4106V168.98H87.9806L87.6006 169.42C87.6006 169.003 87.5414 168.649 87.4231 168.357C87.3048 168.066 87.1331 167.845 86.9081 167.695C86.6831 167.545 86.4106 167.47 86.0906 167.47C85.7889 167.47 85.5239 167.537 85.2956 167.67C85.0673 167.803 84.8889 168.002 84.7606 168.267C84.6339 168.532 84.5706 168.857 84.5706 169.24V169.55C84.5706 169.95 84.6339 170.286 84.7606 170.557C84.8873 170.829 85.0673 171.032 85.3006 171.167C85.5339 171.302 85.8106 171.37 86.1306 171.37C86.3673 171.37 86.5756 171.334 86.7556 171.262C86.9373 171.189 87.0914 171.082 87.2181 170.942C87.3448 170.802 87.4473 170.631 87.5256 170.427L88.3706 170.527C88.2606 170.864 88.0973 171.152 87.8806 171.39C87.6656 171.628 87.4064 171.81 87.1031 171.935C86.8014 172.058 86.4673 172.12 86.1006 172.12ZM91.8369 172V166.84H92.7569V172H91.8369ZM91.8369 165.87V164.88H92.7569V165.87H91.8369ZM94.0564 172V166.84H94.9164V167.84H94.9764V172H94.0564ZM97.4764 168.6C97.4764 168.362 97.4389 168.162 97.3639 168C97.2889 167.838 97.1748 167.717 97.0214 167.635C96.8698 167.552 96.6781 167.51 96.4464 167.51C96.1881 167.51 95.9481 167.562 95.7264 167.667C95.5064 167.772 95.3264 167.946 95.1864 168.187C95.0464 168.429 94.9764 168.743 94.9764 169.13H94.6664V167.75H94.8164C94.9264 167.53 95.0706 167.342 95.2489 167.187C95.4289 167.032 95.6373 166.914 95.8739 166.832C96.1106 166.751 96.3681 166.71 96.6464 166.71C97.0064 166.71 97.3173 166.777 97.5789 166.912C97.8423 167.046 98.0439 167.241 98.1839 167.497C98.3256 167.752 98.3964 168.06 98.3964 168.42V172H97.4764V168.6ZM101.784 172.13C101.301 172.13 100.88 172.027 100.521 171.822C100.163 171.617 99.8856 171.315 99.689 170.915C99.4923 170.515 99.394 170.03 99.394 169.46C99.394 168.887 99.4931 168.394 99.6915 167.982C99.8898 167.569 100.172 167.254 100.539 167.037C100.906 166.819 101.337 166.71 101.834 166.71C102.231 166.71 102.581 166.78 102.886 166.92C103.193 167.058 103.442 167.264 103.634 167.537C103.827 167.809 103.953 168.14 104.011 168.53H103.149C103.101 168.295 103.02 168.1 102.906 167.945C102.793 167.79 102.647 167.674 102.469 167.597C102.292 167.519 102.084 167.48 101.844 167.48C101.502 167.48 101.217 167.557 100.989 167.71C100.762 167.862 100.593 168.082 100.481 168.37C100.37 168.658 100.314 169.008 100.314 169.42C100.314 169.827 100.372 170.175 100.489 170.465C100.607 170.755 100.78 170.977 101.006 171.13C101.235 171.283 101.511 171.36 101.834 171.36C102.084 171.36 102.299 171.315 102.479 171.225C102.659 171.133 102.804 171.002 102.914 170.83C103.026 170.658 103.105 170.448 103.151 170.2H104.009C103.951 170.607 103.828 170.954 103.641 171.242C103.455 171.529 103.206 171.749 102.894 171.902C102.582 172.054 102.212 172.13 101.784 172.13ZM104.96 172V166.84H105.82V168.14H105.88V172H104.96ZM105.64 168.35C105.734 168.008 105.858 167.715 106.013 167.47C106.17 167.225 106.364 167.036 106.595 166.902C106.827 166.767 107.099 166.7 107.41 166.7C107.457 166.7 107.505 166.702 107.553 166.705C107.601 166.708 107.647 166.712 107.69 166.717V167.612C107.63 167.607 107.572 167.604 107.515 167.602C107.459 167.601 107.407 167.6 107.36 167.6C107.124 167.6 106.894 167.661 106.67 167.782C106.449 167.904 106.265 168.084 106.118 168.322C105.973 168.561 105.894 168.847 105.88 169.18H105.68L105.64 168.35ZM110.492 172.12C109.989 172.12 109.552 172.005 109.182 171.775C108.814 171.545 108.531 171.225 108.334 170.815C108.139 170.403 108.042 169.932 108.042 169.4C108.042 168.872 108.138 168.406 108.329 168.002C108.523 167.597 108.802 167.282 109.167 167.057C109.534 166.832 109.969 166.72 110.472 166.72C110.954 166.72 111.371 166.823 111.724 167.03C112.079 167.237 112.353 167.534 112.544 167.922C112.736 168.309 112.832 168.768 112.832 169.3C112.832 169.357 112.832 169.413 112.832 169.47C112.832 169.527 112.832 169.583 112.832 169.64H108.802V168.98H112.372L111.992 169.42C111.992 169.003 111.933 168.649 111.814 168.357C111.696 168.066 111.524 167.845 111.299 167.695C111.074 167.545 110.802 167.47 110.482 167.47C110.18 167.47 109.915 167.537 109.687 167.67C109.459 167.803 109.28 168.002 109.152 168.267C109.025 168.532 108.962 168.857 108.962 169.24V169.55C108.962 169.95 109.025 170.286 109.152 170.557C109.279 170.829 109.459 171.032 109.692 171.167C109.925 171.302 110.202 171.37 110.522 171.37C110.759 171.37 110.967 171.334 111.147 171.262C111.329 171.189 111.483 171.082 111.609 170.942C111.736 170.802 111.839 170.631 111.917 170.427L112.762 170.527C112.652 170.864 112.489 171.152 112.272 171.39C112.057 171.628 111.798 171.81 111.494 171.935C111.193 172.058 110.859 172.12 110.492 172.12ZM118.043 172C117.843 172 117.676 171.967 117.543 171.9C117.41 171.832 117.31 171.731 117.243 171.597C117.176 171.462 117.143 171.297 117.143 171.1L117.003 171.02V169.17V168.88V168.26C117.003 168.078 116.961 167.929 116.878 167.812C116.796 167.694 116.67 167.606 116.498 167.547C116.328 167.489 116.11 167.46 115.843 167.46C115.59 167.46 115.381 167.489 115.218 167.547C115.055 167.606 114.928 167.702 114.838 167.837C114.75 167.971 114.695 168.152 114.673 168.38H113.763C113.791 168.003 113.891 167.691 114.061 167.442C114.232 167.192 114.472 167.007 114.781 166.885C115.091 166.762 115.468 166.7 115.913 166.7C116.345 166.7 116.711 166.76 117.011 166.88C117.311 166.998 117.539 167.18 117.696 167.425C117.854 167.67 117.933 167.978 117.933 168.35V170.87C117.933 170.985 117.947 171.075 117.976 171.14C118.004 171.203 118.05 171.249 118.113 171.277C118.178 171.306 118.268 171.32 118.383 171.32C118.408 171.32 118.433 171.32 118.458 171.32C118.483 171.32 118.508 171.32 118.533 171.32V172C118.451 172 118.37 172 118.288 172C118.206 172 118.125 172 118.043 172ZM115.283 172.13C114.933 172.13 114.628 172.071 114.368 171.952C114.108 171.834 113.907 171.662 113.766 171.437C113.624 171.211 113.553 170.942 113.553 170.63C113.553 170.34 113.614 170.084 113.736 169.862C113.859 169.641 114.051 169.458 114.311 169.315C114.572 169.17 114.906 169.072 115.313 169.02L116.633 168.85C116.718 168.838 116.787 168.817 116.841 168.787C116.896 168.756 116.936 168.713 116.963 168.66C116.99 168.607 117.003 168.54 117.003 168.46L117.373 168.99C117.373 169.087 117.361 169.168 117.336 169.235C117.311 169.302 117.271 169.354 117.218 169.392C117.165 169.431 117.096 169.457 117.013 169.47L115.463 169.7C115.228 169.735 115.036 169.793 114.888 169.875C114.741 169.955 114.634 170.055 114.566 170.175C114.497 170.293 114.463 170.432 114.463 170.59C114.463 170.763 114.503 170.912 114.583 171.037C114.665 171.162 114.78 171.257 114.928 171.322C115.078 171.387 115.253 171.42 115.453 171.42C115.725 171.42 115.98 171.363 116.218 171.25C116.456 171.137 116.646 170.986 116.788 170.797C116.931 170.609 117.003 170.407 117.003 170.19H117.293V170.95C117.211 171.168 117.077 171.367 116.891 171.547C116.704 171.726 116.473 171.867 116.198 171.972C115.923 172.078 115.618 172.13 115.283 172.13ZM120.976 172.13C120.544 172.13 120.177 172.067 119.874 171.94C119.57 171.813 119.331 171.622 119.156 171.367C118.983 171.112 118.876 170.793 118.836 170.41L119.706 170.37C119.736 170.608 119.804 170.802 119.909 170.952C120.015 171.102 120.159 171.213 120.341 171.285C120.524 171.355 120.749 171.39 121.016 171.39C121.291 171.39 121.521 171.357 121.706 171.292C121.891 171.226 122.029 171.132 122.119 171.012C122.21 170.891 122.256 170.747 122.256 170.58C122.256 170.425 122.218 170.297 122.141 170.197C122.066 170.096 121.944 170.01 121.774 169.94C121.605 169.87 121.373 169.807 121.076 169.75L120.556 169.65C120.206 169.583 119.914 169.49 119.681 169.37C119.448 169.25 119.27 169.095 119.149 168.905C119.027 168.713 118.966 168.482 118.966 168.21C118.966 167.907 119.039 167.643 119.184 167.42C119.329 167.197 119.544 167.024 119.831 166.902C120.119 166.781 120.471 166.72 120.886 166.72C121.276 166.72 121.619 166.778 121.914 166.893C122.21 167.007 122.45 167.182 122.634 167.417C122.817 167.652 122.933 167.947 122.981 168.3L122.079 168.342C122.044 168.142 121.976 167.977 121.876 167.845C121.778 167.713 121.644 167.615 121.474 167.55C121.305 167.483 121.099 167.45 120.856 167.45C120.638 167.45 120.451 167.475 120.296 167.525C120.141 167.575 120.022 167.651 119.939 167.752C119.857 167.852 119.816 167.978 119.816 168.13C119.816 168.282 119.856 168.405 119.936 168.5C120.016 168.593 120.129 168.668 120.276 168.725C120.423 168.78 120.616 168.832 120.856 168.88L121.356 168.98C121.729 169.055 122.044 169.15 122.301 169.265C122.558 169.378 122.761 169.536 122.911 169.737C123.061 169.937 123.136 170.192 123.136 170.5C123.136 170.835 123.05 171.125 122.879 171.37C122.709 171.615 122.461 171.803 122.136 171.935C121.813 172.065 121.426 172.13 120.976 172.13ZM126.135 172.12C125.632 172.12 125.195 172.005 124.825 171.775C124.457 171.545 124.174 171.225 123.977 170.815C123.782 170.403 123.685 169.932 123.685 169.4C123.685 168.872 123.781 168.406 123.972 168.002C124.166 167.597 124.445 167.282 124.81 167.057C125.177 166.832 125.612 166.72 126.115 166.72C126.597 166.72 127.014 166.823 127.367 167.03C127.722 167.237 127.996 167.534 128.187 167.922C128.379 168.309 128.475 168.768 128.475 169.3C128.475 169.357 128.475 169.413 128.475 169.47C128.475 169.527 128.475 169.583 128.475 169.64H124.445V168.98H128.015L127.635 169.42C127.635 169.003 127.576 168.649 127.457 168.357C127.339 168.066 127.167 167.845 126.942 167.695C126.717 167.545 126.445 167.47 126.125 167.47C125.823 167.47 125.558 167.537 125.33 167.67C125.102 167.803 124.923 168.002 124.795 168.267C124.668 168.532 124.605 168.857 124.605 169.24V169.55C124.605 169.95 124.668 170.286 124.795 170.557C124.922 170.829 125.102 171.032 125.335 171.167C125.568 171.302 125.845 171.37 126.165 171.37C126.402 171.37 126.61 171.334 126.79 171.262C126.972 171.189 127.126 171.082 127.252 170.942C127.379 170.802 127.482 170.631 127.56 170.427L128.405 170.527C128.295 170.864 128.132 171.152 127.915 171.39C127.7 171.628 127.441 171.81 127.137 171.935C126.836 172.058 126.502 172.12 126.135 172.12Z" fill="#97A3B6"/>
</g>
<defs>
<linearGradient id="paint0_linear_4157_58518" x1="-7.24553e-09" y1="115.5" x2="182.277" y2="115.5" gradientUnits="userSpaceOnUse">
<stop offset="0.155338" stop-color="#323232"/>
<stop offset="0.177433" stop-color="#323232" stop-opacity="0"/>
<stop offset="0.197687" stop-color="#323232" stop-opacity="0.3"/>
</linearGradient>
<linearGradient id="paint1_linear_4157_58518" x1="-7.24553e-09" y1="155.5" x2="182.277" y2="155.5" gradientUnits="userSpaceOnUse">
<stop offset="0.0614344" stop-color="#323232"/>
<stop offset="0.079847" stop-color="#323232" stop-opacity="0"/>
<stop offset="0.101942" stop-color="#323232" stop-opacity="0.3"/>
</linearGradient>
<linearGradient id="paint2_linear_4157_58518" x1="159" y1="65.0001" x2="9.73671" y2="157.289" gradientUnits="userSpaceOnUse">
<stop offset="0.329896" stop-color="#3448FF"/>
<stop offset="1" stop-color="#97A3B6" stop-opacity="0"/>
</linearGradient>
<clipPath id="clip0_4157_58518">
<path d="M0 14C0 6.26801 6.26801 0 14 0H167.832C175.564 0 181.832 6.26801 181.832 14V237C181.832 244.732 175.564 251 167.832 251H14C6.26801 251 0 244.732 0 237V14Z" fill="white"/>
</clipPath>
</defs>
</svg>
