<svg width="375" height="251" viewBox="0 0 375 251" fill="none" xmlns="http://www.w3.org/2000/svg">
<g style="mix-blend-mode:luminosity">
<circle cx="130" cy="166" r="77" stroke="#3448FF" stroke-dasharray="2 2"/>
<circle opacity="0.03" cx="130" cy="166" r="70" fill="#D3DCE3"/>
<circle opacity="0.03" cx="313" cy="85" r="70" fill="#D3DCE3"/>
<g clip-path="url(#clip0_9243_99439)">
<path d="M337.112 89.2642C336.699 89.2642 336.382 89.2642 336.186 88.9576L334.467 84.299L334.169 83.4729C333.648 82.0367 332.446 81.2106 330.843 81.2106C329.89 81.2106 328.899 81.6229 328.178 82.1453L328.815 82.6558C329.226 82.3254 329.825 81.992 330.381 81.992C331.681 81.992 332.376 82.5978 332.834 83.8495L333.154 84.7276C332.493 84.3255 331.734 84.1153 330.96 84.1204C329.397 84.1204 327.814 85.1473 327.814 87.106C327.814 89.0647 329.127 90.0724 331.609 90.0724C333.246 90.0724 334.203 89.4473 334.699 88.971L334.997 89.7896H337.418L337.217 89.2642H337.112ZM331.466 89.5842C330.063 89.5842 329.211 88.587 329.211 87.1641C329.211 86.2443 329.36 84.6993 331.221 84.6993C332.012 84.6981 332.782 84.9599 333.409 85.4435L334.413 88.2045C334.056 89.1421 332.716 89.5842 331.474 89.5842H331.466ZM317.376 89.2642C316.964 89.2642 316.647 89.2642 316.45 88.9576L314.731 84.299L314.433 83.4729C313.909 82.0367 312.707 81.2106 311.105 81.2106C310.153 81.2106 309.289 81.6229 308.575 82.1453L309.2 82.6558C309.611 82.3254 310.212 81.992 310.767 81.992C312.065 81.992 312.635 82.5978 313.089 83.8495L313.409 84.7276C312.748 84.3237 311.986 84.1124 311.211 84.1174C309.648 84.1174 308.193 85.1444 308.193 87.1031C308.193 89.0618 309.383 90.0694 311.86 90.0694C313.497 90.0694 314.454 89.4443 314.95 88.968L315.247 89.7866H317.669L317.468 89.2612L317.376 89.2642ZM311.73 89.5842C310.327 89.5842 309.602 88.587 309.602 87.1641C309.602 86.2443 309.623 84.6993 311.482 84.6993C312.274 84.6973 313.043 84.9592 313.67 85.4435L314.674 88.2045C314.311 89.1421 312.97 89.5842 311.727 89.5842H311.73ZM302.175 89.2642C301.761 89.2642 301.443 89.2642 301.248 88.9576L299.529 84.299L299.231 83.4729C298.71 82.0367 297.505 81.2106 295.903 81.2106C294.953 81.2106 293.968 81.6229 293.239 82.1453L293.874 82.6558C294.285 82.3254 294.884 81.992 295.44 81.992C296.74 81.992 297.435 82.5978 297.892 83.8495L298.213 84.7276C297.552 84.3255 296.793 84.1153 296.019 84.1204C294.456 84.1204 292.871 85.1473 292.871 87.106C292.871 89.0647 294.184 90.0724 296.667 90.0724C298.296 90.0724 299.259 89.4473 299.756 88.971L300.054 89.7896H302.476L302.275 89.2642H302.175ZM296.528 89.5842C295.126 89.5842 294.273 88.587 294.273 87.1641C294.273 86.2443 294.422 84.6993 296.283 84.6993C297.074 84.6981 297.844 84.9599 298.471 85.4435L299.475 88.2045C299.112 89.1421 297.771 89.5842 296.528 89.5842ZM324.341 88.8698L321.868 81.4651H320.228L321.786 85.8647L320.405 89.1749L317.827 81.4651H316.185L319.132 89.7851H320.64L322.024 86.5405L323.173 89.7851H324.681L327.556 81.4651H326.961L324.341 88.8683V88.8698ZM345 86.6819V81.4651H343.62L343.75 86.4303V87.1447C343.75 88.2164 342.83 89.2285 341.773 89.3996C341.441 89.4242 341.108 89.4242 340.776 89.3996C339.712 89.2895 338.799 88.2089 338.799 87.1447V86.4303L338.924 81.4651H337.546V87.7996C337.546 88.7626 338.331 90.3686 340.901 90.3686H341.645C342.375 90.3686 343.223 89.9607 343.72 89.55C343.652 90.1959 343.586 90.8538 343.387 91.2943C343.111 91.9075 342.485 92.6339 341.041 92.6339C339.636 92.6339 338.165 91.4253 338.025 91.214L337.991 91.1633L337.545 91.2035L337.612 91.3375C337.621 91.3583 338.735 93.3215 341.114 93.448C342.885 93.5433 343.952 92.8303 344.537 91.33C344.58 91.2173 344.614 91.1013 344.638 90.9833C344.862 90.1007 344.948 88.907 344.978 88.0065C344.985 87.9378 344.989 87.8687 344.99 87.7996V87.5168L345 86.6789V86.6819ZM304.506 82.894V81.4309H303.017V89.7509H304.64V83.5593C304.842 83.2453 305.119 82.9861 305.445 82.8043C305.771 82.6226 306.137 82.5241 306.511 82.5174C306.877 82.5104 307.236 82.6142 307.542 82.8151V81.416C307.316 81.296 307.06 81.2443 306.805 81.2672C306.042 81.2701 304.863 82.3834 304.506 82.8925V82.894ZM287.192 88.5647C284.257 88.5647 282.34 85.4688 282.34 82.6945C282.34 81.0975 282.706 79.7818 283.639 78.8902C284.51 78.0863 285.658 77.6501 286.843 77.6727C288.058 77.6727 288.993 78.4348 289.563 79.0718C289.943 79.5019 290.267 79.9791 290.526 80.4917L290.576 80.5989L291.975 79.7059C291.892 79.5273 291.38 78.9617 291.222 78.789C290.317 77.8484 289.256 77 286.879 77C284.623 77 283.233 78.1118 282.473 79.045C281.522 80.231 281.002 81.7054 281 83.2259C281 84.1784 281.164 86.0091 282.27 87.5526C283.297 88.9918 284.886 89.7524 286.861 89.7524C289.746 89.7524 291.297 87.7758 292.02 86.4184L291.383 86.1505C290.228 87.7713 288.853 88.5647 287.192 88.5647Z" fill="#D3DCE3"/>
</g>
<circle cx="313" cy="85" r="77" stroke="#3448FF" stroke-dasharray="2 2"/>
<circle cx="47" cy="90" r="27" fill="#101010" stroke="#1A2480" stroke-dasharray="2 2"/>
<g clip-path="url(#clip1_9243_99439)">
<path d="M50.7702 89.7453V85.5156C50.7702 85.4035 50.6785 85.3117 50.5664 85.3117C50.4542 85.3117 50.3625 85.4035 50.3625 85.5156V87.9107C50.3625 88.9248 49.5421 89.7453 48.5279 89.7453C47.5138 89.7453 46.6934 88.9248 46.6934 87.9107V85.5156C46.6934 85.4035 46.6016 85.3117 46.4895 85.3117C46.3774 85.3117 46.2857 85.4035 46.2857 85.5156V89.7453H44.655V85.5156C44.655 84.5015 45.4754 83.681 46.4895 83.681C47.5036 83.681 48.3241 84.5015 48.3241 85.5156V87.9107C48.3241 88.0228 48.4158 88.1145 48.5279 88.1145C48.6401 88.1145 48.7318 88.0228 48.7318 87.9107V85.5156C48.7318 84.5015 49.5522 83.681 50.5664 83.681C51.5805 83.681 52.4009 84.5015 52.4009 85.5156V89.7453H50.7702ZM43.7632 84.5728C43.7632 84.0836 43.3606 83.681 42.8714 83.681C42.3821 83.681 41.9796 84.0836 41.9796 84.5728C41.9796 85.062 42.3821 85.4646 42.8714 85.4646C43.3606 85.4646 43.7632 85.062 43.7632 84.5728ZM43.6867 89.7453V85.9742H42.056V89.7453H43.6867ZM54.9999 95.5038V84.4964C54.9999 82.6159 53.466 81.082 51.5856 81.082H42.8714C40.9909 81.082 39.457 82.6159 39.457 84.4964V95.5038C39.457 97.3842 40.9909 98.9181 42.8714 98.9181H47.7635V97.2874H42.8714C41.8878 97.2874 41.0878 96.4873 41.0878 95.5038V84.4964C41.0878 83.5128 41.8878 82.7128 42.8714 82.7128H51.5856C52.5691 82.7128 53.3692 83.5128 53.3692 84.4964V95.5038C53.3692 96.4873 52.5691 97.2874 51.5856 97.2874C50.602 97.2874 49.8019 96.4873 49.8019 95.5038V92.0894C49.8019 91.0753 48.9815 90.2549 47.9674 90.2549C46.9533 90.2549 46.1328 91.0753 46.1328 92.0894V94.4846C46.1328 94.5967 46.0411 94.6884 45.929 94.6884C45.8169 94.6884 45.7251 94.5967 45.7251 94.4846V92.0894C45.7251 91.0753 44.9047 90.2549 43.8906 90.2549C42.8765 90.2549 42.056 91.0753 42.056 92.0894V96.3191H43.6867V92.0894C43.6867 91.9773 43.7785 91.8856 43.8906 91.8856C44.0027 91.8856 44.0944 91.9773 44.0944 92.0894V94.4846C44.0944 95.4987 44.9149 96.3191 45.929 96.3191C46.9431 96.3191 47.7635 95.4987 47.7635 94.4846V92.0894C47.7635 91.9773 47.8553 91.8856 47.9674 91.8856C48.0795 91.8856 48.1712 91.9773 48.1712 92.0894V95.5038C48.1712 97.3842 49.7051 98.9181 51.5856 98.9181C53.466 98.9181 54.9999 97.3842 54.9999 95.5038ZM52.4774 91.1467C52.4774 90.6575 52.0748 90.2549 51.5856 90.2549C51.0963 90.2549 50.6938 90.6575 50.6938 91.1467C50.6938 91.6359 51.0963 92.0385 51.5856 92.0385C52.0748 92.0385 52.4774 91.6359 52.4774 91.1467ZM52.4009 96.3191V92.5481H50.7702V96.3191H52.4009Z" fill="#D3DCE3"/>
</g>
<circle cx="216" cy="156" r="27" fill="#101010" stroke="#1A2480" stroke-dasharray="2 2"/>
<circle cx="67" cy="210" r="27" fill="#101010" stroke="#1A2480" stroke-dasharray="2 2"/>
<path d="M63.0964 208.282H60.0289V202.322L56.6309 204.219V215.808L60.0289 217.708V211.677H63.0964V219.422L66.4945 221.323V198.703L63.0964 200.604V208.282ZM77.3681 215.808V212.383L70.9543 215.74V204.155L77.3689 207.724V204.219L70.1015 200.16L67.5044 198.704V221.323L70.062 219.892L77.3681 215.808Z" fill="#D3DCE3"/>
<path d="M80.9805 202.186V217.814L67 225.627L53.0195 217.814V202.187L67 194.373L80.9805 202.186ZM55.626 203.659V216.356L67 222.705L78.373 216.356V203.657L67 197.309L55.626 203.659Z" fill="#D3DCE3"/>
<path d="M226.327 151.529H224.699V159.711H226.327V151.529Z" fill="#D3DCE3"/>
<path d="M224.074 155.825C223.968 155.405 223.794 155.031 223.553 154.702C223.313 154.374 223.005 154.112 222.632 153.918C222.257 153.723 221.818 153.625 221.314 153.625C220.863 153.625 220.452 153.705 220.082 153.865C219.711 154.026 219.392 154.246 219.125 154.524C218.858 154.803 218.652 155.133 218.507 155.516C218.362 155.898 218.289 156.31 218.289 156.753C218.289 157.211 218.36 157.631 218.501 158.012C218.642 158.395 218.843 158.723 219.102 158.998C219.363 159.273 219.679 159.485 220.054 159.634C220.427 159.783 220.848 159.857 221.314 159.857C221.986 159.857 222.559 159.704 223.033 159.399C223.506 159.095 223.858 158.586 224.087 157.875H222.656C222.602 158.059 222.456 158.233 222.22 158.397C221.983 158.561 221.7 158.643 221.372 158.643C220.914 158.643 220.562 158.525 220.317 158.288C220.073 158.05 219.94 157.669 219.916 157.141H224.189C224.22 156.684 224.182 156.246 224.074 155.825ZM219.915 156.112C219.923 155.997 219.948 155.867 219.99 155.722C220.032 155.577 220.104 155.44 220.208 155.31C220.311 155.18 220.448 155.071 220.62 154.983C220.792 154.896 221.007 154.852 221.268 154.852C221.664 154.852 221.961 154.959 222.155 155.172C222.35 155.386 222.485 155.699 222.562 156.112H219.915Z" fill="#D3DCE3"/>
<path d="M216.241 159.711V158.886H216.206C216 159.23 215.733 159.478 215.404 159.63C215.076 159.783 214.74 159.86 214.396 159.86C213.961 159.86 213.604 159.802 213.325 159.688C213.046 159.573 212.826 159.411 212.666 159.201C212.506 158.991 212.393 158.735 212.329 158.433C212.264 158.132 212.231 157.797 212.231 157.431V153.787H213.858V157.133C213.858 157.621 213.935 157.986 214.088 158.227C214.24 158.467 214.511 158.588 214.901 158.588C215.344 158.588 215.665 158.456 215.864 158.193C216.062 157.929 216.161 157.495 216.161 156.892V153.787H217.789V159.711H216.241Z" fill="#D3DCE3"/>
<path d="M206.525 151.529V154.669H209.837V151.529H211.636V159.711H209.837V156.181H206.525V159.711H204.727V151.529H206.525Z" fill="#D3DCE3"/>
<path d="M227.845 152.18C227.854 152.197 227.86 152.22 227.86 152.257C227.86 152.299 227.852 152.33 227.846 152.341C227.822 152.396 227.722 152.391 227.722 152.391V152.391L227.603 152.394V152.133H227.734C227.765 152.134 227.827 152.139 227.845 152.18ZM228.117 152.209C228.114 152.061 228.032 152.004 227.937 151.974C227.847 151.946 227.736 151.949 227.736 151.949H227.603H227.489H227.356V152.941H227.603V152.561H227.651C227.701 152.566 227.778 152.581 227.808 152.627C227.854 152.695 227.974 152.944 227.974 152.944L228.242 152.947C228.242 152.947 228.155 152.766 228.114 152.684C228.074 152.603 228.022 152.511 227.954 152.49C227.948 152.488 227.938 152.487 227.927 152.487C227.949 152.475 227.988 152.457 228.015 152.441C228.074 152.405 228.122 152.358 228.117 152.209Z" fill="#D3DCE3"/>
<path d="M228.545 152.472C228.545 152.688 228.469 152.873 228.317 153.027C228.166 153.181 227.983 153.257 227.769 153.257C227.554 153.257 227.372 153.181 227.22 153.029C227.068 152.876 226.991 152.69 226.991 152.473C226.991 152.262 227.066 152.08 227.216 151.927C227.368 151.77 227.552 151.692 227.768 151.692C227.982 151.692 228.165 151.77 228.318 151.927C228.47 152.08 228.545 152.262 228.545 152.472ZM228.71 152.472C228.71 152.212 228.618 151.99 228.434 151.806C228.25 151.622 228.029 151.529 227.769 151.529C227.521 151.529 227.305 151.615 227.122 151.785C226.926 151.968 226.828 152.197 226.828 152.472C226.828 152.737 226.919 152.96 227.1 153.142C227.282 153.324 227.505 153.414 227.769 153.414C228.026 153.414 228.245 153.326 228.427 153.149C228.616 152.965 228.71 152.74 228.71 152.472Z" fill="#D3DCE3"/>
<circle cx="239" cy="59" r="27" fill="#101010" stroke="#2330AA" stroke-dasharray="2 2"/>
<circle cx="350" cy="163" r="27" fill="#101010" stroke="#2330AA" stroke-dasharray="2 2"/>
<path d="M350.424 162.18C350.269 162.348 350.129 162.587 350.002 162.824C349.748 163.313 349.566 163.86 349.44 164.419C349.187 165.538 349.173 166.728 349.384 167.861C349.454 168.212 349.539 168.546 349.651 168.882C349.862 168.505 350.058 168.113 350.228 167.721C350.468 167.174 350.65 166.615 350.805 166.027C350.96 165.453 351.072 164.865 351.115 164.291C351.144 163.998 351.159 163.718 351.144 163.425C351.144 163.144 351.115 162.866 351.059 162.614C351.031 162.488 351.004 162.362 350.96 162.265C350.919 162.154 350.875 162.069 350.834 161.999C350.82 161.984 350.805 161.97 350.805 161.958L350.776 161.929C350.762 161.914 350.762 161.914 350.747 161.9C350.733 161.9 350.677 161.929 350.621 161.97C350.58 162.011 350.495 162.096 350.424 162.18Z" fill="#D3DCE3"/>
<path d="M359.177 158.542C359.162 159.019 359.148 159.493 359.121 159.97C359.079 160.614 359.009 161.272 358.924 161.914C358.755 163.201 358.502 164.489 358.136 165.748C357.954 166.377 357.743 167.006 357.503 167.609C357.391 167.916 357.251 168.224 357.11 168.519C356.969 168.826 356.829 169.121 356.659 169.414C356.336 170.002 355.97 170.576 355.534 171.108C355.323 171.375 355.083 171.641 354.816 171.878C354.549 172.13 354.268 172.355 353.943 172.563C353.62 172.759 353.269 172.941 352.859 173.052C352.464 173.164 352.015 173.207 351.593 173.137L351.438 173.108C351.382 173.093 351.326 173.079 351.283 173.067C351.171 173.038 351.072 172.996 350.972 172.968C350.776 172.883 350.579 172.786 350.41 172.675C350.058 172.452 349.777 172.171 349.537 171.89C349.481 171.82 349.425 171.75 349.367 171.668L349.282 171.542L349.268 171.556C348.775 172.031 348.213 172.452 347.594 172.788C347.509 172.829 347.439 172.873 347.354 172.899C347.269 172.941 347.199 172.97 347.114 173.011C346.945 173.081 346.791 173.137 346.622 173.192C346.452 173.248 346.27 173.292 346.088 173.333C345.906 173.374 345.707 173.389 345.496 173.389C345.285 173.389 345.06 173.36 344.834 173.277C344.609 173.207 344.383 173.081 344.216 172.914C344.034 172.759 343.893 172.563 343.794 172.382C343.695 172.2 343.612 172.004 343.568 171.822C343.457 171.459 343.413 171.108 343.399 170.76C343.37 170.423 343.384 170.087 343.399 169.753C343.428 169.095 343.498 168.451 343.581 167.836C343.666 167.206 343.75 166.592 343.833 165.975L343.862 165.75C343.877 165.665 343.877 165.609 343.877 165.539L343.891 165.428V165.12C343.891 164.854 343.85 164.588 343.779 164.394C343.736 164.309 343.695 164.239 343.653 164.198C343.612 164.157 343.597 164.142 343.542 164.142C343.486 164.142 343.401 164.142 343.302 164.171C343.246 164.2 343.202 164.212 343.146 164.241C343.117 164.256 343.091 164.268 343.062 164.283L342.977 164.338C342.766 164.479 342.54 164.66 342.344 164.871C342.147 165.081 341.951 165.304 341.752 165.541C341.386 166.018 341.034 166.536 340.697 167.052C340.627 167.149 340.501 167.178 340.401 167.122C340.316 167.066 340.29 166.967 340.316 166.885C340.416 166.577 340.513 166.27 340.654 165.975C340.78 165.682 340.92 165.387 341.09 165.094C341.26 164.815 341.442 164.534 341.653 164.268C341.864 164.002 342.104 163.75 342.412 163.527L342.524 163.443C342.565 163.414 342.609 163.387 342.65 163.373C342.735 163.317 342.834 163.274 342.917 163.232C343.113 163.148 343.339 163.092 343.606 163.121C343.676 163.135 343.732 163.135 343.802 163.15C343.873 163.164 343.928 163.191 343.999 163.205C344.055 163.234 344.125 163.261 344.181 163.305C344.237 163.346 344.292 163.389 344.336 163.43C344.532 163.598 344.659 163.808 344.743 164.004C344.913 164.396 344.954 164.759 344.969 165.124V165.517L344.954 165.642C344.954 165.727 344.94 165.824 344.94 165.894L344.911 166.131C344.855 166.775 344.77 167.39 344.7 168.007C344.63 168.622 344.574 169.239 344.559 169.839C344.545 170.132 344.559 170.427 344.574 170.721C344.603 171.001 344.644 171.28 344.714 171.505C344.756 171.616 344.799 171.73 344.841 171.812C344.897 171.897 344.952 171.965 345.01 172.008C345.066 172.049 345.122 172.093 345.207 172.105C345.277 172.134 345.376 172.146 345.474 172.146C345.896 172.146 346.487 171.921 346.965 171.672C347.458 171.406 347.909 171.057 348.316 170.65C348.415 170.553 348.498 170.469 348.583 170.37C348.542 170.285 348.498 170.188 348.471 170.104C348.204 169.474 348.008 168.816 347.894 168.145C347.768 167.473 347.724 166.788 347.739 166.117C347.753 165.444 347.838 164.759 347.991 164.103C348.144 163.447 348.372 162.789 348.695 162.157C348.864 161.85 349.061 161.528 349.328 161.235C349.468 161.08 349.609 160.942 349.806 160.816C350.002 160.69 350.228 160.564 350.538 160.509C350.693 160.48 350.863 160.48 351.016 160.509C351.185 160.537 351.326 160.593 351.467 160.676C351.537 160.717 351.593 160.76 351.649 160.802C351.705 160.843 351.76 160.886 351.804 160.942L351.874 161.012C351.901 161.041 351.916 161.053 351.93 161.082C351.971 161.123 352 161.181 352.042 161.223C352.168 161.419 352.267 161.615 352.323 161.811C352.393 162.007 352.437 162.188 352.478 162.37C352.549 162.733 352.578 163.084 352.578 163.432C352.578 163.781 352.563 164.118 352.522 164.454C352.451 165.124 352.325 165.768 352.141 166.412C351.971 167.056 351.748 167.671 351.479 168.288C351.212 168.89 350.902 169.476 350.536 170.038C350.465 170.149 350.395 170.248 350.325 170.359L350.395 170.471L350.507 170.638L350.619 170.793L350.745 170.947C350.914 171.143 351.082 171.296 351.278 171.41C351.378 171.465 351.46 171.507 351.56 171.55C351.601 171.564 351.659 171.579 351.7 171.591C351.729 171.591 351.742 171.606 351.771 171.606L351.841 171.62C351.94 171.635 352.038 171.635 352.137 171.62C352.236 171.62 352.333 171.591 352.447 171.564C352.658 171.494 352.869 171.397 353.08 171.257C353.502 170.978 353.895 170.584 354.235 170.139C354.404 169.914 354.572 169.676 354.727 169.439C354.882 169.187 355.023 168.936 355.163 168.684C355.697 167.634 356.092 166.501 356.388 165.339C356.965 163.003 357.12 160.554 356.965 158.134V158.092C356.951 157.896 356.895 157.182 356.769 156.483C354.841 155.21 352.532 154.481 350.041 154.481C343.258 154.44 337.799 159.881 337.799 166.583C337.799 173.285 343.258 178.714 350 178.714C356.74 178.714 362.201 173.285 362.201 166.583C362.23 163.494 361.076 160.682 359.177 158.542Z" fill="#D3DCE3"/>
<path d="M361.301 149.7L358.699 149.882L357.855 147.364C357.813 147.253 357.644 147.267 357.629 147.393L357.222 150.429L355.068 151.982C354.983 152.052 355.027 152.178 355.124 152.193L357.362 152.374L358.291 154.613C358.333 154.725 358.488 154.712 358.517 154.584L359.05 151.898L361.4 149.925C361.471 149.826 361.415 149.688 361.301 149.7Z" fill="#D3DCE3"/>
<g clip-path="url(#clip2_9243_99439)">
<circle cx="130.453" cy="165.814" r="134.148" stroke="#364153" stroke-width="4.96846" stroke-dasharray="9.94 9.94"/>
<g clip-path="url(#clip3_9243_99439)">
<path d="M120.155 170.251C120.104 170.471 120.057 170.693 120.001 170.912C119.927 171.204 119.883 171.497 119.932 171.798C120.127 172.994 121.276 173.363 122.082 173.13C122.29 173.07 122.478 172.941 122.682 172.841C122.907 173.147 123.196 173.423 123.548 173.625C124.555 174.203 125.624 174.283 126.722 173.965C127.77 173.662 128.561 172.989 129.191 172.119C129.949 171.072 130.251 169.88 130.274 168.604C130.285 168.013 130.194 167.439 129.999 166.88C129.913 166.635 129.864 166.375 129.76 166.138C129.542 165.641 129.226 165.208 128.816 164.85C127.867 164.024 126.762 163.703 125.517 163.852C125.359 163.871 125.202 163.906 125.044 163.934C125.043 163.92 125.04 163.912 125.042 163.906C125.202 163.199 125.365 162.493 125.523 161.786C125.594 161.471 125.689 161.162 125.657 160.828C125.586 160.11 125.171 159.577 124.486 159.37C123.952 159.209 123.453 159.276 123.01 159.63C122.648 159.92 122.44 160.308 122.337 160.756C122.047 162.017 121.758 163.279 121.468 164.54C121.032 166.438 120.595 168.335 120.155 170.251ZM111.569 173.385C111.81 173.517 112.043 173.669 112.294 173.779C113.108 174.134 113.961 174.21 114.836 174.102C115.795 173.983 116.645 173.619 117.35 172.957C118.065 172.285 118.605 171.501 118.785 170.508C118.844 170.178 118.95 169.855 118.994 169.523C119.055 169.065 119.022 168.603 118.955 168.145C118.741 166.687 118.024 165.522 116.865 164.635C115.712 163.753 114.402 163.561 113.008 163.872C112.119 164.07 111.376 164.529 110.758 165.195C110.255 165.736 109.867 166.347 109.615 167.042C109.254 168.038 109.21 169.058 109.415 170.089C109.689 171.468 110.408 172.563 111.569 173.385ZM134.833 167.625C134.761 167.309 134.69 166.992 134.618 166.676C134.475 166.05 134.341 165.422 134.185 164.8C134.065 164.324 133.805 163.945 133.334 163.748C133.043 163.625 132.736 163.59 132.423 163.631C131.868 163.704 131.415 163.948 131.144 164.456C130.946 164.828 130.914 165.234 130.997 165.638C131.076 166.021 131.19 166.398 131.3 166.774C131.793 168.471 132.289 170.166 132.787 171.861C132.896 172.23 132.996 172.604 133.142 172.958C133.657 174.207 135.11 174.235 135.791 173.719C136.088 173.494 136.299 173.204 136.462 172.876C137.074 171.641 137.684 170.405 138.294 169.169C138.714 168.319 139.136 167.47 139.549 166.617C139.713 166.279 139.789 165.92 139.752 165.54C139.7 165.005 139.422 164.615 138.973 164.345C138.557 164.095 138.097 164.04 137.627 164.134C137.09 164.242 136.781 164.617 136.585 165.1C136.159 166.153 135.737 167.208 135.314 168.262C135.242 168.442 135.178 168.626 135.105 168.822C135.013 168.417 134.926 168.03 134.833 167.625ZM144.787 171.36C144.766 170.964 144.743 170.568 144.723 170.172C144.696 169.678 144.673 169.183 144.646 168.689C144.604 167.942 144.561 167.196 144.518 166.449C144.496 166.076 144.491 165.7 144.446 165.33C144.341 164.479 143.647 163.767 142.676 163.852C141.803 163.93 141.145 164.62 141.156 165.496C141.164 166.119 141.211 166.742 141.241 167.364C141.279 168.13 141.318 168.896 141.357 169.662C141.394 170.394 141.431 171.126 141.473 171.858C141.488 172.129 141.488 172.405 141.542 172.669C141.834 174.075 143.246 174.328 144.122 173.734C144.595 173.412 144.81 172.929 144.827 172.367C144.837 172.039 144.804 171.71 144.787 171.36ZM142.853 160.171C142.827 160.167 142.801 160.161 142.775 160.16C142.151 160.127 141.636 160.349 141.23 160.821C140.953 161.144 140.789 161.513 140.792 161.946C140.795 162.391 140.95 162.779 141.23 163.121C141.92 163.966 142.977 163.953 143.63 163.489C144.218 163.07 144.489 162.486 144.429 161.755C144.365 160.983 143.638 160.24 142.853 160.171ZM146.421 173.313C146.74 173.766 147.155 174.054 147.719 174.13C148.705 174.262 149.637 173.48 149.697 172.476C149.764 171.344 148.744 170.392 147.56 170.633C146.427 170.863 145.749 172.186 146.421 173.313Z" fill="#D3DCE3"/>
<path d="M148.261 175.436C148.048 175.436 147.836 175.436 147.609 175.427C146.715 175.336 146.027 174.912 145.491 174.254C145.303 174.424 145.126 174.601 144.931 174.756C144.462 175.126 143.913 175.29 143.325 175.318C143.08 175.33 142.83 175.309 142.587 175.274C142.04 175.197 141.571 174.948 141.168 174.574C140.953 174.376 140.773 174.149 140.626 173.896C140.376 173.467 140.242 173.002 140.202 172.51C140.182 172.267 140.169 172.024 140.156 171.781C140.139 171.467 140.126 171.152 140.11 170.838C140.096 170.568 140.078 170.299 140.066 170.03C140.048 169.655 140.035 169.279 140.019 168.904C140.016 168.838 140.006 168.772 140 168.706C139.707 169.25 139.441 169.798 139.172 170.345C138.855 170.989 138.537 171.633 138.218 172.275C138.004 172.706 137.788 173.137 137.569 173.565C137.356 173.979 137.077 174.34 136.719 174.643C136.244 175.043 135.698 175.267 135.087 175.318C134.745 175.346 134.398 175.336 134.059 175.254C133.599 175.143 133.18 174.957 132.812 174.649C132.468 174.361 132.193 174.019 132.011 173.616C131.867 173.299 131.766 172.962 131.661 172.629C131.547 172.272 131.451 171.909 131.345 171.549C131.296 171.385 131.242 171.222 131.184 171.037C130.971 171.688 130.676 172.27 130.3 172.811C129.961 173.3 129.562 173.737 129.108 174.118C128.655 174.497 128.158 174.808 127.609 175.034C127.17 175.214 126.718 175.341 126.245 175.392C126.152 175.401 126.059 175.421 125.966 175.436C125.686 175.436 125.405 175.436 125.11 175.427C124.86 175.387 124.623 175.364 124.39 175.321C123.701 175.194 123.076 174.918 122.516 174.495C122.438 174.436 122.366 174.403 122.254 174.431C122.072 174.475 121.88 174.501 121.692 174.501C121.346 174.503 121.006 174.453 120.673 174.35C120.259 174.223 119.884 174.03 119.575 173.728C119.372 173.529 119.193 173.305 118.998 173.086C118.92 173.178 118.835 173.291 118.736 173.39C118.452 173.672 118.177 173.968 117.87 174.224C117.521 174.514 117.129 174.749 116.706 174.921C116.433 175.032 116.159 175.145 115.875 175.221C115.58 175.3 115.274 175.336 114.973 175.391C114.884 175.407 114.794 175.421 114.705 175.436C114.342 175.436 113.978 175.436 113.599 175.427C113.334 175.385 113.08 175.369 112.835 175.315C112.309 175.198 111.805 175.018 111.328 174.759C110.861 174.506 110.44 174.195 110.055 173.834C109.863 173.654 109.691 173.452 109.516 173.254C109.236 172.936 109.005 172.583 108.803 172.212C108.585 171.809 108.412 171.387 108.282 170.947C108.134 170.449 108.037 169.938 108.015 169.421C107.995 168.96 107.986 168.497 108.049 168.035C108.103 167.638 108.182 167.249 108.299 166.868C108.447 166.382 108.657 165.925 108.916 165.488C109.186 165.033 109.506 164.616 109.871 164.234C110.032 164.066 110.212 163.918 110.385 163.763C110.701 163.479 111.057 163.25 111.437 163.068C111.747 162.918 112.072 162.792 112.4 162.687C112.86 162.54 113.336 162.461 113.82 162.451C114.029 162.446 114.238 162.441 114.446 162.452C114.699 162.466 114.954 162.477 115.202 162.523C115.832 162.641 116.434 162.842 116.995 163.161C117.449 163.419 117.862 163.732 118.239 164.091C118.42 164.265 118.583 164.457 118.75 164.645C119.109 165.048 119.396 165.5 119.636 165.982C119.67 166.05 119.702 166.119 119.736 166.19C119.75 166.178 119.76 166.173 119.761 166.167C119.834 165.817 119.903 165.466 119.981 165.117C120.048 164.816 120.13 164.519 120.2 164.219C120.354 163.559 120.504 162.898 120.657 162.238C120.791 161.657 120.926 161.076 121.063 160.495C121.228 159.79 121.542 159.172 122.104 158.692C122.395 158.444 122.711 158.247 123.077 158.137C123.251 158.085 123.429 158.045 123.605 158C123.848 158 124.09 158 124.347 158.009C124.396 158.019 124.431 158.017 124.463 158.024C124.799 158.098 125.126 158.192 125.432 158.357C125.941 158.631 126.33 159.021 126.602 159.528C126.797 159.89 126.909 160.274 126.948 160.687C126.976 160.981 126.965 161.27 126.91 161.556C126.848 161.881 126.765 162.202 126.687 162.541C127.919 162.702 128.993 163.19 129.885 164.058C129.897 164.032 129.907 164.012 129.917 163.992C130.193 163.397 130.628 162.951 131.21 162.657C131.747 162.385 132.317 162.271 132.922 162.333C133.215 162.363 133.499 162.415 133.774 162.519C134.269 162.706 134.659 163.028 134.971 163.451C135.191 163.75 135.336 164.084 135.443 164.444C135.652 164.042 135.897 163.681 136.246 163.393C136.723 162.999 137.275 162.819 137.881 162.794C138.085 162.786 138.29 162.817 138.495 162.836C138.837 162.868 139.158 162.975 139.463 163.128C139.572 163.183 139.678 163.245 139.804 163.315C139.788 163.271 139.78 163.247 139.77 163.225C139.62 162.904 139.526 162.565 139.502 162.215C139.471 161.778 139.514 161.348 139.675 160.93C139.957 160.195 140.444 159.639 141.119 159.25C141.762 158.878 142.458 158.79 143.186 158.907C143.754 158.998 144.245 159.252 144.672 159.625C145.01 159.921 145.286 160.268 145.473 160.686C145.715 161.228 145.792 161.792 145.714 162.373C145.65 162.845 145.495 163.29 145.222 163.688C145.204 163.715 145.209 163.773 145.225 163.804C145.297 163.937 145.386 164.061 145.453 164.196C145.682 164.655 145.755 165.151 145.786 165.656C145.802 165.921 145.817 166.187 145.831 166.452C145.855 166.879 145.877 167.305 145.9 167.732C145.914 168.001 145.932 168.27 145.945 168.539C145.961 168.896 145.974 169.252 145.991 169.608C145.997 169.718 146.011 169.828 146.021 169.942C146.039 169.936 146.05 169.936 146.058 169.929C146.511 169.562 147.037 169.365 147.609 169.312C147.947 169.281 148.29 169.294 148.627 169.373C149.12 169.487 149.557 169.712 149.934 170.043C150.204 170.279 150.436 170.549 150.614 170.869C150.82 171.241 150.945 171.635 150.98 172.053C151.001 172.303 150.994 172.56 150.956 172.807C150.916 173.071 150.85 173.336 150.749 173.582C150.558 174.051 150.25 174.44 149.856 174.763C149.515 175.042 149.132 175.231 148.71 175.344C148.562 175.383 148.411 175.406 148.261 175.436ZM120.155 170.251C120.104 170.471 120.057 170.693 120.001 170.912C119.927 171.204 119.883 171.497 119.932 171.798C120.127 172.994 121.276 173.363 122.082 173.13C122.29 173.07 122.478 172.941 122.682 172.841C122.907 173.147 123.196 173.423 123.548 173.625C124.555 174.203 125.624 174.283 126.722 173.965C127.77 173.662 128.561 172.989 129.191 172.119C129.949 171.072 130.251 169.88 130.274 168.604C130.285 168.013 130.194 167.439 129.999 166.88C129.913 166.635 129.864 166.375 129.76 166.138C129.542 165.641 129.226 165.208 128.816 164.85C127.867 164.024 126.762 163.703 125.517 163.852C125.359 163.871 125.202 163.906 125.044 163.934C125.043 163.92 125.04 163.912 125.042 163.906C125.202 163.199 125.365 162.493 125.523 161.786C125.594 161.471 125.689 161.162 125.657 160.828C125.586 160.11 125.171 159.577 124.486 159.37C123.952 159.209 123.453 159.276 123.01 159.63C122.648 159.92 122.44 160.308 122.337 160.756C122.047 162.017 121.758 163.279 121.468 164.54C121.032 166.438 120.595 168.335 120.155 170.251ZM111.569 173.385C111.81 173.517 112.043 173.669 112.294 173.779C113.108 174.134 113.961 174.21 114.836 174.102C115.795 173.983 116.645 173.619 117.35 172.957C118.065 172.285 118.605 171.501 118.785 170.508C118.844 170.178 118.95 169.855 118.994 169.523C119.055 169.065 119.022 168.603 118.955 168.145C118.741 166.687 118.024 165.522 116.865 164.635C115.712 163.753 114.402 163.561 113.008 163.872C112.119 164.07 111.376 164.529 110.758 165.195C110.255 165.736 109.867 166.347 109.615 167.042C109.254 168.038 109.21 169.058 109.415 170.089C109.689 171.468 110.408 172.563 111.569 173.385ZM134.833 167.625C134.761 167.309 134.69 166.992 134.618 166.676C134.475 166.05 134.341 165.422 134.185 164.8C134.065 164.324 133.805 163.945 133.334 163.748C133.043 163.625 132.736 163.59 132.423 163.631C131.868 163.704 131.415 163.948 131.144 164.456C130.946 164.828 130.914 165.234 130.997 165.638C131.076 166.021 131.19 166.398 131.3 166.774C131.793 168.471 132.289 170.166 132.787 171.861C132.896 172.23 132.996 172.604 133.142 172.958C133.657 174.207 135.11 174.235 135.791 173.719C136.088 173.494 136.299 173.204 136.462 172.876C137.074 171.641 137.684 170.405 138.294 169.169C138.714 168.319 139.136 167.47 139.549 166.617C139.713 166.279 139.789 165.92 139.752 165.54C139.7 165.005 139.422 164.615 138.973 164.345C138.557 164.095 138.097 164.04 137.627 164.134C137.09 164.242 136.781 164.617 136.585 165.1C136.159 166.153 135.737 167.208 135.314 168.262C135.242 168.442 135.178 168.626 135.105 168.822C135.013 168.417 134.926 168.03 134.833 167.625ZM144.787 171.36C144.766 170.964 144.743 170.568 144.723 170.172C144.696 169.678 144.673 169.183 144.646 168.689C144.604 167.942 144.561 167.196 144.518 166.449C144.496 166.076 144.491 165.7 144.446 165.33C144.341 164.479 143.647 163.767 142.676 163.852C141.803 163.93 141.145 164.62 141.156 165.496C141.164 166.119 141.211 166.742 141.241 167.364C141.279 168.13 141.318 168.896 141.357 169.662C141.394 170.394 141.431 171.126 141.473 171.858C141.488 172.129 141.488 172.405 141.542 172.669C141.834 174.075 143.246 174.328 144.122 173.734C144.595 173.412 144.81 172.929 144.827 172.367C144.837 172.039 144.804 171.71 144.787 171.36ZM142.853 160.171C142.827 160.167 142.801 160.161 142.775 160.16C142.151 160.127 141.636 160.349 141.23 160.821C140.953 161.144 140.789 161.513 140.792 161.946C140.795 162.391 140.95 162.779 141.23 163.121C141.92 163.966 142.977 163.953 143.63 163.489C144.218 163.07 144.489 162.486 144.429 161.755C144.365 160.983 143.638 160.24 142.853 160.171ZM146.421 173.313C146.74 173.766 147.155 174.054 147.719 174.13C148.705 174.262 149.637 173.48 149.697 172.476C149.764 171.344 148.744 170.392 147.56 170.633C146.427 170.863 145.749 172.186 146.421 173.313Z" fill="black"/>
<path d="M148.715 161.017C148.715 161.004 148.714 161.001 148.714 160.997C148.707 161.003 148.696 161.007 148.693 161.015C148.612 161.235 148.533 161.455 148.453 161.675C148.397 161.675 148.345 161.675 148.286 161.675C148.207 161.459 148.129 161.245 148.051 161.03C148.044 161.032 148.038 161.033 148.031 161.035C148.031 161.246 148.031 161.456 148.031 161.672C147.966 161.672 147.907 161.672 147.839 161.672C147.839 161.341 147.839 161.007 147.839 160.657C147.911 160.657 147.99 160.649 148.065 160.661C148.095 160.665 148.132 160.707 148.144 160.74C148.219 160.951 148.288 161.164 148.369 161.404C148.404 161.312 148.433 161.242 148.458 161.171C148.492 161.074 148.524 160.976 148.556 160.878C148.632 160.642 148.632 160.642 148.89 160.663C148.89 160.997 148.89 161.331 148.89 161.672C148.835 161.672 148.781 161.672 148.715 161.672C148.715 161.455 148.715 161.241 148.715 161.017Z" fill="black"/>
<path d="M147.622 160.656C147.666 160.658 147.699 160.66 147.735 160.662C147.735 160.713 147.735 160.757 147.735 160.812C147.634 160.812 147.534 160.812 147.424 160.812C147.424 161.103 147.424 161.384 147.424 161.672C147.351 161.672 147.29 161.672 147.217 161.672C147.217 161.388 147.217 161.107 147.217 160.815C147.107 160.815 147.007 160.815 146.903 160.815C146.903 160.76 146.903 160.716 146.903 160.656C147.138 160.656 147.375 160.656 147.622 160.656Z" fill="black"/>
<path d="M123.971 169.848C123.836 169.274 123.9 168.721 124.077 168.177C124.209 167.77 124.42 167.413 124.753 167.136C125.427 166.574 126.599 166.821 126.845 167.793C127.111 168.846 126.899 169.797 126.123 170.582C125.702 171.007 125.01 171.061 124.538 170.732C124.231 170.519 124.068 170.209 123.971 169.848Z" fill="black"/>
<path d="M115.181 170.577C114.59 171.22 113.613 171.142 113.097 170.421C112.809 170.017 112.676 169.563 112.643 169.076C112.609 168.558 112.687 168.063 112.935 167.596C113.419 166.686 114.694 166.602 115.268 167.533C115.614 168.096 115.721 168.709 115.666 169.358C115.633 169.753 115.514 170.119 115.283 170.445C115.253 170.488 115.218 170.529 115.181 170.577Z" fill="black"/>
</g>
</g>
<path d="M238.413 50.8223C233.67 50.8223 229.826 54.6781 229.826 59.4356C229.826 64.1916 233.67 68.049 238.413 68.049C243.156 68.049 247 64.193 247 59.4356C246.998 54.6781 243.154 50.8223 238.413 50.8223ZM236.267 63.0232H234.836V55.8463H236.267V63.0232ZM241.99 63.0232H237.697V61.5885H241.99V63.0232ZM241.99 60.1522H237.697V58.7174H241.99V60.1522ZM241.99 57.2811H237.697V55.8463H241.99V57.2811Z" fill="#D3DCE3"/>
</g>
<defs>
<clipPath id="clip0_9243_99439">
<rect width="64" height="16.4629" fill="white" transform="translate(281 77)"/>
</clipPath>
<clipPath id="clip1_9243_99439">
<rect width="15.5429" height="17.8361" fill="white" transform="translate(39.457 81.082)"/>
</clipPath>
<clipPath id="clip2_9243_99439">
<path d="M95.3848 166.249C95.3848 147.301 110.745 131.941 129.692 131.941C148.64 131.941 164 147.301 164 166.249C164 185.197 148.64 200.557 129.692 200.557C110.745 200.557 95.3848 185.197 95.3848 166.249Z" fill="white"/>
</clipPath>
<clipPath id="clip3_9243_99439">
<rect width="43" height="17.4361" fill="white" transform="translate(108 158)"/>
</clipPath>
</defs>
</svg>
