<svg width="182" height="251" viewBox="0 0 182 251" fill="none" xmlns="http://www.w3.org/2000/svg">
<g clip-path="url(#clip0_301_1085)">
<circle opacity="0.2" cx="29" cy="29" r="29" transform="matrix(1 0 0 -1 116.336 135)" stroke="#1A2480" stroke-width="0.8" stroke-dasharray="2.16 2.16"/>
<g opacity="0.4">
<line x1="0.335938" y1="61.6" x2="182.613" y2="61.6" stroke="url(#paint0_linear_301_1085)" stroke-width="0.8" stroke-dasharray="2.16 2.16"/>
<line y1="-0.4" x2="182.277" y2="-0.4" transform="matrix(1 1.24306e-08 -1.44911e-08 -1 0.335938 102)" stroke="url(#paint1_linear_301_1085)" stroke-width="0.8" stroke-dasharray="2.16 2.16"/>
<line x1="0.335938" y1="141.6" x2="182.613" y2="141.6" stroke="url(#paint2_linear_301_1085)" stroke-width="0.8" stroke-dasharray="2.16 2.16"/>
<line opacity="0.3" x1="0.335938" y1="194.6" x2="182.613" y2="194.6" stroke="#323232" stroke-width="0.8" stroke-dasharray="2.16 2.16"/>
</g>
<path d="M83.2561 144.42C81.1561 144.42 80.0081 145.792 79.8121 148.536L76.0041 148.228C76.3121 143.72 78.6081 140.864 83.3121 140.864C87.5401 140.864 89.9201 142.684 89.9201 146.436C89.9201 149.628 87.5961 151.336 83.1441 152.176C80.6241 152.736 79.7841 153.212 79.6161 154.472C80.5681 154.444 81.6041 154.416 82.3601 154.416H90.0321V158H75.6401C75.5841 157.328 75.5841 156.684 75.5841 155.956C75.5841 151.924 77.4041 150.16 81.6601 149.208C85.1601 148.396 85.8321 147.696 85.8321 146.408C85.8321 145.288 85.0201 144.42 83.2561 144.42ZM94.7612 141.2L98.1772 147.248H98.4572L101.565 141.2H105.849V141.256L100.837 149.852L105.933 157.944V158H101.425L98.0092 151.784H97.7852L94.4532 158H90.1972V157.944L95.2932 149.348L90.2532 141.256V141.2H94.7612Z" fill="#D3DCE3"/>
<path d="M45.4112 172.17C44.7278 172.17 44.1312 172.011 43.6212 171.692C43.1128 171.374 42.722 170.932 42.4487 170.367C42.177 169.802 42.0412 169.16 42.0412 168.44C42.0412 167.717 42.1787 167.077 42.4537 166.52C42.7303 165.962 43.122 165.527 43.6287 165.217C44.137 164.906 44.7278 164.75 45.4012 164.75C45.9195 164.75 46.3978 164.843 46.8362 165.03C47.2745 165.217 47.637 165.482 47.9237 165.827C48.2103 166.171 48.3928 166.572 48.4712 167.03H47.5212C47.4412 166.718 47.3037 166.452 47.1087 166.232C46.9153 166.011 46.6762 165.843 46.3912 165.73C46.1062 165.617 45.7895 165.56 45.4412 165.56C44.9345 165.56 44.497 165.676 44.1287 165.907C43.762 166.137 43.4803 166.469 43.2837 166.902C43.0887 167.334 42.9912 167.847 42.9912 168.44C42.9912 169.035 43.0887 169.552 43.2837 169.992C43.4787 170.431 43.7595 170.768 44.1262 171.005C44.4945 171.242 44.9328 171.36 45.4412 171.36C45.8378 171.36 46.1895 171.287 46.4962 171.14C46.8028 170.993 47.0537 170.775 47.2487 170.485C47.4437 170.193 47.5703 169.835 47.6287 169.41H48.5462C48.4678 169.978 48.2903 170.47 48.0137 170.885C47.7387 171.3 47.3795 171.618 46.9362 171.84C46.4928 172.06 45.9845 172.17 45.4112 172.17ZM52.9384 168.6C52.9384 168.362 52.9009 168.162 52.8259 168C52.7509 167.838 52.6367 167.717 52.4834 167.635C52.3317 167.552 52.14 167.51 51.9084 167.51C51.65 167.51 51.41 167.562 51.1884 167.667C50.9684 167.772 50.7884 167.946 50.6484 168.187C50.5084 168.429 50.4384 168.743 50.4384 169.13L50.1284 168.32V167.75H50.2784C50.3884 167.53 50.5325 167.342 50.7109 167.187C50.8909 167.032 51.0992 166.914 51.3359 166.832C51.5725 166.751 51.83 166.71 52.1084 166.71C52.4684 166.71 52.7792 166.777 53.0409 166.912C53.3042 167.046 53.5059 167.241 53.6459 167.497C53.7875 167.752 53.8584 168.06 53.8584 168.42V172H52.9384V168.6ZM49.5184 172V164.88H50.4384V172H49.5184ZM59.3659 172C59.1659 172 58.9992 171.967 58.8659 171.9C58.7325 171.832 58.6325 171.731 58.5659 171.597C58.4992 171.462 58.4659 171.297 58.4659 171.1L58.3259 171.02V169.17V168.88V168.26C58.3259 168.078 58.2842 167.929 58.2009 167.812C58.1192 167.694 57.9925 167.606 57.8209 167.547C57.6509 167.489 57.4325 167.46 57.1659 167.46C56.9125 167.46 56.7042 167.489 56.5409 167.547C56.3775 167.606 56.2509 167.702 56.1609 167.837C56.0725 167.971 56.0175 168.152 55.9959 168.38H55.0859C55.1142 168.003 55.2134 167.691 55.3834 167.442C55.555 167.192 55.795 167.007 56.1034 166.885C56.4134 166.762 56.7909 166.7 57.2359 166.7C57.6675 166.7 58.0334 166.76 58.3334 166.88C58.6334 166.998 58.8617 167.18 59.0184 167.425C59.1767 167.67 59.2559 167.978 59.2559 168.35V170.87C59.2559 170.985 59.27 171.075 59.2984 171.14C59.3267 171.203 59.3725 171.249 59.4359 171.277C59.5009 171.306 59.5909 171.32 59.7059 171.32C59.7309 171.32 59.7559 171.32 59.7809 171.32C59.8059 171.32 59.8309 171.32 59.8559 171.32V172C59.7742 172 59.6925 172 59.6109 172C59.5292 172 59.4475 172 59.3659 172ZM56.6059 172.13C56.2559 172.13 55.9509 172.071 55.6909 171.952C55.4309 171.834 55.23 171.662 55.0884 171.437C54.9467 171.211 54.8759 170.942 54.8759 170.63C54.8759 170.34 54.9367 170.084 55.0584 169.862C55.1817 169.641 55.3734 169.458 55.6334 169.315C55.895 169.17 56.2292 169.072 56.6359 169.02L57.9559 168.85C58.0409 168.838 58.11 168.817 58.1634 168.787C58.2184 168.756 58.2592 168.713 58.2859 168.66C58.3125 168.607 58.3259 168.54 58.3259 168.46L58.6959 168.99C58.6959 169.087 58.6834 169.168 58.6584 169.235C58.6334 169.302 58.5942 169.354 58.5409 169.392C58.4875 169.431 58.4192 169.457 58.3359 169.47L56.7859 169.7C56.5509 169.735 56.3592 169.793 56.2109 169.875C56.0642 169.955 55.9567 170.055 55.8884 170.175C55.82 170.293 55.7859 170.432 55.7859 170.59C55.7859 170.763 55.8259 170.912 55.9059 171.037C55.9875 171.162 56.1025 171.257 56.2509 171.322C56.4009 171.387 56.5759 171.42 56.7759 171.42C57.0475 171.42 57.3025 171.363 57.5409 171.25C57.7792 171.137 57.9692 170.986 58.1109 170.797C58.2542 170.609 58.3259 170.407 58.3259 170.19H58.6159V170.95C58.5342 171.168 58.4 171.367 58.2134 171.547C58.0267 171.726 57.7959 171.867 57.5209 171.972C57.2459 172.078 56.9409 172.13 56.6059 172.13ZM60.559 172V166.84H61.419V168.14H61.479V172H60.559ZM61.239 168.35C61.3323 168.008 61.4565 167.715 61.6115 167.47C61.7682 167.225 61.9623 167.036 62.194 166.902C62.4257 166.767 62.6973 166.7 63.009 166.7C63.0557 166.7 63.1032 166.702 63.1515 166.705C63.1998 166.708 63.2457 166.712 63.289 166.717V167.612C63.229 167.607 63.1707 167.604 63.114 167.602C63.0573 167.601 63.0057 167.6 62.959 167.6C62.7223 167.6 62.4923 167.661 62.269 167.782C62.0473 167.904 61.8632 168.084 61.7165 168.322C61.5715 168.561 61.4923 168.847 61.479 169.18H61.279L61.239 168.35ZM66.1331 174.158C65.6915 174.158 65.3123 174.101 64.9956 173.988C64.679 173.874 64.4265 173.701 64.2381 173.468C64.0515 173.234 63.934 172.939 63.8856 172.583L64.7781 172.563C64.8298 172.771 64.9148 172.939 65.0331 173.068C65.1515 173.196 65.3048 173.289 65.4931 173.348C65.6831 173.408 65.9131 173.438 66.1831 173.438C66.5665 173.438 66.874 173.379 67.1056 173.262C67.3373 173.146 67.504 172.973 67.6056 172.745C67.709 172.517 67.7606 172.228 67.7606 171.877V170.82L67.8356 170.795V168.195L67.7831 168.17L67.8081 166.76H68.6581V171.805C68.6581 172.338 68.5565 172.78 68.3531 173.13C68.1498 173.48 67.8606 173.738 67.4856 173.905C67.1106 174.073 66.6598 174.158 66.1331 174.158ZM66.0756 171.997C65.599 171.997 65.1815 171.882 64.8231 171.65C64.4648 171.417 64.1881 171.092 63.9931 170.677C63.7998 170.261 63.7031 169.787 63.7031 169.257C63.7031 168.737 63.8015 168.28 63.9981 167.885C64.1948 167.488 64.4706 167.182 64.8256 166.965C65.1823 166.747 65.594 166.637 66.0606 166.637C66.434 166.637 66.7681 166.711 67.0631 166.857C67.3598 167.002 67.6006 167.206 67.7856 167.467C67.9723 167.727 68.0906 168.027 68.1406 168.367V170.347C68.0806 170.669 67.9565 170.954 67.7681 171.202C67.5798 171.451 67.3398 171.646 67.0481 171.787C66.7581 171.927 66.434 171.997 66.0756 171.997ZM66.1706 171.222C66.4806 171.222 66.7581 171.146 67.0031 170.992C67.2481 170.837 67.4406 170.613 67.5806 170.32C67.7223 170.025 67.7965 169.676 67.8031 169.272C67.7998 168.867 67.7281 168.526 67.5881 168.247C67.4481 167.969 67.2573 167.761 67.0156 167.622C66.774 167.482 66.4973 167.412 66.1856 167.412C65.8606 167.412 65.5806 167.485 65.3456 167.63C65.1123 167.773 64.9331 167.983 64.8081 168.26C64.6848 168.537 64.6231 168.869 64.6231 169.257C64.6231 169.651 64.684 169.996 64.8056 170.292C64.929 170.587 65.1065 170.817 65.3381 170.98C65.5715 171.142 65.849 171.222 66.1706 171.222ZM72.0016 172.12C71.4982 172.12 71.0616 172.005 70.6916 171.775C70.3232 171.545 70.0407 171.225 69.8441 170.815C69.6491 170.403 69.5516 169.932 69.5516 169.4C69.5516 168.872 69.6474 168.406 69.8391 168.002C70.0324 167.597 70.3116 167.282 70.6766 167.057C71.0432 166.832 71.4782 166.72 71.9816 166.72C72.4632 166.72 72.8807 166.823 73.2341 167.03C73.5891 167.237 73.8624 167.534 74.0541 167.922C74.2457 168.309 74.3416 168.768 74.3416 169.3C74.3416 169.357 74.3416 169.413 74.3416 169.47C74.3416 169.527 74.3416 169.583 74.3416 169.64H70.3116V168.98H73.8816L73.5016 169.42C73.5016 169.003 73.4424 168.649 73.3241 168.357C73.2057 168.066 73.0341 167.845 72.8091 167.695C72.5841 167.545 72.3116 167.47 71.9916 167.47C71.6899 167.47 71.4249 167.537 71.1966 167.67C70.9682 167.803 70.7899 168.002 70.6616 168.267C70.5349 168.532 70.4716 168.857 70.4716 169.24V169.55C70.4716 169.95 70.5349 170.286 70.6616 170.557C70.7882 170.829 70.9682 171.032 71.2016 171.167C71.4349 171.302 71.7116 171.37 72.0316 171.37C72.2682 171.37 72.4766 171.334 72.6566 171.262C72.8382 171.189 72.9924 171.082 73.1191 170.942C73.2457 170.802 73.3482 170.631 73.4266 170.427L74.2716 170.527C74.1616 170.864 73.9982 171.152 73.7816 171.39C73.5666 171.628 73.3074 171.81 73.0041 171.935C72.7024 172.058 72.3682 172.12 72.0016 172.12ZM77.8926 172.11C77.5742 172.11 77.2792 172.051 77.0076 171.932C76.7376 171.812 76.5126 171.65 76.3326 171.445C76.1526 171.238 76.0326 171.01 75.9726 170.76V168.15C76.0259 167.872 76.1426 167.625 76.3226 167.41C76.5042 167.195 76.7342 167.028 77.0126 166.91C77.2909 166.79 77.5976 166.73 77.9326 166.73C78.3859 166.73 78.7884 166.836 79.1401 167.047C79.4917 167.259 79.7651 167.559 79.9601 167.947C80.1551 168.336 80.2526 168.787 80.2526 169.3C80.2526 169.833 80.1567 170.313 79.9651 170.74C79.7734 171.167 79.4992 171.502 79.1426 171.745C78.7859 171.988 78.3692 172.11 77.8926 172.11ZM75.3426 172V164.88H76.2626V167.91H76.1626V170.55H76.1426V172H75.3426ZM77.8026 171.32C78.1142 171.32 78.3851 171.236 78.6151 171.067C78.8467 170.897 79.0242 170.66 79.1476 170.355C79.2709 170.05 79.3326 169.698 79.3326 169.3C79.3326 168.912 79.2717 168.585 79.1501 168.32C79.0284 168.053 78.8526 167.853 78.6226 167.72C78.3942 167.587 78.1209 167.52 77.8026 167.52C77.4942 167.52 77.2201 167.59 76.9801 167.73C76.7401 167.868 76.5517 168.076 76.4151 168.352C76.2801 168.629 76.2126 168.965 76.2126 169.36C76.2126 169.755 76.2801 170.101 76.4151 170.397C76.5517 170.694 76.7401 170.922 76.9801 171.082C77.2217 171.241 77.4959 171.32 77.8026 171.32ZM85.4635 172C85.2635 172 85.0969 171.967 84.9635 171.9C84.8302 171.832 84.7302 171.731 84.6635 171.597C84.5969 171.462 84.5635 171.297 84.5635 171.1L84.4235 171.02V169.17V168.88V168.26C84.4235 168.078 84.3819 167.929 84.2985 167.812C84.2169 167.694 84.0902 167.606 83.9185 167.547C83.7485 167.489 83.5302 167.46 83.2635 167.46C83.0102 167.46 82.8019 167.489 82.6385 167.547C82.4752 167.606 82.3485 167.702 82.2585 167.837C82.1702 167.971 82.1152 168.152 82.0935 168.38H81.1835C81.2119 168.003 81.311 167.691 81.481 167.442C81.6527 167.192 81.8927 167.007 82.201 166.885C82.511 166.762 82.8885 166.7 83.3335 166.7C83.7652 166.7 84.131 166.76 84.431 166.88C84.731 166.998 84.9594 167.18 85.116 167.425C85.2744 167.67 85.3535 167.978 85.3535 168.35V170.87C85.3535 170.985 85.3677 171.075 85.396 171.14C85.4244 171.203 85.4702 171.249 85.5335 171.277C85.5985 171.306 85.6885 171.32 85.8035 171.32C85.8285 171.32 85.8535 171.32 85.8785 171.32C85.9035 171.32 85.9285 171.32 85.9535 171.32V172C85.8719 172 85.7902 172 85.7085 172C85.6269 172 85.5452 172 85.4635 172ZM82.7035 172.13C82.3535 172.13 82.0485 172.071 81.7885 171.952C81.5285 171.834 81.3277 171.662 81.186 171.437C81.0444 171.211 80.9735 170.942 80.9735 170.63C80.9735 170.34 81.0344 170.084 81.156 169.862C81.2794 169.641 81.471 169.458 81.731 169.315C81.9927 169.17 82.3269 169.072 82.7335 169.02L84.0535 168.85C84.1385 168.838 84.2077 168.817 84.261 168.787C84.316 168.756 84.3569 168.713 84.3835 168.66C84.4102 168.607 84.4235 168.54 84.4235 168.46L84.7935 168.99C84.7935 169.087 84.781 169.168 84.756 169.235C84.731 169.302 84.6919 169.354 84.6385 169.392C84.5852 169.431 84.5169 169.457 84.4335 169.47L82.8835 169.7C82.6485 169.735 82.4569 169.793 82.3085 169.875C82.1619 169.955 82.0544 170.055 81.986 170.175C81.9177 170.293 81.8835 170.432 81.8835 170.59C81.8835 170.763 81.9235 170.912 82.0035 171.037C82.0852 171.162 82.2002 171.257 82.3485 171.322C82.4985 171.387 82.6735 171.42 82.8735 171.42C83.1452 171.42 83.4002 171.363 83.6385 171.25C83.8769 171.137 84.0669 170.986 84.2085 170.797C84.3519 170.609 84.4235 170.407 84.4235 170.19H84.7135V170.95C84.6319 171.168 84.4977 171.367 84.311 171.547C84.1244 171.726 83.8935 171.867 83.6185 171.972C83.3435 172.078 83.0385 172.13 82.7035 172.13ZM88.7466 172.13C88.2633 172.13 87.8425 172.027 87.4841 171.822C87.1258 171.617 86.8483 171.315 86.6516 170.915C86.455 170.515 86.3566 170.03 86.3566 169.46C86.3566 168.887 86.4558 168.394 86.6541 167.982C86.8525 167.569 87.135 167.254 87.5016 167.037C87.8683 166.819 88.3 166.71 88.7966 166.71C89.1933 166.71 89.5441 166.78 89.8491 166.92C90.1558 167.058 90.405 167.264 90.5966 167.537C90.79 167.809 90.9158 168.14 90.9741 168.53H90.1116C90.0633 168.295 89.9825 168.1 89.8691 167.945C89.7558 167.79 89.61 167.674 89.4316 167.597C89.255 167.519 89.0466 167.48 88.8066 167.48C88.465 167.48 88.18 167.557 87.9516 167.71C87.725 167.862 87.5558 168.082 87.4441 168.37C87.3325 168.658 87.2766 169.008 87.2766 169.42C87.2766 169.827 87.335 170.175 87.4516 170.465C87.57 170.755 87.7425 170.977 87.9691 171.13C88.1975 171.283 88.4733 171.36 88.7966 171.36C89.0466 171.36 89.2616 171.315 89.4416 171.225C89.6216 171.133 89.7666 171.002 89.8766 170.83C89.9883 170.658 90.0675 170.448 90.1141 170.2H90.9716C90.9133 170.607 90.7908 170.954 90.6041 171.242C90.4175 171.529 90.1683 171.749 89.8566 171.902C89.545 172.054 89.175 172.13 88.7466 172.13ZM92.433 170.36V169.52L93.573 168.34L95.123 166.84H96.283L93.973 168.97L93.813 169.11L92.433 170.36ZM91.923 172V164.88H92.843V167.88L92.793 169.33L92.843 169.6V172H91.923ZM95.353 172L94.193 170.23L93.523 169.1V168.62H94.143L96.433 172H95.353ZM101.163 172L99.1531 164.88H100.133L101.313 169.3C101.383 169.6 101.454 169.91 101.526 170.23C101.599 170.55 101.665 170.85 101.723 171.13H101.653C101.728 170.825 101.806 170.512 101.886 170.19C101.966 169.868 102.041 169.572 102.113 169.3L103.313 164.88H104.443L105.653 169.3C105.725 169.602 105.796 169.907 105.866 170.215C105.937 170.523 106.006 170.828 106.073 171.13H105.993C106.05 170.87 106.119 170.573 106.201 170.24C106.282 169.907 106.36 169.593 106.433 169.3L107.653 164.88H108.603L106.593 172H105.493L104.243 167.43C104.158 167.082 104.069 166.722 103.976 166.35C103.884 165.977 103.793 165.613 103.703 165.26L103.993 165.22C103.91 165.588 103.821 165.976 103.728 166.382C103.636 166.787 103.555 167.137 103.483 167.43L102.263 172H101.163ZM109.304 172V166.84H110.224V172H109.304ZM109.304 165.87V164.88H110.224V165.87H109.304ZM111.524 172V166.84H112.384V167.84H112.444V172H111.524ZM114.944 168.6C114.944 168.362 114.906 168.162 114.831 168C114.756 167.838 114.642 167.717 114.489 167.635C114.337 167.552 114.145 167.51 113.914 167.51C113.655 167.51 113.415 167.562 113.194 167.667C112.974 167.772 112.794 167.946 112.654 168.187C112.514 168.429 112.444 168.743 112.444 169.13H112.134V167.75H112.284C112.394 167.53 112.538 167.342 112.716 167.187C112.896 167.032 113.105 166.914 113.341 166.832C113.578 166.751 113.835 166.71 114.114 166.71C114.474 166.71 114.785 166.777 115.046 166.912C115.31 167.046 115.511 167.241 115.651 167.497C115.793 167.752 115.864 168.06 115.864 168.42V172H114.944V168.6ZM119.607 172V164.88H122.907C123.355 164.88 123.742 164.957 124.069 165.112C124.397 165.266 124.649 165.484 124.824 165.767C124.999 166.051 125.087 166.382 125.087 166.76C125.087 167.112 125.014 167.424 124.869 167.697C124.724 167.969 124.525 168.183 124.272 168.34C124.018 168.497 123.733 168.583 123.417 168.6V168.5C123.697 168.5 123.942 168.547 124.154 168.642C124.367 168.736 124.538 168.875 124.667 169.06C124.797 169.243 124.877 169.467 124.907 169.73L125.057 171.04C125.07 171.16 125.082 171.274 125.094 171.382C125.107 171.489 125.12 171.593 125.132 171.695C125.143 171.795 125.156 171.897 125.169 172H124.229C124.216 171.888 124.202 171.768 124.187 171.64C124.172 171.51 124.157 171.378 124.144 171.245C124.141 171.218 124.137 171.192 124.134 171.167C124.131 171.141 124.128 171.115 124.127 171.09L124.017 170.1C123.985 169.817 123.922 169.59 123.827 169.42C123.732 169.25 123.596 169.126 123.419 169.047C123.242 168.969 123.015 168.93 122.737 168.93H120.087V168.12H122.587C122.91 168.12 123.187 168.071 123.419 167.972C123.651 167.872 123.828 167.727 123.952 167.537C124.075 167.347 124.137 167.118 124.137 166.85C124.137 166.6 124.083 166.389 123.977 166.217C123.87 166.044 123.712 165.913 123.504 165.825C123.297 165.735 123.045 165.69 122.747 165.69H120.087L120.537 165.32V172H119.607ZM130.625 172C130.425 172 130.258 171.967 130.125 171.9C129.992 171.832 129.892 171.731 129.825 171.597C129.758 171.462 129.725 171.297 129.725 171.1L129.585 171.02V169.17V168.88V168.26C129.585 168.078 129.543 167.929 129.46 167.812C129.378 167.694 129.252 167.606 129.08 167.547C128.91 167.489 128.692 167.46 128.425 167.46C128.172 167.46 127.963 167.489 127.8 167.547C127.637 167.606 127.51 167.702 127.42 167.837C127.332 167.971 127.277 168.152 127.255 168.38H126.345C126.373 168.003 126.472 167.691 126.642 167.442C126.814 167.192 127.054 167.007 127.362 166.885C127.672 166.762 128.05 166.7 128.495 166.7C128.927 166.7 129.292 166.76 129.592 166.88C129.892 166.998 130.121 167.18 130.277 167.425C130.436 167.67 130.515 167.978 130.515 168.35V170.87C130.515 170.985 130.529 171.075 130.557 171.14C130.586 171.203 130.632 171.249 130.695 171.277C130.76 171.306 130.85 171.32 130.965 171.32C130.99 171.32 131.015 171.32 131.04 171.32C131.065 171.32 131.09 171.32 131.115 171.32V172C131.033 172 130.952 172 130.87 172C130.788 172 130.707 172 130.625 172ZM127.865 172.13C127.515 172.13 127.21 172.071 126.95 171.952C126.69 171.834 126.489 171.662 126.347 171.437C126.206 171.211 126.135 170.942 126.135 170.63C126.135 170.34 126.196 170.084 126.317 169.862C126.441 169.641 126.632 169.458 126.892 169.315C127.154 169.17 127.488 169.072 127.895 169.02L129.215 168.85C129.3 168.838 129.369 168.817 129.422 168.787C129.477 168.756 129.518 168.713 129.545 168.66C129.572 168.607 129.585 168.54 129.585 168.46L129.955 168.99C129.955 169.087 129.942 169.168 129.917 169.235C129.892 169.302 129.853 169.354 129.8 169.392C129.747 169.431 129.678 169.457 129.595 169.47L128.045 169.7C127.81 169.735 127.618 169.793 127.47 169.875C127.323 169.955 127.216 170.055 127.147 170.175C127.079 170.293 127.045 170.432 127.045 170.59C127.045 170.763 127.085 170.912 127.165 171.037C127.247 171.162 127.362 171.257 127.51 171.322C127.66 171.387 127.835 171.42 128.035 171.42C128.307 171.42 128.562 171.363 128.8 171.25C129.038 171.137 129.228 170.986 129.37 170.797C129.513 170.609 129.585 170.407 129.585 170.19H129.875V170.95C129.793 171.168 129.659 171.367 129.472 171.547C129.286 171.726 129.055 171.867 128.78 171.972C128.505 172.078 128.2 172.13 127.865 172.13ZM133.208 172C132.94 172 132.721 171.96 132.553 171.88C132.385 171.798 132.26 171.673 132.178 171.505C132.098 171.337 132.058 171.118 132.058 170.85V167.95V167.17V166.45V165.26H132.978V166.45V167.17V167.95V170.73C132.978 170.858 132.993 170.958 133.023 171.03C133.055 171.102 133.106 171.153 133.178 171.185C133.25 171.215 133.35 171.23 133.478 171.23C133.571 171.23 133.665 171.23 133.758 171.23C133.853 171.23 133.948 171.23 134.043 171.23H134.148V172C134.131 172 134.115 172 134.1 172C134.085 172 134.07 172 134.053 172C133.913 172 133.772 172 133.63 172C133.489 172 133.348 172 133.208 172ZM131.218 167.55V166.84L132.518 166.89L134.158 166.84V167.55L132.518 167.5L131.218 167.55ZM137.086 172.12C136.583 172.12 136.146 172.005 135.776 171.775C135.408 171.545 135.125 171.225 134.928 170.815C134.733 170.403 134.636 169.932 134.636 169.4C134.636 168.872 134.732 168.406 134.923 168.002C135.117 167.597 135.396 167.282 135.761 167.057C136.128 166.832 136.563 166.72 137.066 166.72C137.548 166.72 137.965 166.823 138.318 167.03C138.673 167.237 138.947 167.534 139.138 167.922C139.33 168.309 139.426 168.768 139.426 169.3C139.426 169.357 139.426 169.413 139.426 169.47C139.426 169.527 139.426 169.583 139.426 169.64H135.396V168.98H138.966L138.586 169.42C138.586 169.003 138.527 168.649 138.408 168.357C138.29 168.066 138.118 167.845 137.893 167.695C137.668 167.545 137.396 167.47 137.076 167.47C136.774 167.47 136.509 167.537 136.281 167.67C136.053 167.803 135.874 168.002 135.746 168.267C135.619 168.532 135.556 168.857 135.556 169.24V169.55C135.556 169.95 135.619 170.286 135.746 170.557C135.873 170.829 136.053 171.032 136.286 171.167C136.519 171.302 136.796 171.37 137.116 171.37C137.353 171.37 137.561 171.334 137.741 171.262C137.923 171.189 138.077 171.082 138.203 170.942C138.33 170.802 138.433 170.631 138.511 170.427L139.356 170.527C139.246 170.864 139.083 171.152 138.866 171.39C138.651 171.628 138.392 171.81 138.088 171.935C137.787 172.058 137.453 172.12 137.086 172.12Z" fill="#D3DCE3"/>
<path opacity="0.7" d="M145.917 105.108C146.134 105.153 146.273 105.365 146.228 105.581L145.495 109.106C145.45 109.322 145.238 109.461 145.022 109.416C144.805 109.371 144.667 109.159 144.711 108.943L145.363 105.81L142.23 105.159C142.014 105.114 141.875 104.902 141.92 104.686C141.965 104.469 142.176 104.331 142.393 104.376L145.917 105.108ZM127.067 114.406L127.144 114.013L127.067 114.406ZM134.469 112.954L134.25 112.619L134.469 112.954ZM97.5021 110.186L97.6459 110.56L97.5021 110.186ZM103.014 109.704L103.091 109.312L103.014 109.704ZM67.9616 122.493L68.245 122.775L67.9616 122.493ZM71.4523 120.218L71.5961 120.592L71.4523 120.218ZM29.108 151.742L29.288 151.384L29.108 151.742ZM40.6905 149.868L40.9739 150.15L40.6905 149.868ZM-0.164062 137L0.0158537 136.643L0.930607 137.103L0.750691 137.461L0.570775 137.818L-0.343979 137.357L-0.164062 137ZM2.5802 138.382L2.76011 138.025L4.58962 138.946L4.4097 139.303L4.22979 139.661L2.40028 138.739L2.5802 138.382ZM6.23921 140.225L6.41913 139.867L8.24863 140.789L8.06872 141.146L7.8888 141.503L6.05929 140.582L6.23921 140.225ZM9.89822 142.067L10.0781 141.71L11.9076 142.632L11.7277 142.989L11.5478 143.346L9.71831 142.425L9.89822 142.067ZM13.5572 143.91L13.7372 143.553L15.5667 144.474L15.3867 144.832L15.2068 145.189L13.3773 144.267L13.5572 143.91ZM17.2163 145.753L17.3962 145.396L19.2257 146.317L19.0458 146.674L18.8658 147.031L17.0363 146.11L17.2163 145.753ZM20.8753 147.596L21.0552 147.238L22.8847 148.16L22.7048 148.517L22.5249 148.874L20.6953 147.953L20.8753 147.596ZM24.5343 149.438L24.7142 149.081L26.5437 150.002L26.3638 150.36L26.1839 150.717L24.3544 149.796L24.5343 149.438ZM28.1933 151.281L28.3732 150.924L29.288 151.384L29.108 151.742L28.9281 152.099L28.0134 151.638L28.1933 151.281ZM29.108 151.742L29.288 151.384C29.5893 151.536 29.8958 151.671 30.2061 151.788L30.0642 152.162L29.9224 152.537C29.5863 152.409 29.2544 152.263 28.9281 152.099L29.108 151.742ZM32.0811 152.694L32.1421 152.299C32.8067 152.401 33.4771 152.433 34.1422 152.395L34.1647 152.795L34.1871 153.194C33.4667 153.235 32.7404 153.2 32.0202 153.089L32.0811 152.694ZM36.2238 152.462L36.1192 152.076C36.7622 151.901 37.3884 151.66 37.9869 151.353L38.1693 151.709L38.3518 152.065C37.7034 152.398 37.0249 152.659 36.3285 152.848L36.2238 152.462ZM39.9157 150.569L39.6632 150.259C39.9206 150.049 40.169 149.825 40.4071 149.586L40.6905 149.868L40.9739 150.15C40.7161 150.409 40.4471 150.652 40.1682 150.879L39.9157 150.569ZM40.6905 149.868L40.4071 149.586L41.1646 148.825L41.448 149.108L41.7314 149.39L40.9739 150.15L40.6905 149.868ZM42.9631 147.587L42.6797 147.304L44.1947 145.784L44.4781 146.066L44.7615 146.348L43.2464 147.869L42.9631 147.587ZM45.9932 144.545L45.7098 144.263L47.2249 142.742L47.5082 143.024L47.7916 143.306L46.2766 144.827L45.9932 144.545ZM49.0233 141.503L48.7399 141.221L50.255 139.7L50.5384 139.982L50.8218 140.265L49.3067 141.786L49.0233 141.503ZM52.0534 138.462L51.7701 138.179L53.2851 136.658L53.5685 136.941L53.8519 137.223L52.3368 138.744L52.0534 138.462ZM55.0836 135.42L54.8002 135.138L56.3152 133.617L56.5986 133.899L56.882 134.181L55.3669 135.702L55.0836 135.42ZM58.1137 132.378L57.8303 132.096L59.3454 130.575L59.6287 130.857L59.9121 131.14L58.3971 132.66L58.1137 132.378ZM61.1438 129.336L60.8604 129.054L62.3755 127.533L62.6589 127.816L62.9422 128.098L61.4272 129.619L61.1438 129.336ZM64.1739 126.295L63.8905 126.012L65.4056 124.492L65.689 124.774L65.9724 125.056L64.4573 126.577L64.1739 126.295ZM67.2041 123.253L66.9207 122.971L67.6782 122.21L67.9616 122.493L68.245 122.775L67.4874 123.535L67.2041 123.253ZM67.9616 122.493L67.6782 122.21C67.9355 121.952 68.2057 121.708 68.4874 121.479L68.7397 121.789L68.992 122.1C68.7319 122.311 68.4825 122.537 68.245 122.775L67.9616 122.493ZM70.4947 120.646L70.3127 120.29C70.636 120.125 70.9684 119.976 71.3086 119.845L71.4523 120.218L71.5961 120.592C71.282 120.713 70.9752 120.85 70.6768 121.002L70.4947 120.646ZM71.4523 120.218L71.3086 119.845L72.394 119.427L72.5377 119.8L72.6815 120.174L71.5961 120.592L71.4523 120.218ZM74.7086 118.964L74.5648 118.591L76.7356 117.755L76.8794 118.128L77.0231 118.502L74.8523 119.338L74.7086 118.964ZM79.0502 117.292L78.9064 116.919L81.0773 116.083L81.221 116.456L81.3648 116.83L79.1939 117.666L79.0502 117.292ZM83.3918 115.62L83.2481 115.247L85.4189 114.411L85.5626 114.784L85.7064 115.158L83.5356 115.994L83.3918 115.62ZM87.7335 113.948L87.5897 113.575L89.7605 112.739L89.9043 113.112L90.048 113.486L87.8772 114.322L87.7335 113.948ZM92.0751 112.276L91.9313 111.903L94.1022 111.067L94.2459 111.44L94.3897 111.814L92.2188 112.65L92.0751 112.276ZM96.4167 110.604L96.273 110.231L97.3584 109.813L97.5021 110.186L97.6459 110.56L96.5605 110.978L96.4167 110.604ZM97.5021 110.186L97.3584 109.813C97.8137 109.638 98.279 109.495 98.7509 109.386L98.8411 109.776L98.9312 110.166C98.4957 110.266 98.0662 110.398 97.6459 110.56L97.5021 110.186ZM101.624 109.532L101.646 109.133C102.129 109.158 102.612 109.218 103.091 109.312L103.014 109.704L102.938 110.097C102.496 110.01 102.05 109.955 101.603 109.932L101.624 109.532ZM103.014 109.704L103.091 109.312L104.093 109.507L104.017 109.9L103.94 110.293L102.938 110.097L103.014 109.704ZM106.021 110.292L106.098 109.899L108.102 110.291L108.025 110.684L107.949 111.076L105.944 110.684L106.021 110.292ZM110.03 111.075L110.106 110.683L112.111 111.075L112.034 111.467L111.957 111.86L109.953 111.468L110.03 111.075ZM114.038 111.859L114.115 111.466L116.119 111.858L116.043 112.251L115.966 112.643L113.962 112.252L114.038 111.859ZM118.047 112.643L118.124 112.25L120.128 112.642L120.051 113.034L119.975 113.427L117.97 113.035L118.047 112.643ZM122.056 113.426L122.133 113.034L124.137 113.425L124.06 113.818L123.984 114.211L121.979 113.819L122.056 113.426ZM126.065 114.21L126.141 113.817L127.144 114.013L127.067 114.406L126.99 114.798L125.988 114.602L126.065 114.21ZM127.067 114.406L127.144 114.013C127.449 114.073 127.755 114.117 128.062 114.147L128.023 114.545L127.985 114.943C127.652 114.911 127.32 114.863 126.99 114.798L127.067 114.406ZM129.954 114.544L129.915 114.146C130.531 114.086 131.14 113.967 131.734 113.79L131.848 114.173L131.963 114.556C131.32 114.748 130.66 114.878 129.992 114.943L129.954 114.544ZM133.636 113.444L133.45 113.09C133.723 112.947 133.99 112.79 134.25 112.619L134.469 112.954L134.688 113.288C134.407 113.473 134.118 113.643 133.822 113.798L133.636 113.444ZM134.469 112.954L134.25 112.619L135.197 111.998L135.416 112.333L135.635 112.667L134.688 113.288L134.469 112.954ZM137.311 111.09L137.091 110.756L138.986 109.514L139.205 109.848L139.424 110.183L137.53 111.425L137.311 111.09ZM141.1 108.606L140.88 108.271L142.775 107.029L142.994 107.363L143.214 107.698L141.319 108.94L141.1 108.606ZM144.889 106.121L144.669 105.787L145.617 105.166L145.836 105.5L146.055 105.834L145.108 106.456L144.889 106.121Z" fill="url(#paint3_linear_301_1085)"/>
<path opacity="0.5" d="M136.1 120.5C138.633 122.084 141.628 123 144.836 123C153.949 123 161.336 115.613 161.336 106.5C161.336 97.3873 153.949 90 144.836 90C140.72 90 136.956 91.5073 134.065 94C131.652 96.081 129.848 98.8489 128.957 102" stroke="#2330AA" stroke-width="0.8" stroke-dasharray="2.16 2.16"/>
</g>
<defs>
<linearGradient id="paint0_linear_301_1085" x1="0.335937" y1="62.5" x2="182.613" y2="62.5" gradientUnits="userSpaceOnUse">
<stop offset="0.249673" stop-color="#323232" stop-opacity="0.3"/>
<stop offset="0.268576" stop-color="#323232" stop-opacity="0"/>
<stop offset="0.29063" stop-color="#323232"/>
</linearGradient>
<linearGradient id="paint1_linear_301_1085" x1="0" y1="0.5" x2="182.277" y2="0.5" gradientUnits="userSpaceOnUse">
<stop offset="0.434524" stop-color="#323232"/>
<stop offset="0.483656" stop-color="#323232" stop-opacity="0.3"/>
<stop offset="0.526088" stop-color="#323232" stop-opacity="0"/>
</linearGradient>
<linearGradient id="paint2_linear_301_1085" x1="0.335937" y1="142.5" x2="182.613" y2="142.5" gradientUnits="userSpaceOnUse">
<stop offset="0.25082" stop-color="#323232"/>
<stop offset="0.271767" stop-color="#323232" stop-opacity="0"/>
<stop offset="0.289222" stop-color="#323232" stop-opacity="0.3"/>
<stop offset="0.633403" stop-color="#323232" stop-opacity="0"/>
<stop offset="0.717469" stop-color="#323232" stop-opacity="0.3"/>
<stop offset="0.757035" stop-color="#323232"/>
</linearGradient>
<linearGradient id="paint3_linear_301_1085" x1="146.335" y1="109" x2="26.6851" y2="69.2356" gradientUnits="userSpaceOnUse">
<stop offset="0.329896" stop-color="#3448FF"/>
<stop offset="1" stop-color="#97A3B6" stop-opacity="0"/>
</linearGradient>
<clipPath id="clip0_301_1085">
<path d="M0 14C0 6.26801 6.26801 0 14 0H167.832C175.564 0 181.832 6.26801 181.832 14V237C181.832 244.732 175.564 251 167.832 251H14C6.26801 251 0 244.732 0 237V14Z" fill="white"/>
</clipPath>
</defs>
</svg>
